<svg version="1.1" id="Layer_1" xmlns="http://www.w3.org/2000/svg" x="0" y="0" viewBox="0 0 100 100" xml:space="preserve"><style>.st1{fill:#171d2f}</style><path d="M16.16 71.31H43.4L40.37 82v1.32c8.79-.02 16.67-.04 19.18-.04 0-.72.01-1.37.02-1.95l-2.84-10.02h27.24c3.01 0 5.46-2.46 5.46-5.49V21.57c0-3.03-2.45-5.5-5.46-5.5H16.16c-3.01 0-5.46 2.47-5.46 5.5v44.24c0 3.04 2.45 5.5 5.46 5.5z" fill="transparent"/><path class="st1" d="M84.8 15.26H15.2c-3.09 0-5.6 2.52-5.6 5.61v45.14c0 3.09 2.51 5.6 5.6 5.6h27.96l-3.24 11.37H28.37c-.5 0-.9.4-.9.9 0 .49.4.9.9.9h43.26c.5 0 .9-.41.9-.9 0-.5-.4-.9-.9-.9H60.08l-3.24-11.37h5.19c6.32 0 12.65.04 18.98.01 2.33-.01 5.15.36 7.14-1.12a5.631 5.631 0 002.26-4.49V20.87c-.01-3.09-2.52-5.61-5.61-5.61zM58.21 82.98H41.79l3.24-11.37h9.94l3.24 11.37zM88.6 66.01c0 2.09-1.71 3.8-3.8 3.8H15.2c-2.09 0-3.8-1.71-3.8-3.8V20.87c0-2.1 1.71-3.81 3.8-3.81h69.6c2.09 0 3.8 1.71 3.8 3.81v45.14z"/><path class="st1" d="M68.55 47.76h-6.08c.02-.21.02-.43.02-.65 0-2.2-.42-4.35-1.2-6.29l4.56-3.63a.903.903 0 00-1.13-1.41l-4.21 3.36c-.75-1.39-1.69-2.64-2.81-3.67.1-.47.15-.97.15-1.5 0-4.33-3.52-7.85-7.85-7.85s-7.85 3.52-7.85 7.85c0 .53.05 1.03.15 1.5-1.28 1.18-2.33 2.64-3.12 4.28l-4.5-3.25c-.4-.29-.97-.2-1.26.2-.29.41-.2.97.21 1.26l4.84 3.5c-.62 1.77-.96 3.69-.96 5.65 0 .22 0 .44.02.65h-6.08c-.49 0-.9.4-.9.9 0 .49.41.9.9.9h6.23c.31 2.23 1.05 4.3 2.11 6.07l-5.64 4.49c-.38.31-.45.88-.14 1.27.18.22.44.34.71.34.19 0 .39-.07.56-.2l5.53-4.4c2.28 2.94 5.56 4.79 9.19 4.79 3.83 0 7.26-2.05 9.55-5.27l5.77 4.16a.91.91 0 001.26-.2.9.9 0 00-.21-1.26l-5.87-4.23a16.18 16.18 0 001.82-5.56h6.23c.49 0 .9-.41.9-.9 0-.5-.41-.9-.9-.9zm-24.6-13.79c0-3.33 2.71-6.05 6.05-6.05s6.05 2.72 6.05 6.05v.19c-.22-.15-.45-.29-.68-.42-1.77-1-3.83-1.46-5.86-1.38a10.909 10.909 0 00-4.28 1.06c-.17.08-1.28.56-1.28.74v-.19zM50 60.12c-5.89 0-10.69-5.84-10.69-13.01 0-4.22 1.71-8.2 4.57-10.65 1.8-1.54 3.91-2.36 6.12-2.36 1.38 0 2.72.32 3.98.94.5.24.98.54 1.45.88.15.11.3.22.45.35.08.07.16.13.24.2 2.86 2.44 4.57 6.42 4.57 10.64 0 7.17-4.8 13.01-10.69 13.01z"/></svg>
