<?xml version="1.0" encoding="utf-8"?>
<!-- Generator: Adobe Illustrator 23.0.2, SVG Export Plug-In . SVG Version: 6.00 Build 0)  -->
<svg version="1.1" id="Layer_1" xmlns="http://www.w3.org/2000/svg" xmlns:xlink="http://www.w3.org/1999/xlink" x="0px" y="0px"
	 viewBox="0 0 100 100" style="enable-background:new 0 0 100 100;" xml:space="preserve">
<style type="text/css">
	.st0{fill:#C4B8DB;}
	.st1{fill:#171D2F;}
</style>
<title>bug</title>
<g>
	<g>
		<path class="st0" d="M16.16,71.31H43.4L40.37,82c0,0.44,0,0.88,0,1.32c8.79-0.02,16.67-0.04,19.18-0.04
			c0-0.72,0.01-1.37,0.02-1.95l-2.84-10.02h27.24c3.01,0,5.46-2.46,5.46-5.49V21.57c0-3.03-2.45-5.5-5.46-5.5H16.16
			c-3.01,0-5.46,2.47-5.46,5.5v44.24C10.7,68.85,13.15,71.31,16.16,71.31z"/>
	</g>
	<g>
		<path class="st1" d="M84.8,15.26H15.2c-3.09,0-5.6,2.52-5.6,5.61v45.14c0,3.09,2.51,5.6,5.6,5.6h27.96l-3.24,11.37H28.37
			c-0.5,0-0.9,0.4-0.9,0.9c0,0.49,0.4,0.9,0.9,0.9h43.26c0.5,0,0.9-0.41,0.9-0.9c0-0.5-0.4-0.9-0.9-0.9H60.08
			c0,0-3.24-11.37-3.24-11.37c1.73,0,3.46,0,5.19,0c6.32,0,12.65,0.04,18.98,0.01c2.33-0.01,5.15,0.36,7.14-1.12
			c1.41-1.05,2.26-2.73,2.26-4.49V20.87C90.4,17.78,87.89,15.26,84.8,15.26z M58.21,82.98H41.79l3.24-11.37h9.94L58.21,82.98z
			 M88.6,66.01c0,2.09-1.71,3.8-3.8,3.8H15.2c-2.09,0-3.8-1.71-3.8-3.8V20.87c0-2.1,1.71-3.81,3.8-3.81h69.6
			c2.09,0,3.8,1.71,3.8,3.81V66.01z"/>
	</g>
</g>
<path class="st1" d="M68.55,47.76h-6.08c0.02-0.21,0.02-0.43,0.02-0.65c0-2.2-0.42-4.35-1.2-6.29l4.56-3.63
	c0.38-0.31,0.45-0.88,0.14-1.26c-0.31-0.39-0.87-0.46-1.27-0.15l-4.21,3.36c-0.75-1.39-1.69-2.64-2.81-3.67
	c0.1-0.47,0.15-0.97,0.15-1.5c0-4.33-3.52-7.85-7.85-7.85s-7.85,3.52-7.85,7.85c0,0.53,0.05,1.03,0.15,1.5
	c-1.28,1.18-2.33,2.64-3.12,4.28l-4.5-3.25c-0.4-0.29-0.97-0.2-1.26,0.2c-0.29,0.41-0.2,0.97,0.21,1.26l4.84,3.5
	c-0.62,1.77-0.96,3.69-0.96,5.65c0,0.22,0,0.44,0.02,0.65h-6.08c-0.49,0-0.9,0.4-0.9,0.9c0,0.49,0.41,0.9,0.9,0.9h6.23
	c0.31,2.23,1.05,4.3,2.11,6.07l-5.64,4.49c-0.38,0.31-0.45,0.88-0.14,1.27c0.18,0.22,0.44,0.34,0.71,0.34c0.19,0,0.39-0.07,0.56-0.2
	l5.53-4.4c2.28,2.94,5.56,4.79,9.19,4.79c3.83,0,7.26-2.05,9.55-5.27l5.77,4.16c0.16,0.12,0.34,0.17,0.53,0.17
	c0.28,0,0.55-0.13,0.73-0.37c0.29-0.4,0.2-0.97-0.21-1.26l-5.87-4.23c0.91-1.66,1.54-3.54,1.82-5.56h6.23c0.49,0,0.9-0.41,0.9-0.9
	C69.45,48.16,69.04,47.76,68.55,47.76z M43.95,33.97c0-3.33,2.71-6.05,6.05-6.05s6.05,2.72,6.05,6.05v0.19
	c-0.22-0.15-0.45-0.29-0.68-0.42c-1.77-1-3.83-1.46-5.86-1.38c-0.96,0.04-1.91,0.2-2.83,0.49c-0.5,0.15-0.98,0.35-1.45,0.57
	c-0.17,0.08-1.28,0.56-1.28,0.74C43.95,34.16,43.95,33.97,43.95,33.97z M50,60.12c-5.89,0-10.69-5.84-10.69-13.01
	c0-4.22,1.71-8.2,4.57-10.65c1.8-1.54,3.91-2.36,6.12-2.36c1.38,0,2.72,0.32,3.98,0.94c0.5,0.24,0.98,0.54,1.45,0.88
	c0.15,0.11,0.3,0.22,0.45,0.35c0.08,0.07,0.16,0.13,0.24,0.2c2.86,2.44,4.57,6.42,4.57,10.64C60.69,54.28,55.89,60.12,50,60.12z"/>
</svg>
