<svg data-name="Layer 1" xmlns="http://www.w3.org/2000/svg" viewBox="0 0 100 100"><path d="M59.4 82.2c.2-.5-1.6-1-1.3-1.4L56 70.4h28.5c3 0 4.5-2.5 4.5-5.4V21.6c0-2.9-1.5-5.4-4.5-5.4H16.1a5.5 5.5 0 0 0-5.5 5.4V65a5.5 5.5 0 0 0 5.5 5.4h28.5L42 80c.4.6-.7 2.3-.3 3h17.5c.1-.3.1-.5.2-.8z" fill="#c4b8db"/><path d="M84.8 15.2H15.2a5.7 5.7 0 0 0-5.6 5.6V66a5.6 5.6 0 0 0 5.6 5.6h28L39.9 83H28.4a.9.9 0 0 0-.9.9 1 1 0 0 0 .9.9h43.2a1 1 0 0 0 .9-.9.9.9 0 0 0-.9-.9H60.1l-3.3-11.4h28a5.6 5.6 0 0 0 5.6-5.6V20.8a5.7 5.7 0 0 0-5.6-5.6zM58.2 83H41.8L45 71.6h10zm30.4-17a3.8 3.8 0 0 1-3.8 3.8H15.2a3.8 3.8 0 0 1-3.8-3.8V20.8a3.9 3.9 0 0 1 3.8-3.8h69.6a3.9 3.9 0 0 1 3.8 3.8z" fill="#171d2f"/><path d="M68.6 47.7h-6.1v-.6a16.4 16.4 0 0 0-1.2-6.3l4.6-3.6a1 1 0 0 0 .1-1.3.9.9 0 0 0-1.3-.1l-4.2 3.3a12.5 12.5 0 0 0-2.8-3.6 7.7 7.7 0 0 0 .2-1.5 7.9 7.9 0 0 0-15.8 0 7.7 7.7 0 0 0 .2 1.5 13.1 13.1 0 0 0-3.1 4.2l-4.5-3.2a.9.9 0 0 0-1.3.2.8.8 0 0 0 .2 1.2l4.9 3.5a18 18 0 0 0-1 5.7v.6h-6.1a.9.9 0 0 0 0 1.8h6.3a15.3 15.3 0 0 0 2.1 6.1l-5.7 4.5a1 1 0 0 0-.1 1.3.9.9 0 0 0 .7.3l.6-.2 5.5-4.4a11.9 11.9 0 0 0 9.2 4.8 12 12 0 0 0 9.6-5.3l5.7 4.2.6.2a1.3 1.3 0 0 0 .7-.4.9.9 0 0 0-.2-1.3l-5.9-4.2a16.7 16.7 0 0 0 1.8-5.6h6.3a.9.9 0 0 0 0-1.8zM43.9 34a6.1 6.1 0 0 1 12.2 0l-.7-.4-.8-.4-1.5-.5-.7-.2h-4.8l-.7.2-1.5.5-.8.4-.7.4zM50 60.1c-5.9 0-10.7-5.8-10.7-13a14.2 14.2 0 0 1 4.6-10.7 9.5 9.5 0 0 1 6.1-2.3 9.3 9.3 0 0 1 4 .9l1.4.9.5.3.2.3a13.8 13.8 0 0 1 4.6 10.6c0 7.2-4.8 13-10.7 13zm5.4-26.4l.7.4zM54 35l1.4.9zm-10.1-.9l.7-.4z" fill="#171d2f"/></svg>