<svg data-name="Layer 1" xmlns="http://www.w3.org/2000/svg" viewBox="0 0 100 100"><path d="M93.2 39.3a2.8 2.8 0 0 0 .3-1.3 3.3 3.3 0 0 0-1.8-2.9L51.9 19.6a4.2 4.2 0 0 0-3.8-.1L8.3 35.1A3.3 3.3 0 0 0 6.5 38a3.1 3.1 0 0 0 1.8 2.8.1.1 0 0 0 .1.1l16.2 5.4v24.9a.6.6 0 0 0 .1.4c1.3 4 16.8 5.1 25.2 5.1s23.9-1.1 25.3-5.1V46.3l14-4.7a20.2 20.2 0 0 1 4-2.3z" fill="transparent"/><path d="M92.6 35.2L52 19.6a4.5 4.5 0 0 0-3.9-.1L7.3 35.2a3.2 3.2 0 0 0 0 5.8h.1L24 46.5v25c0 .2 0 .3.1.4 1.5 4.1 17.3 5.2 25.9 5.2s24.4-1.1 25.8-5.2c.1-.1.1-.2.1-.4v-25l16.2-5.3V80a.9.9 0 1 0 1.9 0V39.8a3.4 3.4 0 0 0 .5-1.7 3.3 3.3 0 0 0-1.9-2.9zM50 75.3c-15.3 0-23.8-2.5-24.1-3.9s8.8-3.8 24.1-3.8 23.8 2.5 24.1 3.8-8.8 3.9-24.1 3.9zm24.2-6.1c-4.6-2.7-17-3.4-24.2-3.4s-19.6.7-24.2 3.4V47.1l22.3 7.2a3.9 3.9 0 0 0 3.8 0l22.3-7.2zm17.7-29.9L51.3 52.6h-.1a2.6 2.6 0 0 1-2.4 0h-.1L8.1 39.3a1.3 1.3 0 0 1-.8-1.2 1.2 1.2 0 0 1 .8-1.2l40.7-15.7a2.5 2.5 0 0 1 2.4 0l40.7 15.6a1.4 1.4 0 0 1 .8 1.3 1.3 1.3 0 0 1-.8 1.2z" fill="#171d2f"/></svg>
