<svg viewBox="0 0 100 100" xmlns="http://www.w3.org/2000/svg"><path d="m92.88 34.59-40.63-15.59a5.07 5.07 0 0 0 -4.4-.05l-40.85 15.68a3.88 3.88 0 0 0 0 6.94 1.33 1.33 0 0 0 .21.09l16.14 5.28v23.78.79a1.39 1.39 0 0 0 .14.62c1.86 5.42 23.92 5.58 26.43 5.58s24.57-.16 26.4-5.5a1.6 1.6 0 0 0 .17-.7v-24.57l14.9-4.88v37.94a1.55 1.55 0 0 0 3.1 0v-40a3.88 3.88 0 0 0 -1.73-5.42zm-42.88 40.02c-14.17 0-22-2.16-23.31-3.18 1.4-1.07 9.18-3.21 23.31-3.21s22 2.16 23.3 3.18c-1.39 1.07-9.18 3.21-23.3 3.21zm23.51-6.46c-5.37-2.38-17.09-3-23.51-3s-18.14.65-23.51 3v-20.15l21.33 7a5.12 5.12 0 0 0 4.28 0l21.41-7zm18.14-29.4-40.65 13.31-.13.06a2 2 0 0 1 -1.73 0l-.22-.12-40.57-13.25a.75.75 0 0 1 -.35-.65.74.74 0 0 1 .3-.63l40.7-15.64.23-.09a2.14 2.14 0 0 1 1.79.1l40.56 15.56a.76.76 0 0 1 .43.7.75.75 0 0 1 -.36.65z" fill="#430632"/></svg>