<svg id="Layer_1" data-name="Layer 1" xmlns="http://www.w3.org/2000/svg" viewBox="0 0 100 100"><title>cap</title><path d="M92.88,34.59,52.25,19a5.07,5.07,0,0,0-4.4-.05L7,34.63a3.88,3.88,0,0,0,0,6.94,1.33,1.33,0,0,0,.21.09l16.14,5.28V70.72l0,.79a1.39,1.39,0,0,0,.14.62c1.86,5.42,23.92,5.58,26.43,5.58s24.57-.16,26.4-5.5a1.6,1.6,0,0,0,.17-.7l0-24.57,14.9-4.88V80a1.55,1.55,0,0,0,3.1,0V40a3.88,3.88,0,0,0-1.73-5.42ZM50,74.61c-14.17,0-22-2.16-23.31-3.18,1.4-1.07,9.18-3.21,23.31-3.21s22,2.16,23.3,3.18C71.91,72.47,64.12,74.61,50,74.61Zm23.51-6.46c-5.37-2.38-17.09-3-23.51-3s-18.14.65-23.51,3V48l21.33,7a5.12,5.12,0,0,0,4.28,0l21.41-7Zm18.14-29.4L51,52.06l-.13.06a2,2,0,0,1-1.73,0L48.92,52,8.35,38.75A.75.75,0,0,1,8,38.1a.74.74,0,0,1,.3-.63L49,21.83l.23-.09,0,0a2.14,2.14,0,0,1,1.79.1L91.58,37.4a.76.76,0,0,1,.43.7A.75.75,0,0,1,91.65,38.75Z" fill="#430632"/></svg>