<svg fill="none" height="677" width="533" xmlns="http://www.w3.org/2000/svg" xmlns:xlink="http://www.w3.org/1999/xlink"><radialGradient id="a" cx="110" cy="41" gradientUnits="userSpaceOnUse" r="41"><stop offset="0" stop-color="#c73b3d"/><stop offset=".319" stop-color="#c43a3d"/><stop offset=".523" stop-color="#bc353d"/><stop offset=".695" stop-color="#ad2d3d"/><stop offset=".848" stop-color="#98223c"/><stop offset=".989" stop-color="#7d133c"/><stop offset="1" stop-color="#7b123c"/></radialGradient><linearGradient id="b"><stop offset="0" stop-color="#e99c56"/><stop offset=".179" stop-color="#e59253"/><stop offset=".489" stop-color="#dc764c"/><stop offset=".888" stop-color="#cc4941"/><stop offset="1" stop-color="#c73b3d"/></linearGradient><linearGradient id="c" gradientUnits="userSpaceOnUse" x1="21.656" x2="65.2" xlink:href="#b" y1="343.535" y2="343.535"/><linearGradient id="d" gradientUnits="userSpaceOnUse" x1="21.656" x2="42.879" xlink:href="#b" y1="343.535" y2="343.535"/><linearGradient id="e" gradientUnits="userSpaceOnUse" x1="88.371" x2="65.2" xlink:href="#b" y1="552.2" y2="552.2"/><linearGradient id="f" gradientUnits="userSpaceOnUse" x1="136.159" x2="110.356" xlink:href="#b" y1="469.751" y2="469.751"/><linearGradient id="g" gradientUnits="userSpaceOnUse" x1="484.261" x2="476.565" xlink:href="#b" y1="422.699" y2="422.699"/><linearGradient id="h" gradientUnits="userSpaceOnUse" x1="430.39" x2="422.694" xlink:href="#b" y1="495.305" y2="495.305"/><linearGradient id="i" gradientUnits="userSpaceOnUse" x1="470.793" x2="463.097" xlink:href="#b" y1="582.432" y2="582.432"/><linearGradient id="j" gradientUnits="userSpaceOnUse" x1="484.261" x2="476.565" xlink:href="#b" y1="582.432" y2="582.432"/><linearGradient id="k" gradientUnits="userSpaceOnUse" x1="497.728" x2="490.033" xlink:href="#b" y1="582.432" y2="582.432"/><linearGradient id="l" gradientUnits="userSpaceOnUse" x1="263.2" x2="154.42" xlink:href="#b" y1="533.628" y2="533.628"/><linearGradient id="m" gradientUnits="userSpaceOnUse" x1="263.2" x2="233.687" xlink:href="#b" y1="533.628" y2="533.628"/><linearGradient id="n" gradientUnits="userSpaceOnUse" x1="181.688" x2="154.42" xlink:href="#b" y1="533.628" y2="533.628"/><linearGradient id="o" gradientUnits="userSpaceOnUse" x1="317.229" x2="208.449" xlink:href="#b" y1="498.943" y2="498.943"/><linearGradient id="p" gradientUnits="userSpaceOnUse" x1="317.228" x2="287.716" xlink:href="#b" y1="498.943" y2="498.943"/><linearGradient id="q" gradientUnits="userSpaceOnUse" x1="235.717" x2="208.449" xlink:href="#b" y1="498.943" y2="498.943"/><linearGradient id="r" gradientUnits="userSpaceOnUse" x1="377.844" x2="269.064" xlink:href="#b" y1="556.28" y2="556.28"/><linearGradient id="s" gradientUnits="userSpaceOnUse" x1="377.844" x2="348.331" xlink:href="#b" y1="556.28" y2="556.28"/><linearGradient id="t" gradientUnits="userSpaceOnUse" x1="296.332" x2="269.064" xlink:href="#b" y1="556.28" y2="556.28"/><linearGradient id="u" gradientUnits="userSpaceOnUse" x1="442.145" x2="490.447" y1="56.748" y2="56.748"><stop offset="0" stop-color="#46e5e0"/><stop offset=".36" stop-color="#3dd2d7"/><stop offset="1" stop-color="#2fb5c8"/></linearGradient><clipPath id="v"><path d="m188 172h99v37.2h-99z"/></clipPath><clipPath id="w"><path d="m223 14h186.5v118h-186.5z"/></clipPath><clipPath id="x"><path d="m304 246h226v377h-226z"/></clipPath><clipPath id="y"><path d="m15 233h124v364h-124z"/></clipPath><clipPath id="z"><path d="m153 361h225v252h-225z"/></clipPath><path d="m110 82c22.644 0 41-18.356 41-41s-18.356-41-41-41-41 18.356-41 41 18.356 41 41 41z" fill="url(#a)"/><g fill="#54184b"><path d="m206 301.707v307.293h-143v-318h106.333v10.707z"/><path d="m279 506.906v112.094h-279v-116h207.462v3.906z"/><path d="m279 413.801v195.199h-101v-202h75.103v6.801z"/></g><g clip-path="url(#v)"><path d="m287 209.2h-99c0-20.5 16.7-37.2 37.2-37.2 12.9 0 24.3 6.6 31 16.6 2.6-1.1 5.5-1.7 8.5-1.7 12.3 0 22.3 10 22.3 22.3z" fill="#54184b"/></g><path d="m80.5 159.5h12m-6 6v-12" stroke="#c73b3d" stroke-linecap="round" stroke-miterlimit="10" stroke-width="3"/><g clip-path="url(#w)"><path d="m225.5 53.5a2.5 2.5 0 1 0 0-5 2.5 2.5 0 0 0 0 5z" fill="#e99c56"/><path d="m294.5 83h12m-6 6v-12" stroke="#c73b3d" stroke-linecap="round" stroke-miterlimit="10" stroke-width="3"/><path d="m312 38a2.5 2.5 0 1 0 0-5 2.5 2.5 0 0 0 0 5z" fill="#420f3b"/><path d="m299.5 41.5c0-9.1 7.4-16.5 16.5-16.5s16.5 7.4 16.5 16.5" fill="#54184b"/><path d="m317.6 41.5c0-15.2 12.3-27.5 27.4-27.5s27.5 12.3 27.5 27.5" fill="#54184b"/><path d="m367.5 94.5a2.5 2.5 0 1 0 0-5 2.5 2.5 0 0 0 0 5z" style="fill:#e99c56;stroke:#e99c56;stroke-width:3;stroke-miterlimit:10;stroke-linecap:round;stroke-linejoin:round"/><path d="m338 132a2.5 2.5 0 1 0 0-5 2.5 2.5 0 0 0 0 5zm69-84a2.5 2.5 0 1 0 0-5 2.5 2.5 0 0 0 0 5z" fill="#66225c"/></g><path d="m176.5 105a2.5 2.5 0 1 0 0-5 2.5 2.5 0 0 0 0 5z" style="fill:#e99c56;stroke:#e99c56;stroke-width:3;stroke-miterlimit:10;stroke-linecap:round;stroke-linejoin:round"/><path d="m468.712 87.037c.336.51-.167 1.362-.671 1.362h-4.529c-.671 0-1.007-.681-.671-1.362l1.174-2.044 1.174-2.043c.336-.51 1.175-.51 1.51 0l1.175 2.043z" fill="#2fb5c8" opacity=".7" stroke="#2fb5c8" stroke-miterlimit="10" stroke-width="1.263"/><path d="m466.196 88.058c5.2 10.045 7.381 20.601 10.569 31.498 1.845 6.47 3.355 13.791.167 19.58-1.677 3.235-4.697 5.618-8.052 6.98" opacity=".5" stroke="#fff" stroke-linecap="round" stroke-miterlimit="10" stroke-width=".948"/><g clip-path="url(#x)" fill="#54184b"><path d="m438.847 301.441h-117.52v321.559h117.52z"/><path d="m438.847 266.944h-84.374v321.559h84.374z"/><path d="m438.847 246h-40.68v327.719h40.68z"/><path d="m508.907 452.98h-204.907v167.556h204.907z"/><path d="m530 545.382h-204.907v75.154h204.907z"/><path d="m477.267 433.268h-141.627v167.556h141.627z"/></g><path d="m501.511 195.234c3.638-5.453.44-13.958-7.142-18.997-7.583-5.038-16.678-4.702-20.316.751s-.44 13.958 7.142 18.997c7.583 5.038 16.679 4.702 20.316-.751zm-40.231-37.618c3.154 3.873 8.247 5.326 12.613 3.873l-13.34-17.187c-2.426 4.115-2.426 9.441.727 13.314z" fill="#ee5059"/><path d="m473.166 160.521 6.334 14.479" stroke="#ee5059" stroke-miterlimit="10" stroke-width="1.5"/><path d="m522.22 184.423c5.094.242 8.975 3.874 10.43 8.231l-21.83-1.452c1.941-4.116 6.549-7.021 11.4-6.779z" fill="#ee5059"/><path d="m520.037 200.158c-4.851-.968-8.489-4.841-9.459-9.441l21.344 3.874c-2.183 4.115-7.034 6.536-11.885 5.567z" fill="#ee5059"/><path d="m513.003 191.202-14.068-.485m-6.608-25.355-3.396 13.799" stroke="#ee5059" stroke-miterlimit="10" stroke-width="1.5"/><path d="m492.812 166.815a2.909 2.909 0 0 0 2.911-2.905 2.909 2.909 0 0 0 -2.911-2.905 2.908 2.908 0 0 0 -2.911 2.905 2.908 2.908 0 0 0 2.911 2.905z" fill="#141226"/><path d="m506.88 175.046-11.4 8.23" stroke="#ee5059" stroke-miterlimit="10" stroke-width="1.5"/><path d="m508.093 176.982c1.607 0 2.911-1.3 2.911-2.905a2.909 2.909 0 0 0 -2.911-2.905 2.908 2.908 0 0 0 -2.911 2.905 2.907 2.907 0 0 0 2.911 2.905z" fill="#141226"/><path d="m474.378 180.613s-7.034-4.599-12.128-.484m14.796 6.294s-7.034-4.599-12.127-.484m32.987 10.167s7.033 4.6 5.093 10.894m-11.4-10.894s7.034 4.6 5.094 10.894" stroke="#ee5059" stroke-linecap="round" stroke-miterlimit="10" stroke-width="1.5"/><path d="m493.055 187.392c-1.456 2.42-4.851 2.905-7.034 1.452-2.183-1.452-2.911-4.841-1.456-7.02" stroke="#141226" stroke-linecap="round" stroke-miterlimit="10" stroke-width="1.5"/><g clip-path="url(#y)"><path d="m21.604 318.587v-38.624l55.616-43.305 54.149 43.305v40.233l-109.766-1.609z" fill="#e99c56"/><path d="m131.369 322.683h-109.766l-3.228 250.762h117.837z" fill="#c73b3d"/><path d="m64.096 489h-20.493l-.603 84h22zm67.273-166.317h-109.766l1.615 41.696h108.151z" fill="#430632"/><path d="m65.187 322.683h-43.584l.734 41.696h42.85z" fill="url(#c)"/><path d="m42.882 322.683h-21.278l.293 41.696h20.985z" fill="url(#d)"/><path d="m134 448h-69v125h69z" fill="#e99c56"/><path d="m88.373 530.871h-23.186v42.574h23.186z" fill="url(#e)"/><path d="m132.983 406.222h-22.598v126.99h25.827z" fill="url(#f)"/><path d="m136.065 573.445h-117.69v22.531h117.69z" fill="#c73b3d"/><g stroke="#7b123c" stroke-linejoin="round" stroke-miterlimit="10" stroke-width="3.297"><path d="m17.348 597 5.43-318.354 20.104 26.92 34.045-26.92v-43.305l-54.15 43.305m20.105 318.354v-293.043m22.452-16.679v308.113"/><path d="m42.882 302.347 33.017-63.788" stroke-linecap="round"/><path d="m136.652 597-5.43-318.354-20.104 26.92-34.045-26.92v-43.305l54.149 43.305m-20.104 318.354v-293.043m-22.452-16.679v308.113"/><path d="m111.118 302.347-32.87-63.788" stroke-linecap="round"/><path d="m21.75 321.659h110.5m-110.5 41.843h110.5m-110.5 41.842h110.5m-112.5 41.842h114.5m-114.5 41.697h114.5m-114.114 41.842h113.728m1.614 41.843h-116.956"/></g></g><path d="m504.235 352.038h-98.995v13.13h98.995z" fill="#e99c56"/><path d="m506.38 340.386v22.484c0 1.477-1.155 2.79-2.805 2.79-1.485 0-2.805-1.149-2.805-2.79v-7.221h-27.058v8.534h-5.445v-8.534h-30.854v8.534h-5.445v-8.534h-25.903v7.221c0 1.477-1.155 2.79-2.805 2.79-1.485 0-2.805-1.149-2.805-2.79v-22.484c0-1.478 1.32-2.791 2.805-2.791s2.805 1.149 2.805 2.791v9.683h94.87v-9.683c0-1.478 1.155-2.791 2.805-2.791 1.485 0 2.64 1.149 2.64 2.791z" fill="#c73b3d"/><path d="m511 363.855v310.355c0 1.477-1.32 2.79-2.805 2.79h-109.39c-1.485 0-2.805-1.313-2.805-2.79v-310.355c0-1.477 1.155-2.79 2.805-2.79h109.39c1.485.164 2.805 1.313 2.805 2.79zm-56.757-96.832c-1.485 0-2.805-1.149-2.805-2.79v-14.443c0-1.477 1.155-2.79 2.805-2.79s2.804 1.149 2.804 2.79v14.443c0 1.477-1.154 2.79-2.804 2.79z" fill="#c73b3d"/><path d="m511 363.855v310.355c0 1.477-1.155 2.626-2.64 2.626h-55.767v-315.607h55.602c1.485 0 2.805 1.149 2.805 2.626z" fill="#a52d36"/><path d="m416.954 375.344h-7.755v7.713h7.755zm13.529 0h-7.754v7.713h7.754zm13.365 0h-7.755v7.713h7.755zm13.529 0h-7.754v7.713h7.754zm13.53 0h-7.755v7.713h7.755zm13.364 0h-7.754v7.713h7.754zm13.53 0h-7.755v7.713h7.755zm-80.847 14.442h-7.755v7.714h7.755zm13.529 0h-7.754v7.714h7.754zm13.365 0h-7.755v7.714h7.755zm27.059 0h-7.755v7.714h7.755zm13.364 0h-7.754v7.714h7.754zm13.53 0h-7.755v7.714h7.755zm-80.847 14.607h-7.755v7.714h7.755zm13.529 0h-7.754v7.714h7.754zm13.365 0h-7.755v7.714h7.755zm27.059 0h-7.755v7.714h7.755zm13.364 0h-7.754v7.714h7.754zm13.53 0h-7.755v7.714h7.755zm-80.847 14.443h-7.755v7.714h7.755zm13.529 0h-7.754v7.714h7.754zm13.365 0h-7.755v7.714h7.755z" fill="#5e1b51"/><path d="m470.907 418.836h-7.755v7.714h7.755z" fill="#e99c56"/><path d="m484.271 418.836h-7.754v7.714h7.754z" fill="url(#g)"/><path d="m497.801 418.836h-7.755v7.714h7.755z" fill="#e99c56"/><path d="m416.954 433.443h-7.755v7.713h7.755zm13.529 0h-7.754v7.713h7.754zm13.365 0h-7.755v7.713h7.755zm27.059 0h-7.755v7.713h7.755zm13.364 0h-7.754v7.713h7.754zm13.53 0h-7.755v7.713h7.755zm-80.847 14.442h-7.755v7.714h7.755zm13.529 0h-7.754v7.714h7.754zm13.365 0h-7.755v7.714h7.755zm27.059 0h-7.755v7.714h7.755zm13.364 0h-7.754v7.714h7.754zm13.53 0h-7.755v7.714h7.755zm-80.847 14.607h-7.755v7.714h7.755zm13.529 0h-7.754v7.714h7.754zm13.365 0h-7.755v7.714h7.755zm27.059 0h-7.755v7.714h7.755zm13.364 0h-7.754v7.714h7.754zm13.53 0h-7.755v7.714h7.755zm-80.847 14.443h-7.755v7.714h7.755zm13.529 0h-7.754v7.714h7.754zm13.365 0h-7.755v7.714h7.755zm27.059 0h-7.755v7.714h7.755zm13.364 0h-7.754v7.714h7.754zm13.53 0h-7.755v7.714h7.755z" fill="#5e1b51"/><path d="m416.954 491.542h-7.755v7.714h7.755z" fill="#e99c56"/><path d="m430.483 491.542h-7.754v7.714h7.754z" fill="url(#h)"/><path d="m443.848 491.542h-7.755v7.714h7.755z" fill="#e99c56"/><path d="m470.907 491.542h-7.755v7.714h7.755zm13.364 0h-7.754v7.714h7.754zm13.53 0h-7.755v7.714h7.755zm-80.847 14.443h-7.755v7.713h7.755zm13.529 0h-7.754v7.713h7.754zm13.365 0h-7.755v7.713h7.755zm27.059 0h-7.755v7.713h7.755zm13.364 0h-7.754v7.713h7.754zm13.53 0h-7.755v7.713h7.755zm-80.847 14.607h-7.755v7.713h7.755zm13.529 0h-7.754v7.713h7.754zm13.365 0h-7.755v7.713h7.755zm27.059 0h-7.755v7.713h7.755zm13.364 0h-7.754v7.713h7.754zm13.53 0h-7.755v7.713h7.755zm-80.847 14.442h-7.755v7.714h7.755zm13.529 0h-7.754v7.714h7.754zm13.365 0h-7.755v7.714h7.755zm27.059 0h-7.755v7.714h7.755zm13.364 0h-7.754v7.714h7.754zm13.53 0h-7.755v7.714h7.755zm-80.847 14.607h-7.755v7.714h7.755zm13.529 0h-7.754v7.714h7.754zm13.365 0h-7.755v7.714h7.755zm27.059 0h-7.755v7.714h7.755zm13.364 0h-7.754v7.714h7.754zm13.53 0h-7.755v7.714h7.755zm-80.847 14.443h-7.755v7.714h7.755zm13.529 0h-7.754v7.714h7.754zm13.365 0h-7.755v7.714h7.755zm27.059 0h-7.755v7.714h7.755zm13.364 0h-7.754v7.714h7.754zm13.53 0h-7.755v7.714h7.755z" fill="#5e1b51"/><path d="m416.954 578.527h-7.755v7.714h7.755zm13.529 0h-7.754v7.714h7.754zm13.365 0h-7.755v7.714h7.755z" fill="#e99c56"/><path d="m470.907 578.527h-7.755v7.714h7.755z" fill="url(#i)"/><path d="m484.271 578.527h-7.754v7.714h7.754z" fill="url(#j)"/><path d="m497.801 578.527h-7.755v7.714h7.755z" fill="url(#k)"/><path d="m416.954 593.134h-7.755v7.713h7.755zm13.529 0h-7.754v7.713h7.754zm13.365 0h-7.755v7.713h7.755zm27.059 0h-7.755v7.713h7.755zm13.364 0h-7.754v7.713h7.754zm13.53 0h-7.755v7.713h7.755zm-80.847 14.442h-7.755v7.714h7.755zm13.529 0h-7.754v7.714h7.754zm13.365 0h-7.755v7.714h7.755zm27.059 0h-7.755v7.714h7.755zm13.364 0h-7.754v7.714h7.754zm13.53 0h-7.755v7.714h7.755zm-80.847 14.607h-7.755v7.714h7.755zm13.529 0h-7.754v7.714h7.754zm13.365 0h-7.755v7.714h7.755zm27.059 0h-7.755v7.714h7.755zm13.364 0h-7.754v7.714h7.754zm13.53 0h-7.755v7.714h7.755zm-80.847 14.443h-7.755v7.714h7.755zm13.529 0h-7.754v7.714h7.754zm13.365 0h-7.755v7.714h7.755zm27.059 0h-7.755v7.714h7.755zm13.364 0h-7.754v7.714h7.754zm13.53 0h-7.755v7.714h7.755zm-80.847 14.607h-7.755v7.714h7.755zm13.529 0h-7.754v7.714h7.754zm13.365 0h-7.755v7.714h7.755zm27.059 0h-7.755v7.714h7.755zm13.364 0h-7.754v7.714h7.754zm13.53 0h-7.755v7.714h7.755z" fill="#5e1b51"/><path d="m502.42 349.084c-.494.821-1.484 1.313-2.474 1.313h-93.056c-.99 0-1.815-.492-2.31-1.313a2.507 2.507 0 0 1 0-2.626l47.188-87.149c.495-.985 1.485-1.477 2.475-1.477s1.979.492 2.474 1.477l45.538 87.149c.66.821.66 1.805.165 2.626z" fill="#7b123c"/><g clip-path="url(#z)"><path d="m261.66 454.155h-104.109l-3.129 158.845h108.803z" fill="url(#l)"/><path d="m262.798 454.155h-28.303l-.853 158.845h29.582z" fill="url(#m)"/><path d="m181.303 454.155h-26.17l-.711 158.845h27.308z" fill="url(#n)"/><g fill="#7b123c"><path d="m156.129 453.872h-3.129v159.27h3.129zm107.238 0h-3.129v159.27h3.129zm-80.357 21.661h-3.129v137.467h3.129zm52.765 1.698h-3.129v135.769h3.129zm-61.726 20.387c-.427 0-.853-.142-1.138-.425l-13.938-14.157c-.569-.566-.569-1.557 0-2.124.569-.566 1.565-.566 2.134 0l13.938 14.158c.569.566.569 1.557 0 2.123a1.542 1.542 0 0 1 -.996.425zm0 18.546c-.427 0-.853-.142-1.138-.425l-13.938-14.157c-.569-.566-.569-1.557 0-2.124.569-.566 1.565-.566 2.134 0l13.938 14.158c.569.566.569 1.557 0 2.123a1.542 1.542 0 0 1 -.996.425zm0 18.546c-.427 0-.853-.141-1.138-.425l-13.938-14.157c-.569-.566-.569-1.557 0-2.124.569-.566 1.565-.566 2.134 0l13.938 14.158c.569.566.569 1.557 0 2.123a1.537 1.537 0 0 1 -.996.425zm0 18.546c-.427 0-.853-.141-1.138-.425l-13.938-14.157c-.569-.566-.569-1.557 0-2.123.569-.567 1.565-.567 2.134 0l13.938 14.157c.569.566.569 1.557 0 2.123a1.537 1.537 0 0 1 -.996.425zm0 18.546c-.427 0-.853-.141-1.138-.425l-13.938-14.157c-.569-.566-.569-1.557 0-2.123.569-.567 1.565-.567 2.134 0l13.938 14.157c.569.566.569 1.557 0 2.123a1.537 1.537 0 0 1 -.996.425zm0 18.546c-.427 0-.853-.141-1.138-.424l-13.938-14.158c-.569-.566-.569-1.557 0-2.123.569-.567 1.565-.567 2.134 0l13.938 14.157c.569.566.569 1.557 0 2.124a1.54 1.54 0 0 1 -.996.424zm0 18.546c-.427 0-.853-.141-1.138-.424l-13.938-14.158c-.569-.566-.569-1.557 0-2.123.569-.567 1.565-.567 2.134 0l13.938 14.157c.569.566.569 1.557 0 2.124a1.54 1.54 0 0 1 -.996.424zm67.557-111.276c-.426 0-.853-.142-1.138-.425-.568-.566-.568-1.557 0-2.123l13.938-14.158c.569-.566 1.565-.566 2.134 0 .569.567.569 1.558 0 2.124l-13.938 14.157c-.285.283-.569.425-.996.425zm0 18.546c-.426 0-.853-.142-1.138-.425-.568-.566-.568-1.557 0-2.123l13.938-14.158c.569-.566 1.565-.566 2.134 0 .569.567.569 1.558 0 2.124l-13.938 14.157c-.285.283-.569.425-.996.425zm0 18.546c-.426 0-.853-.141-1.138-.425-.568-.566-.568-1.557 0-2.123l13.938-14.158c.569-.566 1.565-.566 2.134 0 .569.567.569 1.558 0 2.124l-13.938 14.157c-.285.284-.569.425-.996.425zm0 18.546c-.426 0-.853-.141-1.138-.425-.568-.566-.568-1.557 0-2.123l13.938-14.157c.569-.567 1.565-.567 2.134 0 .569.566.569 1.557 0 2.123l-13.938 14.157c-.285.284-.569.425-.996.425zm0 18.546c-.426 0-.853-.141-1.138-.425-.568-.566-.568-1.557 0-2.123l13.938-14.157c.569-.567 1.565-.567 2.134 0 .569.566.569 1.557 0 2.123l-13.938 14.157c-.285.284-.569.425-.996.425zm0 18.546c-.426 0-.853-.141-1.138-.424-.568-.567-.568-1.558 0-2.124l13.938-14.157c.569-.567 1.565-.567 2.134 0 .569.566.569 1.557 0 2.123l-13.938 14.158c-.285.283-.569.424-.996.424zm0 18.546c-.426 0-.853-.141-1.138-.424-.568-.567-.568-1.558 0-2.124l13.938-14.157c.569-.567 1.565-.567 2.134 0 .569.566.569 1.557 0 2.123l-13.938 14.158c-.285.283-.569.424-.996.424z"/><path d="m235.348 431.22h-54.33l-27.022 22.652 27.022 22.652h54.33l27.165-22.652z"/><path d="m235.348 477.373h-54.33c-.142 0-.426 0-.569-.142l-27.165-22.651a1.081 1.081 0 0 1 -.284-.708c0-.283.142-.425.284-.708l27.165-22.652c.143-.141.285-.141.569-.141h54.33c.143 0 .427 0 .569.141l27.165 22.652c.142.142.285.425.285.708s-.143.425-.285.708l-27.165 22.651c-.142.142-.426.142-.569.142zm-53.903-1.699h53.619l26.169-21.802-26.169-21.802h-53.619l-26.169 21.802zm43.236 23.501h-34.134v5.663h34.134zm0 18.546h-34.134v5.663h34.134zm0 18.546h-34.134v5.663h34.134zm0 18.546h-34.134v5.663h34.134zm0 18.547h-34.134v5.662h34.134zm0 18.546h-34.134v5.663h34.134z"/></g><path d="m315.705 384.784h-104.108l-3.129 228.216h108.802z" fill="url(#o)"/><path d="m316.843 384.784h-28.303l-.853 228.216h29.583z" fill="url(#p)"/><path d="m235.348 384.784h-26.169l-.711 228.216h27.307z" fill="url(#q)"/><path d="m210.174 384.501h-3.129v228.641h3.129zm107.238 0h-3.129v228.641h3.129zm-80.499 21.661h-3.129v206.838h3.129zm52.907 1.699h-3.129v205.139h3.129zm-61.725 20.386c-.427 0-.854-.141-1.138-.425l-13.938-14.157c-.569-.566-.569-1.557 0-2.123.569-.567 1.564-.567 2.133 0l13.938 14.157c.569.566.569 1.557 0 2.123a1.535 1.535 0 0 1 -.995.425zm0 18.546c-.427 0-.854-.141-1.138-.424l-13.938-14.158c-.569-.566-.569-1.557 0-2.123.569-.567 1.564-.567 2.133 0l13.938 14.157c.569.566.569 1.557 0 2.124a1.538 1.538 0 0 1 -.995.424zm0 18.546c-.427 0-.854-.141-1.138-.424l-13.938-14.158c-.569-.566-.569-1.557 0-2.123.569-.567 1.564-.567 2.133 0l13.938 14.157c.569.566.569 1.557 0 2.124a1.538 1.538 0 0 1 -.995.424zm0 18.546c-.427 0-.854-.141-1.138-.424l-13.938-14.158c-.569-.566-.569-1.557 0-2.123.569-.567 1.564-.567 2.133 0l13.938 14.157c.569.566.569 1.557 0 2.124a1.538 1.538 0 0 1 -.995.424zm0 18.546c-.427 0-.854-.141-1.138-.424l-13.938-14.158c-.569-.566-.569-1.557 0-2.123s1.564-.566 2.133 0l13.938 14.157c.569.566.569 1.557 0 2.124a1.538 1.538 0 0 1 -.995.424zm0 18.547c-.427 0-.854-.142-1.138-.425l-13.938-14.158c-.569-.566-.569-1.557 0-2.123s1.564-.566 2.133 0l13.938 14.157c.569.566.569 1.557 0 2.124a1.54 1.54 0 0 1 -.995.425zm0 18.546c-.427 0-.854-.142-1.138-.425l-13.938-14.157c-.569-.567-.569-1.558 0-2.124s1.564-.566 2.133 0l13.938 14.157c.569.567.569 1.558 0 2.124a1.54 1.54 0 0 1 -.995.425zm0 18.546c-.427 0-.854-.142-1.138-.425l-13.938-14.157c-.569-.567-.569-1.558 0-2.124s1.564-.566 2.133 0l13.938 14.157c.569.567.569 1.558 0 2.124a1.54 1.54 0 0 1 -.995.425zm0 18.687c-.427 0-.854-.141-1.138-.424l-13.938-14.158c-.569-.566-.569-1.557 0-2.123.569-.567 1.564-.567 2.133 0l13.938 14.157c.569.566.569 1.557 0 2.124a1.538 1.538 0 0 1 -.995.424zm0 18.546c-.427 0-.854-.141-1.138-.424l-13.938-14.158c-.569-.566-.569-1.557 0-2.123.569-.567 1.564-.567 2.133 0l13.938 14.157c.569.566.569 1.557 0 2.124a1.538 1.538 0 0 1 -.995.424zm67.557-167.056c-.427 0-.854-.141-1.138-.425-.569-.566-.569-1.557 0-2.123l13.938-14.157c.569-.567 1.564-.567 2.133 0 .569.566.569 1.557 0 2.123l-13.938 14.157c-.284.284-.569.425-.995.425zm0 18.546c-.427 0-.854-.141-1.138-.424-.569-.567-.569-1.558 0-2.124l13.938-14.157c.569-.567 1.564-.567 2.133 0 .569.566.569 1.557 0 2.123l-13.938 14.158c-.284.283-.569.424-.995.424zm0 18.546c-.427 0-.854-.141-1.138-.424-.569-.567-.569-1.558 0-2.124l13.938-14.157c.569-.567 1.564-.567 2.133 0 .569.566.569 1.557 0 2.123l-13.938 14.158c-.284.283-.569.424-.995.424zm0 18.546c-.427 0-.854-.141-1.138-.424-.569-.567-.569-1.558 0-2.124l13.938-14.157c.569-.567 1.564-.567 2.133 0 .569.566.569 1.557 0 2.123l-13.938 14.158c-.284.283-.569.424-.995.424zm0 18.546c-.427 0-.854-.141-1.138-.424-.569-.567-.569-1.558 0-2.124l13.938-14.157c.569-.566 1.564-.566 2.133 0s.569 1.557 0 2.123l-13.938 14.158c-.284.283-.569.424-.995.424zm0 18.547c-.427 0-.854-.142-1.138-.425-.569-.567-.569-1.558 0-2.124l13.938-14.157c.569-.566 1.564-.566 2.133 0s.569 1.557 0 2.123l-13.938 14.158c-.284.283-.569.425-.995.425zm0 18.546c-.427 0-.854-.142-1.138-.425-.569-.566-.569-1.557 0-2.124l13.938-14.157c.569-.566 1.564-.566 2.133 0s.569 1.557 0 2.124l-13.938 14.157c-.284.283-.569.425-.995.425zm0 18.546c-.427 0-.854-.142-1.138-.425-.569-.566-.569-1.557 0-2.124l13.938-14.157c.569-.566 1.564-.566 2.133 0s.569 1.557 0 2.124l-13.938 14.157c-.284.283-.569.425-.995.425zm0 18.687c-.427 0-.854-.141-1.138-.424-.569-.567-.569-1.558 0-2.124l13.938-14.157c.569-.567 1.564-.567 2.133 0 .569.566.569 1.557 0 2.123l-13.938 14.158c-.284.283-.569.424-.995.424zm0 18.546c-.427 0-.854-.141-1.138-.424-.569-.567-.569-1.558 0-2.124l13.938-14.157c.569-.567 1.564-.567 2.133 0 .569.566.569 1.557 0 2.123l-13.938 14.158c-.284.283-.569.424-.995.424z" fill="#7b123c"/><path d="m289.394 361.849h-54.33l-27.165 22.652 27.165 22.652h54.33l27.165-22.652z" fill="#7b123c"/><path d="m289.394 408.002h-54.33c-.142 0-.427 0-.569-.141l-27.165-22.652a1.082 1.082 0 0 1 -.285-.708c0-.283.143-.425.285-.708l27.165-22.651c.142-.142.427-.142.569-.142h54.33c.142 0 .426 0 .569.142l27.165 22.651c.142.142.284.425.284.708s-.142.425-.284.708l-27.165 22.652c-.143.141-.427.141-.569.141zm-54.046-1.699h53.619l26.169-21.802-26.027-21.802h-53.761l-26.027 21.802zm43.379 23.502h-34.134v5.662h34.134zm0 18.546h-34.134v5.662h34.134zm0 18.546h-34.134v5.663h34.134zm0 18.546h-34.134v5.663h34.134zm0 18.546h-34.134v5.663h34.134zm0 18.546h-34.134v5.663h34.134zm0 18.546h-34.134v5.663h34.134zm0 18.546h-34.134v5.663h34.134zm0 18.688h-34.134v5.663h34.134zm0 18.546h-34.134v5.663h34.134z" fill="#7b123c"/><path d="m376.293 499.458h-104.108l-3.129 113.542h108.802z" fill="url(#r)"/><path d="m377.431 499.458h-28.303l-.853 113.542h29.583z" fill="url(#s)"/><path d="m295.936 499.458h-26.027l-.853 113.542h27.307z" fill="url(#t)"/><path d="m270.762 499.175h-3.129v113.967h3.129zm107.238 0h-3.129v113.967h3.129zm-80.357 21.661h-3.129v92.164h3.129zm52.765 1.699h-3.129v90.465h3.129zm-61.726 20.386c-.426 0-.853-.141-1.137-.424l-13.938-14.158c-.569-.566-.569-1.557 0-2.123.569-.567 1.564-.567 2.133 0l13.938 14.157c.569.566.569 1.557 0 2.124a1.539 1.539 0 0 1 -.996.424zm0 18.546c-.426 0-.853-.141-1.137-.424l-13.938-14.158c-.569-.566-.569-1.557 0-2.123s1.564-.566 2.133 0l13.938 14.157c.569.566.569 1.557 0 2.124a1.539 1.539 0 0 1 -.996.424zm0 18.546c-.426 0-.853-.141-1.137-.424l-13.938-14.158c-.569-.566-.569-1.557 0-2.123s1.564-.566 2.133 0l13.938 14.157c.569.566.569 1.557 0 2.124a1.539 1.539 0 0 1 -.996.424zm0 18.547c-.426 0-.853-.142-1.137-.425l-13.938-14.157c-.569-.567-.569-1.558 0-2.124s1.564-.566 2.133 0l13.938 14.157c.569.567.569 1.558 0 2.124a1.54 1.54 0 0 1 -.996.425zm67.558-55.639c-.427 0-.854-.141-1.138-.424-.569-.567-.569-1.558 0-2.124l13.938-14.157c.569-.567 1.564-.567 2.133 0 .569.566.569 1.557 0 2.123l-13.938 14.158c-.142.283-.569.424-.995.424zm0 18.546c-.427 0-.854-.141-1.138-.424-.569-.567-.569-1.558 0-2.124l13.938-14.157c.569-.566 1.564-.566 2.133 0s.569 1.557 0 2.123l-13.938 14.158c-.142.283-.569.424-.995.424zm0 18.546c-.427 0-.854-.141-1.138-.424-.569-.567-.569-1.558 0-2.124l13.938-14.157c.569-.566 1.564-.566 2.133 0s.569 1.557 0 2.123l-13.938 14.158c-.142.283-.569.424-.995.424zm0 18.547c-.427 0-.854-.142-1.138-.425-.569-.566-.569-1.557 0-2.124l13.938-14.157c.569-.566 1.564-.566 2.133 0s.569 1.557 0 2.124l-13.938 14.157c-.142.283-.569.425-.995.425z" fill="#7b123c"/><path d="m349.982 476.524h-54.33l-27.023 22.651 27.023 22.652h54.33l27.165-22.652z" fill="#7b123c"/><path d="m349.982 522.676h-54.33c-.143 0-.427 0-.569-.141l-27.165-22.652a1.08 1.08 0 0 1 -.285-.708c0-.283.143-.424.285-.708l27.165-22.651c.142-.142.284-.142.569-.142h54.33c.142 0 .426 0 .568.142l27.165 22.651c.143.142.285.425.285.708s-.142.425-.285.708l-27.165 22.652c-.142.141-.284.141-.568.141zm-53.904-1.698h53.619l26.17-21.803-26.17-21.802h-53.619l-26.169 21.802zm43.237 23.501h-34.134v5.663h34.134zm0 18.546h-34.134v5.663h34.134zm0 18.546h-34.134v5.663h34.134zm0 18.546h-34.134v5.663h34.134z" fill="#7b123c"/></g><path d="m468.88 146.116c-1.174.511-2.349.852-3.355 1.192-4.697 1.192-9.562 1.022-14.427.511-2.349-.17-4.697-.511-6.878.17-5.033 1.533-7.549 7.492-7.381 12.94.167 5.448 2.516 10.386 4.026 15.493" opacity=".5" stroke="#fff" stroke-linecap="round" stroke-miterlimit="10" stroke-width=".948"/><path d="m476.319 148.901c-1.698-4.599-6.307-7.504-10.915-7.504l7.761 20.334c3.639-2.905 4.851-7.988 3.154-12.83z" fill="#ee5059"/><path d="m490.521 56.73c0 14.813-10.904 26.731-24.157 26.731s-24.157-11.918-24.157-26.73c0-14.813 10.736-26.731 24.157-26.731 13.253 0 24.157 11.918 24.157 26.73z" fill="url(#u)" opacity=".7"/></svg>