<svg width="533" height="677" fill="none" xmlns="http://www.w3.org/2000/svg"><path d="M110 82c22.644 0 41-18.356 41-41S132.644 0 110 0 69 18.356 69 41s18.356 41 41 41z" fill="url(#paint0_radial)"/><path d="M206 301.707V609H63V291h106.333v10.707H206z" fill="#54184B"/><path d="M279 506.906V619H0V503h207.462v3.906H279z" fill="#54184B"/><path d="M279 413.801V609H178V407h75.103v6.801H279z" fill="#54184B"/><g clip-path="url(#clip0)"><path d="M287 209.2h-99c0-20.5 16.7-37.2 37.2-37.2 12.9 0 24.3 6.6 31 16.6 2.6-1.1 5.5-1.7 8.5-1.7 12.3 0 22.3 10 22.3 22.3z" fill="#54184B"/></g><path d="M80.5 159.5h12M86.5 165.5v-12" stroke="#C73B3D" stroke-width="3" stroke-miterlimit="10" stroke-linecap="round"/><g clip-path="url(#clip1)"><path d="M225.5 53.5a2.5 2.5 0 1 0 0-5 2.5 2.5 0 0 0 0 5z" fill="#E99C56"/><path d="M294.5 83h12M300.5 89V77" stroke="#C73B3D" stroke-width="3" stroke-miterlimit="10" stroke-linecap="round"/><path d="M312 38a2.5 2.5 0 1 0 0-5 2.5 2.5 0 0 0 0 5z" fill="#420F3B"/><path d="M299.5 41.5c0-9.1 7.4-16.5 16.5-16.5s16.5 7.4 16.5 16.5" fill="#54184B"/><path d="M317.6 41.5c0-15.2 12.3-27.5 27.4-27.5 15.1 0 27.5 12.3 27.5 27.5" fill="#54184B"/><path d="M367.5 94.5a2.5 2.5 0 1 0 0-5 2.5 2.5 0 0 0 0 5z" fill="#E99C56" stroke="#E99C56" stroke-width="3" stroke-miterlimit="10" stroke-linecap="round" stroke-linejoin="round"/><path d="M338 132a2.5 2.5 0 1 0 0-5 2.5 2.5 0 0 0 0 5zM407 48a2.5 2.5 0 1 0 0-5 2.5 2.5 0 0 0 0 5z" fill="#66225C"/></g><path d="M176.5 105a2.5 2.5 0 1 0 0-5 2.5 2.5 0 0 0 0 5z" fill="#E99C56" stroke="#E99C56" stroke-width="3" stroke-miterlimit="10" stroke-linecap="round" stroke-linejoin="round"/><path opacity=".7" d="M468.712 87.037c.336.51-.167 1.362-.671 1.362h-4.529c-.671 0-1.007-.681-.671-1.362l1.174-2.044 1.174-2.043c.336-.51 1.175-.51 1.51 0l1.175 2.043.838 2.044z" fill="#2FB5C8" stroke="#2FB5C8" stroke-width="1.263" stroke-miterlimit="10"/><path opacity=".5" d="M466.196 88.058c5.2 10.045 7.381 20.601 10.569 31.498 1.845 6.47 3.355 13.791.167 19.58-1.677 3.235-4.697 5.618-8.052 6.98" stroke="#fff" stroke-width=".948" stroke-miterlimit="10" stroke-linecap="round"/><g clip-path="url(#clip2)" fill="#54184B"><path d="M438.847 301.441h-117.52V623h117.52V301.441z"/><path d="M438.847 266.944h-84.374v321.559h84.374V266.944z"/><path d="M438.847 246h-40.68v327.719h40.68V246z"/><path d="M508.907 452.98H304v167.556h204.907V452.98z"/><path d="M530 545.382H325.093v75.154H530v-75.154z"/><path d="M477.267 433.268H335.64v167.556h141.627V433.268z"/></g><path d="M501.511 195.234c3.638-5.453.44-13.958-7.142-18.997-7.583-5.038-16.678-4.702-20.316.751-3.638 5.453-.44 13.958 7.142 18.997 7.583 5.038 16.679 4.702 20.316-.751zM461.28 157.616c3.154 3.873 8.247 5.326 12.613 3.873l-13.34-17.187c-2.426 4.115-2.426 9.441.727 13.314z" fill="#EE5059"/><path d="M473.166 160.521L479.5 175" stroke="#EE5059" stroke-width="1.5" stroke-miterlimit="10"/><path d="M522.22 184.423c5.094.242 8.975 3.874 10.43 8.231l-21.83-1.452c1.941-4.116 6.549-7.021 11.4-6.779z" fill="#EE5059"/><path d="M520.037 200.158c-4.851-.968-8.489-4.841-9.459-9.441l21.344 3.874c-2.183 4.115-7.034 6.536-11.885 5.567z" fill="#EE5059"/><path d="M513.003 191.202l-14.068-.485M492.327 165.362l-3.396 13.799" stroke="#EE5059" stroke-width="1.5" stroke-miterlimit="10"/><path d="M492.812 166.815a2.909 2.909 0 0 0 2.911-2.905 2.909 2.909 0 0 0-2.911-2.905 2.908 2.908 0 0 0-2.911 2.905 2.908 2.908 0 0 0 2.911 2.905z" fill="#141226"/><path d="M506.88 175.046l-11.4 8.23" stroke="#EE5059" stroke-width="1.5" stroke-miterlimit="10"/><path d="M508.093 176.982c1.607 0 2.911-1.3 2.911-2.905a2.909 2.909 0 0 0-2.911-2.905 2.908 2.908 0 0 0-2.911 2.905 2.907 2.907 0 0 0 2.911 2.905z" fill="#141226"/><path d="M474.378 180.613s-7.034-4.599-12.128-.484M477.046 186.423s-7.034-4.599-12.127-.484M497.906 196.106s7.033 4.6 5.093 10.894M491.599 196.106s7.034 4.6 5.094 10.894" stroke="#EE5059" stroke-width="1.5" stroke-miterlimit="10" stroke-linecap="round"/><path d="M493.055 187.392c-1.456 2.42-4.851 2.905-7.034 1.452-2.183-1.452-2.911-4.841-1.456-7.02" stroke="#141226" stroke-width="1.5" stroke-miterlimit="10" stroke-linecap="round"/><g clip-path="url(#clip3)"><path d="M21.604 318.587v-38.624l55.616-43.305 54.149 43.305v40.233l-109.766-1.609z" fill="#E99C56"/><path d="M131.369 322.683H21.603l-3.228 250.762h117.837l-4.843-250.762z" fill="#C73B3D"/><path d="M64.096 489H43.603L43 573h22l-.904-84zM131.369 322.683H21.603l1.615 41.696h108.151v-41.696z" fill="#430632"/><path d="M65.187 322.683H21.603l.734 41.696h42.85v-41.696z" fill="url(#paint1_linear)"/><path d="M42.882 322.683H21.604l.293 41.696h20.985v-41.696z" fill="url(#paint2_linear)"/><path d="M134 448H65v125h69V448z" fill="#E99C56"/><path d="M88.373 530.871H65.187v42.574h23.186v-42.574z" fill="url(#paint3_linear)"/><path d="M132.983 406.222h-22.598v126.99h25.827l-3.229-126.99z" fill="url(#paint4_linear)"/><path d="M136.065 573.445H18.375v22.531h117.69v-22.531z" fill="#C73B3D"/><path d="M17.348 597l5.43-318.354 20.104 26.92 34.045-26.92v-43.305l-54.15 43.305M42.882 597V303.957M65.334 287.278v308.113" stroke="#7B123C" stroke-width="3.297" stroke-miterlimit="10" stroke-linejoin="round"/><path d="M42.882 302.347l33.017-63.788" stroke="#7B123C" stroke-width="3.297" stroke-miterlimit="10" stroke-linecap="round" stroke-linejoin="round"/><path d="M136.652 597l-5.43-318.354-20.104 26.92-34.045-26.92v-43.305l54.149 43.305M111.118 597V303.957M88.666 287.278v308.113" stroke="#7B123C" stroke-width="3.297" stroke-miterlimit="10" stroke-linejoin="round"/><path d="M111.118 302.347l-32.87-63.788" stroke="#7B123C" stroke-width="3.297" stroke-miterlimit="10" stroke-linecap="round" stroke-linejoin="round"/><path d="M21.75 321.659h110.5M21.75 363.502h110.5M21.75 405.344h110.5M19.75 447.186h114.5M19.75 488.883h114.5M20.136 530.725h113.728M135.478 572.568H18.522" stroke="#7B123C" stroke-width="3.297" stroke-miterlimit="10" stroke-linejoin="round"/></g><path d="M504.235 352.038H405.24v13.13h98.995v-13.13z" fill="#E99C56"/><path d="M506.38 340.386v22.484c0 1.477-1.155 2.79-2.805 2.79-1.485 0-2.805-1.149-2.805-2.79v-7.221h-27.058v8.534h-5.445v-8.534h-30.854v8.534h-5.445v-8.534h-25.903v7.221c0 1.477-1.155 2.79-2.805 2.79-1.485 0-2.805-1.149-2.805-2.79v-22.484c0-1.478 1.32-2.791 2.805-2.791s2.805 1.149 2.805 2.791v9.683h94.87v-9.683c0-1.478 1.155-2.791 2.805-2.791 1.485 0 2.64 1.149 2.64 2.791z" fill="#C73B3D"/><path d="M511 363.855V674.21c0 1.477-1.32 2.79-2.805 2.79h-109.39c-1.485 0-2.805-1.313-2.805-2.79V363.855c0-1.477 1.155-2.79 2.805-2.79h109.39c1.485.164 2.805 1.313 2.805 2.79zM454.243 267.023c-1.485 0-2.805-1.149-2.805-2.79V249.79c0-1.477 1.155-2.79 2.805-2.79 1.65 0 2.804 1.149 2.804 2.79v14.443c0 1.477-1.154 2.79-2.804 2.79z" fill="#C73B3D"/><path d="M511 363.855V674.21c0 1.477-1.155 2.626-2.64 2.626h-55.767V361.229h55.602c1.485 0 2.805 1.149 2.805 2.626z" fill="#A52D36"/><path d="M416.954 375.344h-7.755v7.713h7.755v-7.713zM430.483 375.344h-7.754v7.713h7.754v-7.713zM443.848 375.344h-7.755v7.713h7.755v-7.713zM457.377 375.344h-7.754v7.713h7.754v-7.713zM470.907 375.344h-7.755v7.713h7.755v-7.713zM484.271 375.344h-7.754v7.713h7.754v-7.713zM497.801 375.344h-7.755v7.713h7.755v-7.713zM416.954 389.786h-7.755v7.714h7.755v-7.714zM430.483 389.786h-7.754v7.714h7.754v-7.714zM443.848 389.786h-7.755v7.714h7.755v-7.714zM470.907 389.786h-7.755v7.714h7.755v-7.714zM484.271 389.786h-7.754v7.714h7.754v-7.714zM497.801 389.786h-7.755v7.714h7.755v-7.714zM416.954 404.393h-7.755v7.714h7.755v-7.714zM430.483 404.393h-7.754v7.714h7.754v-7.714zM443.848 404.393h-7.755v7.714h7.755v-7.714zM470.907 404.393h-7.755v7.714h7.755v-7.714zM484.271 404.393h-7.754v7.714h7.754v-7.714zM497.801 404.393h-7.755v7.714h7.755v-7.714zM416.954 418.836h-7.755v7.714h7.755v-7.714zM430.483 418.836h-7.754v7.714h7.754v-7.714zM443.848 418.836h-7.755v7.714h7.755v-7.714z" fill="#5E1B51"/><path d="M470.907 418.836h-7.755v7.714h7.755v-7.714z" fill="#E99C56"/><path d="M484.271 418.836h-7.754v7.714h7.754v-7.714z" fill="url(#paint5_linear)"/><path d="M497.801 418.836h-7.755v7.714h7.755v-7.714z" fill="#E99C56"/><path d="M416.954 433.443h-7.755v7.713h7.755v-7.713zM430.483 433.443h-7.754v7.713h7.754v-7.713zM443.848 433.443h-7.755v7.713h7.755v-7.713zM470.907 433.443h-7.755v7.713h7.755v-7.713zM484.271 433.443h-7.754v7.713h7.754v-7.713zM497.801 433.443h-7.755v7.713h7.755v-7.713zM416.954 447.885h-7.755v7.714h7.755v-7.714zM430.483 447.885h-7.754v7.714h7.754v-7.714zM443.848 447.885h-7.755v7.714h7.755v-7.714zM470.907 447.885h-7.755v7.714h7.755v-7.714zM484.271 447.885h-7.754v7.714h7.754v-7.714zM497.801 447.885h-7.755v7.714h7.755v-7.714zM416.954 462.492h-7.755v7.714h7.755v-7.714zM430.483 462.492h-7.754v7.714h7.754v-7.714zM443.848 462.492h-7.755v7.714h7.755v-7.714zM470.907 462.492h-7.755v7.714h7.755v-7.714zM484.271 462.492h-7.754v7.714h7.754v-7.714zM497.801 462.492h-7.755v7.714h7.755v-7.714zM416.954 476.935h-7.755v7.714h7.755v-7.714zM430.483 476.935h-7.754v7.714h7.754v-7.714zM443.848 476.935h-7.755v7.714h7.755v-7.714zM470.907 476.935h-7.755v7.714h7.755v-7.714zM484.271 476.935h-7.754v7.714h7.754v-7.714zM497.801 476.935h-7.755v7.714h7.755v-7.714z" fill="#5E1B51"/><path d="M416.954 491.542h-7.755v7.714h7.755v-7.714z" fill="#E99C56"/><path d="M430.483 491.542h-7.754v7.714h7.754v-7.714z" fill="url(#paint6_linear)"/><path d="M443.848 491.542h-7.755v7.714h7.755v-7.714z" fill="#E99C56"/><path d="M470.907 491.542h-7.755v7.714h7.755v-7.714zM484.271 491.542h-7.754v7.714h7.754v-7.714zM497.801 491.542h-7.755v7.714h7.755v-7.714zM416.954 505.985h-7.755v7.713h7.755v-7.713zM430.483 505.985h-7.754v7.713h7.754v-7.713zM443.848 505.985h-7.755v7.713h7.755v-7.713zM470.907 505.985h-7.755v7.713h7.755v-7.713zM484.271 505.985h-7.754v7.713h7.754v-7.713zM497.801 505.985h-7.755v7.713h7.755v-7.713zM416.954 520.592h-7.755v7.713h7.755v-7.713zM430.483 520.592h-7.754v7.713h7.754v-7.713zM443.848 520.592h-7.755v7.713h7.755v-7.713zM470.907 520.592h-7.755v7.713h7.755v-7.713zM484.271 520.592h-7.754v7.713h7.754v-7.713zM497.801 520.592h-7.755v7.713h7.755v-7.713zM416.954 535.034h-7.755v7.714h7.755v-7.714zM430.483 535.034h-7.754v7.714h7.754v-7.714zM443.848 535.034h-7.755v7.714h7.755v-7.714zM470.907 535.034h-7.755v7.714h7.755v-7.714zM484.271 535.034h-7.754v7.714h7.754v-7.714zM497.801 535.034h-7.755v7.714h7.755v-7.714zM416.954 549.641h-7.755v7.714h7.755v-7.714zM430.483 549.641h-7.754v7.714h7.754v-7.714zM443.848 549.641h-7.755v7.714h7.755v-7.714zM470.907 549.641h-7.755v7.714h7.755v-7.714zM484.271 549.641h-7.754v7.714h7.754v-7.714zM497.801 549.641h-7.755v7.714h7.755v-7.714zM416.954 564.084h-7.755v7.714h7.755v-7.714zM430.483 564.084h-7.754v7.714h7.754v-7.714zM443.848 564.084h-7.755v7.714h7.755v-7.714zM470.907 564.084h-7.755v7.714h7.755v-7.714zM484.271 564.084h-7.754v7.714h7.754v-7.714zM497.801 564.084h-7.755v7.714h7.755v-7.714z" fill="#5E1B51"/><path d="M416.954 578.527h-7.755v7.714h7.755v-7.714zM430.483 578.527h-7.754v7.714h7.754v-7.714zM443.848 578.527h-7.755v7.714h7.755v-7.714z" fill="#E99C56"/><path d="M470.907 578.527h-7.755v7.714h7.755v-7.714z" fill="url(#paint7_linear)"/><path d="M484.271 578.527h-7.754v7.714h7.754v-7.714z" fill="url(#paint8_linear)"/><path d="M497.801 578.527h-7.755v7.714h7.755v-7.714z" fill="url(#paint9_linear)"/><path d="M416.954 593.134h-7.755v7.713h7.755v-7.713zM430.483 593.134h-7.754v7.713h7.754v-7.713zM443.848 593.134h-7.755v7.713h7.755v-7.713zM470.907 593.134h-7.755v7.713h7.755v-7.713zM484.271 593.134h-7.754v7.713h7.754v-7.713zM497.801 593.134h-7.755v7.713h7.755v-7.713zM416.954 607.576h-7.755v7.714h7.755v-7.714zM430.483 607.576h-7.754v7.714h7.754v-7.714zM443.848 607.576h-7.755v7.714h7.755v-7.714zM470.907 607.576h-7.755v7.714h7.755v-7.714zM484.271 607.576h-7.754v7.714h7.754v-7.714zM497.801 607.576h-7.755v7.714h7.755v-7.714zM416.954 622.183h-7.755v7.714h7.755v-7.714zM430.483 622.183h-7.754v7.714h7.754v-7.714zM443.848 622.183h-7.755v7.714h7.755v-7.714zM470.907 622.183h-7.755v7.714h7.755v-7.714zM484.271 622.183h-7.754v7.714h7.754v-7.714zM497.801 622.183h-7.755v7.714h7.755v-7.714zM416.954 636.626h-7.755v7.714h7.755v-7.714zM430.483 636.626h-7.754v7.714h7.754v-7.714zM443.848 636.626h-7.755v7.714h7.755v-7.714zM470.907 636.626h-7.755v7.714h7.755v-7.714zM484.271 636.626h-7.754v7.714h7.754v-7.714zM497.801 636.626h-7.755v7.714h7.755v-7.714zM416.954 651.233h-7.755v7.714h7.755v-7.714zM430.483 651.233h-7.754v7.714h7.754v-7.714zM443.848 651.233h-7.755v7.714h7.755v-7.714zM470.907 651.233h-7.755v7.714h7.755v-7.714zM484.271 651.233h-7.754v7.714h7.754v-7.714zM497.801 651.233h-7.755v7.714h7.755v-7.714z" fill="#5E1B51"/><path d="M502.42 349.084c-.494.821-1.484 1.313-2.474 1.313H406.89c-.99 0-1.815-.492-2.31-1.313a2.507 2.507 0 0 1 0-2.626l47.188-87.149c.495-.985 1.485-1.477 2.475-1.477s1.979.492 2.474 1.477l45.538 87.149c.66.821.66 1.805.165 2.626z" fill="#7B123C"/><g clip-path="url(#clip4)"><path d="M261.66 454.155H157.551L154.422 613h108.803l-1.565-158.845z" fill="url(#paint10_linear)"/><path d="M262.798 454.155h-28.303L233.642 613h29.582l-.426-158.845z" fill="url(#paint11_linear)"/><path d="M181.303 454.155h-26.17L154.422 613h27.308l-.427-158.845z" fill="url(#paint12_linear)"/><path d="M156.129 453.872H153v159.27h3.129v-159.27zM263.367 453.872h-3.129v159.27h3.129v-159.27zM183.01 475.533h-3.129V613h3.129V475.533zM235.775 477.231h-3.129V613h3.129V477.231zM174.049 497.618c-.427 0-.853-.142-1.138-.425l-13.938-14.157c-.569-.566-.569-1.557 0-2.124.569-.566 1.565-.566 2.134 0l13.938 14.158c.569.566.569 1.557 0 2.123a1.542 1.542 0 0 1-.996.425zM174.049 516.164c-.427 0-.853-.142-1.138-.425l-13.938-14.157c-.569-.566-.569-1.557 0-2.124.569-.566 1.565-.566 2.134 0l13.938 14.158c.569.566.569 1.557 0 2.123a1.542 1.542 0 0 1-.996.425zM174.049 534.71c-.427 0-.853-.141-1.138-.425l-13.938-14.157c-.569-.566-.569-1.557 0-2.124.569-.566 1.565-.566 2.134 0l13.938 14.158c.569.566.569 1.557 0 2.123a1.537 1.537 0 0 1-.996.425zM174.049 553.256c-.427 0-.853-.141-1.138-.425l-13.938-14.157c-.569-.566-.569-1.557 0-2.123.569-.567 1.565-.567 2.134 0l13.938 14.157c.569.566.569 1.557 0 2.123a1.537 1.537 0 0 1-.996.425zM174.049 571.802c-.427 0-.853-.141-1.138-.425l-13.938-14.157c-.569-.566-.569-1.557 0-2.123.569-.567 1.565-.567 2.134 0l13.938 14.157c.569.566.569 1.557 0 2.123a1.537 1.537 0 0 1-.996.425zM174.049 590.348c-.427 0-.853-.141-1.138-.424l-13.938-14.158c-.569-.566-.569-1.557 0-2.123.569-.567 1.565-.567 2.134 0l13.938 14.157c.569.566.569 1.557 0 2.124a1.54 1.54 0 0 1-.996.424zM174.049 608.894c-.427 0-.853-.141-1.138-.424l-13.938-14.158c-.569-.566-.569-1.557 0-2.123.569-.567 1.565-.567 2.134 0l13.938 14.157c.569.566.569 1.557 0 2.124a1.54 1.54 0 0 1-.996.424zM241.606 497.618c-.426 0-.853-.142-1.138-.425-.568-.566-.568-1.557 0-2.123l13.938-14.158c.569-.566 1.565-.566 2.134 0 .569.567.569 1.558 0 2.124l-13.938 14.157c-.285.283-.569.425-.996.425zM241.606 516.164c-.426 0-.853-.142-1.138-.425-.568-.566-.568-1.557 0-2.123l13.938-14.158c.569-.566 1.565-.566 2.134 0 .569.567.569 1.558 0 2.124l-13.938 14.157c-.285.283-.569.425-.996.425zM241.606 534.71c-.426 0-.853-.141-1.138-.425-.568-.566-.568-1.557 0-2.123l13.938-14.158c.569-.566 1.565-.566 2.134 0 .569.567.569 1.558 0 2.124l-13.938 14.157c-.285.284-.569.425-.996.425zM241.606 553.256c-.426 0-.853-.141-1.138-.425-.568-.566-.568-1.557 0-2.123l13.938-14.157c.569-.567 1.565-.567 2.134 0 .569.566.569 1.557 0 2.123l-13.938 14.157c-.285.284-.569.425-.996.425zM241.606 571.802c-.426 0-.853-.141-1.138-.425-.568-.566-.568-1.557 0-2.123l13.938-14.157c.569-.567 1.565-.567 2.134 0 .569.566.569 1.557 0 2.123l-13.938 14.157c-.285.284-.569.425-.996.425zM241.606 590.348c-.426 0-.853-.141-1.138-.424-.568-.567-.568-1.558 0-2.124l13.938-14.157c.569-.567 1.565-.567 2.134 0 .569.566.569 1.557 0 2.123l-13.938 14.158c-.285.283-.569.424-.996.424zM241.606 608.894c-.426 0-.853-.141-1.138-.424-.568-.567-.568-1.558 0-2.124l13.938-14.157c.569-.567 1.565-.567 2.134 0 .569.566.569 1.557 0 2.123l-13.938 14.158c-.285.283-.569.424-.996.424z" fill="#7B123C"/><path d="M235.348 431.22h-54.33l-27.022 22.652 27.022 22.652h54.33l27.165-22.652-27.165-22.652z" fill="#7B123C"/><path d="M235.348 477.373h-54.33c-.142 0-.426 0-.569-.142l-27.165-22.651a1.081 1.081 0 0 1-.284-.708c0-.283.142-.425.284-.708l27.165-22.652c.143-.141.285-.141.569-.141h54.33c.143 0 .427 0 .569.141l27.165 22.652c.142.142.285.425.285.708s-.143.425-.285.708l-27.165 22.651c-.142.142-.426.142-.569.142zm-53.903-1.699h53.619l26.169-21.802-26.169-21.802h-53.619l-26.169 21.802 26.169 21.802zM224.681 499.175h-34.134v5.663h34.134v-5.663zM224.681 517.721h-34.134v5.663h34.134v-5.663zM224.681 536.267h-34.134v5.663h34.134v-5.663zM224.681 554.813h-34.134v5.663h34.134v-5.663zM224.681 573.36h-34.134v5.662h34.134v-5.662zM224.681 591.906h-34.134v5.663h34.134v-5.663z" fill="#7B123C"/><path d="M315.705 384.784H211.597L208.468 613H317.27l-1.565-228.216z" fill="url(#paint13_linear)"/><path d="M316.843 384.784H288.54L287.687 613h29.583l-.427-228.216z" fill="url(#paint14_linear)"/><path d="M235.348 384.784h-26.169L208.468 613h27.307l-.427-228.216z" fill="url(#paint15_linear)"/><path d="M210.174 384.501h-3.129v228.641h3.129V384.501zM317.412 384.501h-3.129v228.641h3.129V384.501zM236.913 406.162h-3.129V613h3.129V406.162zM289.82 407.861h-3.129V613h3.129V407.861zM228.095 428.247c-.427 0-.854-.141-1.138-.425l-13.938-14.157c-.569-.566-.569-1.557 0-2.123.569-.567 1.564-.567 2.133 0l13.938 14.157c.569.566.569 1.557 0 2.123a1.535 1.535 0 0 1-.995.425zM228.095 446.793c-.427 0-.854-.141-1.138-.424l-13.938-14.158c-.569-.566-.569-1.557 0-2.123.569-.567 1.564-.567 2.133 0l13.938 14.157c.569.566.569 1.557 0 2.124a1.538 1.538 0 0 1-.995.424zM228.095 465.339c-.427 0-.854-.141-1.138-.424l-13.938-14.158c-.569-.566-.569-1.557 0-2.123.569-.567 1.564-.567 2.133 0l13.938 14.157c.569.566.569 1.557 0 2.124a1.538 1.538 0 0 1-.995.424zM228.095 483.885c-.427 0-.854-.141-1.138-.424l-13.938-14.158c-.569-.566-.569-1.557 0-2.123.569-.567 1.564-.567 2.133 0l13.938 14.157c.569.566.569 1.557 0 2.124a1.538 1.538 0 0 1-.995.424zM228.095 502.431c-.427 0-.854-.141-1.138-.424l-13.938-14.158c-.569-.566-.569-1.557 0-2.123.569-.566 1.564-.566 2.133 0l13.938 14.157c.569.566.569 1.557 0 2.124a1.538 1.538 0 0 1-.995.424zM228.095 520.978c-.427 0-.854-.142-1.138-.425l-13.938-14.158c-.569-.566-.569-1.557 0-2.123.569-.566 1.564-.566 2.133 0l13.938 14.157c.569.566.569 1.557 0 2.124a1.54 1.54 0 0 1-.995.425zM228.095 539.524c-.427 0-.854-.142-1.138-.425l-13.938-14.157c-.569-.567-.569-1.558 0-2.124.569-.566 1.564-.566 2.133 0l13.938 14.157c.569.567.569 1.558 0 2.124a1.54 1.54 0 0 1-.995.425zM228.095 558.07c-.427 0-.854-.142-1.138-.425l-13.938-14.157c-.569-.567-.569-1.558 0-2.124.569-.566 1.564-.566 2.133 0l13.938 14.157c.569.567.569 1.558 0 2.124a1.54 1.54 0 0 1-.995.425zM228.095 576.757c-.427 0-.854-.141-1.138-.424l-13.938-14.158c-.569-.566-.569-1.557 0-2.123.569-.567 1.564-.567 2.133 0l13.938 14.157c.569.566.569 1.557 0 2.124a1.538 1.538 0 0 1-.995.424zM228.095 595.303c-.427 0-.854-.141-1.138-.424l-13.938-14.158c-.569-.566-.569-1.557 0-2.123.569-.567 1.564-.567 2.133 0l13.938 14.157c.569.566.569 1.557 0 2.124a1.538 1.538 0 0 1-.995.424zM295.652 428.247c-.427 0-.854-.141-1.138-.425-.569-.566-.569-1.557 0-2.123l13.938-14.157c.569-.567 1.564-.567 2.133 0 .569.566.569 1.557 0 2.123l-13.938 14.157c-.284.284-.569.425-.995.425zM295.652 446.793c-.427 0-.854-.141-1.138-.424-.569-.567-.569-1.558 0-2.124l13.938-14.157c.569-.567 1.564-.567 2.133 0 .569.566.569 1.557 0 2.123l-13.938 14.158c-.284.283-.569.424-.995.424zM295.652 465.339c-.427 0-.854-.141-1.138-.424-.569-.567-.569-1.558 0-2.124l13.938-14.157c.569-.567 1.564-.567 2.133 0 .569.566.569 1.557 0 2.123l-13.938 14.158c-.284.283-.569.424-.995.424zM295.652 483.885c-.427 0-.854-.141-1.138-.424-.569-.567-.569-1.558 0-2.124l13.938-14.157c.569-.567 1.564-.567 2.133 0 .569.566.569 1.557 0 2.123l-13.938 14.158c-.284.283-.569.424-.995.424zM295.652 502.431c-.427 0-.854-.141-1.138-.424-.569-.567-.569-1.558 0-2.124l13.938-14.157c.569-.566 1.564-.566 2.133 0s.569 1.557 0 2.123l-13.938 14.158c-.284.283-.569.424-.995.424zM295.652 520.978c-.427 0-.854-.142-1.138-.425-.569-.567-.569-1.558 0-2.124l13.938-14.157c.569-.566 1.564-.566 2.133 0s.569 1.557 0 2.123l-13.938 14.158c-.284.283-.569.425-.995.425zM295.652 539.524c-.427 0-.854-.142-1.138-.425-.569-.566-.569-1.557 0-2.124l13.938-14.157c.569-.566 1.564-.566 2.133 0s.569 1.557 0 2.124l-13.938 14.157c-.284.283-.569.425-.995.425zM295.652 558.07c-.427 0-.854-.142-1.138-.425-.569-.566-.569-1.557 0-2.124l13.938-14.157c.569-.566 1.564-.566 2.133 0s.569 1.557 0 2.124l-13.938 14.157c-.284.283-.569.425-.995.425zM295.652 576.757c-.427 0-.854-.141-1.138-.424-.569-.567-.569-1.558 0-2.124l13.938-14.157c.569-.567 1.564-.567 2.133 0 .569.566.569 1.557 0 2.123l-13.938 14.158c-.284.283-.569.424-.995.424zM295.652 595.303c-.427 0-.854-.141-1.138-.424-.569-.567-.569-1.558 0-2.124l13.938-14.157c.569-.567 1.564-.567 2.133 0 .569.566.569 1.557 0 2.123l-13.938 14.158c-.284.283-.569.424-.995.424z" fill="#7B123C"/><path d="M289.394 361.849h-54.33l-27.165 22.652 27.165 22.652h54.33l27.165-22.652-27.165-22.652z" fill="#7B123C"/><path d="M289.394 408.002h-54.33c-.142 0-.427 0-.569-.141l-27.165-22.652a1.082 1.082 0 0 1-.285-.708c0-.283.143-.425.285-.708l27.165-22.651c.142-.142.427-.142.569-.142h54.33c.142 0 .426 0 .569.142l27.165 22.651c.142.142.284.425.284.708s-.142.425-.284.708l-27.165 22.652c-.143.141-.427.141-.569.141zm-54.046-1.699h53.619l26.169-21.802-26.027-21.802h-53.761l-26.027 21.802 26.027 21.802zM278.727 429.805h-34.134v5.662h34.134v-5.662zM278.727 448.351h-34.134v5.662h34.134v-5.662zM278.727 466.897h-34.134v5.663h34.134v-5.663zM278.727 485.443h-34.134v5.663h34.134v-5.663zM278.727 503.989h-34.134v5.663h34.134v-5.663zM278.727 522.535h-34.134v5.663h34.134v-5.663zM278.727 541.081h-34.134v5.663h34.134v-5.663zM278.727 559.627h-34.134v5.663h34.134v-5.663zM278.727 578.315h-34.134v5.663h34.134v-5.663zM278.727 596.861h-34.134v5.663h34.134v-5.663z" fill="#7B123C"/><path d="M376.293 499.458H272.185L269.056 613h108.802l-1.565-113.542z" fill="url(#paint16_linear)"/><path d="M377.431 499.458h-28.303L348.275 613h29.583l-.427-113.542z" fill="url(#paint17_linear)"/><path d="M295.936 499.458h-26.027L269.056 613h27.307l-.427-113.542z" fill="url(#paint18_linear)"/><path d="M270.762 499.175h-3.129v113.967h3.129V499.175zM378 499.175h-3.129v113.967H378V499.175zM297.643 520.836h-3.129V613h3.129v-92.164zM350.408 522.535h-3.129V613h3.129v-90.465zM288.682 542.921c-.426 0-.853-.141-1.137-.424l-13.938-14.158c-.569-.566-.569-1.557 0-2.123.569-.567 1.564-.567 2.133 0l13.938 14.157c.569.566.569 1.557 0 2.124a1.539 1.539 0 0 1-.996.424zM288.682 561.467c-.426 0-.853-.141-1.137-.424l-13.938-14.158c-.569-.566-.569-1.557 0-2.123.569-.566 1.564-.566 2.133 0l13.938 14.157c.569.566.569 1.557 0 2.124a1.539 1.539 0 0 1-.996.424zM288.682 580.013c-.426 0-.853-.141-1.137-.424l-13.938-14.158c-.569-.566-.569-1.557 0-2.123.569-.566 1.564-.566 2.133 0l13.938 14.157c.569.566.569 1.557 0 2.124a1.539 1.539 0 0 1-.996.424zM288.682 598.56c-.426 0-.853-.142-1.137-.425l-13.938-14.157c-.569-.567-.569-1.558 0-2.124.569-.566 1.564-.566 2.133 0l13.938 14.157c.569.567.569 1.558 0 2.124a1.54 1.54 0 0 1-.996.425zM356.24 542.921c-.427 0-.854-.141-1.138-.424-.569-.567-.569-1.558 0-2.124l13.938-14.157c.569-.567 1.564-.567 2.133 0 .569.566.569 1.557 0 2.123l-13.938 14.158c-.142.283-.569.424-.995.424zM356.24 561.467c-.427 0-.854-.141-1.138-.424-.569-.567-.569-1.558 0-2.124l13.938-14.157c.569-.566 1.564-.566 2.133 0s.569 1.557 0 2.123l-13.938 14.158c-.142.283-.569.424-.995.424zM356.24 580.013c-.427 0-.854-.141-1.138-.424-.569-.567-.569-1.558 0-2.124l13.938-14.157c.569-.566 1.564-.566 2.133 0s.569 1.557 0 2.123l-13.938 14.158c-.142.283-.569.424-.995.424zM356.24 598.56c-.427 0-.854-.142-1.138-.425-.569-.566-.569-1.557 0-2.124l13.938-14.157c.569-.566 1.564-.566 2.133 0s.569 1.557 0 2.124l-13.938 14.157c-.142.283-.569.425-.995.425z" fill="#7B123C"/><path d="M349.982 476.524h-54.33l-27.023 22.651 27.023 22.652h54.33l27.165-22.652-27.165-22.651z" fill="#7B123C"/><path d="M349.982 522.676h-54.33c-.143 0-.427 0-.569-.141l-27.165-22.652a1.08 1.08 0 0 1-.285-.708c0-.283.143-.424.285-.708l27.165-22.651c.142-.142.284-.142.569-.142h54.33c.142 0 .426 0 .568.142l27.165 22.651c.143.142.285.425.285.708s-.142.425-.285.708l-27.165 22.652c-.142.141-.284.141-.568.141zm-53.904-1.698h53.619l26.17-21.803-26.17-21.802h-53.619l-26.169 21.802 26.169 21.803zM339.315 544.479h-34.134v5.663h34.134v-5.663zM339.315 563.025h-34.134v5.663h34.134v-5.663zM339.315 581.571h-34.134v5.663h34.134v-5.663zM339.315 600.117h-34.134v5.663h34.134v-5.663z" fill="#7B123C"/></g><path opacity=".5" d="M468.88 146.116c-1.174.511-2.349.852-3.355 1.192-4.697 1.192-9.562 1.022-14.427.511-2.349-.17-4.697-.511-6.878.17-5.033 1.533-7.549 7.492-7.381 12.94.167 5.448 2.516 10.386 4.026 15.493" stroke="#fff" stroke-width=".948" stroke-miterlimit="10" stroke-linecap="round"/><path d="M476.319 148.901c-1.698-4.599-6.307-7.504-10.915-7.504l7.761 20.334c3.639-2.905 4.851-7.988 3.154-12.83z" fill="#EE5059"/><path opacity=".7" d="M490.521 56.73c0 14.813-10.904 26.731-24.157 26.731s-24.157-11.918-24.157-26.73c0-14.813 10.736-26.731 24.157-26.731 13.253 0 24.157 11.918 24.157 26.73z" fill="url(#paint19_linear)"/><defs><radialGradient id="paint0_radial" cx="0" cy="0" r="1" gradientUnits="userSpaceOnUse" gradientTransform="matrix(41 0 0 41 110 41)"><stop stop-color="#C73B3D"/><stop offset=".319" stop-color="#C43A3D"/><stop offset=".523" stop-color="#BC353D"/><stop offset=".695" stop-color="#AD2D3D"/><stop offset=".848" stop-color="#98223C"/><stop offset=".989" stop-color="#7D133C"/><stop offset="1" stop-color="#7B123C"/></radialGradient><linearGradient id="paint1_linear" x1="21.656" y1="343.535" x2="65.2" y2="343.535" gradientUnits="userSpaceOnUse"><stop stop-color="#E99C56"/><stop offset=".179" stop-color="#E59253"/><stop offset=".489" stop-color="#DC764C"/><stop offset=".888" stop-color="#CC4941"/><stop offset="1" stop-color="#C73B3D"/></linearGradient><linearGradient id="paint2_linear" x1="21.656" y1="343.535" x2="42.879" y2="343.535" gradientUnits="userSpaceOnUse"><stop stop-color="#E99C56"/><stop offset=".179" stop-color="#E59253"/><stop offset=".489" stop-color="#DC764C"/><stop offset=".888" stop-color="#CC4941"/><stop offset="1" stop-color="#C73B3D"/></linearGradient><linearGradient id="paint3_linear" x1="88.371" y1="552.2" x2="65.2" y2="552.2" gradientUnits="userSpaceOnUse"><stop stop-color="#E99C56"/><stop offset=".179" stop-color="#E59253"/><stop offset=".489" stop-color="#DC764C"/><stop offset=".888" stop-color="#CC4941"/><stop offset="1" stop-color="#C73B3D"/></linearGradient><linearGradient id="paint4_linear" x1="136.159" y1="469.751" x2="110.356" y2="469.751" gradientUnits="userSpaceOnUse"><stop stop-color="#E99C56"/><stop offset=".179" stop-color="#E59253"/><stop offset=".489" stop-color="#DC764C"/><stop offset=".888" stop-color="#CC4941"/><stop offset="1" stop-color="#C73B3D"/></linearGradient><linearGradient id="paint5_linear" x1="484.261" y1="422.699" x2="476.565" y2="422.699" gradientUnits="userSpaceOnUse"><stop stop-color="#E99C56"/><stop offset=".179" stop-color="#E59253"/><stop offset=".489" stop-color="#DC764C"/><stop offset=".888" stop-color="#CC4941"/><stop offset="1" stop-color="#C73B3D"/></linearGradient><linearGradient id="paint6_linear" x1="430.39" y1="495.305" x2="422.694" y2="495.305" gradientUnits="userSpaceOnUse"><stop stop-color="#E99C56"/><stop offset=".179" stop-color="#E59253"/><stop offset=".489" stop-color="#DC764C"/><stop offset=".888" stop-color="#CC4941"/><stop offset="1" stop-color="#C73B3D"/></linearGradient><linearGradient id="paint7_linear" x1="470.793" y1="582.432" x2="463.097" y2="582.432" gradientUnits="userSpaceOnUse"><stop stop-color="#E99C56"/><stop offset=".179" stop-color="#E59253"/><stop offset=".489" stop-color="#DC764C"/><stop offset=".888" stop-color="#CC4941"/><stop offset="1" stop-color="#C73B3D"/></linearGradient><linearGradient id="paint8_linear" x1="484.261" y1="582.432" x2="476.565" y2="582.432" gradientUnits="userSpaceOnUse"><stop stop-color="#E99C56"/><stop offset=".179" stop-color="#E59253"/><stop offset=".489" stop-color="#DC764C"/><stop offset=".888" stop-color="#CC4941"/><stop offset="1" stop-color="#C73B3D"/></linearGradient><linearGradient id="paint9_linear" x1="497.728" y1="582.432" x2="490.033" y2="582.432" gradientUnits="userSpaceOnUse"><stop stop-color="#E99C56"/><stop offset=".179" stop-color="#E59253"/><stop offset=".489" stop-color="#DC764C"/><stop offset=".888" stop-color="#CC4941"/><stop offset="1" stop-color="#C73B3D"/></linearGradient><linearGradient id="paint10_linear" x1="263.2" y1="533.628" x2="154.42" y2="533.628" gradientUnits="userSpaceOnUse"><stop stop-color="#E99C56"/><stop offset=".179" stop-color="#E59253"/><stop offset=".489" stop-color="#DC764C"/><stop offset=".888" stop-color="#CC4941"/><stop offset="1" stop-color="#C73B3D"/></linearGradient><linearGradient id="paint11_linear" x1="263.2" y1="533.628" x2="233.687" y2="533.628" gradientUnits="userSpaceOnUse"><stop stop-color="#E99C56"/><stop offset=".179" stop-color="#E59253"/><stop offset=".489" stop-color="#DC764C"/><stop offset=".888" stop-color="#CC4941"/><stop offset="1" stop-color="#C73B3D"/></linearGradient><linearGradient id="paint12_linear" x1="181.688" y1="533.628" x2="154.42" y2="533.628" gradientUnits="userSpaceOnUse"><stop stop-color="#E99C56"/><stop offset=".179" stop-color="#E59253"/><stop offset=".489" stop-color="#DC764C"/><stop offset=".888" stop-color="#CC4941"/><stop offset="1" stop-color="#C73B3D"/></linearGradient><linearGradient id="paint13_linear" x1="317.229" y1="498.943" x2="208.449" y2="498.943" gradientUnits="userSpaceOnUse"><stop stop-color="#E99C56"/><stop offset=".179" stop-color="#E59253"/><stop offset=".489" stop-color="#DC764C"/><stop offset=".888" stop-color="#CC4941"/><stop offset="1" stop-color="#C73B3D"/></linearGradient><linearGradient id="paint14_linear" x1="317.228" y1="498.943" x2="287.716" y2="498.943" gradientUnits="userSpaceOnUse"><stop stop-color="#E99C56"/><stop offset=".179" stop-color="#E59253"/><stop offset=".489" stop-color="#DC764C"/><stop offset=".888" stop-color="#CC4941"/><stop offset="1" stop-color="#C73B3D"/></linearGradient><linearGradient id="paint15_linear" x1="235.717" y1="498.943" x2="208.449" y2="498.943" gradientUnits="userSpaceOnUse"><stop stop-color="#E99C56"/><stop offset=".179" stop-color="#E59253"/><stop offset=".489" stop-color="#DC764C"/><stop offset=".888" stop-color="#CC4941"/><stop offset="1" stop-color="#C73B3D"/></linearGradient><linearGradient id="paint16_linear" x1="377.844" y1="556.28" x2="269.064" y2="556.28" gradientUnits="userSpaceOnUse"><stop stop-color="#E99C56"/><stop offset=".179" stop-color="#E59253"/><stop offset=".489" stop-color="#DC764C"/><stop offset=".888" stop-color="#CC4941"/><stop offset="1" stop-color="#C73B3D"/></linearGradient><linearGradient id="paint17_linear" x1="377.844" y1="556.28" x2="348.331" y2="556.28" gradientUnits="userSpaceOnUse"><stop stop-color="#E99C56"/><stop offset=".179" stop-color="#E59253"/><stop offset=".489" stop-color="#DC764C"/><stop offset=".888" stop-color="#CC4941"/><stop offset="1" stop-color="#C73B3D"/></linearGradient><linearGradient id="paint18_linear" x1="296.332" y1="556.28" x2="269.064" y2="556.28" gradientUnits="userSpaceOnUse"><stop stop-color="#E99C56"/><stop offset=".179" stop-color="#E59253"/><stop offset=".489" stop-color="#DC764C"/><stop offset=".888" stop-color="#CC4941"/><stop offset="1" stop-color="#C73B3D"/></linearGradient><linearGradient id="paint19_linear" x1="442.145" y1="56.748" x2="490.447" y2="56.748" gradientUnits="userSpaceOnUse"><stop stop-color="#46E5E0"/><stop offset=".36" stop-color="#3DD2D7"/><stop offset="1" stop-color="#2FB5C8"/></linearGradient><clipPath id="clip0"><path fill="#fff" d="M188 172h99v37.2h-99z"/></clipPath><clipPath id="clip1"><path fill="#fff" d="M223 14h186.5v118H223z"/></clipPath><clipPath id="clip2"><path fill="#fff" d="M304 246h226v377H304z"/></clipPath><clipPath id="clip3"><path fill="#fff" d="M15 233h124v364H15z"/></clipPath><clipPath id="clip4"><path fill="#fff" d="M153 361h225v252H153z"/></clipPath></defs></svg>