<svg viewBox="0 0 100 100" xmlns="http://www.w3.org/2000/svg"><path d="m8.7 49.6v.1l22.4 15.8c.1.1.1.2.1.3v2c0 .1-.1.2-.2.3h-.2c-.1 0-.1 0-.2-.1l-24.2-17.1c-.1-.1-.1-.2-.1-.3v-2c0-.1 0-.2.1-.3l24.2-17c.1-.1.3-.1.4 0s.2.2.2.4v1.7c0 .1-.1.3-.2.3zm53.6-28.9-22.1 58.9c-.1.2-.2.3-.4.3h-1.7c-.1 0-.3-.1-.3-.2-.1-.1-.1-.3-.1-.4l22.1-58.9c.1-.2.2-.3.4-.3h1.7c.1 0 .3.1.3.2.1.2.1.3.1.4zm31.4 28v2c0 .1 0 .2-.1.3l-24.4 17h-.4c-.1-.1-.2-.2-.2-.3v-1.9c0-.1.1-.3.2-.4l22.4-15.7v-.1l-22.4-15.8c-.1-.1-.1-.2-.1-.3v-1.7c0-.2.1-.3.2-.4.2-.1.3-.1.5 0l24.2 16.9c.1.2.1.3.1.4z" fill="#1e1e1e"/></svg>