<svg data-name="Layer 1" xmlns="http://www.w3.org/2000/svg" viewBox="0 0 100 100"><path d="M89 11.2V88H11.2V11.2H89z" fill="#f7b07c"/><path d="M35.8 37.9L18.9 49.7l16.9 11.9a.5.5 0 0 1 .2.4v1.5c0 .2-.1.3-.3.4h-.5l-18.5-13c-.2-.1-.2-.2-.2-.4V49c0-.2 0-.3.2-.4l18.4-13a.6.6 0 0 1 .6 0 .5.5 0 0 1 .3.5v1.3a.8.8 0 0 1-.2.5zm23.7-10.2L42.7 72.6a.9.9 0 0 1-.5.3H41a.5.5 0 0 1-.4-.2.6.6 0 0 1-.1-.4l16.8-44.9a.5.5 0 0 1 .5-.3H59a.5.5 0 0 1 .4.2.6.6 0 0 1 .1.4zM83.6 49v1.5c0 .2-.1.3-.3.4l-18.5 13h-.5c-.2-.2-.3-.3-.3-.5V62a.5.5 0 0 1 .3-.4l16.8-11.9-16.9-11.8a.8.8 0 0 1-.2-.4v-1.4a.5.5 0 0 1 .3-.5c.2-.1.5-.1.6.1l18.4 12.9c.2.1.3.2.3.4z" fill="#171d2f"/><path d="M87.5 89.8h-75a2.3 2.3 0 0 1-2.3-2.3v-75a2.3 2.3 0 0 1 2.3-2.3h75a2.3 2.3 0 0 1 2.3 2.3v75a2.3 2.3 0 0 1-2.3 2.3zm-75-77.7a.4.4 0 0 0-.4.4v75a.4.4 0 0 0 .4.4h75a.4.4 0 0 0 .4-.4v-75a.4.4 0 0 0-.4-.4z" fill="#171d2f"/></svg>