<svg id="Layer_1" data-name="Layer 1" xmlns="http://www.w3.org/2000/svg" viewBox="0 0 100 100"><title>compass</title><path d="M50,13.16A36.84,36.84,0,1,0,86.84,50,36.89,36.89,0,0,0,50,13.16Zm0,70.58A33.74,33.74,0,1,1,83.74,50,33.78,33.78,0,0,1,50,83.74Z" fill="#430632"/><path d="M68.77,31.23a3.38,3.38,0,0,0-4.1-.48l-19.74,11A3,3,0,0,0,43.5,43.5a3,3,0,0,0-1.79,1.43l-11,19.73a3.35,3.35,0,0,0,.48,4.11,3.25,3.25,0,0,0,2.32,1,3.66,3.66,0,0,0,1.78-.48l19.74-11A3,3,0,0,0,56.5,56.5a3,3,0,0,0,1.79-1.42l11-19.74a3.64,3.64,0,0,0,.49-1.8A3.24,3.24,0,0,0,68.77,31.23ZM46.56,44.35,66.18,33.46c.13-.08.3-.14.39-.05s.05.28,0,.41L55.66,53.45Zm6.9,11.28L33.82,66.54c-.13.08-.3.14-.39,0s0-.28,0-.41L44.35,46.56Z" fill="#430632"/></svg>