<svg data-name="Layer 1" xmlns="http://www.w3.org/2000/svg" viewBox="0 0 100 100"><circle cx="49.9" cy="49.8" r="40.3" transform="rotate(-76.7 49.982 49.82)" fill="#fcd077"/><path d="M50 91.6A41.6 41.6 0 1 1 91.6 50 41.7 41.7 0 0 1 50 91.6zm0-81.2A39.6 39.6 0 1 0 89.6 50 39.6 39.6 0 0 0 50 10.4z" fill="#171d2f"/><path d="M37.3 68.4l.9-1.2a.4.4 0 0 1 .5 0c2.6 2.4 6.6 5.1 11.8 5.1s9.9-4 9.9-9.6C60.4 47.4 39 51.9 39 36.8a11.3 11.3 0 0 1 11.3-11.1c5.4-.1 8.3 2.2 10.9 4.9a.3.3 0 0 1 0 .4l-1 1.1a.3.3 0 0 1-.4 0c-2.7-2.7-4.9-4.4-9.5-4.4a8.7 8.7 0 0 0-8.9 9c0 13.6 21.4 8.8 21.4 25.9 0 7.3-5.6 11.7-12.3 11.7a20.1 20.1 0 0 1-13.2-5.5.3.3 0 0 1 0-.4zm12.3-49.9h1.6a.5.5 0 0 1 .3.3V27h-2.2v-8.2a.3.3 0 0 1 .3-.3zM49.3 74h2.2v7.2l-.3.3h-1.6a.3.3 0 0 1-.3-.3z" fill="#171d2f"/></svg>