<svg id="Layer_1" data-name="Layer 1" xmlns="http://www.w3.org/2000/svg" viewBox="0 0 100 100"><title>file</title><path d="M81.29,88.82H18.71a1.5,1.5,0,0,1-1.5-1.5V12.68a1.5,1.5,0,0,1,1.5-1.5H81.29a1.5,1.5,0,0,1,1.5,1.5V87.32A1.5,1.5,0,0,1,81.29,88.82Zm-61.08-3H79.79V14.18H20.21Z" fill="#430632"/><path d="M73.2,29.73H26.8a1.5,1.5,0,0,1,0-3H73.2a1.5,1.5,0,0,1,0,3Z" fill="#430632"/><path d="M73.2,44.24H26.8a1.5,1.5,0,0,1,0-3H73.2a1.5,1.5,0,0,1,0,3Z" fill="#430632"/><path d="M73.2,58.76H26.8a1.5,1.5,0,0,1,0-3H73.2a1.5,1.5,0,0,1,0,3Z" fill="#430632"/><path d="M73.2,73.27H26.8a1.5,1.5,0,1,1,0-3H73.2a1.5,1.5,0,0,1,0,3Z" fill="#430632"/></svg>