<svg viewBox="0 0 100 100" xmlns="http://www.w3.org/2000/svg"><g fill="#430632"><path d="m81.29 88.82h-62.58a1.5 1.5 0 0 1 -1.5-1.5v-74.64a1.5 1.5 0 0 1 1.5-1.5h62.58a1.5 1.5 0 0 1 1.5 1.5v74.64a1.5 1.5 0 0 1 -1.5 1.5zm-61.08-3h59.58v-71.64h-59.58z"/><path d="m73.2 29.73h-46.4a1.5 1.5 0 0 1 0-3h46.4a1.5 1.5 0 0 1 0 3z"/><path d="m73.2 44.24h-46.4a1.5 1.5 0 0 1 0-3h46.4a1.5 1.5 0 0 1 0 3z"/><path d="m73.2 58.76h-46.4a1.5 1.5 0 0 1 0-3h46.4a1.5 1.5 0 0 1 0 3z"/><path d="m73.2 73.27h-46.4a1.5 1.5 0 1 1 0-3h46.4a1.5 1.5 0 0 1 0 3z"/></g></svg>