<svg data-name="Layer 1" xmlns="http://www.w3.org/2000/svg" viewBox="0 0 100 100"><path d="M82 41.4A35.6 35.6 0 1 1 46.4 5.9 35.7 35.7 0 0 1 82 41.4z" fill="transparent"/><path d="M46.4 77.6a36.2 36.2 0 1 1 36.1-36.2 36.2 36.2 0 0 1-36.1 36.2zm0-70.6a34.4 34.4 0 1 0 34.3 34.4A34.4 34.4 0 0 0 46.4 7z" fill="#171d2f"/><path d="M47.2 84.2V93h18.3a.9.9 0 1 1 0 1.8H27.1a.9.9 0 1 1 0-1.8h18.3v-8.9a42.2 42.2 0 0 1-27.8-12.3.9.9 0 0 1 0-1.3.9.9 0 0 1 1.2 0A40.5 40.5 0 0 0 88 41.8a40.2 40.2 0 0 0-11.8-28.6.9.9 0 0 1 0-1.3.9.9 0 0 1 1.2 0 42.4 42.4 0 0 1-29.9 72.3z" fill="#171d2f"/></svg>
