<svg data-name="Layer 1" xmlns="http://www.w3.org/2000/svg" viewBox="0 0 100 100"><path d="M26.3 15.4l-22 23c-.3.3.9.2 1.2.6l16 16-.3.3a6 6 0 0 0 0 8.4 6 6 0 0 0 4.3 1.8A12 12 0 0 0 30 64c-.6.9-2.3 2.6-2.3 3.8a6 6 0 0 0 1.8 4.2c2 2 6.5.8 8.8-.6-1.5 2.3-2.5 6.8-.5 8.9a6 6 0 0 0 8.4 0l.3-.3 5.8 5.7a5.6 5.6 0 0 0 3.9 1.7h.1a5.5 5.5 0 0 0 3.8-1.6l.2-.2c1.5-1.4 1.4-3.4 1-5.2a7.1 7.1 0 0 0 5.9-1.7c1.4-1.4.5-4.5.1-6.3.4.1 2.3 1.1 2.7 1.1a5.8 5.8 0 0 0 4.1-1.7 5.7 5.7 0 0 0 1.5-5.4 5.5 5.5 0 0 0 5.4-1.5c2.1-2.1 1.1-5.3-.7-7.5-1.1.1-.9.1-1 0l-4-5 20.3-19.2a.9.9 0 0 0 .3-.6.9.9 0 0 0-.3-.7L76.1 12.4a1.1 1.1 0 0 0-1.3 0l-9.2 9.3-5.7-.7a10.9 10.9 0 0 0-8.9 3.1L49.2 26c-3-1.5-6.8-2-11.5-1.6-.3 0-.6.1-.8 0s-1.4 1.2-1.6 1-2.3-3.3-4-5l-4-4z" fill="#fbaecd"/><path d="M29.6 60a5.8 5.8 0 0 1-.4 1.8 3.8 3.8 0 0 1-.9 1.3h-.2a3.9 3.9 0 0 1-2.9 1.1 4.2 4.2 0 0 1-3-1.2 4.2 4.2 0 0 1-1.3-3 4.4 4.4 0 0 1 1.1-2.9c0-.1.1-.1.2-.2a3.4 3.4 0 0 1 1.2-.9 5.8 5.8 0 0 1 1.8-.4 4.6 4.6 0 0 1 3.1 1.3 4.4 4.4 0 0 1 1.3 3.1z" fill="#fbaecd"/><path d="M29.2 64.3l-.7.9.9-.7z" fill="#171d2f"/><path d="M96.2 31.7a1.1 1.1 0 0 0-1.3 0L75.3 51.3 56.6 32.6a.9.9 0 0 0-1.2 0l-7.6 7.5a12.4 12.4 0 0 0-2 2.9 8.2 8.2 0 0 1-4.3 4.6c-1.2.4-3.6.3-4.1-.7s0-4 1.8-8.5a6.7 6.7 0 0 1 1.6-2.5l11-10.9a9.2 9.2 0 0 1 7.5-2.7l6.3.7a.6.6 0 0 0 .7-.2l9.9-9.8a1 1 0 0 0 0-1.3.9.9 0 0 0-1.3 0l-9.5 9.5-5.9-.7a10.9 10.9 0 0 0-9 3.2l-1.9 1.9c-3.1-1.5-6.9-2.1-11.8-1.6h-.9l-.5-.5-8.7-8.6a.8.8 0 0 0-1.2 1.2l8.6 8.7a3.6 3.6 0 0 0 1.2.8 3.2 3.2 0 0 0 1.6.2c4.3-.4 7.7 0 10.3 1.2l-7.7 7.7a7.2 7.2 0 0 0-2 3.1c-2.1 5.2-2.8 7.9-1.7 9.9s4.4 2.3 6.2 1.6 4.2-2.8 5.5-5.5a7.2 7.2 0 0 1 1.6-2.4l6.9-6.9 23.9 24a3.8 3.8 0 0 1 1.2 2.9 4 4 0 0 1-1.2 2.9 4.1 4.1 0 0 1-5.8 0L58.8 49a.8.8 0 0 0-1.2 0 .9.9 0 0 0 0 1.3l15.2 15.2a4.1 4.1 0 1 1-5.8 5.8L51.8 56a1 1 0 0 0-1.3 0 .9.9 0 0 0 0 1.3l15.3 15.3a4.1 4.1 0 0 1 0 5.8 4.1 4.1 0 0 1-5.8 0L44.7 63.1a.9.9 0 1 0-1.3 1.3l15.3 15.3a4.1 4.1 0 0 1 0 5.8h-.1a4 4 0 0 1-5.6 0L47.5 80a6.8 6.8 0 0 0 .8-3.1 6 6 0 0 0-1.8-4.4 5.8 5.8 0 0 0-4.3-1.8 5.6 5.6 0 0 0-3.1.9h-.2v-.2a5.6 5.6 0 0 0 .9-3.1 6.5 6.5 0 0 0-1.8-4.4 6.2 6.2 0 0 0-7.5-.9h-.2c.1-.1.1-.1.1-.2a5.6 5.6 0 0 0 .9-3.1 6.5 6.5 0 0 0-1.8-4.4 6.2 6.2 0 0 0-7.5-.9l-17-17a.9.9 0 0 0-1.3 0 .9.9 0 0 0 0 1.2l17 17.2a6.5 6.5 0 0 0-1.6 4.2 6.1 6.1 0 0 0 6.1 6.1 6 6 0 0 0 3.3-.9 6 6 0 0 0-.9 3.3 6 6 0 0 0 1.8 4.3 5.8 5.8 0 0 0 4.3 1.8 5.6 5.6 0 0 0 3.3-1 6.7 6.7 0 0 0-1 3.4 6.4 6.4 0 0 0 1.8 4.3 6.2 6.2 0 0 0 4.4 1.8 5.7 5.7 0 0 0 4.1-1.6l5.5 5.4a5.6 5.6 0 0 0 8 0h.2a5.7 5.7 0 0 0 1.5-5.5h1.4a5.7 5.7 0 0 0 4.1-1.7 5.8 5.8 0 0 0 1.6-5.5h1.3a5.5 5.5 0 0 0 4.2-1.7 6 6 0 0 0 1.6-5.5l1.3.2a5.6 5.6 0 0 0 4.2-1.8 5.7 5.7 0 0 0 1.7-4.1 5.9 5.9 0 0 0-1.7-4.2l-4.6-4.6L96.2 33a1.1 1.1 0 0 0 0-1.3zM28.3 63.1h-.2a3.9 3.9 0 0 1-2.9 1.1 4.2 4.2 0 0 1-3-1.2 4.4 4.4 0 0 1-.2-6c0-.1.1-.1.2-.2a3 3 0 0 1 1.3-.9 4.7 4.7 0 0 1 1.7-.4 4.6 4.6 0 0 1 3.1 1.3 4.4 4.4 0 0 1 1.3 3.2 3.9 3.9 0 0 1-.4 1.8 5.1 5.1 0 0 1-.9 1.3zm9.4 7.2a3.4 3.4 0 0 1-.9 1.2c-.1.1-.1.2-.2.2a4.4 4.4 0 0 1-6-.2 4.2 4.2 0 0 1-1.2-3 4.4 4.4 0 0 1 1.1-2.9v-.2a5.1 5.1 0 0 1 1.3-.9 3.9 3.9 0 0 1 1.8-.4 4.3 4.3 0 0 1 3.1 1.3 4.4 4.4 0 0 1 1.3 3.1 5.8 5.8 0 0 1-.3 1.8zm8.5 8.4l-.9 1.3c-.1.1-.2.1-.2.2a4.4 4.4 0 0 1-7.3-3.2 4 4 0 0 1 1.2-2.9v-.2a3.8 3.8 0 0 1 1.3-.9 3.9 3.9 0 0 1 1.8-.4 4 4 0 0 1 3.1 1.3 4.3 4.3 0 0 1 1.3 3.1 4.7 4.7 0 0 1-.3 1.7z" fill="#171d2f"/></svg>