<svg viewBox="0 0 100 100" xmlns="http://www.w3.org/2000/svg"><g fill="#1e1e1e"><path d="m29.3 69.9c-.1 0-.1.1-.2.1.1-.1.1-.1.2-.1zm8.5 8.5c-.1 0-.1.1-.2.1.1-.1.1-.1.2-.1z"/><path d="m94.9 38.4c-.3-.4-.9-.4-1.3 0l-19.6 19.6-18.7-18.6c-.3-.3-.9-.4-1.2 0l-7.6 7.5c-.8.8-1.5 1.8-2 2.9-1 2.3-2.7 4-4.4 4.6-1.2.4-3.5.2-4.1-.8-.8-1.4 0-3.9 1.8-8.4.4-.9.9-1.8 1.6-2.5l11-11c2-2 4.8-3 7.6-2.7l6.3.7c.3 0 .5-.1.7-.2l9.8-9.8c.3-.3.3-.9 0-1.3-.3-.3-.9-.3-1.3 0l-9.5 9.5-5.8-.7c-3.4-.4-6.7.8-9.1 3.2l-1.9 1.9c-3.1-1.5-6.9-2-11.8-1.6-.3 0-.6.1-.8 0s-.4-.3-.6-.5l-8.6-8.6c-.4-.4-.9-.4-1.3 0-.3.3-.3.9 0 1.3l8.6 8.6c.3.3.7.7 1.2.9.6.2 1.2.2 1.7.1 4.2-.4 7.6 0 10.3 1.2l-7.7 7.7c-.9.9-1.6 1.9-2 3.1-2 5.2-2.8 7.9-1.7 10 1.1 2 4.3 2.3 6.2 1.6 2.2-.8 4.2-2.8 5.4-5.6.4-1 1-1.8 1.6-2.4l6.9-6.9 23.9 24c.8.8 1.2 1.8 1.2 2.9s-.4 2.1-1.2 2.9c-1.6 1.6-4.2 1.6-5.8 0l-15.2-15.3c-.3-.4-.9-.4-1.3 0s-.4.9 0 1.3l15.3 15.3c1.6 1.6 1.6 4.2 0 5.8s-4.2 1.6-5.8 0l-15.2-15.3c-.3-.4-.9-.4-1.3 0s-.4.9 0 1.3l15.3 15.3c1.6 1.6 1.6 4.2 0 5.8-.8.8-1.8 1.2-2.9 1.2s-2.1-.4-2.9-1.2l-15.3-15.4c-.4-.3-.9-.3-1.3 0-.3.4-.3.9 0 1.3l15.3 15.3c1.6 1.6 1.6 4.2 0 5.8l-.1.1c-1.5 1.5-4 1.5-5.5 0l-5.6-5.6c.6-.9.9-2 .9-3.1 0-1.6-.6-3.2-1.8-4.3-1.2-1.2-2.7-1.8-4.4-1.8-1.1 0-2.2.3-3.1.9-.1 0-.1.1-.2.1 0 0 .1-.1.1-.2.6-.9.9-2 .9-3.1 0-1.7-.6-3.2-1.8-4.4-2-2-5.1-2.3-7.5-.9-.1 0-.1.1-.2.1 0-.1.1-.1.1-.2.6-.9.9-2 .9-3.1 0-1.6-.6-3.2-1.8-4.3-2-2-5.1-2.3-7.5-.9l-17-17c-.3-.4-.9-.4-1.3 0-.4.3-.4.9 0 1.3l16.9 16.9c-1 1.1-1.6 2.6-1.6 4.1 0 1.6.6 3.2 1.8 4.3 1.2 1.2 2.7 1.8 4.4 1.8 1.2 0 2.3-.3 3.3-1-.6 1-1 2.1-1 3.3 0 1.6.6 3.2 1.8 4.3 1.2 1.2 2.7 1.8 4.3 1.8 1.2 0 2.3-.3 3.3-1-.6 1-1 2.1-1 3.3 0 1.6.6 3.2 1.8 4.3 1.2 1.2 2.8 1.8 4.3 1.8s3-.5 4.1-1.6l5.4 5.4c1.1 1.1 2.6 1.7 4 1.7 1.5 0 2.9-.6 4-1.7l.1-.1c1.5-1.5 2-3.6 1.6-5.5.4.1.9.2 1.3.2 1.6 0 3.1-.6 4.2-1.7 1.5-1.5 2-3.6 1.6-5.5.4.1.9.2 1.3.2 1.5 0 3-.6 4.2-1.7 1.5-1.5 2-3.6 1.6-5.5.4.1.9.2 1.3.2 1.6 0 3.1-.6 4.2-1.7s1.7-2.6 1.7-4.2-.6-3-1.7-4.2l-4.6-4.6 19.6-19.6c.5-.5.5-1 .2-1.4zm-67.9 31.4-.2.2c-.8.7-1.8 1-2.8 1-1.2 0-2.3-.5-3.1-1.3s-1.3-1.9-1.3-3.1c0-1.1.4-2.1 1.1-2.9 0-.1.1-.1.2-.2.4-.4.8-.7 1.3-.9.6-.3 1.2-.4 1.8-.4 1.1 0 2.2.4 3.1 1.3.8.8 1.3 1.9 1.3 3.1 0 .6-.1 1.2-.4 1.8s-.6 1-1 1.4zm9.4 7.2c-.2.5-.5.9-.9 1.3l-.2.2c-.8.7-1.8 1.1-2.9 1.1-1.2 0-2.3-.4-3.1-1.3-.8-.8-1.3-1.9-1.3-3.1 0-1.1.4-2.1 1.1-2.9 0-.1.1-.1.2-.2.4-.4.8-.7 1.3-.9.6-.3 1.2-.4 1.8-.4 1.1 0 2.2.4 3.1 1.3.8.8 1.3 1.9 1.3 3.1 0 .6-.2 1.2-.4 1.8zm8.5 8.5c-.2.5-.5.9-.9 1.3l-.2.2c-1.7 1.5-4.3 1.5-6-.2-.8-.8-1.3-1.9-1.3-3.1 0-1.1.4-2.1 1.1-2.9l.2-.2c.4-.4.8-.7 1.3-.9.5-.3 1.2-.4 1.8-.4 1.2 0 2.2.5 3.1 1.3.8.8 1.3 1.9 1.3 3.1 0 .6-.2 1.2-.4 1.8z"/></g></svg>