<svg id="Layer_1" data-name="Layer 1" xmlns="http://www.w3.org/2000/svg" viewBox="0 0 100 100"><title>hands</title><path d="M96.61,31.3a1.49,1.49,0,0,0-2.12,0L75.31,50.47,57.06,32.22a1.5,1.5,0,0,0-2.06,0l-7.61,7.54A10.26,10.26,0,0,0,45.3,42.8c-.75,1.65-2.2,3.65-4,4.28-1.08.37-3,.09-3.33-.5-.65-1.18.13-3.69,1.79-7.92a6.62,6.62,0,0,1,1.49-2.29l11-11a8.68,8.68,0,0,1,7.11-2.5l6.25.72a1.48,1.48,0,0,0,1.23-.43l9.82-9.81a1.51,1.51,0,0,0,0-2.12,1.49,1.49,0,0,0-2.12,0l-9.31,9.3-5.53-.64a11.6,11.6,0,0,0-9.57,3.35l-1.59,1.59c-3.1-1.42-7-1.91-11.74-1.48a3,3,0,0,1-.56,0,3.16,3.16,0,0,1-.37-.33c-1.6-1.62-7-7-8.62-8.65a1.5,1.5,0,1,0-2.12,2.12c1.61,1.61,7,7,8.61,8.64A3.46,3.46,0,0,0,37,26.38a21.69,21.69,0,0,1,9.16.79l-7.07,7.07a10,10,0,0,0-2.17,3.32c-1.85,4.73-3,8-1.62,10.46s4.91,2.6,6.94,1.9C45.59,48.76,47.4,45.42,48,44a7.63,7.63,0,0,1,1.48-2.21L56,35.37,79.49,58.9a3.5,3.5,0,1,1-4.95,5L59.25,48.56a1.5,1.5,0,0,0-2.12,2.12L72.42,66a3.5,3.5,0,0,1-5,5L52.18,55.63a1.5,1.5,0,0,0-2.12,2.12L65.35,73a3.51,3.51,0,0,1,0,4.95,3.58,3.58,0,0,1-4.95,0L45.11,62.7A1.5,1.5,0,1,0,43,64.83L58.28,80.11a3.52,3.52,0,0,1,0,5l-.13.13a3.3,3.3,0,0,1-4.67,0l-5.93-5.93a6.75,6.75,0,0,0-8.39-8.75,6.74,6.74,0,0,0-8.5-8.46,6.74,6.74,0,0,0-8.73-8.41L5.52,37.25a1.5,1.5,0,0,0-2.13,2.12l16,16a6.74,6.74,0,0,0,4.88,11.4,6.52,6.52,0,0,0,2.05-.33A6.84,6.84,0,0,0,26,68.47a6.75,6.75,0,0,0,8.8,6.42A6.77,6.77,0,0,0,34.45,77a6.75,6.75,0,0,0,11.4,4.88l5.5,5.5a6.3,6.3,0,0,0,8.91,0l.14-.14A6.47,6.47,0,0,0,62.27,82c.2,0,.41,0,.61,0a6.5,6.5,0,0,0,6.46-7.11l.61,0a6.49,6.49,0,0,0,6.46-7.1c.2,0,.41,0,.61,0a6.49,6.49,0,0,0,4.59-11.09l-4.18-4.19L96.61,33.42A1.51,1.51,0,0,0,96.61,31.3ZM26.89,62.64A3.77,3.77,0,1,1,28,60,3.75,3.75,0,0,1,26.89,62.64Zm8.48,8.48a3.85,3.85,0,0,1-5.3,0,3.75,3.75,0,1,1,5.3,0Zm8.48,8.48A3.74,3.74,0,1,1,45,77,3.75,3.75,0,0,1,43.85,79.6Z" fill="#430632"/></svg>