<?xml version="1.0" encoding="utf-8"?>
<!-- Generator: Adobe Illustrator 25.0.0, SVG Export Plug-In . SVG Version: 6.00 Build 0)  -->
<svg version="1.1" id="Layer_1" xmlns="http://www.w3.org/2000/svg" xmlns:xlink="http://www.w3.org/1999/xlink" x="0px" y="0px"
	 viewBox="0 0 533 350" style="enable-background:new 0 0 533 350;" xml:space="preserve">
<style type="text/css">
	.st0{opacity:0.4;fill:#B84643;}
	.st1{fill:#B84643;}
	.st2{fill:#183F57;}
	.st3{fill:#FFFFFF;}
	.st4{fill:#DF9F62;}
	.st5{fill:#E992EC;}
	.st6{fill:url(#SVGID_1_);}
	.st7{fill:url(#SVGID_2_);}
	.st8{opacity:0.37;fill:#FFFFFF;}
	.st9{fill:url(#SVGID_3_);}
	.st10{clip-path:url(#SVGID_5_);}
	.st11{fill:url(#SVGID_6_);}
	.st12{fill:url(#SVGID_7_);}
	.st13{fill:url(#SVGID_8_);}
	.st14{fill:url(#SVGID_9_);}
	.st15{fill:url(#SVGID_10_);}
	.st16{fill:url(#SVGID_11_);}
	.st17{fill:url(#SVGID_12_);}
	.st18{fill:url(#SVGID_13_);}
	.st19{fill:url(#SVGID_14_);}
	.st20{fill:url(#SVGID_15_);}
	.st21{fill:url(#SVGID_16_);}
	.st22{fill:url(#SVGID_17_);}
	.st23{fill:url(#SVGID_18_);}
	.st24{fill:url(#SVGID_19_);}
	.st25{fill:url(#SVGID_20_);}
	.st26{fill:#F8A570;}
	.st27{fill:url(#SVGID_21_);}
	.st28{fill:url(#SVGID_22_);}
	.st29{fill:url(#SVGID_23_);}
	.st30{fill:url(#SVGID_24_);}
	.st31{fill:url(#SVGID_25_);}
	.st32{fill:url(#SVGID_26_);}
	.st33{opacity:0.6;fill:#FFFFFF;}
	.st34{fill:url(#SVGID_27_);}
	.st35{fill:url(#SVGID_28_);}
	.st36{fill:url(#SVGID_29_);}
	.st37{fill:url(#SVGID_30_);}
	.st38{fill:url(#SVGID_31_);}
	.st39{fill:url(#SVGID_32_);}
	.st40{fill:url(#SVGID_33_);}
	.st41{fill:url(#SVGID_34_);}
	.st42{fill:url(#SVGID_35_);}
	.st43{fill:url(#SVGID_36_);}
	.st44{fill:url(#SVGID_37_);}
	.st45{fill:url(#SVGID_38_);}
	.st46{fill:url(#SVGID_39_);}
	.st47{fill:url(#SVGID_40_);}
	.st48{fill:url(#SVGID_41_);}
	.st49{fill:url(#SVGID_42_);}
	.st50{fill:url(#SVGID_43_);}
	.st51{fill:url(#SVGID_44_);}
	.st52{fill:url(#SVGID_45_);}
	.st53{fill:url(#SVGID_46_);}
	.st54{fill:url(#SVGID_47_);}
	.st55{fill:url(#SVGID_48_);}
	.st56{fill:url(#SVGID_49_);}
	.st57{fill:url(#SVGID_50_);}
	.st58{fill:url(#SVGID_51_);}
	.st59{fill:url(#SVGID_52_);}
	.st60{fill:url(#SVGID_53_);}
	.st61{fill:url(#SVGID_54_);}
	.st62{fill:url(#SVGID_55_);}
	.st63{fill:url(#SVGID_56_);}
	.st64{fill:url(#SVGID_57_);}
	.st65{fill:url(#SVGID_58_);}
	.st66{fill:url(#SVGID_59_);}
	.st67{fill:url(#SVGID_60_);}
	.st68{fill:url(#SVGID_61_);}
	.st69{fill:url(#SVGID_62_);}
	.st70{fill:url(#SVGID_63_);}
	.st71{fill:url(#SVGID_64_);}
	.st72{fill:url(#SVGID_65_);}
	.st73{fill:url(#SVGID_66_);}
	.st74{fill:url(#SVGID_67_);}
	.st75{fill:url(#SVGID_68_);}
	.st76{fill:url(#SVGID_69_);}
	.st77{fill:url(#SVGID_70_);}
	.st78{fill:url(#SVGID_71_);}
	.st79{fill:url(#SVGID_72_);}
	.st80{fill:url(#SVGID_73_);}
	.st81{fill:url(#SVGID_74_);}
	.st82{fill:url(#SVGID_75_);}
	.st83{fill:url(#SVGID_76_);}
	.st84{fill:url(#SVGID_77_);}
	.st85{fill:url(#SVGID_78_);}
	.st86{fill:url(#SVGID_79_);}
	.st87{fill:url(#SVGID_80_);}
	.st88{fill:url(#SVGID_81_);}
	.st89{fill:url(#SVGID_82_);}
	.st90{fill:url(#SVGID_83_);}
	.st91{fill:url(#SVGID_84_);}
	.st92{fill:url(#SVGID_85_);}
	.st93{fill:url(#SVGID_86_);}
	.st94{fill:url(#SVGID_87_);}
	.st95{fill:url(#SVGID_88_);}
	.st96{fill:url(#SVGID_89_);}
	.st97{fill:url(#SVGID_90_);}
	.st98{fill:url(#SVGID_91_);}
	.st99{fill:url(#SVGID_92_);}
	.st100{fill:url(#SVGID_93_);}
	.st101{fill:url(#SVGID_94_);}
	.st102{fill:url(#SVGID_95_);}
	.st103{fill:url(#SVGID_96_);}
	.st104{fill:url(#SVGID_97_);}
	.st105{fill:url(#SVGID_98_);}
	.st106{fill:url(#SVGID_99_);}
	.st107{fill:url(#SVGID_100_);}
	.st108{fill:url(#SVGID_101_);}
	.st109{fill:url(#SVGID_102_);}
	.st110{fill:url(#SVGID_103_);}
	.st111{fill:url(#SVGID_104_);}
	.st112{fill:url(#SVGID_105_);}
	.st113{fill:url(#SVGID_106_);}
	.st114{fill:url(#SVGID_107_);}
	.st115{fill:url(#SVGID_108_);}
	.st116{fill:url(#SVGID_109_);}
	.st117{fill:url(#SVGID_110_);}
	.st118{fill:url(#SVGID_111_);}
	.st119{fill:url(#SVGID_112_);}
	.st120{fill:url(#SVGID_113_);}
	.st121{fill:url(#SVGID_114_);}
	.st122{fill:url(#SVGID_115_);}
	.st123{fill:url(#SVGID_116_);}
	.st124{fill:url(#SVGID_117_);}
	.st125{fill:url(#SVGID_118_);}
	.st126{fill:url(#SVGID_119_);}
	.st127{fill:url(#SVGID_120_);}
	.st128{fill:url(#SVGID_121_);}
	.st129{fill:url(#SVGID_122_);}
	.st130{fill:url(#SVGID_123_);}
	.st131{fill:url(#SVGID_124_);}
	.st132{fill:url(#SVGID_125_);}
	.st133{fill:url(#SVGID_126_);}
	.st134{fill:url(#SVGID_127_);}
	.st135{fill:url(#SVGID_128_);}
	.st136{fill:url(#SVGID_129_);}
	.st137{fill:url(#SVGID_130_);}
	.st138{fill:url(#SVGID_131_);}
	.st139{fill:url(#SVGID_132_);}
	.st140{fill:url(#SVGID_133_);}
	.st141{fill:url(#SVGID_134_);}
	.st142{fill:url(#SVGID_135_);}
	.st143{fill:url(#SVGID_136_);}
	.st144{fill:url(#SVGID_137_);}
	.st145{fill:url(#SVGID_138_);}
	.st146{fill:url(#SVGID_139_);}
	.st147{fill:url(#SVGID_140_);}
	.st148{fill:url(#SVGID_141_);}
	.st149{fill:url(#SVGID_142_);}
	.st150{fill:url(#SVGID_143_);}
	.st151{fill:url(#SVGID_144_);}
	.st152{fill:url(#SVGID_145_);}
	.st153{fill:url(#SVGID_146_);}
	.st154{fill:url(#SVGID_147_);}
	.st155{fill:url(#SVGID_148_);}
	.st156{fill:url(#SVGID_149_);}
	.st157{fill:url(#SVGID_150_);}
	.st158{fill:url(#SVGID_151_);}
	.st159{fill:#3D0D31;}
</style>
<g>
	<path class="st0" d="M521.9,151.4c-13.9-19.9-43.4-30.6-44.2-60.4c-0.5-19.4,8.1-29.9-5.7-46.4c-33.3-40-84.5-44.7-128.2-28
		C300,33.3,265.1,66.8,216.4,64.7c-26.5-1.1-51.1-14-77.3-16.4c-8.1-0.7-15.6-0.1-22.7,1.7C90,57,66.7,83.1,57.9,112
		c-7.1,23.5,2,46.6-9.2,69.6c-11.9,24.5-35.4,41.5-41.3,69.7c-7.1,33.9,20,63.4,49.2,64.3c18.6,0.6,53-2.4,68.7-14.2
		c19.2-14.3,43.7,5.1,66.1,5.6c42.6,1,78.1-3.1,120.1,3.9c36,6,75.2,1.1,111.7,2.2c26.8,0.8,47.4,8.7,61.9-21.1
		C502.4,256.4,551.1,193.1,521.9,151.4z"/>
	<path class="st1" d="M506,152.4c-13.1-18.3-40.9-28.1-41.6-55.4c-0.5-17.8,7.6-27.4-5.3-42.6c-31.3-36.7-79.5-41-120.7-25.7
		c-41.2,15.3-74,46.1-119.8,44.2c-24.9-1-48.1-12.8-72.7-15c-7.6-0.7-14.7-0.1-21.3,1.6c-24.9,6.4-46.9,30.3-55.1,56.8
		c-6.7,21.5,1.9,42.8-8.7,63.9c-11.2,22.5-33.3,38.1-38.9,64c-6.7,31.1,18.9,58.2,46.3,59.1c17.5,0.5,49.8-2.2,64.7-13
		c18.1-13.1,49.6,7,70.6,7.5c40.1,1,65.6-4.1,105.2,2.3c33.9,5.5,68.1,6.7,102.5,7.7c25.2,0.8,46.6,1.1,60.3-26.3
		C487.7,248.7,533.5,190.7,506,152.4z"/>
	<g>
		<g>
			<path class="st2" d="M488.3,143.5c2.1-1.6,4.5-2,6.5-1.3c1.9,0.8,3.2,2.7,3.4,5.2c7.8,91.5-59,145.4-84.4,162.4
				c-2.3,1.5-4.7,1.8-6.7,0.8c-1.9-1-3-3.2-2.9-5.9C406.2,212.2,465.5,160.2,488.3,143.5z"/>
			<g>
				<path class="st3" d="M492.4,153.5c0,0-0.2,0.6-0.7,1.8c-0.5,1.2-1.1,2.9-2,5c-0.9,2.2-2,4.8-3.2,7.8c-1.3,3-2.7,6.4-4.3,10
					c-0.8,1.8-1.6,3.7-2.5,5.7c-0.9,2-1.8,4-2.8,6.1c-1.9,4.2-4,8.6-6.1,13.1c-1.1,2.3-2.2,4.6-3.3,6.9c-1.1,2.3-2.3,4.7-3.4,7
					c-1.2,2.3-2.4,4.7-3.6,7.1c-1.2,2.4-2.4,4.8-3.7,7.1c-1.3,2.4-2.5,4.7-3.8,7.1c-0.6,1.2-1.2,2.3-1.9,3.5
					c-0.6,1.2-1.3,2.3-1.9,3.5c-2.6,4.6-5,9.1-7.6,13.4c-2.6,4.3-5,8.5-7.5,12.4c-1.2,1.9-2.4,3.8-3.6,5.7c-0.6,0.9-1.1,1.8-1.7,2.7
					c-0.6,0.9-1.2,1.7-1.7,2.5c-2.2,3.3-4.3,6.4-6.1,9.1c-0.2,0.3-0.5,0.7-0.7,1c-0.2,0.3-0.5,0.6-0.7,0.9c-0.4,0.6-0.9,1.2-1.3,1.8
					c-0.8,1.1-1.6,2.2-2.3,3.1c-2.8,3.8-4.3,5.9-4.3,5.9c-0.4,0.6-1.2,0.7-1.7,0.3c-0.6-0.4-0.7-1.2-0.3-1.8c0,0,0,0,0,0l0,0
					c0,0,1.6-2.1,4.4-5.8c0.7-0.9,1.5-2,2.3-3.1c0.4-0.6,0.9-1.1,1.3-1.7c0.2-0.3,0.5-0.6,0.7-0.9c0.2-0.3,0.5-0.6,0.7-1
					c1.8-2.7,3.9-5.7,6.2-8.9c0.6-0.8,1.2-1.6,1.7-2.5c0.6-0.9,1.1-1.8,1.7-2.7c1.2-1.8,2.4-3.7,3.6-5.6c2.5-3.8,5-8,7.6-12.2
					c2.6-4.2,5.1-8.8,7.8-13.3c0.7-1.1,1.3-2.3,2-3.4c0.6-1.2,1.3-2.3,1.9-3.5c1.3-2.3,2.5-4.7,3.8-7c1.3-2.3,2.5-4.7,3.7-7.1
					c1.2-2.4,2.4-4.7,3.6-7c1.2-2.3,2.3-4.7,3.5-7c1.1-2.3,2.3-4.6,3.4-6.8c2.2-4.5,4.3-8.9,6.2-13c1-2.1,1.9-4.1,2.8-6.1
					c0.9-2,1.7-3.9,2.6-5.7c1.6-3.6,3.1-7,4.4-10c1.3-3,2.4-5.6,3.2-7.8c0.9-2.2,1.6-3.9,2-5c0.5-1.2,0.7-1.8,0.7-1.8l0,0
					c0.1-0.2,0.4-0.4,0.6-0.3C492.4,152.9,492.5,153.2,492.4,153.5z"/>
				<path class="st3" d="M475.4,193.2c-0.1,0-0.3,0-0.4-0.2c-5.7-5.6-7.3-23.6-7.4-24.4c0-0.3,0.2-0.5,0.5-0.6
					c0.3,0,0.5,0.2,0.6,0.5c0,0.2,1.6,18.3,7,23.7c0.2,0.2,0.2,0.5,0,0.8C475.7,193.1,475.6,193.2,475.4,193.2z"/>
				<path class="st3" d="M475.4,193.2c-0.2,0-0.5-0.2-0.5-0.4c-0.1-0.3,0.1-0.6,0.4-0.6c0.1,0,11.4-2.8,18.6-8.5
					c0.2-0.2,0.6-0.1,0.7,0.1c0.2,0.2,0.1,0.6-0.1,0.7c-7.3,5.9-18.5,8.6-19,8.7C475.5,193.2,475.5,193.2,475.4,193.2z"/>
				<path class="st3" d="M458,227.7c-0.2,0-0.3-0.1-0.4-0.2c-7.6-10.5-7.9-27.1-7.9-27.3c0-0.3,0.2-0.5,0.5-0.5c0,0,0,0,0,0
					c0.3,0,0.5,0.2,0.5,0.5c0,0.2,0.3,16.5,7.7,26.6c0.2,0.2,0.1,0.6-0.1,0.7C458.3,227.6,458.1,227.7,458,227.7z"/>
				<path class="st3" d="M459.9,228c-1,0-1.6-0.1-1.8-0.1c-0.3,0-0.5-0.3-0.5-0.6c0-0.3,0.3-0.5,0.6-0.5c0.1,0,11.9,1.2,25-8.4
					c0.2-0.2,0.6-0.1,0.7,0.1c0.2,0.2,0.1,0.6-0.1,0.7C473.3,227.1,463.8,228,459.9,228z"/>
				<path class="st3" d="M431.8,273.3c-0.3,0-0.5-0.2-0.5-0.5c0-0.3,0.2-0.6,0.5-0.6c0.1,0,14.8-1.6,27.1-9.3
					c0.2-0.2,0.6-0.1,0.7,0.2c0.2,0.2,0.1,0.6-0.2,0.7C446.9,271.6,432,273.2,431.8,273.3C431.9,273.3,431.9,273.3,431.8,273.3z"/>
				<path class="st3" d="M431.8,273.3c-0.2,0-0.4-0.1-0.5-0.3c-0.1-0.1-7.6-13.2-7.2-29.8c0-0.3,0.2-0.5,0.5-0.5c0,0,0,0,0,0
					c0.3,0,0.5,0.3,0.5,0.5c-0.4,16.3,6.9,29.1,7,29.2c0.1,0.3,0.1,0.6-0.2,0.7C432,273.2,431.9,273.3,431.8,273.3z"/>
			</g>
		</g>
		<g>
			<path class="st4" d="M519.6,200.9c2.1-0.6,4.1-0.3,5.4,0.8c1.3,1.1,1.7,3,1.2,5c-19.5,73.4-86.5,96.5-111,102.5
				c-2.2,0.5-4.2,0.1-5.4-1.2c-1.2-1.3-1.4-3.3-0.6-5.4C436.5,231.2,497.3,207.4,519.6,200.9z"/>
			<g>
				<path class="st3" d="M520.2,209.9c0,0-0.4,0.4-1,1.2c-0.7,0.8-1.7,1.9-3,3.3c-1.3,1.4-2.9,3.2-4.7,5.1c-1.8,2-3.9,4.2-6.2,6.6
					c-1.1,1.2-2.3,2.4-3.6,3.7c-1.2,1.3-2.5,2.6-3.8,4c-2.6,2.7-5.5,5.5-8.4,8.5c-1.5,1.5-3,2.9-4.5,4.4c-1.5,1.5-3.1,3-4.6,4.5
					c-1.6,1.5-3.2,3-4.8,4.5c-1.6,1.5-3.2,3-4.8,4.5c-1.6,1.5-3.3,3-4.9,4.4c-0.8,0.7-1.6,1.5-2.4,2.2c-0.8,0.7-1.6,1.4-2.5,2.1
					c-3.3,2.8-6.5,5.7-9.7,8.3c-3.2,2.6-6.2,5.2-9.3,7.5c-1.5,1.2-2.9,2.3-4.4,3.4c-0.7,0.5-1.4,1.1-2.1,1.6c-0.7,0.5-1.4,1-2,1.5
					c-2.7,2-5.1,3.8-7.3,5.3c-0.3,0.2-0.5,0.4-0.8,0.6c-0.3,0.2-0.5,0.4-0.8,0.5c-0.5,0.4-1,0.7-1.5,1c-1,0.7-1.9,1.3-2.7,1.8
					c-3.2,2.2-5,3.4-5,3.4c-0.6,0.4-1.4,0.2-1.7-0.3c-0.4-0.6-0.2-1.4,0.3-1.7c0,0,0,0,0,0l0,0c0,0,1.8-1.2,5-3.3
					c0.8-0.5,1.7-1.1,2.7-1.7c0.5-0.3,1-0.6,1.5-1c0.3-0.2,0.5-0.3,0.8-0.5c0.3-0.2,0.5-0.4,0.8-0.6c2.2-1.5,4.6-3.3,7.3-5.2
					c0.7-0.5,1.4-1,2-1.5c0.7-0.5,1.4-1,2.1-1.6c1.4-1.1,2.9-2.2,4.4-3.3c3-2.2,6.1-4.8,9.3-7.4c3.2-2.5,6.4-5.4,9.8-8.1
					c0.8-0.7,1.7-1.4,2.5-2.1c0.8-0.7,1.6-1.4,2.5-2.2c1.6-1.5,3.3-2.9,4.9-4.4c3.3-2.9,6.5-5.9,9.7-8.9c1.6-1.5,3.1-3,4.7-4.4
					c1.5-1.5,3.1-2.9,4.5-4.4c2.9-2.9,5.8-5.7,8.4-8.4c1.3-1.3,2.6-2.6,3.9-3.9c1.2-1.3,2.4-2.5,3.6-3.7c2.3-2.4,4.4-4.6,6.2-6.5
					c1.8-2,3.4-3.7,4.7-5.1c1.3-1.4,2.3-2.6,3-3.3c0.7-0.8,1-1.2,1-1.2l0,0c0.2-0.2,0.5-0.2,0.7,0
					C520.3,209.4,520.3,209.7,520.2,209.9z"/>
				<path class="st3" d="M495.9,236.1c-0.2,0-0.4-0.1-0.5-0.3c-2.9-6,0.9-20.5,1.1-21.1c0.1-0.3,0.4-0.5,0.6-0.4
					c0.3,0.1,0.4,0.4,0.4,0.7c0,0.1-3.9,14.7-1.1,20.4c0.1,0.3,0,0.6-0.2,0.7C496.1,236,496,236.1,495.9,236.1z"/>
				<path class="st3" d="M501,236.3c-2.9,0-5-0.2-5.1-0.2c-0.3,0-0.5-0.3-0.5-0.6c0-0.3,0.3-0.5,0.6-0.5c0.1,0,9.6,1,16.8-1.4
					c0.3-0.1,0.6,0.1,0.7,0.3c0.1,0.3-0.1,0.6-0.3,0.7C509.1,236,504.5,236.3,501,236.3z"/>
				<path class="st3" d="M472.8,258c-0.2,0-0.4-0.1-0.5-0.4c-3-10.3,1.3-23,1.5-23.5c0.1-0.3,0.4-0.4,0.7-0.3
					c0.3,0.1,0.4,0.4,0.3,0.7c0,0.1-4.4,12.9-1.4,22.9c0.1,0.3-0.1,0.6-0.4,0.7C472.9,258,472.8,258,472.8,258z"/>
				<path class="st3" d="M484.2,260.4c-7,0-11.3-2.1-11.6-2.2c-0.3-0.1-0.4-0.4-0.2-0.7c0.1-0.3,0.4-0.4,0.7-0.2
					c0.1,0,8.9,4.3,21.7,0.5c0.3-0.1,0.6,0.1,0.7,0.4c0.1,0.3-0.1,0.6-0.4,0.7C491,260,487.3,260.4,484.2,260.4z"/>
				<path class="st3" d="M453.1,287.5c-7.6,0-13.5-1.4-13.6-1.5c-0.3-0.1-0.5-0.4-0.4-0.6c0.1-0.3,0.4-0.5,0.6-0.4
					c0.1,0,11.9,2.9,23.6,0.4c0.3-0.1,0.6,0.1,0.6,0.4c0.1,0.3-0.1,0.6-0.4,0.6C460,287.2,456.4,287.5,453.1,287.5z"/>
				<path class="st3" d="M439.6,286c-0.2,0-0.5-0.2-0.5-0.4c0-0.1-2.2-12.4,2.7-25.3c0.1-0.3,0.4-0.4,0.7-0.3
					c0.3,0.1,0.4,0.4,0.3,0.7c-4.9,12.6-2.7,24.6-2.7,24.7C440.2,285.7,440,286,439.6,286C439.7,286,439.7,286,439.6,286z"/>
			</g>
		</g>
	</g>
	<g>
		<g>
			<path class="st2" d="M43.3,150.4c-2.1-1.6-4.5-2-6.5-1.3c-1.9,0.8-3.2,2.7-3.4,5.2c-7.8,91.5,59,145.4,84.4,162.4
				c2.3,1.5,4.7,1.8,6.7,0.8c1.9-1,3-3.2,2.9-5.9C125.4,219.1,66.1,167.1,43.3,150.4z"/>
			<g>
				<path class="st3" d="M40,160c0,0,0.2,0.6,0.7,1.8c0.5,1.2,1.1,2.9,2,5c0.9,2.2,2,4.8,3.2,7.8c1.3,3,2.7,6.4,4.4,10
					c0.8,1.8,1.7,3.7,2.6,5.7c0.9,2,1.8,4,2.8,6.1c1.9,4.2,4,8.5,6.2,13c1.1,2.3,2.2,4.5,3.4,6.8c1.1,2.3,2.3,4.6,3.5,7
					c1.2,2.3,2.4,4.7,3.6,7c1.2,2.3,2.4,4.7,3.7,7.1c1.3,2.3,2.6,4.7,3.8,7c0.6,1.2,1.3,2.3,1.9,3.5c0.7,1.1,1.3,2.3,2,3.4
					c2.6,4.5,5.1,9.1,7.8,13.3c2.6,4.3,5,8.4,7.6,12.2c1.2,1.9,2.4,3.8,3.6,5.6c0.6,0.9,1.2,1.8,1.7,2.7c0.6,0.9,1.2,1.7,1.7,2.5
					c2.3,3.3,4.4,6.3,6.2,8.9c0.2,0.3,0.5,0.7,0.7,1c0.2,0.3,0.5,0.6,0.7,0.9c0.5,0.6,0.9,1.2,1.3,1.7c0.8,1.1,1.6,2.1,2.3,3.1
					c2.8,3.7,4.4,5.8,4.4,5.8l0,0c0.4,0.6,0.3,1.3-0.2,1.8c-0.6,0.4-1.3,0.3-1.8-0.2c0,0,0,0,0,0c0,0-1.6-2.2-4.3-5.9
					c-0.7-0.9-1.5-2-2.3-3.1c-0.4-0.6-0.8-1.2-1.3-1.8c-0.2-0.3-0.5-0.6-0.7-0.9c-0.2-0.3-0.4-0.7-0.7-1c-1.8-2.7-3.9-5.7-6.1-9.1
					c-0.6-0.8-1.1-1.7-1.7-2.5c-0.6-0.9-1.1-1.8-1.7-2.7c-1.2-1.8-2.3-3.7-3.6-5.7c-2.5-3.9-4.9-8.1-7.5-12.4
					c-2.6-4.3-5.1-8.8-7.6-13.4c-0.6-1.1-1.3-2.3-1.9-3.5c-0.6-1.2-1.2-2.3-1.9-3.5c-1.2-2.3-2.5-4.7-3.8-7.1
					c-1.3-2.3-2.4-4.8-3.7-7.1c-1.2-2.4-2.4-4.7-3.6-7.1c-1.2-2.4-2.3-4.7-3.4-7c-1.1-2.3-2.3-4.6-3.3-6.9
					c-2.1-4.5-4.2-8.9-6.1-13.1c-0.9-2.1-1.9-4.1-2.8-6.1c-0.9-2-1.7-3.9-2.5-5.7c-1.6-3.7-3-7.1-4.3-10c-1.2-3-2.4-5.6-3.2-7.8
					c-0.9-2.2-1.6-3.9-2-5c-0.5-1.2-0.7-1.8-0.7-1.8c-0.1-0.2,0-0.5,0.3-0.6C39.7,159.6,39.9,159.8,40,160L40,160z"/>
				<path class="st3" d="M56.2,200.1c-0.1,0-0.3-0.1-0.4-0.2c-0.2-0.2-0.2-0.5,0-0.8c5.5-5.4,7-23.5,7-23.7c0-0.3,0.3-0.5,0.6-0.5
					c0.3,0,0.5,0.3,0.5,0.6c-0.1,0.8-1.6,18.7-7.4,24.4C56.4,200,56.3,200.1,56.2,200.1z"/>
				<path class="st3" d="M56.2,200.1c0,0-0.1,0-0.1,0c-0.5-0.1-11.6-2.9-19-8.7c-0.2-0.2-0.3-0.5-0.1-0.7c0.2-0.2,0.5-0.3,0.7-0.1
					c7.2,5.7,18.4,8.5,18.6,8.5c0.3,0.1,0.5,0.4,0.4,0.6C56.6,199.9,56.4,200.1,56.2,200.1z"/>
				<path class="st3" d="M73.5,234.6c-0.1,0-0.2,0-0.3-0.1c-0.2-0.2-0.3-0.5-0.1-0.7c7.4-10.2,7.7-26.5,7.7-26.6
					c0-0.3,0.2-0.5,0.5-0.5c0,0,0,0,0,0c0.3,0,0.5,0.2,0.5,0.5c0,0.2-0.3,16.8-7.9,27.3C73.9,234.5,73.7,234.6,73.5,234.6z"/>
				<path class="st3" d="M71.7,234.9c-3.8,0-13.4-0.9-24-8.6c-0.2-0.2-0.3-0.5-0.1-0.7c0.2-0.2,0.5-0.3,0.7-0.1
					c13.1,9.6,24.8,8.4,25,8.4c0.3,0,0.6,0.2,0.6,0.5c0,0.3-0.2,0.6-0.5,0.6C73.3,234.9,72.7,234.9,71.7,234.9z"/>
				<path class="st3" d="M99.7,280.2C99.7,280.2,99.7,280.2,99.7,280.2c-0.2,0-15.1-1.7-27.6-9.5c-0.2-0.2-0.3-0.5-0.2-0.7
					c0.2-0.2,0.5-0.3,0.7-0.2c12.3,7.7,26.9,9.3,27.1,9.3c0.3,0,0.5,0.3,0.5,0.6C100.2,280,100,280.2,99.7,280.2z"/>
				<path class="st3" d="M99.7,280.2c-0.1,0-0.2,0-0.3-0.1c-0.3-0.1-0.3-0.5-0.2-0.7c0.1-0.1,7.4-12.9,7-29.2c0-0.3,0.2-0.5,0.5-0.5
					c0.3,0,0.5,0.2,0.5,0.5c0.4,16.6-7.1,29.7-7.2,29.8C100.1,280.1,99.9,280.2,99.7,280.2z"/>
			</g>
		</g>
		<g>
			<path class="st4" d="M12,207.8c-2.1-0.6-4.1-0.3-5.4,0.8c-1.3,1.1-1.7,3-1.2,5c19.5,73.4,86.5,96.5,111,102.5
				c2.2,0.5,4.2,0.1,5.4-1.2c1.2-1.3,1.4-3.3,0.6-5.4C95,238,34.3,214.3,12,207.8z"/>
			<g>
				<path class="st3" d="M12.1,216.1c0,0,0.4,0.4,1,1.2c0.7,0.8,1.7,1.9,3,3.3c1.3,1.4,2.9,3.1,4.7,5.1c1.8,2,3.9,4.2,6.2,6.5
					c1.1,1.2,2.3,2.4,3.6,3.7c1.2,1.3,2.5,2.6,3.9,3.9c2.6,2.7,5.5,5.5,8.4,8.4c1.5,1.5,3,2.9,4.5,4.4c1.5,1.5,3.1,2.9,4.7,4.4
					c3.2,2.9,6.4,5.9,9.7,8.9c1.6,1.5,3.3,2.9,4.9,4.4c0.8,0.7,1.6,1.4,2.5,2.2c0.8,0.7,1.7,1.4,2.5,2.1c3.3,2.8,6.5,5.6,9.8,8.1
					c3.2,2.6,6.3,5.1,9.3,7.4c1.5,1.1,3,2.3,4.4,3.3c0.7,0.5,1.4,1.1,2.1,1.6c0.7,0.5,1.4,1,2,1.5c2.7,1.9,5.1,3.6,7.3,5.2
					c0.3,0.2,0.5,0.4,0.8,0.6c0.3,0.2,0.5,0.4,0.8,0.5c0.5,0.3,1,0.7,1.5,1c1,0.6,1.9,1.2,2.7,1.7c3.2,2.1,5,3.3,5,3.3l0,0
					c0.6,0.4,0.7,1.2,0.4,1.7c-0.4,0.6-1.2,0.7-1.7,0.4c0,0,0,0,0,0c0,0-1.8-1.2-5-3.4c-0.8-0.5-1.7-1.1-2.7-1.8
					c-0.5-0.3-1-0.7-1.5-1c-0.3-0.2-0.5-0.4-0.8-0.5c-0.3-0.2-0.5-0.4-0.8-0.6c-2.2-1.6-4.6-3.4-7.3-5.3c-0.7-0.5-1.4-1-2-1.5
					c-0.7-0.5-1.4-1.1-2.1-1.6c-1.4-1.1-2.9-2.2-4.4-3.4c-3-2.3-6.1-4.9-9.3-7.5c-3.2-2.6-6.4-5.5-9.7-8.3c-0.8-0.7-1.6-1.4-2.5-2.1
					c-0.8-0.7-1.6-1.5-2.4-2.2c-1.6-1.5-3.3-3-4.9-4.4c-1.6-1.5-3.2-3-4.8-4.5c-1.6-1.5-3.2-3-4.8-4.5c-1.6-1.5-3.1-3-4.6-4.5
					c-1.5-1.5-3-2.9-4.5-4.4c-2.9-2.9-5.8-5.7-8.4-8.5c-1.3-1.4-2.6-2.7-3.8-4c-1.2-1.3-2.4-2.5-3.6-3.7c-2.3-2.4-4.3-4.6-6.2-6.6
					c-1.8-2-3.4-3.7-4.7-5.1c-1.3-1.4-2.3-2.6-3-3.3c-0.7-0.8-1-1.2-1-1.2c-0.2-0.2-0.2-0.5,0-0.7C11.7,215.9,12,215.9,12.1,216.1
					L12.1,216.1z"/>
				<path class="st3" d="M35.7,243c-0.1,0-0.2,0-0.2-0.1c-0.3-0.1-0.4-0.4-0.2-0.7c2.7-5.7-1.1-20.2-1.1-20.4
					c-0.1-0.3,0.1-0.6,0.4-0.7c0.3-0.1,0.6,0.1,0.6,0.4c0.2,0.6,4,15.1,1.1,21.1C36,242.8,35.9,243,35.7,243z"/>
				<path class="st3" d="M30.6,243.2c-3.5,0-8.1-0.3-12.1-1.7c-0.3-0.1-0.4-0.4-0.3-0.7c0.1-0.3,0.4-0.4,0.7-0.3
					c7.1,2.4,16.7,1.4,16.8,1.4c0.3,0,0.5,0.2,0.6,0.5c0,0.3-0.2,0.6-0.5,0.6C35.5,243,33.5,243.2,30.6,243.2z"/>
				<path class="st3" d="M58.8,264.9c0,0-0.1,0-0.1,0c-0.3-0.1-0.4-0.4-0.4-0.7c2.9-10-1.4-22.7-1.4-22.9c-0.1-0.3,0.1-0.6,0.3-0.7
					c0.3-0.1,0.6,0.1,0.7,0.3c0.2,0.5,4.5,13.2,1.5,23.5C59.3,264.7,59,264.9,58.8,264.9z"/>
				<path class="st3" d="M47.4,267.3c-3.1,0-6.8-0.4-10.9-1.6c-0.3-0.1-0.4-0.4-0.4-0.7c0.1-0.3,0.4-0.4,0.7-0.4
					c12.9,3.8,21.6-0.5,21.7-0.5c0.3-0.1,0.6,0,0.7,0.2c0.1,0.3,0,0.6-0.2,0.7C58.7,265.2,54.4,267.3,47.4,267.3z"/>
				<path class="st3" d="M78.4,294.4c-3.3,0-6.9-0.3-10.5-1c-0.3-0.1-0.5-0.3-0.4-0.6c0.1-0.3,0.3-0.5,0.6-0.4
					c11.7,2.5,23.5-0.4,23.6-0.4c0.3-0.1,0.6,0.1,0.6,0.4c0.1,0.3-0.1,0.6-0.4,0.6C92,292.9,86.1,294.4,78.4,294.4z"/>
				<path class="st3" d="M91.9,292.9C91.9,292.9,91.9,292.9,91.9,292.9c-0.4-0.1-0.6-0.3-0.5-0.6c0-0.1,2.2-12.1-2.7-24.7
					c-0.1-0.3,0-0.6,0.3-0.7c0.3-0.1,0.6,0,0.7,0.3c5,12.8,2.8,25.1,2.7,25.3C92.4,292.8,92.2,292.9,91.9,292.9z"/>
			</g>
		</g>
	</g>
	<g>
		<g>
			<g>
				<path class="st5" d="M57.2,59.8c-0.1,0-0.2,0-0.3-0.1c-0.2-0.2-0.2-0.5-0.1-0.7c0.5-0.5,0.9-1.1,1.4-1.6c0.2-0.2,0.5-0.2,0.7,0
					c0.2,0.2,0.2,0.5,0,0.7c-0.5,0.5-0.9,1-1.4,1.6C57.5,59.7,57.4,59.8,57.2,59.8z"/>
				<path class="st5" d="M172.1,95.3c-0.3,0-0.5-0.2-0.5-0.5c-0.1-1.3-0.3-2.7-0.6-4c0-0.3,0.1-0.6,0.4-0.6c0.3-0.1,0.6,0.1,0.6,0.4
					c0.2,1.4,0.4,2.7,0.6,4.1C172.6,95,172.4,95.3,172.1,95.3C172.1,95.3,172.1,95.3,172.1,95.3z M170.1,84.7
					c-0.2,0-0.4-0.2-0.5-0.4c-0.4-1.3-0.8-2.6-1.2-3.9c-0.1-0.3,0-0.6,0.3-0.7c0.3-0.1,0.6,0,0.7,0.3c0.5,1.3,0.9,2.6,1.2,4
					c0.1,0.3-0.1,0.6-0.4,0.7C170.2,84.7,170.1,84.7,170.1,84.7z M166.3,74.6c-0.2,0-0.4-0.1-0.5-0.3c-0.6-1.2-1.2-2.4-1.8-3.6
					c-0.1-0.3,0-0.6,0.2-0.7c0.3-0.1,0.6,0,0.7,0.2c0.7,1.2,1.3,2.5,1.9,3.7c0.1,0.3,0,0.6-0.3,0.7
					C166.5,74.6,166.4,74.6,166.3,74.6z M161,65.3c-0.2,0-0.3-0.1-0.4-0.2c-0.8-1.1-1.6-2.2-2.4-3.3c-0.2-0.2-0.1-0.6,0.1-0.7
					c0.2-0.2,0.6-0.1,0.7,0.1c0.8,1.1,1.7,2.2,2.4,3.3c0.2,0.2,0.1,0.6-0.1,0.7C161.2,65.2,161.1,65.3,161,65.3z M154.3,56.9
					c-0.1,0-0.3-0.1-0.4-0.2c-0.9-1-1.9-1.9-2.9-2.9c-0.2-0.2-0.2-0.5,0-0.7c0.2-0.2,0.5-0.2,0.7,0c1,0.9,2,1.9,2.9,2.9
					c0.2,0.2,0.2,0.5,0,0.7C154.5,56.8,154.4,56.9,154.3,56.9z M63.3,53.5c-0.1,0-0.3-0.1-0.4-0.2c-0.2-0.2-0.2-0.6,0-0.7
					c1-0.9,2.1-1.8,3.2-2.7c0.2-0.2,0.6-0.1,0.7,0.1c0.2,0.2,0.1,0.6-0.1,0.7c-1.1,0.8-2.1,1.7-3.1,2.6
					C63.6,53.4,63.4,53.5,63.3,53.5z M146.3,49.7c-0.1,0-0.2,0-0.3-0.1c-1.1-0.8-2.2-1.6-3.3-2.3c-0.2-0.2-0.3-0.5-0.2-0.7
					c0.2-0.2,0.5-0.3,0.7-0.2c1.1,0.8,2.3,1.6,3.4,2.4c0.2,0.2,0.3,0.5,0.1,0.7C146.6,49.7,146.4,49.7,146.3,49.7z M71.9,47
					c-0.2,0-0.3-0.1-0.4-0.2c-0.2-0.2-0.1-0.6,0.2-0.7c1-0.7,2.1-1.3,3.2-1.9l0.3-0.2c0.3-0.1,0.6,0,0.7,0.2c0.1,0.3,0,0.6-0.2,0.7
					L75.3,45c-1.1,0.6-2.1,1.2-3.2,1.9C72.1,46.9,72,47,71.9,47z M137.2,44c-0.1,0-0.2,0-0.2-0.1c-1.2-0.6-2.4-1.2-3.7-1.8
					c-0.3-0.1-0.4-0.4-0.3-0.7c0.1-0.3,0.4-0.4,0.7-0.3c1.3,0.6,2.5,1.2,3.7,1.8c0.3,0.1,0.4,0.5,0.2,0.7
					C137.5,43.9,137.4,44,137.2,44z M81.3,41.9c-0.2,0-0.4-0.1-0.5-0.3c-0.1-0.3,0-0.6,0.3-0.7c1.3-0.5,2.6-1.1,3.8-1.5
					c0.3-0.1,0.6,0,0.7,0.3c0.1,0.3,0,0.6-0.3,0.7c-1.3,0.5-2.5,1-3.8,1.5C81.5,41.9,81.4,41.9,81.3,41.9z M127.3,39.9
					c-0.1,0-0.1,0-0.2,0c-1.3-0.4-2.6-0.8-3.9-1.1c-0.3-0.1-0.5-0.4-0.4-0.6s0.4-0.5,0.6-0.4c1.3,0.3,2.7,0.7,4,1.2
					c0.3,0.1,0.4,0.4,0.3,0.7C127.7,39.7,127.5,39.9,127.3,39.9z M91.5,38.5c-0.2,0-0.5-0.2-0.5-0.4c-0.1-0.3,0.1-0.6,0.4-0.6
					c1.3-0.3,2.7-0.6,4-0.9c0.3-0.1,0.6,0.1,0.6,0.4c0.1,0.3-0.1,0.6-0.4,0.6c-1.3,0.2-2.7,0.5-4,0.8C91.6,38.5,91.5,38.5,91.5,38.5
					z M116.9,37.4C116.8,37.4,116.8,37.4,116.9,37.4c-1.4-0.2-2.8-0.4-4.1-0.5c-0.3,0-0.5-0.3-0.5-0.6c0-0.3,0.3-0.5,0.6-0.5
					c1.4,0.1,2.7,0.3,4.1,0.5c0.3,0,0.5,0.3,0.4,0.6C117.3,37.2,117.1,37.4,116.9,37.4z M102.1,36.8c-0.3,0-0.5-0.2-0.5-0.5
					c0-0.3,0.2-0.5,0.5-0.6c1.4-0.1,2.7-0.2,4.1-0.2c0.3,0,0.5,0.2,0.5,0.5c0,0.3-0.2,0.5-0.5,0.5C104.8,36.6,103.5,36.7,102.1,36.8
					C102.1,36.8,102.1,36.8,102.1,36.8z"/>
				<path class="st5" d="M172.4,104.2C172.4,104.2,172.4,104.2,172.4,104.2c-0.3,0-0.5-0.3-0.5-0.5c0-0.7,0-1.4,0-2.1
					c0-0.3,0.2-0.5,0.5-0.5c0,0,0,0,0,0c0.3,0,0.5,0.2,0.5,0.5c0,0.7,0,1.4,0,2.1C173,103.9,172.7,104.2,172.4,104.2z"/>
			</g>
			<g>
				<path class="st5" d="M151.6,150.6c-0.1,0-0.3-0.1-0.4-0.2c-0.2-0.2-0.2-0.6,0-0.7c0.5-0.5,1-1,1.5-1.5c0.2-0.2,0.5-0.2,0.7,0
					c0.2,0.2,0.2,0.5,0,0.8c-0.5,0.5-1,1-1.5,1.5C151.9,150.6,151.7,150.6,151.6,150.6z"/>
				<path class="st5" d="M103.7,168.2C103.7,168.2,103.7,168.2,103.7,168.2c-1.5-0.1-2.9-0.2-4.4-0.4c-0.3,0-0.5-0.3-0.5-0.6
					c0-0.3,0.3-0.5,0.6-0.5c1.4,0.2,2.8,0.3,4.3,0.4c0.3,0,0.5,0.3,0.5,0.6C104.2,167.9,104,168.2,103.7,168.2z M110.7,168.1
					c-0.3,0-0.5-0.2-0.5-0.5c0-0.3,0.2-0.5,0.5-0.6c1.4-0.1,2.9-0.2,4.3-0.4c0.3,0,0.6,0.2,0.6,0.5c0,0.3-0.2,0.6-0.5,0.6
					C113.6,167.9,112.2,168.1,110.7,168.1C110.7,168.1,110.7,168.1,110.7,168.1z M92.5,166.6c0,0-0.1,0-0.1,0
					c-1.4-0.3-2.8-0.7-4.2-1.1c-0.3-0.1-0.4-0.4-0.4-0.7c0.1-0.3,0.4-0.4,0.7-0.4c1.4,0.4,2.8,0.8,4.1,1.1c0.3,0.1,0.5,0.3,0.4,0.6
					C92.9,166.4,92.7,166.6,92.5,166.6z M121.9,166.5c-0.2,0-0.5-0.2-0.5-0.4c-0.1-0.3,0.1-0.6,0.4-0.6c1.4-0.3,2.8-0.7,4.1-1.1
					c0.3-0.1,0.6,0.1,0.7,0.4c0.1,0.3-0.1,0.6-0.4,0.7c-1.4,0.4-2.8,0.8-4.2,1.1C122,166.5,122,166.5,121.9,166.5z M81.7,163.1
					c-0.1,0-0.1,0-0.2,0c-1.3-0.6-2.7-1.2-4-1.8c-0.3-0.1-0.4-0.4-0.2-0.7c0.1-0.3,0.4-0.4,0.7-0.2c1.3,0.6,2.6,1.2,3.9,1.8
					c0.3,0.1,0.4,0.4,0.3,0.7C82.1,163,81.9,163.1,81.7,163.1z M132.7,163c-0.2,0-0.4-0.1-0.5-0.3c-0.1-0.3,0-0.6,0.3-0.7
					c1.3-0.6,2.6-1.2,3.9-1.8c0.3-0.1,0.6,0,0.7,0.2c0.1,0.3,0,0.6-0.2,0.7c-1.3,0.7-2.6,1.3-3.9,1.9C132.8,163,132.7,163,132.7,163
					z M71.7,157.8c-0.1,0-0.2,0-0.3-0.1c-1.2-0.8-2.4-1.6-3.6-2.5c-0.2-0.2-0.3-0.5-0.1-0.7c0.2-0.2,0.5-0.3,0.7-0.1
					c1.1,0.9,2.3,1.7,3.5,2.4c0.2,0.2,0.3,0.5,0.2,0.7C72,157.7,71.9,157.8,71.7,157.8z M142.7,157.6c-0.2,0-0.3-0.1-0.4-0.2
					c-0.2-0.2-0.1-0.6,0.2-0.7c1.2-0.8,2.4-1.6,3.5-2.5c0.2-0.2,0.6-0.1,0.7,0.1c0.2,0.2,0.1,0.6-0.1,0.7c-1.2,0.9-2.4,1.7-3.6,2.5
					C142.9,157.6,142.8,157.6,142.7,157.6z M62.7,150.9c-0.1,0-0.3,0-0.4-0.1c-1.1-1-2.1-2-3.1-3.1c-0.2-0.2-0.2-0.5,0-0.7
					c0.2-0.2,0.5-0.2,0.7,0c1,1,2,2.1,3.1,3c0.2,0.2,0.2,0.5,0,0.7C63,150.8,62.9,150.9,62.7,150.9z M55.1,142.4
					c-0.2,0-0.3-0.1-0.4-0.2c-0.9-1.2-1.7-2.4-2.5-3.6c-0.2-0.2-0.1-0.6,0.1-0.7c0.2-0.2,0.6-0.1,0.7,0.1c0.8,1.2,1.6,2.4,2.5,3.5
					c0.2,0.2,0.1,0.6-0.1,0.7C55.3,142.4,55.2,142.4,55.1,142.4z M49,132.8c-0.2,0-0.4-0.1-0.5-0.3c-0.7-1.3-1.3-2.6-1.9-3.9
					c-0.1-0.3,0-0.6,0.3-0.7c0.3-0.1,0.6,0,0.7,0.3c0.6,1.3,1.2,2.6,1.9,3.9c0.1,0.3,0,0.6-0.2,0.7C49.2,132.8,49.1,132.8,49,132.8z
					 M44.7,122.3c-0.2,0-0.4-0.1-0.5-0.4c-0.4-1.4-0.8-2.8-1.2-4.2c-0.1-0.3,0.1-0.6,0.4-0.6c0.3-0.1,0.6,0.1,0.6,0.4
					c0.3,1.4,0.7,2.8,1.2,4.1c0.1,0.3-0.1,0.6-0.3,0.7C44.8,122.3,44.7,122.3,44.7,122.3z M42.2,111.2c-0.3,0-0.5-0.2-0.5-0.5
					c-0.2-1.4-0.3-2.9-0.4-4.4c0-0.3,0.2-0.5,0.5-0.6c0.3,0,0.5,0.2,0.6,0.5c0.1,1.4,0.2,2.9,0.4,4.3
					C42.8,110.9,42.6,111.1,42.2,111.2C42.3,111.2,42.2,111.2,42.2,111.2z"/>
				<path class="st5" d="M41.7,99.8C41.7,99.8,41.7,99.8,41.7,99.8c-0.3,0-0.5-0.3-0.5-0.6c0-0.7,0.1-1.4,0.1-2.1
					c0-0.3,0.3-0.5,0.6-0.5c0.3,0,0.5,0.3,0.5,0.6c-0.1,0.7-0.1,1.4-0.1,2.1C42.2,99.6,42,99.8,41.7,99.8z"/>
			</g>
			<g>
				<path class="st2" d="M57.8,91.9c-0.1,0.3,0,0.7,0.3,0.9l7.7,5.7c-0.3,4.5,0,9,1.2,13.5l-6.6,7c-0.2,0.2-0.3,0.6-0.1,0.9
					l5.3,10.2c0.2,0.3,0.5,0.5,0.8,0.4l9.4-1.4c3,3.5,6.5,6.4,10.3,8.7l0.3,9.6c0,0.3,0.2,0.6,0.5,0.7l10.9,3.5
					c0.3,0.1,0.7,0,0.9-0.3l5.7-7.7c4.4,0.3,9,0,13.4-1.2l6.9,6.6c0.2,0.2,0.6,0.3,0.9,0.1l10.2-5.3c0.3-0.2,0.5-0.5,0.4-0.8
					l-1.4-9.5c3.5-3,6.4-6.5,8.7-10.4l9.6-0.3c0.3,0,0.6-0.2,0.7-0.6l3.4-11c0.1-0.3,0-0.7-0.3-0.9l-7.7-5.7c0.3-4.5,0-9-1.2-13.5
					l6.6-7c0.2-0.2,0.3-0.6,0.1-0.9l-5.3-10.2c-0.2-0.3-0.5-0.5-0.8-0.4l-9.4,1.4c-3-3.5-6.5-6.4-10.3-8.7l-0.3-9.6
					c0-0.3-0.2-0.6-0.5-0.7l-10.9-3.5c-0.3-0.1-0.7,0-0.9,0.3l-5.7,7.7c-4.4-0.3-9,0-13.4,1.2l-6.9-6.6c-0.2-0.2-0.6-0.3-0.9-0.1
					l-10.2,5.3c-0.3,0.2-0.5,0.5-0.4,0.8l1.4,9.5c-3.5,3-6.4,6.5-8.7,10.4L62,80.4c-0.3,0-0.6,0.2-0.7,0.6L57.8,91.9z"/>
				<path class="st3" d="M107.5,112.4c-3,0-5.9-1.2-8-3.6l0,0c-3.9-4.4-3.5-11.3,0.9-15.2c2.1-1.9,4.9-2.9,7.7-2.7
					c2.9,0.2,5.5,1.4,7.4,3.6c3.9,4.4,3.5,11.3-0.9,15.2C112.6,111.5,110,112.4,107.5,112.4z M100.3,108.1c3.5,4,9.6,4.4,13.6,0.8
					c4-3.6,4.3-9.7,0.8-13.7c-1.7-1.9-4.1-3.1-6.6-3.2c-2.6-0.2-5.1,0.7-7,2.4c-1.9,1.7-3.1,4.1-3.2,6.7
					C97.7,103.7,98.6,106.2,100.3,108.1L100.3,108.1z"/>
				<path class="st3" d="M107.8,130.1c-2.9,0-5.7-0.4-8.5-1.3c-7.2-2.3-13-7.2-16.5-14l0,0c-0.9-1.8-1.7-3.7-2.2-5.6
					c0,0,0-0.1,0-0.1c0-0.2,0.2-0.4,0.4-0.5c0.3-0.1,0.6,0.1,0.6,0.4c0.5,1.9,1.2,3.7,2.1,5.4l0,0c3.3,6.5,9,11.2,15.9,13.4
					c6.9,2.2,14.3,1.6,20.7-1.8c9.3-4.9,14.6-14.4,14.6-24.3c0-4.2-1-8.5-3.1-12.5c-6.9-13.3-23.3-18.6-36.6-11.6
					c-4.4,2.3-8,5.7-10.6,9.9c-0.2,0.2-0.5,0.3-0.7,0.2c-0.2-0.1-0.3-0.3-0.3-0.5c0-0.1,0-0.2,0.1-0.3c2.7-4.4,6.5-7.9,11-10.3
					c13.8-7.2,30.8-1.8,38,12.1c2.1,4.1,3.2,8.6,3.2,13.1c0,2.9-0.4,5.8-1.3,8.6c-2.3,7.2-7.2,13.1-13.9,16.6
					C116.7,129,112.2,130.1,107.8,130.1z"/>
			</g>
		</g>
		<path class="st2" d="M184.8,56.6l4.5,2.9c0,2.5,0.4,5,1.2,7.5l-3.4,4.2c-0.1,0.1-0.1,0.4,0,0.5l3.4,5.5c0.1,0.2,0.3,0.2,0.5,0.2
			l5.2-1.2c1.8,1.8,3.9,3.3,6.2,4.4l0.6,5.4c0,0.2,0.2,0.3,0.3,0.4l6.3,1.5c0.2,0,0.4,0,0.5-0.2l2.8-4.6c2.5,0,5-0.4,7.5-1.3
			l4.2,3.4c0.1,0.1,0.4,0.1,0.5,0l5.4-3.4c0.2-0.1,0.2-0.3,0.2-0.5l-1.2-5.2c1.8-1.8,3.3-3.9,4.4-6.2l5.3-0.6c0.2,0,0.3-0.2,0.4-0.3
			l1.4-6.3c0-0.2,0-0.4-0.2-0.5l-4.5-2.9c0-2.5-0.4-5-1.2-7.5l3.4-4.2c0.1-0.1,0.1-0.4,0-0.5l-3.4-5.5c-0.1-0.2-0.3-0.2-0.5-0.2
			l-5.2,1.2c-1.8-1.8-3.9-3.3-6.2-4.4l-0.6-5.4c0-0.2-0.2-0.3-0.3-0.4l-6.3-1.5c-0.2,0-0.4,0-0.5,0.2l-2.8,4.6c-2.5,0-5,0.4-7.5,1.3
			l-4.2-3.4c-0.1-0.1-0.4-0.1-0.5,0l-5.4,3.4c-0.2,0.1-0.2,0.3-0.2,0.5l1.2,5.2c-1.8,1.8-3.3,3.9-4.4,6.2l-5.3,0.6
			c-0.2,0-0.3,0.2-0.4,0.3l-1.4,6.3C184.6,56.3,184.7,56.5,184.8,56.6z"/>
		<path class="st3" d="M212.8,65.6c-1.6,0-3.1-0.6-4.3-1.7l0,0c-2.5-2.4-2.6-6.4-0.2-8.9c2.4-2.5,6.3-2.6,8.8-0.2
			c2.5,2.4,2.6,6.4,0.2,8.9C216.1,64.9,214.5,65.6,212.8,65.6z M209.3,63.1c2.1,2,5.3,1.9,7.3-0.2c2-2.1,1.9-5.4-0.2-7.4
			c-2.1-2-5.3-1.9-7.3,0.2C207.1,57.8,207.2,61.1,209.3,63.1L209.3,63.1z"/>
		<g>
			<path class="st5" d="M181.3,46c-0.1,0-0.1,0-0.2,0c-0.3-0.1-0.4-0.4-0.3-0.7c0.3-0.7,0.6-1.3,0.9-1.9c0.1-0.3,0.4-0.4,0.7-0.2
				c0.3,0.1,0.4,0.5,0.2,0.7c-0.3,0.6-0.6,1.3-0.9,1.9C181.7,45.9,181.5,46,181.3,46z"/>
			<path class="st5" d="M242.7,42.6c-0.2,0-0.4-0.1-0.5-0.3c-0.7-1.1-1.4-2.3-2.2-3.3c-0.2-0.2-0.1-0.6,0.1-0.7
				c0.2-0.2,0.6-0.1,0.7,0.1c0.8,1.1,1.6,2.3,2.2,3.4c0.1,0.3,0.1,0.6-0.2,0.7C242.9,42.6,242.8,42.6,242.7,42.6z M185.7,38.6
				c-0.1,0-0.2,0-0.3-0.1c-0.2-0.2-0.3-0.5-0.1-0.7c0.7-0.9,1.5-1.9,2.4-2.7c0.1-0.1,0.2-0.2,0.3-0.4c0.2-0.2,0.5-0.2,0.7,0
				c0.2,0.2,0.2,0.5,0,0.7c-0.1,0.1-0.2,0.2-0.3,0.3c-0.8,0.8-1.6,1.7-2.3,2.7C186,38.5,185.8,38.6,185.7,38.6z M236.1,34.3
				c-0.1,0-0.3,0-0.4-0.1c-1-0.9-2-1.7-3.1-2.5c-0.2-0.2-0.3-0.5-0.1-0.7c0.2-0.2,0.5-0.3,0.7-0.1c1.1,0.8,2.2,1.7,3.2,2.6
				c0.2,0.2,0.2,0.5,0,0.7C236.4,34.3,236.3,34.3,236.1,34.3z M193.4,31.3c-0.2,0-0.3-0.1-0.4-0.2c-0.2-0.2-0.1-0.6,0.1-0.7
				c1.1-0.8,2.3-1.5,3.5-2.1c0.3-0.1,0.6,0,0.7,0.2c0.1,0.3,0,0.6-0.2,0.7c-1.2,0.6-2.3,1.3-3.4,2.1
				C193.6,31.3,193.5,31.3,193.4,31.3z M227.4,28.4c-0.1,0-0.2,0-0.2,0c-1.2-0.6-2.4-1.1-3.7-1.5c-0.3-0.1-0.4-0.4-0.3-0.7
				c0.1-0.3,0.4-0.4,0.7-0.3c1.3,0.4,2.6,0.9,3.8,1.5c0.3,0.1,0.4,0.4,0.3,0.7C227.8,28.3,227.6,28.4,227.4,28.4z M202.8,26.7
				c-0.2,0-0.4-0.1-0.5-0.4c-0.1-0.3,0.1-0.6,0.4-0.7c1.3-0.4,2.6-0.7,4-1c0.3-0.1,0.6,0.1,0.6,0.4c0.1,0.3-0.1,0.6-0.4,0.6
				c-1.3,0.2-2.6,0.5-3.9,0.9C202.9,26.7,202.9,26.7,202.8,26.7z M217.3,25.5C217.3,25.5,217.2,25.5,217.3,25.5
				c-1.4-0.2-2.7-0.3-4-0.3c-0.3,0-0.5-0.2-0.5-0.5c0-0.3,0.2-0.5,0.5-0.5c0,0,0,0,0,0c1.4,0,2.7,0.1,4.1,0.3c0.3,0,0.5,0.3,0.5,0.6
				C217.8,25.3,217.5,25.5,217.3,25.5z"/>
			<path class="st5" d="M246,50.7c-0.2,0-0.4-0.2-0.5-0.4c-0.2-0.7-0.4-1.3-0.6-2c-0.1-0.3,0.1-0.6,0.3-0.7c0.3-0.1,0.6,0.1,0.7,0.3
				c0.2,0.7,0.4,1.4,0.6,2.1c0.1,0.3-0.1,0.6-0.4,0.7C246.1,50.6,246.1,50.7,246,50.7z"/>
		</g>
		<g>
			<path class="st5" d="M242.1,78.1c-0.1,0-0.2,0-0.3-0.1c-0.2-0.2-0.3-0.5-0.2-0.7c0.4-0.6,0.7-1.2,1-1.8c0.1-0.3,0.5-0.4,0.7-0.2
				c0.3,0.1,0.4,0.5,0.2,0.7c-0.3,0.6-0.7,1.3-1.1,1.9C242.4,78,242.3,78.1,242.1,78.1z"/>
			<path class="st5" d="M210.2,94.4C210.1,94.4,210.1,94.4,210.2,94.4c-1.4-0.1-2.7-0.3-4-0.5c-0.3-0.1-0.5-0.3-0.4-0.6
				c0.1-0.3,0.3-0.5,0.6-0.4c1.3,0.2,2.6,0.4,3.9,0.5c0.3,0,0.5,0.3,0.5,0.6C210.7,94.2,210.4,94.4,210.2,94.4z M216.6,94.3
				c-0.3,0-0.5-0.2-0.5-0.5c0-0.3,0.2-0.6,0.5-0.6c1.3-0.1,2.6-0.4,3.8-0.6c0.3-0.1,0.6,0.1,0.6,0.4c0.1,0.3-0.1,0.6-0.4,0.6
				C219.3,93.9,218,94.1,216.6,94.3C216.6,94.3,216.6,94.3,216.6,94.3z M200.1,92c-0.1,0-0.1,0-0.2,0c-1.2-0.5-2.5-1.1-3.6-1.7
				c-0.3-0.1-0.4-0.5-0.2-0.7c0.1-0.3,0.5-0.4,0.7-0.2c1.1,0.6,2.3,1.2,3.5,1.7c0.3,0.1,0.4,0.4,0.3,0.7
				C200.5,91.9,200.3,92,200.1,92z M226.6,91.6c-0.2,0-0.4-0.1-0.5-0.3c-0.1-0.3,0-0.6,0.3-0.7c1.2-0.5,2.4-1.1,3.5-1.8
				c0.3-0.1,0.6-0.1,0.7,0.2c0.1,0.3,0.1,0.6-0.2,0.7c-1.2,0.7-2.4,1.3-3.6,1.8C226.7,91.6,226.7,91.6,226.6,91.6z M191.1,86.7
				c-0.1,0-0.2,0-0.3-0.1c-0.7-0.6-1.5-1.2-2.1-1.9c-0.3-0.3-0.6-0.5-0.8-0.8c-0.2-0.2-0.2-0.5,0-0.8c0.2-0.2,0.5-0.2,0.7,0
				c0.3,0.3,0.5,0.5,0.8,0.8c0.7,0.6,1.4,1.3,2.1,1.9c0.2,0.2,0.3,0.5,0.1,0.7C191.4,86.7,191.3,86.7,191.1,86.7z M235.4,86
				c-0.1,0-0.3-0.1-0.4-0.2c-0.2-0.2-0.2-0.6,0.1-0.7c0.8-0.7,1.6-1.4,2.3-2.2c0.2-0.2,0.3-0.4,0.5-0.5c0.2-0.2,0.5-0.2,0.7,0
				c0.2,0.2,0.2,0.5,0,0.7c-0.2,0.2-0.3,0.4-0.5,0.6c-0.8,0.8-1.5,1.6-2.4,2.3C235.6,86,235.5,86,235.4,86z M184.2,79
				c-0.2,0-0.3-0.1-0.4-0.2c-0.7-1.1-1.4-2.3-2-3.5c-0.1-0.3,0-0.6,0.2-0.7c0.3-0.1,0.6,0,0.7,0.2c0.6,1.2,1.2,2.3,2,3.4
				c0.2,0.2,0.1,0.6-0.1,0.7C184.4,79,184.3,79,184.2,79z"/>
			<path class="st5" d="M179.8,69.5c-0.2,0-0.4-0.2-0.5-0.4c-0.2-0.7-0.4-1.4-0.5-2.1c-0.1-0.3,0.1-0.6,0.4-0.6
				c0.3-0.1,0.6,0.1,0.6,0.4c0.2,0.7,0.3,1.4,0.5,2c0.1,0.3-0.1,0.6-0.4,0.7C179.9,69.5,179.8,69.5,179.8,69.5z"/>
		</g>
		<path class="st3" d="M213,75.5c-1.2,0-2.4-0.1-3.6-0.4c-4.2-1-7.7-3.5-10-7.2c-0.1-0.1-0.1-0.2-0.2-0.3c-0.5-0.8-0.8-1.6-1.2-2.4
			c0,0,0,0,0,0c0,0,0,0,0-0.1c0,0,0,0,0-0.1c0-0.1-0.1-0.2-0.1-0.3c0-0.1,0-0.1,0-0.2c0-0.2,0.1-0.4,0.3-0.5c0.3-0.1,0.6,0,0.7,0.3
			c0.4,1,0.8,2,1.4,2.9l0,0c2.1,3.4,5.4,5.8,9.3,6.7c3.9,0.9,7.9,0.2,11.3-1.9c3.4-2.1,5.7-5.5,6.6-9.4c0.3-1.1,0.4-2.3,0.4-3.4
			c0-2.8-0.8-5.5-2.3-8c-2.1-3.4-5.4-5.8-9.3-6.7c-3.9-0.9-7.9-0.2-11.3,1.9c-2.3,1.4-4.2,3.5-5.4,5.9c-0.1,0.3-0.4,0.4-0.7,0.2
			c-0.2-0.1-0.3-0.3-0.3-0.5c0-0.1,0-0.2,0.1-0.2c1.3-2.6,3.3-4.8,5.8-6.3c7.5-4.7,17.4-2.4,22.1,5.1c1.6,2.6,2.4,5.5,2.4,8.5
			c0,1.2-0.1,2.4-0.4,3.7c-1,4.2-3.5,7.8-7.1,10C218.9,74.6,216,75.5,213,75.5z"/>
	</g>
	<g>
		<g>
			<linearGradient id="SVGID_1_" gradientUnits="userSpaceOnUse" x1="234.3917" y1="292.9183" x2="314.0314" y2="53.9986">
				<stop  offset="0" style="stop-color:#2B3582"/>
				<stop  offset="1" style="stop-color:#150E42"/>
			</linearGradient>
			<path class="st6" d="M439.3,301.8c0,3.4-2.8,6.2-6.2,6.2H97.3c-3.4,0-6.2-2.8-6.2-6.2l-2.8-194.2c0-3.4,4-10.1,11.4-9.6
				l328.2-8.5c4.3-0.1,8.4,1.5,11.5,4.6c3,3,4.7,7.2,4.6,11.5L439.3,301.8z"/>
			<linearGradient id="SVGID_2_" gradientUnits="userSpaceOnUse" x1="-54.6777" y1="332.0615" x2="481.5045" y2="118.8556">
				<stop  offset="0" style="stop-color:#53D8FF"/>
				<stop  offset="1" style="stop-color:#3840F7"/>
			</linearGradient>
			<path class="st7" d="M433.2,295.8c0,3.3-2.6,5.9-5.9,5.9h-322c-3.2,0-5.9-2.7-5.9-5.9l-2.6-176.3c0.3-10.6,9.6-14.4,15.2-14.2
				c0,0,256.5-6.9,314.6-8.5c3-0.1,5.9,1.1,8.1,3.2c2.1,2.1,3.3,5.1,3.2,8.1L433.2,295.8z"/>
			<g>
				<path class="st3" d="M103,211.7c-0.3,0-0.5-0.2-0.5-0.5l-0.2-14.3c0-0.3,0.2-0.5,0.5-0.5c0,0,0,0,0,0c0.3,0,0.5,0.2,0.5,0.5
					l0.2,14.3C103.5,211.5,103.3,211.7,103,211.7C103,211.7,103,211.7,103,211.7z"/>
				<path class="st3" d="M102.5,176.7c-0.3,0-0.5-0.2-0.5-0.5l-0.8-54.8c0-3.7,1.1-6.6,3.3-8.7c4-3.9,10.3-3.7,10.5-3.7l100.5-2.7
					c0.3,0,0.5,0.2,0.5,0.5c0,0.3-0.2,0.5-0.5,0.5L115,110.1c-0.3,0-6.1-0.2-9.8,3.4c-2,1.9-3,4.6-3,8l0.8,54.7
					C103,176.4,102.7,176.7,102.5,176.7C102.5,176.7,102.5,176.7,102.5,176.7z"/>
			</g>
			<path class="st8" d="M113.7,286c0.3-14.6,0.2-143.6-0.6-154.7c-0.8-11.1,16.4-13.2,42.9-14.5c26.5-1.3,249.9-6.2,255.7-6.7
				c12.9-1.1,15.6,18.4,14.3,60.6c-1,31.7-2.6,84-3.3,108c-0.2,7.2-6,12.8-13.1,12.9c-53.8,0.1-259.8,0.7-273.6,1.2
				C120.1,293.2,113.5,291.8,113.7,286z"/>
		</g>
		<linearGradient id="SVGID_3_" gradientUnits="userSpaceOnUse" x1="417.8943" y1="279.3124" x2="67.4471" y2="364.5563">
			<stop  offset="0" style="stop-color:#2B3582"/>
			<stop  offset="1" style="stop-color:#150E42"/>
		</linearGradient>
		<path class="st9" d="M458,324.2H79.1c-4.7,0-8.5-3.8-8.5-8.5l0,0c0-4.7,3.8-8.5,8.5-8.5H458c4.7,0,8.5,3.8,8.5,8.5l0,0
			C466.6,320.3,462.7,324.2,458,324.2z"/>
	</g>
	<g>
		<defs>
			<path id="SVGID_4_" d="M434.4,295.3c0,3.3-2.6,5.9-5.9,5.9h-322c-3.2,0-5.9-2.7-5.9-5.9L98.1,119c0.3-10.6,9.6-14.4,15.2-14.2
				l314.6-8.5c3-0.1,5.9,1.1,8.1,3.2c2.1,2.1,3.3,5.1,3.2,8.1L434.4,295.3z"/>
		</defs>
		<clipPath id="SVGID_5_">
			<use xlink:href="#SVGID_4_"  style="overflow:visible;"/>
		</clipPath>
		<g class="st10">
			<linearGradient id="SVGID_6_" gradientUnits="userSpaceOnUse" x1="177.0764" y1="427.0537" x2="211.7624" y2="427.0537">
				<stop  offset="0" style="stop-color:#53D8FF"/>
				<stop  offset="1" style="stop-color:#3840F7"/>
			</linearGradient>
			<path class="st11" d="M210.8,425.4c-5.9,0.5-16.3,1.4-24.4,1.7c-4.9,0.2-7.7-0.3-9.3-0.9c0,0.2,0,0.4,0,0.5
				c0,0.9,0.7,1.5,1.6,1.6c15.4,0.9,27.6,0.3,31.9,0c0.9-0.1,1.4-1,1-1.8C211.4,426.1,211.1,425.7,210.8,425.4z"/>
			<linearGradient id="SVGID_7_" gradientUnits="userSpaceOnUse" x1="177.0744" y1="420.214" x2="210.7829" y2="420.214">
				<stop  offset="0" style="stop-color:#2B3582"/>
				<stop  offset="1" style="stop-color:#150E42"/>
			</linearGradient>
			<path class="st12" d="M186.4,427.1c8.1-0.4,18.4-1.2,24.4-1.7c-5.8-7.2-24.4-12.1-24.4-12.1h-5.2c-3.6,5.2-4.1,10.2-4.1,12.9
				C178.7,426.8,181.5,427.3,186.4,427.1z"/>
			<linearGradient id="SVGID_8_" gradientUnits="userSpaceOnUse" x1="180.2787" y1="410.6649" x2="190.049" y2="410.6649">
				<stop  offset="0" style="stop-color:#F9B776"/>
				<stop  offset="1" style="stop-color:#F47960"/>
			</linearGradient>
			<path class="st13" d="M180.3,404.7l0.5,9.8c0.1,1.1,0.8,1.9,1.9,2.1c1,0.2,2.4,0.2,3.9-0.3c0.9-0.3,1.6-1.1,1.8-2l1.7-9.5H180.3z
				"/>
			<g>
				<linearGradient id="SVGID_9_" gradientUnits="userSpaceOnUse" x1="115.1665" y1="435.7076" x2="128.4588" y2="435.7076">
					<stop  offset="0" style="stop-color:#53D8FF"/>
					<stop  offset="1" style="stop-color:#3840F7"/>
				</linearGradient>
				<path class="st14" d="M119.5,436.6c-2.6-0.5-3.7-2.2-4.2-4.1c0,0,0,0,0,0.1c-0.4,2,0.5,4,2.3,5c2.1,1.2,4.4,1.4,6.2,1.3
					c1.9-0.1,3.7-1.1,4.7-2.8l0,0C126.5,437.3,123.8,437.4,119.5,436.6z"/>
				<linearGradient id="SVGID_10_" gradientUnits="userSpaceOnUse" x1="115.2632" y1="422.399" x2="134.7736" y2="422.399">
					<stop  offset="0" style="stop-color:#2B3582"/>
					<stop  offset="1" style="stop-color:#150E42"/>
				</linearGradient>
				<path class="st15" d="M131.6,407.7h-4.3c-6.6-0.2-10.7,17.9-12.1,24.9c0.5,1.9,1.7,3.6,4.2,4.1c4.3,0.8,7,0.6,9-0.6
					c3.6-6.1,5.3-15,6.2-20.2C135.6,409.9,131.6,407.7,131.6,407.7z"/>
			</g>
			<linearGradient id="SVGID_11_" gradientUnits="userSpaceOnUse" x1="125.4044" y1="405.5388" x2="137.0809" y2="405.5388">
				<stop  offset="0" style="stop-color:#F9B776"/>
				<stop  offset="1" style="stop-color:#F47960"/>
			</linearGradient>
			<path class="st16" d="M127.9,398.6l-2.4,9.6c-0.3,1.2,0.3,2.4,1.3,3c1.3,0.7,3.2,1.4,5,1.2c0.8-0.1,1.5-0.7,1.8-1.5l3.5-10.1
				L127.9,398.6z"/>
			<linearGradient id="SVGID_12_" gradientUnits="userSpaceOnUse" x1="135.8398" y1="420.4547" x2="242.2742" y2="237.7684">
				<stop  offset="0" style="stop-color:#FDF53F"/>
				<stop  offset="1" style="stop-color:#D93C65"/>
			</linearGradient>
			<path class="st17" d="M212.2,272.2c0,0-21.4,134.8-21.1,135.5c0,0-5.9,2.7-12.4,0.3c0,0,1.9-72.1,6.5-99.7
				c0,0-36.6,64.4-48.2,96.5c0,0-6.1-0.7-11.1-4c0,0,39.4-115.9,49.9-131.4L212.2,272.2z"/>
			<g>
				<linearGradient id="SVGID_13_" gradientUnits="userSpaceOnUse" x1="164.9518" y1="348.0487" x2="205.4339" y2="278.9911">
					<stop  offset="0" style="stop-color:#FDF53F"/>
					<stop  offset="1" style="stop-color:#D93C65"/>
				</linearGradient>
				<path class="st18" d="M186.1,307.6c-0.1,0-0.2,0-0.3-0.1c-0.2-0.2-0.3-0.5-0.2-0.7l8-12.9c0.1-0.1,0.2-0.2,0.3-0.2l5.9-1.2
					c0.3-0.1,0.6,0.1,0.6,0.4c0.1,0.3-0.1,0.6-0.4,0.6l-5.7,1.1l-7.9,12.7C186.5,307.5,186.3,307.6,186.1,307.6z"/>
			</g>
			<linearGradient id="SVGID_14_" gradientUnits="userSpaceOnUse" x1="286.0029" y1="158.101" x2="239.5811" y2="218.4945">
				<stop  offset="0" style="stop-color:#F9B776"/>
				<stop  offset="1" style="stop-color:#F47960"/>
			</linearGradient>
			<path class="st19" d="M310.6,140.3c0,0-14.5,3.2-23.3,7.3c-1.7,0.8-3.1,2.2-3.9,4c-2.6,5.8-10.5,20.3-25.8,27.3
				c2.2,2.9,5.7,9,7.3,19.3c9.2-6.9,17.1-18.3,20.9-37.1c0,0,2.9,1.6,6.5-0.2c1.9-0.9,4.1-2.3,5.8-3.3c1.6-1,2.9-2.6,3.3-4.5
				c0.6-2.5,0.3-4.7,0.3-7l7.4-2.3C309.1,143.6,311.3,142.8,310.6,140.3z"/>
			<linearGradient id="SVGID_15_" gradientUnits="userSpaceOnUse" x1="231.2826" y1="172.4634" x2="76.3448" y2="356.0934">
				<stop  offset="0" style="stop-color:#A737D5"/>
				<stop  offset="1" style="stop-color:#EF497A"/>
			</linearGradient>
			<path class="st20" d="M264.9,198.1c-1.5-10.3-5.1-16.4-7.3-19.3c-9.5,4.3-21.8,5.7-37.5,0.2c-1.4-0.5-3-0.8-4.5-0.9
				c-8.4-0.5-35.9-1.4-58.7,6.2c-4.8,1.6-8.7,5.2-10.7,9.8c-6.2,14.2-16.2,46.7,11.6,63c2.1-5.3,4.6-9.6,6.7-12.7
				c-4.5-7.6-5.8-17.9,2.1-31.4c5.8,15.7,8.5,38.6,9.1,48.7c0.2,3.3-0.4,6.7-1.7,9.7l-0.1,0.3c-0.3,0.7,0.1,1.4,0.8,1.6
				c15.6,3.5,31.8,2.6,36.7,2.2c0.9-0.1,1.6-0.7,1.8-1.5c7.6-32.2,7.6-54.1,5.7-68C225.9,207.6,247.7,211,264.9,198.1z"/>
			<g>
				<g>
					<linearGradient id="SVGID_16_" gradientUnits="userSpaceOnUse" x1="212.8152" y1="196.3712" x2="219.4099" y2="196.3712">
						<stop  offset="0" style="stop-color:#CE1567"/>
						<stop  offset="1" style="stop-color:#7A1DBC"/>
					</linearGradient>
					<path class="st21" d="M218.9,206.8c-0.3,0-0.5-0.2-0.5-0.5c-1.8-13.6-5.4-19.5-5.5-19.6c-0.2-0.2-0.1-0.6,0.2-0.7
						s0.6-0.1,0.7,0.2c0.2,0.2,3.8,6.1,5.6,20C219.4,206.5,219.2,206.7,218.9,206.8C218.9,206.8,218.9,206.8,218.9,206.8z"/>
				</g>
			</g>
			<linearGradient id="SVGID_17_" gradientUnits="userSpaceOnUse" x1="182.8986" y1="197.1942" x2="187.9895" y2="170.4669">
				<stop  offset="0" style="stop-color:#F9B776"/>
				<stop  offset="1" style="stop-color:#F47960"/>
			</linearGradient>
			<path class="st22" d="M180.4,159.4c0,0-1.6,16.8-3,21.8c-0.2,0.8,0.1,1.5,0.8,1.9c2.4,1.4,8,3.6,15.8-0.2c1.3-0.6,2-1.9,1.9-3.3
				l-0.7-16.2L180.4,159.4z"/>
			<g>
				<linearGradient id="SVGID_18_" gradientUnits="userSpaceOnUse" x1="196.6546" y1="148.1814" x2="167.6904" y2="170.3434">
					<stop  offset="0" style="stop-color:#F9B776"/>
					<stop  offset="1" style="stop-color:#F47960"/>
				</linearGradient>
				<path class="st23" d="M195.6,137.9c0,0,5,11.7,5.4,17.8c0.3,6.1,1.7,10.1-5.4,11.3c-7,1.2-13-2.3-16.2-8.4c0,0-5-9.4-3.9-13.3
					C176.6,141.5,195.6,137.9,195.6,137.9z"/>
				<linearGradient id="SVGID_19_" gradientUnits="userSpaceOnUse" x1="176.2679" y1="130.6051" x2="203.2941" y2="165.4013">
					<stop  offset="0" style="stop-color:#2B3582"/>
					<stop  offset="1" style="stop-color:#150E42"/>
				</linearGradient>
				<path class="st24" d="M181.8,154.2l0.4-0.2c0.5-0.2,0.7-0.8,0.5-1.3c-1-1.9-2.9-6.4-0.4-7.4c3.2-1.3,16-3.9,18.7-8.5
					c2.6-4.4,0.3-10-3.2-11.6c-0.2-0.1-0.5,0-0.6,0.2l-0.3,0.6c-0.2,0.4-0.8,0.3-0.9-0.1l0,0c-0.1-0.4-0.6-0.5-0.9-0.1
					c-0.8,1.4-3.1,3.6-9.2,4.7c-8.7,1.6-14.4,5.1-14.6,11.2c0,0.4-0.4,0.6-0.7,0.4c-0.6-0.4-1.7-0.6-3,0.6c-2.4,2-1.4,7.3,3.8,11.6
					c0.2,0.2,0.2,0.6,0,0.8c-0.9,0.6-2.4,2.1,1.3,4.1c3.8,2,6.6,1.9,7.7,1.7c0.3,0,0.4-0.3,0.4-0.6l-1.2-5.3
					c-0.1-0.3,0.2-0.6,0.5-0.6H181.8z"/>
				<linearGradient id="SVGID_20_" gradientUnits="userSpaceOnUse" x1="193.0899" y1="143.4873" x2="164.1229" y2="165.6514">
					<stop  offset="0" style="stop-color:#F9B776"/>
					<stop  offset="1" style="stop-color:#F47960"/>
				</linearGradient>
				<path class="st25" d="M182,155.4c0,0-1.9-7.5-5.2-5.4c-3.3,2.1,1.7,8.4,4.4,8.6L182,155.4z"/>
			</g>
			<path class="st26" d="M289.7,159.1c-0.1,0-0.2,0-0.3-0.1c-0.2-0.2-0.3-0.5-0.1-0.7c0.2-0.3,5.4-6.6,7.2-7.7
				c0.7-0.4,1.1-0.8,1.2-1.2c0.1-0.2,0-0.5-0.1-0.7l-5.8,1.2l-3.3,2.8c-0.2,0.2-0.6,0.2-0.7-0.1c-0.2-0.2-0.2-0.6,0.1-0.7l3.4-2.9
				c0.1-0.1,0.2-0.1,0.2-0.1l6.3-1.3c0.2,0,0.4,0,0.5,0.2c0.4,0.7,0.6,1.3,0.5,1.9c-0.2,0.7-0.7,1.3-1.7,1.9
				c-1.4,0.8-5.5,5.6-6.9,7.4C290,159.1,289.8,159.1,289.7,159.1z"/>
			<linearGradient id="SVGID_21_" gradientUnits="userSpaceOnUse" x1="208.8168" y1="237.369" x2="196.4361" y2="255.94">
				<stop  offset="0" style="stop-color:#F9B776"/>
				<stop  offset="1" style="stop-color:#F47960"/>
			</linearGradient>
			<path class="st27" d="M201.4,263.5c0,0,0.4,7-8.7,6c-4.9-0.5-12.9-5.2-12.9-5.2S200.5,264.2,201.4,263.5z"/>
			<g>
				
					<linearGradient id="SVGID_22_" gradientUnits="userSpaceOnUse" x1="-5829.1748" y1="100.0017" x2="-5874.8218" y2="112.5123" gradientTransform="matrix(-0.9988 -4.940000e-02 -4.940000e-02 0.9988 -5640.377 -135.546)">
					<stop  offset="0" style="stop-color:#2B3582"/>
					<stop  offset="1" style="stop-color:#150E42"/>
				</linearGradient>
				<path class="st28" d="M186.5,267.3c0,0,0.1,0,0.1,0l56.7-0.1c1.4,0,2.5-1.1,2.5-2.5c0-1.4-1.1-2.5-2.5-2.5l-56.7,0.1
					c-1.4,0-2.5,1.1-2.5,2.5C184.1,266.2,185.1,267.3,186.5,267.3z"/>
				
					<linearGradient id="SVGID_23_" gradientUnits="userSpaceOnUse" x1="-5839.4312" y1="222.9618" x2="-5871.7388" y2="257.1089" gradientTransform="matrix(-1 0 0 1 -5600.7358 0)">
					<stop  offset="0" style="stop-color:#2B3582"/>
					<stop  offset="1" style="stop-color:#150E42"/>
				</linearGradient>
				<path class="st29" d="M294.2,216.1H247c-3.5,0-6.6,2-8.1,5.1l-21.8,46h58.6c2.2,0,4.3-1.4,5.1-3.4l16.9-42.6
					C298.7,218.8,296.9,216.1,294.2,216.1z"/>
				
					<linearGradient id="SVGID_24_" gradientUnits="userSpaceOnUse" x1="-5858.9878" y1="231.4779" x2="-5873.6235" y2="253.5176" gradientTransform="matrix(-1 0 0 1 -5600.7358 0)">
					<stop  offset="0" style="stop-color:#FDF53F"/>
					<stop  offset="1" style="stop-color:#D93C65"/>
				</linearGradient>
				<path class="st30" d="M261,239.7c-1,3.2-0.3,6.2,1.7,6.9c2,0.6,4.4-1.4,5.4-4.6s0.3-6.2-1.7-6.9
					C264.4,234.5,262,236.6,261,239.7z"/>
			</g>
			<linearGradient id="SVGID_25_" gradientUnits="userSpaceOnUse" x1="212.1756" y1="238.7915" x2="199.6329" y2="257.6054">
				<stop  offset="0" style="stop-color:#F9B776"/>
				<stop  offset="1" style="stop-color:#F47960"/>
			</linearGradient>
			<path class="st31" d="M184.2,263.2c0,0,7.4-0.9,10.1-2.2c2.6-1.3,3.6,0.4,1.3,1.9c-2.3,1.5-2.7,1.5-2.7,1.5s7.8,2.1,9.6,2.1
				c1.7,0,6.5,0.3,5.2,1.1s-7,1.3-10.6,1.3c-3.6,0-7,1.5-16.6-4.5C181.8,262.7,184.2,263.2,184.2,263.2z"/>
			<linearGradient id="SVGID_26_" gradientUnits="userSpaceOnUse" x1="194.8266" y1="229.0473" x2="180.6985" y2="250.2394">
				<stop  offset="0" style="stop-color:#F9B776"/>
				<stop  offset="1" style="stop-color:#F47960"/>
			</linearGradient>
			<path class="st32" d="M181.8,265.2l10.6-2.3c0,0-21.2-7-27.9-18.5c-2.1,3.1-4.6,7.4-6.7,12.7
				C163.8,260.7,171.7,263.5,181.8,265.2z"/>
		</g>
	</g>
	<path class="st33" d="M336.2,42h-86.5c-1.8,0-3.3-1.5-3.3-3.4l0,0c0-1.9,1.5-3.4,3.3-3.4h86.5c1.8,0,3.3,1.5,3.3,3.4l0,0
		C339.5,40.4,338,42,336.2,42z"/>
	<path class="st4" d="M346.6,55.1h-86.5c-1.8,0-3.3-1.5-3.3-3.4l0,0c0-1.9,1.5-3.4,3.3-3.4h86.5c1.8,0,3.3,1.5,3.3,3.4l0,0
		C349.9,53.6,348.4,55.1,346.6,55.1z"/>
	<path class="st4" d="M322,81.5h-61.9c-1.8,0-3.3-1.5-3.3-3.4l0,0c0-1.9,1.5-3.4,3.3-3.4H322c1.8,0,3.3,1.5,3.3,3.4l0,0
		C325.3,80,323.8,81.5,322,81.5z"/>
	<path class="st33" d="M356.3,68.3h-86.5c-1.8,0-3.3-1.5-3.3-3.4l0,0c0-1.9,1.5-3.4,3.3-3.4h86.5c1.8,0,3.3,1.5,3.3,3.4l0,0
		C359.6,66.8,358.1,68.3,356.3,68.3z"/>
	<g>
		
			<linearGradient id="SVGID_27_" gradientUnits="userSpaceOnUse" x1="-809.8038" y1="-726.5972" x2="-862.3492" y2="-758.4429" gradientTransform="matrix(-0.9578 0.2873 0.4329 0.8209 -36.7354 978.6207)">
			<stop  offset="0" style="stop-color:#53D8FF"/>
			<stop  offset="1" style="stop-color:#3840F7"/>
		</linearGradient>
		<polygon class="st34" points="446.9,115.8 452.1,126.5 457,118.4 		"/>
		
			<linearGradient id="SVGID_28_" gradientUnits="userSpaceOnUse" x1="-838.9258" y1="-738.3488" x2="-899.1036" y2="-801.9794" gradientTransform="matrix(-0.9578 0.2873 0.4329 0.8209 -36.7354 978.6207)">
			<stop  offset="0" style="stop-color:#53D8FF"/>
			<stop  offset="1" style="stop-color:#3840F7"/>
		</linearGradient>
		<path class="st35" d="M491.7,86.2l-16.4,39.4c-0.3,0.8-0.9,1.3-1.7,1.6c-0.8,0.3-1.6,0.3-2.3-0.1l-38.7-18.1
			c-0.4-0.2-0.7-0.7-0.7-1.2c0-0.5,0.3-0.9,0.8-1.1L491.7,86.2z"/>
		
			<linearGradient id="SVGID_29_" gradientUnits="userSpaceOnUse" x1="-813.6226" y1="-727.217" x2="-862.6718" y2="-756.9438" gradientTransform="matrix(-0.9578 0.2873 0.4329 0.8209 -36.7354 978.6207)">
			<stop  offset="0" style="stop-color:#53D8FF"/>
			<stop  offset="1" style="stop-color:#3840F7"/>
		</linearGradient>
		<polygon class="st36" points="446.9,115.8 491.7,86.2 453.1,118.7 454.4,121.8 		"/>
		
			<linearGradient id="SVGID_30_" gradientUnits="userSpaceOnUse" x1="-2293.6855" y1="-609.8445" x2="-2271.2927" y2="-616.3302" gradientTransform="matrix(0.9578 -0.2873 0.2873 0.9578 2816.1948 53.2433)">
			<stop  offset="0" style="stop-color:#53D8FF"/>
			<stop  offset="1" style="stop-color:#3840F7"/>
		</linearGradient>
		<polygon class="st37" points="456.8,120.5 452.1,126.5 453.1,118.7 		"/>
	</g>
	<g>
		<linearGradient id="SVGID_31_" gradientUnits="userSpaceOnUse" x1="71.8542" y1="128.7315" x2="448.6273" y2="128.7315">
			<stop  offset="0" style="stop-color:#9CFFFB"/>
			<stop  offset="1" style="stop-color:#9BFFFA"/>
		</linearGradient>
		<path class="st38" d="M448.5,128l-1.6,2.1c-0.2,0.2-0.5,0.3-0.7,0.1c-0.2-0.2-0.3-0.5-0.1-0.7l1.6-2.1c0.2-0.2,0.5-0.3,0.7-0.1
			S448.7,127.7,448.5,128L448.5,128z"/>
		<linearGradient id="SVGID_32_" gradientUnits="userSpaceOnUse" x1="71.8536" y1="132.9879" x2="448.6274" y2="132.9879">
			<stop  offset="0" style="stop-color:#9CFFFB"/>
			<stop  offset="1" style="stop-color:#9BFFFA"/>
		</linearGradient>
		<path class="st39" d="M445.4,132.2l-1.6,2.1c-0.2,0.2-0.5,0.3-0.7,0.1c-0.2-0.2-0.3-0.5-0.1-0.7l1.6-2.1c0.2-0.2,0.5-0.3,0.7-0.1
			C445.5,131.7,445.6,132,445.4,132.2L445.4,132.2z"/>
		<linearGradient id="SVGID_33_" gradientUnits="userSpaceOnUse" x1="71.857" y1="137.2019" x2="448.6271" y2="137.2019">
			<stop  offset="0" style="stop-color:#9CFFFB"/>
			<stop  offset="1" style="stop-color:#9BFFFA"/>
		</linearGradient>
		<path class="st40" d="M442.2,136.5l-1.6,2.1c-0.2,0.2-0.5,0.3-0.7,0.1c-0.2-0.2-0.3-0.5-0.1-0.7l1.6-2.1c0.2-0.2,0.5-0.3,0.7-0.1
			C442.3,135.9,442.4,136.2,442.2,136.5L442.2,136.5z"/>
		<linearGradient id="SVGID_34_" gradientUnits="userSpaceOnUse" x1="71.8548" y1="141.3733" x2="448.6272" y2="141.3733">
			<stop  offset="0" style="stop-color:#9CFFFB"/>
			<stop  offset="1" style="stop-color:#9BFFFA"/>
		</linearGradient>
		<path class="st41" d="M439,140.7l-1.6,2.1c-0.2,0.2-0.5,0.3-0.7,0.1c-0.2-0.2-0.3-0.5-0.1-0.7l1.6-2.1c0.2-0.2,0.5-0.3,0.7-0.1
			C439.1,140.1,439.1,140.4,439,140.7L439,140.7z"/>
		<linearGradient id="SVGID_35_" gradientUnits="userSpaceOnUse" x1="71.8557" y1="145.5019" x2="448.6274" y2="145.5019">
			<stop  offset="0" style="stop-color:#9CFFFB"/>
			<stop  offset="1" style="stop-color:#9BFFFA"/>
		</linearGradient>
		<path class="st42" d="M435.7,144.8l-1.7,2.1c-0.2,0.2-0.5,0.2-0.7,0.1c-0.2-0.2-0.2-0.5-0.1-0.7l1.7-2.1c0.2-0.2,0.5-0.3,0.7-0.1
			C435.8,144.3,435.8,144.6,435.7,144.8L435.7,144.8z"/>
		<linearGradient id="SVGID_36_" gradientUnits="userSpaceOnUse" x1="71.852" y1="149.5875" x2="448.6291" y2="149.5875">
			<stop  offset="0" style="stop-color:#9CFFFB"/>
			<stop  offset="1" style="stop-color:#9BFFFA"/>
		</linearGradient>
		<path class="st43" d="M432.3,148.9l-1.7,2c-0.2,0.2-0.5,0.2-0.7,0.1c-0.2-0.2-0.2-0.5-0.1-0.7l1.7-2c0.2-0.2,0.5-0.2,0.7-0.1
			C432.4,148.4,432.5,148.7,432.3,148.9L432.3,148.9z"/>
		<linearGradient id="SVGID_37_" gradientUnits="userSpaceOnUse" x1="71.8559" y1="153.6297" x2="448.627" y2="153.6297">
			<stop  offset="0" style="stop-color:#9CFFFB"/>
			<stop  offset="1" style="stop-color:#9BFFFA"/>
		</linearGradient>
		<path class="st44" d="M428.9,153l-1.7,2c-0.2,0.2-0.5,0.2-0.7,0.1c-0.2-0.2-0.2-0.5-0.1-0.7l1.7-2c0.2-0.2,0.5-0.2,0.7-0.1
			C429,152.4,429.1,152.7,428.9,153L428.9,153z"/>
		<linearGradient id="SVGID_38_" gradientUnits="userSpaceOnUse" x1="71.8553" y1="157.6272" x2="448.6271" y2="157.6272">
			<stop  offset="0" style="stop-color:#9CFFFB"/>
			<stop  offset="1" style="stop-color:#9BFFFA"/>
		</linearGradient>
		<path class="st45" d="M425.4,157l-1.7,2c-0.2,0.2-0.5,0.2-0.7,0c-0.2-0.2-0.2-0.5,0-0.7l1.7-2c0.2-0.2,0.5-0.2,0.7,0
			C425.6,156.4,425.6,156.8,425.4,157L425.4,157z"/>
		<linearGradient id="SVGID_39_" gradientUnits="userSpaceOnUse" x1="71.8555" y1="161.5784" x2="448.6271" y2="161.5784">
			<stop  offset="0" style="stop-color:#9CFFFB"/>
			<stop  offset="1" style="stop-color:#9BFFFA"/>
		</linearGradient>
		<path class="st46" d="M421.9,160.9l-1.8,2c-0.2,0.2-0.5,0.2-0.7,0c-0.2-0.2-0.2-0.5,0-0.7l1.8-2c0.2-0.2,0.5-0.2,0.7,0
			C422.1,160.4,422.1,160.7,421.9,160.9L421.9,160.9z"/>
		<linearGradient id="SVGID_40_" gradientUnits="userSpaceOnUse" x1="71.8559" y1="165.486" x2="448.6271" y2="165.486">
			<stop  offset="0" style="stop-color:#9CFFFB"/>
			<stop  offset="1" style="stop-color:#9BFFFA"/>
		</linearGradient>
		<path class="st47" d="M418.4,164.8l-1.8,1.9c-0.2,0.2-0.5,0.2-0.7,0c-0.2-0.2-0.2-0.5,0-0.7l1.8-1.9c0.2-0.2,0.5-0.2,0.7,0
			C418.5,164.3,418.6,164.6,418.4,164.8L418.4,164.8z"/>
		<linearGradient id="SVGID_41_" gradientUnits="userSpaceOnUse" x1="71.8569" y1="169.3488" x2="448.627" y2="169.3488">
			<stop  offset="0" style="stop-color:#9CFFFB"/>
			<stop  offset="1" style="stop-color:#9BFFFA"/>
		</linearGradient>
		<path class="st48" d="M414.8,168.7l-1.8,1.9c-0.2,0.2-0.5,0.2-0.7,0c-0.2-0.2-0.2-0.5,0-0.7l1.8-1.9c0.2-0.2,0.5-0.2,0.7,0
			C414.9,168.2,414.9,168.5,414.8,168.7L414.8,168.7z"/>
		<linearGradient id="SVGID_42_" gradientUnits="userSpaceOnUse" x1="71.8557" y1="173.1657" x2="448.6272" y2="173.1657">
			<stop  offset="0" style="stop-color:#9CFFFB"/>
			<stop  offset="1" style="stop-color:#9BFFFA"/>
		</linearGradient>
		<path class="st49" d="M411.1,172.5l-1.8,1.9c-0.2,0.2-0.5,0.2-0.7,0c-0.2-0.2-0.2-0.5,0-0.7l1.8-1.9c0.2-0.2,0.5-0.2,0.7,0
			C411.3,172.1,411.3,172.4,411.1,172.5L411.1,172.5z"/>
		<linearGradient id="SVGID_43_" gradientUnits="userSpaceOnUse" x1="71.856" y1="176.9356" x2="448.6273" y2="176.9356">
			<stop  offset="0" style="stop-color:#9CFFFB"/>
			<stop  offset="1" style="stop-color:#9BFFFA"/>
		</linearGradient>
		<path class="st50" d="M407.4,176.3l-1.9,1.9c-0.2,0.2-0.5,0.2-0.7,0c-0.2-0.2-0.2-0.5,0-0.7l1.9-1.9c0.2-0.2,0.5-0.2,0.7,0
			C407.6,175.9,407.6,176.1,407.4,176.3L407.4,176.3z"/>
		<linearGradient id="SVGID_44_" gradientUnits="userSpaceOnUse" x1="71.8567" y1="180.6571" x2="448.6269" y2="180.6571">
			<stop  offset="0" style="stop-color:#9CFFFB"/>
			<stop  offset="1" style="stop-color:#9BFFFA"/>
		</linearGradient>
		<path class="st51" d="M403.7,180.1l-1.9,1.8c-0.2,0.2-0.5,0.2-0.6,0c-0.2-0.2-0.2-0.5,0-0.6l1.9-1.9c0.2-0.2,0.5-0.2,0.6,0
			C403.8,179.6,403.8,179.9,403.7,180.1L403.7,180.1z"/>
		<linearGradient id="SVGID_45_" gradientUnits="userSpaceOnUse" x1="71.8533" y1="184.3293" x2="448.6272" y2="184.3293">
			<stop  offset="0" style="stop-color:#9CFFFB"/>
			<stop  offset="1" style="stop-color:#9BFFFA"/>
		</linearGradient>
		<path class="st52" d="M399.9,183.7l-1.9,1.8c-0.2,0.2-0.5,0.2-0.6,0c-0.2-0.2-0.2-0.5,0-0.6l1.9-1.8c0.2-0.2,0.5-0.2,0.6,0
			C400,183.3,400,183.6,399.9,183.7L399.9,183.7z"/>
		<linearGradient id="SVGID_46_" gradientUnits="userSpaceOnUse" x1="71.8554" y1="187.9507" x2="448.6271" y2="187.9507">
			<stop  offset="0" style="stop-color:#9CFFFB"/>
			<stop  offset="1" style="stop-color:#9BFFFA"/>
		</linearGradient>
		<path class="st53" d="M396,187.4l-1.9,1.8c-0.2,0.2-0.5,0.2-0.6,0c-0.2-0.2-0.2-0.5,0-0.6l1.9-1.8c0.2-0.2,0.5-0.2,0.6,0
			C396.2,186.9,396.2,187.2,396,187.4L396,187.4z"/>
		<linearGradient id="SVGID_47_" gradientUnits="userSpaceOnUse" x1="71.8541" y1="191.5201" x2="448.6272" y2="191.5201">
			<stop  offset="0" style="stop-color:#9CFFFB"/>
			<stop  offset="1" style="stop-color:#9BFFFA"/>
		</linearGradient>
		<path class="st54" d="M392.1,191l-2,1.8c-0.2,0.2-0.5,0.1-0.6,0c-0.2-0.2-0.1-0.5,0-0.6l2-1.8c0.2-0.2,0.5-0.1,0.6,0
			C392.3,190.5,392.3,190.8,392.1,191L392.1,191z"/>
		<linearGradient id="SVGID_48_" gradientUnits="userSpaceOnUse" x1="71.8556" y1="195.036" x2="448.627" y2="195.036">
			<stop  offset="0" style="stop-color:#9CFFFB"/>
			<stop  offset="1" style="stop-color:#9BFFFA"/>
		</linearGradient>
		<path class="st55" d="M388.2,194.5l-2,1.7c-0.2,0.2-0.5,0.1-0.6,0c-0.2-0.2-0.1-0.5,0-0.6l2-1.7c0.2-0.2,0.5-0.1,0.6,0
			C388.4,194.1,388.4,194.3,388.2,194.5L388.2,194.5z"/>
		<linearGradient id="SVGID_49_" gradientUnits="userSpaceOnUse" x1="71.8569" y1="198.4968" x2="448.627" y2="198.4968">
			<stop  offset="0" style="stop-color:#9CFFFB"/>
			<stop  offset="1" style="stop-color:#9BFFFA"/>
		</linearGradient>
		<path class="st56" d="M384.2,198l-2,1.7c-0.2,0.2-0.4,0.1-0.6-0.1c-0.2-0.2-0.1-0.5,0-0.6l2-1.7c0.2-0.2,0.5-0.1,0.6,0
			C384.4,197.5,384.4,197.8,384.2,198L384.2,198z"/>
		<linearGradient id="SVGID_50_" gradientUnits="userSpaceOnUse" x1="71.8527" y1="201.9322" x2="448.6277" y2="201.9322">
			<stop  offset="0" style="stop-color:#9CFFFB"/>
			<stop  offset="1" style="stop-color:#9BFFFA"/>
		</linearGradient>
		<path class="st57" d="M380.1,201.5l-2,1.6c-0.2,0.1-0.4,0.1-0.6-0.1c-0.1-0.2-0.1-0.5,0.1-0.6l2-1.7c0.2-0.2,0.4-0.1,0.6,0.1
			C380.3,201,380.3,201.5,380.1,201.5L380.1,201.5z"/>
		<linearGradient id="SVGID_51_" gradientUnits="userSpaceOnUse" x1="71.8555" y1="205.2458" x2="448.6269" y2="205.2458">
			<stop  offset="0" style="stop-color:#9CFFFB"/>
			<stop  offset="1" style="stop-color:#9BFFFA"/>
		</linearGradient>
		<path class="st58" d="M376.1,204.7l-2.1,1.7c-0.2,0.1-0.4,0.1-0.6-0.1s-0.1-0.4,0.1-0.6l2.1-1.7c0.2-0.1,0.4-0.1,0.6,0.1
			C376.3,204.3,376.2,204.6,376.1,204.7L376.1,204.7z"/>
		<linearGradient id="SVGID_52_" gradientUnits="userSpaceOnUse" x1="71.8554" y1="208.4637" x2="448.6273" y2="208.4637">
			<stop  offset="0" style="stop-color:#9CFFFB"/>
			<stop  offset="1" style="stop-color:#9BFFFA"/>
		</linearGradient>
		<path class="st59" d="M371.9,207.9l-2.1,1.7c-0.2,0.1-0.4,0.2-0.6,0c-0.1-0.2-0.1-0.4,0.1-0.6l2.1-1.6c0.2-0.1,0.4-0.2,0.6,0
			C372.1,207.5,372.1,207.9,371.9,207.9L371.9,207.9z"/>
		<linearGradient id="SVGID_53_" gradientUnits="userSpaceOnUse" x1="71.8553" y1="211.6656" x2="448.6271" y2="211.6656">
			<stop  offset="0" style="stop-color:#9CFFFB"/>
			<stop  offset="1" style="stop-color:#9BFFFA"/>
		</linearGradient>
		<path class="st60" d="M367.7,211l-2.1,1.7c-0.2,0.1-0.4,0.2-0.6,0c-0.1-0.2-0.1-0.4,0.1-0.5l2.1-1.6c0.2-0.1,0.4-0.2,0.6,0
			C368,210.8,367.9,211,367.7,211L367.7,211z"/>
		<linearGradient id="SVGID_54_" gradientUnits="userSpaceOnUse" x1="71.857" y1="214.8257" x2="448.6268" y2="214.8257">
			<stop  offset="0" style="stop-color:#9CFFFB"/>
			<stop  offset="1" style="stop-color:#9BFFFA"/>
		</linearGradient>
		<path class="st61" d="M363.5,214.2l-2.1,1.7c-0.2,0.1-0.4,0.2-0.6,0c-0.1-0.2-0.1-0.4,0.1-0.5l2.1-1.5c0.2-0.1,0.4-0.2,0.6,0
			C363.7,213.9,363.7,214.2,363.5,214.2L363.5,214.2z"/>
		<linearGradient id="SVGID_55_" gradientUnits="userSpaceOnUse" x1="71.8565" y1="217.9418" x2="448.6269" y2="217.9418">
			<stop  offset="0" style="stop-color:#9CFFFB"/>
			<stop  offset="1" style="stop-color:#9BFFFA"/>
		</linearGradient>
		<path class="st62" d="M359.2,217.4l-2.2,1.6c-0.2,0.1-0.4,0.1-0.6-0.1c-0.1-0.2-0.1-0.4,0.1-0.5l2.2-1.5c0.2-0.1,0.4-0.2,0.6,0
			C359.4,217.1,359.4,217.4,359.2,217.4L359.2,217.4z"/>
		<linearGradient id="SVGID_56_" gradientUnits="userSpaceOnUse" x1="71.8543" y1="221.0089" x2="448.6274" y2="221.0089">
			<stop  offset="0" style="stop-color:#9CFFFB"/>
			<stop  offset="1" style="stop-color:#9BFFFA"/>
		</linearGradient>
		<path class="st63" d="M354.9,220.6l-2.2,1.5c-0.2,0.1-0.4,0.1-0.5-0.1s-0.1-0.4,0.1-0.5l2.2-1.5c0.2-0.1,0.4-0.1,0.5,0.1
			C355.1,220.2,355.1,220.6,354.9,220.6L354.9,220.6z"/>
		<linearGradient id="SVGID_57_" gradientUnits="userSpaceOnUse" x1="71.8561" y1="224.02" x2="448.627" y2="224.02">
			<stop  offset="0" style="stop-color:#9CFFFB"/>
			<stop  offset="1" style="stop-color:#9BFFFA"/>
		</linearGradient>
		<path class="st64" d="M350.5,223.8l-2.2,1.3c-0.2,0.1-0.4,0-0.5-0.2c-0.1-0.2-0.1-0.4,0.1-0.6l2.2-1.5c0.2-0.1,0.4,0,0.5,0.2
			C350.7,223.3,350.7,223.2,350.5,223.8L350.5,223.8z"/>
		<linearGradient id="SVGID_58_" gradientUnits="userSpaceOnUse" x1="71.8574" y1="226.8169" x2="448.6262" y2="226.8169">
			<stop  offset="0" style="stop-color:#9CFFFB"/>
			<stop  offset="1" style="stop-color:#9BFFFA"/>
		</linearGradient>
		<path class="st65" d="M346.1,226.4l-2.2,1.4c-0.2,0.1-0.4,0.1-0.5-0.1c-0.1-0.2-0.1-0.4,0.1-0.5l2.2-1.4c0.2-0.1,0.4-0.1,0.5,0.1
			C346.3,226.1,346.3,226.4,346.1,226.4L346.1,226.4z"/>
		<linearGradient id="SVGID_59_" gradientUnits="userSpaceOnUse" x1="71.8562" y1="229.5536" x2="448.627" y2="229.5536">
			<stop  offset="0" style="stop-color:#9CFFFB"/>
			<stop  offset="1" style="stop-color:#9BFFFA"/>
		</linearGradient>
		<path class="st66" d="M341.6,229.1l-2.3,1.5c-0.2,0.1-0.4,0.1-0.5-0.1c-0.1-0.2-0.1-0.4,0.1-0.5l2.3-1.4c0.2-0.1,0.4-0.1,0.5,0
			C341.8,228.8,341.8,229.1,341.6,229.1L341.6,229.1z"/>
		<linearGradient id="SVGID_60_" gradientUnits="userSpaceOnUse" x1="71.8534" y1="232.2332" x2="448.6281" y2="232.2332">
			<stop  offset="0" style="stop-color:#9CFFFB"/>
			<stop  offset="1" style="stop-color:#9BFFFA"/>
		</linearGradient>
		<path class="st67" d="M337.1,231.7l-2.3,1.5c-0.2,0.1-0.4,0.1-0.5-0.1c-0.1-0.2,0-0.4,0.1-0.5l2.3-1.3c0.2-0.1,0.4-0.2,0.5,0
			C337.3,231.5,337.2,231.7,337.1,231.7L337.1,231.7z"/>
		<linearGradient id="SVGID_61_" gradientUnits="userSpaceOnUse" x1="71.8577" y1="234.8565" x2="448.6263" y2="234.8565">
			<stop  offset="0" style="stop-color:#9CFFFB"/>
			<stop  offset="1" style="stop-color:#9BFFFA"/>
		</linearGradient>
		<path class="st68" d="M332.5,234.4l-2.3,1.4c-0.2,0.1-0.4,0.1-0.5-0.1c-0.1-0.2,0-0.4,0.1-0.5l2.3-1.3c0.2-0.1,0.4-0.2,0.5,0
			C332.7,234.2,332.7,234.4,332.5,234.4L332.5,234.4z"/>
		<linearGradient id="SVGID_62_" gradientUnits="userSpaceOnUse" x1="71.8537" y1="237.4199" x2="448.6279" y2="237.4199">
			<stop  offset="0" style="stop-color:#9CFFFB"/>
			<stop  offset="1" style="stop-color:#9BFFFA"/>
		</linearGradient>
		<path class="st69" d="M327.9,237l-2.3,1.3c-0.2,0.1-0.4,0.1-0.5-0.1c-0.1-0.2,0-0.4,0.1-0.5l2.3-1.2c0.2-0.1,0.4-0.1,0.5,0.1
			C328.1,236.8,328,237,327.9,237L327.9,237z"/>
		<linearGradient id="SVGID_63_" gradientUnits="userSpaceOnUse" x1="71.8556" y1="239.9142" x2="448.6269" y2="239.9142">
			<stop  offset="0" style="stop-color:#9CFFFB"/>
			<stop  offset="1" style="stop-color:#9BFFFA"/>
		</linearGradient>
		<path class="st70" d="M323.2,239.7l-2.4,1.2c-0.2,0.1-0.4,0-0.5-0.2c-0.1-0.2,0-0.4,0.2-0.5l2.4-1.2c0.2-0.1,0.4,0,0.5,0.2
			C323.4,239.3,323.4,239.7,323.2,239.7L323.2,239.7z"/>
		<linearGradient id="SVGID_64_" gradientUnits="userSpaceOnUse" x1="71.857" y1="242.1732" x2="448.6262" y2="242.1732">
			<stop  offset="0" style="stop-color:#9CFFFB"/>
			<stop  offset="1" style="stop-color:#9BFFFA"/>
		</linearGradient>
		<path class="st71" d="M318.4,241.8l-2.4,1.2c-0.2,0.1-0.4,0.1-0.5-0.1c-0.1-0.2,0-0.4,0.2-0.4l2.4-1.1c0.2-0.1,0.4-0.1,0.5,0.1
			C318.7,241.6,318.6,241.8,318.4,241.8L318.4,241.8z"/>
		<linearGradient id="SVGID_65_" gradientUnits="userSpaceOnUse" x1="71.8567" y1="244.5233" x2="448.6267" y2="244.5233">
			<stop  offset="0" style="stop-color:#9CFFFB"/>
			<stop  offset="1" style="stop-color:#9BFFFA"/>
		</linearGradient>
		<path class="st72" d="M313.7,244.4l-2.4,1c-0.2,0.1-0.4-0.1-0.5-0.2c-0.1-0.2,0-0.4,0.2-0.5l2.4-1.1c0.2-0.1,0.4,0.1,0.5,0.3
			C313.9,244.1,313.8,243.9,313.7,244.4L313.7,244.4z"/>
		<linearGradient id="SVGID_66_" gradientUnits="userSpaceOnUse" x1="71.8561" y1="246.6362" x2="448.6268" y2="246.6362">
			<stop  offset="0" style="stop-color:#9CFFFB"/>
			<stop  offset="1" style="stop-color:#9BFFFA"/>
		</linearGradient>
		<path class="st73" d="M308.8,246.6l-2.4,0.9c-0.2,0.1-0.4-0.1-0.4-0.2c-0.1-0.2,0-0.4,0.2-0.5l2.4-1c0.2-0.1,0.4,0.1,0.4,0.3
			C309.1,246.2,309,246.6,308.8,246.6L308.8,246.6z"/>
		<linearGradient id="SVGID_67_" gradientUnits="userSpaceOnUse" x1="71.8566" y1="248.5063" x2="448.6266" y2="248.5063">
			<stop  offset="0" style="stop-color:#9CFFFB"/>
			<stop  offset="1" style="stop-color:#9BFFFA"/>
		</linearGradient>
		<path class="st74" d="M304,248.2l-2.5,1.1c-0.2,0.1-0.4,0-0.4-0.1c-0.1-0.2,0-0.3,0.2-0.4l2.5-1c0.2-0.1,0.4-0.1,0.4,0.1
			C304.2,248,304.1,248.2,304,248.2L304,248.2z"/>
		<linearGradient id="SVGID_68_" gradientUnits="userSpaceOnUse" x1="71.8557" y1="250.4601" x2="448.6268" y2="250.4601">
			<stop  offset="0" style="stop-color:#9CFFFB"/>
			<stop  offset="1" style="stop-color:#9BFFFA"/>
		</linearGradient>
		<path class="st75" d="M299,250.3l-2.5,0.9c-0.2,0.1-0.4,0-0.4-0.2c-0.1-0.2,0-0.4,0.2-0.4l2.5-0.9c0.2-0.1,0.4,0,0.4,0.2
			C299.3,250.1,299.2,250.3,299,250.3L299,250.3z"/>
		<linearGradient id="SVGID_69_" gradientUnits="userSpaceOnUse" x1="71.856" y1="252.1579" x2="448.627" y2="252.1579">
			<stop  offset="0" style="stop-color:#9CFFFB"/>
			<stop  offset="1" style="stop-color:#9BFFFA"/>
		</linearGradient>
		<path class="st76" d="M294.1,251.9l-2.5,1c-0.2,0.1-0.3,0-0.4-0.1c-0.1-0.2,0-0.3,0.2-0.4l2.5-0.8c0.2-0.1,0.4-0.1,0.4,0.1
			C294.3,251.7,294.2,251.9,294.1,251.9L294.1,251.9z"/>
		<linearGradient id="SVGID_70_" gradientUnits="userSpaceOnUse" x1="71.8548" y1="253.9271" x2="448.6274" y2="253.9271">
			<stop  offset="0" style="stop-color:#9CFFFB"/>
			<stop  offset="1" style="stop-color:#9BFFFA"/>
		</linearGradient>
		<path class="st77" d="M289.1,254l-2.5,0.7c-0.2,0.1-0.3-0.1-0.4-0.3c-0.1-0.2,0-0.4,0.2-0.4l2.5-0.8c0.2-0.1,0.3,0.1,0.4,0.3
			C289.3,253.7,289.2,254,289.1,254L289.1,254z"/>
		<linearGradient id="SVGID_71_" gradientUnits="userSpaceOnUse" x1="71.8549" y1="255.2819" x2="448.6277" y2="255.2819">
			<stop  offset="0" style="stop-color:#9CFFFB"/>
			<stop  offset="1" style="stop-color:#9BFFFA"/>
		</linearGradient>
		<path class="st78" d="M284,255.1l-2.5,0.8c-0.2,0-0.3,0-0.4-0.2c0-0.2,0.1-0.3,0.2-0.4l2.5-0.7c0.2,0,0.3-0.1,0.4,0.1
			C284.3,255,284.2,255.1,284,255.1L284,255.1z"/>
		<linearGradient id="SVGID_72_" gradientUnits="userSpaceOnUse" x1="71.8557" y1="256.6977" x2="448.627" y2="256.6977">
			<stop  offset="0" style="stop-color:#9CFFFB"/>
			<stop  offset="1" style="stop-color:#9BFFFA"/>
		</linearGradient>
		<path class="st79" d="M278.9,256.6l-2.6,0.7c-0.2,0-0.3,0-0.4-0.2c0-0.2,0.1-0.3,0.2-0.4l2.6-0.6c0.2,0,0.3,0,0.4,0.2
			C279.2,256.5,279.1,256.6,278.9,256.6L278.9,256.6z"/>
		<linearGradient id="SVGID_73_" gradientUnits="userSpaceOnUse" x1="71.8558" y1="257.8463" x2="448.6269" y2="257.8463">
			<stop  offset="0" style="stop-color:#9CFFFB"/>
			<stop  offset="1" style="stop-color:#9BFFFA"/>
		</linearGradient>
		<path class="st80" d="M273.8,257.7l-2.6,0.7c-0.2,0-0.3,0-0.4-0.2c0-0.2,0.1-0.3,0.2-0.3l2.6-0.6c0.2,0,0.3,0,0.4,0.1
			C274,257.6,273.9,257.7,273.8,257.7L273.8,257.7z"/>
		<linearGradient id="SVGID_74_" gradientUnits="userSpaceOnUse" x1="71.8549" y1="258.8865" x2="448.6277" y2="258.8865">
			<stop  offset="0" style="stop-color:#9CFFFB"/>
			<stop  offset="1" style="stop-color:#9BFFFA"/>
		</linearGradient>
		<path class="st81" d="M268.6,258.8l-2.6,0.6c-0.2,0-0.3,0-0.3-0.2c0-0.2,0.1-0.3,0.2-0.3l2.6-0.5c0.2,0,0.3,0,0.3,0.1
			C268.9,258.7,268.8,258.8,268.6,258.8L268.6,258.8z"/>
		<linearGradient id="SVGID_75_" gradientUnits="userSpaceOnUse" x1="71.8552" y1="259.8202" x2="448.6273" y2="259.8202">
			<stop  offset="0" style="stop-color:#9CFFFB"/>
			<stop  offset="1" style="stop-color:#9BFFFA"/>
		</linearGradient>
		<path class="st82" d="M263.4,259.8l-2.6,0.5c-0.2,0-0.3-0.1-0.3-0.2c0-0.2,0.1-0.3,0.2-0.3l2.6-0.4c0.2,0,0.3,0,0.3,0.2
			C263.7,259.7,263.6,259.8,263.4,259.8L263.4,259.8z"/>
		<linearGradient id="SVGID_76_" gradientUnits="userSpaceOnUse" x1="71.8526" y1="260.6472" x2="448.6299" y2="260.6472">
			<stop  offset="0" style="stop-color:#9CFFFB"/>
			<stop  offset="1" style="stop-color:#9BFFFA"/>
		</linearGradient>
		<path class="st83" d="M258.2,260.9l-2.6,0.2c-0.2,0-0.3-0.1-0.3-0.3c0-0.2,0.1-0.3,0.2-0.3l2.6-0.4c0.2,0,0.3,0.2,0.3,0.3
			C258.4,260.6,258.3,260.9,258.2,260.9L258.2,260.9z"/>
		<linearGradient id="SVGID_77_" gradientUnits="userSpaceOnUse" x1="71.857" y1="261.2262" x2="448.6256" y2="261.2262">
			<stop  offset="0" style="stop-color:#9CFFFB"/>
			<stop  offset="1" style="stop-color:#9BFFFA"/>
		</linearGradient>
		<path class="st84" d="M252.9,261.4l-2.6,0.2c-0.2,0-0.3-0.1-0.3-0.3c0-0.2,0.1-0.3,0.2-0.3l2.6-0.3c0.2,0,0.3,0.1,0.3,0.3
			C253.2,261.2,253.1,261.4,252.9,261.4L252.9,261.4z"/>
		<linearGradient id="SVGID_78_" gradientUnits="userSpaceOnUse" x1="71.8549" y1="261.7128" x2="448.6279" y2="261.7128">
			<stop  offset="0" style="stop-color:#9CFFFB"/>
			<stop  offset="1" style="stop-color:#9BFFFA"/>
		</linearGradient>
		<path class="st85" d="M247.7,262l-2.6,0.2c-0.1,0-0.3-0.1-0.3-0.3c0-0.2,0.1-0.3,0.2-0.3l2.6-0.2c0.2,0,0.3,0.1,0.3,0.3
			C247.9,261.8,247.8,262,247.7,262L247.7,262z"/>
		<linearGradient id="SVGID_79_" gradientUnits="userSpaceOnUse" x1="71.8571" y1="262.1122" x2="448.6252" y2="262.1122">
			<stop  offset="0" style="stop-color:#9CFFFB"/>
			<stop  offset="1" style="stop-color:#9BFFFA"/>
		</linearGradient>
		<path class="st86" d="M242.4,262.5l-2.6,0c-0.1,0-0.3-0.2-0.3-0.3c0-0.1,0.1-0.3,0.3-0.3l2.6-0.2c0.1,0,0.3,0.2,0.3,0.4
			C242.7,262.2,242.6,262.5,242.4,262.5L242.4,262.5z"/>
		<linearGradient id="SVGID_80_" gradientUnits="userSpaceOnUse" x1="71.8564" y1="262.2804" x2="448.626" y2="262.2804">
			<stop  offset="0" style="stop-color:#9CFFFB"/>
			<stop  offset="1" style="stop-color:#9BFFFA"/>
		</linearGradient>
		<path class="st87" d="M237.1,262.5l-2.6,0.1c-0.1,0-0.3-0.1-0.3-0.2c0-0.1,0.1-0.3,0.3-0.3l2.6-0.1c0.1,0,0.3,0.1,0.3,0.2
			C237.4,262.4,237.3,262.5,237.1,262.5L237.1,262.5z"/>
		<linearGradient id="SVGID_81_" gradientUnits="userSpaceOnUse" x1="71.855" y1="262.3717" x2="448.6279" y2="262.3717">
			<stop  offset="0" style="stop-color:#9CFFFB"/>
			<stop  offset="1" style="stop-color:#9BFFFA"/>
		</linearGradient>
		<path class="st88" d="M231.9,262.5l-2.6,0.1c-0.1,0-0.3-0.1-0.3-0.2c0-0.1,0.1-0.2,0.3-0.2l2.6,0c0.1,0,0.3,0,0.3,0.2
			C232.1,262.4,232,262.5,231.9,262.5L231.9,262.5z"/>
		<linearGradient id="SVGID_82_" gradientUnits="userSpaceOnUse" x1="71.8571" y1="262.4597" x2="448.6245" y2="262.4597">
			<stop  offset="0" style="stop-color:#9CFFFB"/>
			<stop  offset="1" style="stop-color:#9BFFFA"/>
		</linearGradient>
		<path class="st89" d="M226.6,262.7l-2.6,0c-0.1,0-0.2-0.1-0.2-0.3c0-0.1,0.1-0.3,0.2-0.3l2.6,0c0.1,0,0.3,0.1,0.3,0.3
			C226.8,262.6,226.7,262.7,226.6,262.7L226.6,262.7z"/>
		<linearGradient id="SVGID_83_" gradientUnits="userSpaceOnUse" x1="71.8543" y1="262.3991" x2="448.6287" y2="262.3991">
			<stop  offset="0" style="stop-color:#9CFFFB"/>
			<stop  offset="1" style="stop-color:#9BFFFA"/>
		</linearGradient>
		<path class="st90" d="M221.3,262.7l-2.6-0.1c-0.1,0-0.2-0.1-0.2-0.3c0-0.1,0.1-0.2,0.2-0.2l2.6,0.1c0.1,0,0.2,0.1,0.2,0.3
			C221.6,262.6,221.5,262.7,221.3,262.7L221.3,262.7z"/>
		<linearGradient id="SVGID_84_" gradientUnits="userSpaceOnUse" x1="71.8562" y1="262.2501" x2="448.626" y2="262.2501">
			<stop  offset="0" style="stop-color:#9CFFFB"/>
			<stop  offset="1" style="stop-color:#9BFFFA"/>
		</linearGradient>
		<path class="st91" d="M216,262.5l-2.6-0.1c-0.1,0-0.2-0.1-0.2-0.2c0-0.1,0.1-0.2,0.2-0.2l2.6,0.1c0.1,0,0.2,0.1,0.2,0.3
			C216.3,262.4,216.2,262.5,216,262.5L216,262.5z"/>
		<linearGradient id="SVGID_85_" gradientUnits="userSpaceOnUse" x1="71.8539" y1="262.0187" x2="448.6297" y2="262.0187">
			<stop  offset="0" style="stop-color:#9CFFFB"/>
			<stop  offset="1" style="stop-color:#9BFFFA"/>
		</linearGradient>
		<path class="st92" d="M210.8,262.3l-2.6-0.1c-0.1,0-0.2-0.1-0.2-0.2c0-0.1,0.1-0.2,0.2-0.2l2.6,0.1c0.1,0,0.2,0.1,0.2,0.2
			C211,262.2,210.9,262.3,210.8,262.3L210.8,262.3z"/>
		<linearGradient id="SVGID_86_" gradientUnits="userSpaceOnUse" x1="71.856" y1="261.7105" x2="448.6259" y2="261.7105">
			<stop  offset="0" style="stop-color:#9CFFFB"/>
			<stop  offset="1" style="stop-color:#9BFFFA"/>
		</linearGradient>
		<path class="st93" d="M205.5,262l-2.6-0.2c-0.1,0-0.2-0.1-0.2-0.2c0-0.1,0.1-0.2,0.2-0.2l2.6,0.2c0.1,0,0.2,0.1,0.2,0.2
			C205.7,261.9,205.6,262,205.5,262L205.5,262z"/>
		<linearGradient id="SVGID_87_" gradientUnits="userSpaceOnUse" x1="71.8549" y1="261.331" x2="448.628" y2="261.331">
			<stop  offset="0" style="stop-color:#9CFFFB"/>
			<stop  offset="1" style="stop-color:#9BFFFA"/>
		</linearGradient>
		<path class="st94" d="M200.2,261.7l-2.6-0.2c-0.1,0-0.2-0.1-0.2-0.2c0-0.1,0.1-0.2,0.2-0.2l2.6,0.2c0.1,0,0.2,0.1,0.2,0.2
			C200.5,261.6,200.4,261.7,200.2,261.7L200.2,261.7z"/>
		<linearGradient id="SVGID_88_" gradientUnits="userSpaceOnUse" x1="71.8561" y1="260.8854" x2="448.6258" y2="260.8854">
			<stop  offset="0" style="stop-color:#9CFFFB"/>
			<stop  offset="1" style="stop-color:#9BFFFA"/>
		</linearGradient>
		<path class="st95" d="M195,261.2l-2.6-0.2c-0.1,0-0.2-0.1-0.2-0.2c0-0.1,0.1-0.2,0.2-0.2l2.6,0.2c0.1,0,0.2,0.1,0.2,0.2
			C195.2,261.1,195.1,261.2,195,261.2L195,261.2z"/>
		<linearGradient id="SVGID_89_" gradientUnits="userSpaceOnUse" x1="71.8551" y1="260.3788" x2="448.6283" y2="260.3788">
			<stop  offset="0" style="stop-color:#9CFFFB"/>
			<stop  offset="1" style="stop-color:#9BFFFA"/>
		</linearGradient>
		<path class="st96" d="M189.7,260.7l-2.6-0.3c-0.1,0-0.2-0.1-0.2-0.2c0-0.1,0.1-0.2,0.2-0.2l2.6,0.3c0.1,0,0.2,0.1,0.2,0.2
			C190,260.7,189.9,260.7,189.7,260.7L189.7,260.7z"/>
		<linearGradient id="SVGID_90_" gradientUnits="userSpaceOnUse" x1="71.856" y1="259.816" x2="448.6255" y2="259.816">
			<stop  offset="0" style="stop-color:#9CFFFB"/>
			<stop  offset="1" style="stop-color:#9BFFFA"/>
		</linearGradient>
		<path class="st97" d="M184.5,260.2l-2.6-0.3c-0.1,0-0.2-0.1-0.2-0.2c0-0.1,0.1-0.2,0.2-0.2l2.6,0.3c0.1,0,0.2,0.1,0.2,0.2
			C184.7,260.1,184.6,260.2,184.5,260.2L184.5,260.2z"/>
		<linearGradient id="SVGID_91_" gradientUnits="userSpaceOnUse" x1="71.8552" y1="259.202" x2="448.6282" y2="259.202">
			<stop  offset="0" style="stop-color:#9CFFFB"/>
			<stop  offset="1" style="stop-color:#9BFFFA"/>
		</linearGradient>
		<path class="st98" d="M179.3,259.6l-2.6-0.3c-0.1,0-0.2-0.1-0.2-0.2c0-0.1,0.1-0.2,0.2-0.2l2.6,0.3c0.1,0,0.2,0.1,0.2,0.2
			C179.5,259.5,179.4,259.6,179.3,259.6L179.3,259.6z"/>
		<linearGradient id="SVGID_92_" gradientUnits="userSpaceOnUse" x1="71.8564" y1="258.5411" x2="448.624" y2="258.5411">
			<stop  offset="0" style="stop-color:#9CFFFB"/>
			<stop  offset="1" style="stop-color:#9BFFFA"/>
		</linearGradient>
		<path class="st99" d="M174,258.9l-2.6-0.3c-0.1,0-0.2-0.1-0.2-0.2c0-0.1,0.1-0.2,0.2-0.2l2.6,0.3c0.1,0,0.2,0.1,0.2,0.2
			C174.2,258.8,174.1,258.9,174,258.9L174,258.9z"/>
		<linearGradient id="SVGID_93_" gradientUnits="userSpaceOnUse" x1="71.8563" y1="257.8381" x2="448.6252" y2="257.8381">
			<stop  offset="0" style="stop-color:#9CFFFB"/>
			<stop  offset="1" style="stop-color:#9BFFFA"/>
		</linearGradient>
		<path class="st100" d="M168.8,258.2l-2.6-0.4c-0.1,0-0.2-0.1-0.2-0.2c0-0.1,0.1-0.2,0.2-0.2l2.6,0.4c0.1,0,0.2,0.1,0.2,0.2
			C169,258.1,168.9,258.2,168.8,258.2L168.8,258.2z"/>
		<linearGradient id="SVGID_94_" gradientUnits="userSpaceOnUse" x1="71.8545" y1="257.0976" x2="448.6299" y2="257.0976">
			<stop  offset="0" style="stop-color:#9CFFFB"/>
			<stop  offset="1" style="stop-color:#9BFFFA"/>
		</linearGradient>
		<path class="st101" d="M163.6,257.5l-2.6-0.4c-0.1,0-0.2-0.1-0.2-0.2c0-0.1,0.1-0.2,0.2-0.2l2.6,0.4c0.1,0,0.2,0.1,0.2,0.2
			C163.8,257.4,163.7,257.5,163.6,257.5L163.6,257.5z"/>
		<linearGradient id="SVGID_95_" gradientUnits="userSpaceOnUse" x1="71.8553" y1="256.3238" x2="448.6279" y2="256.3238">
			<stop  offset="0" style="stop-color:#9CFFFB"/>
			<stop  offset="1" style="stop-color:#9BFFFA"/>
		</linearGradient>
		<path class="st102" d="M158.4,256.7l-2.6-0.4c-0.1,0-0.2-0.1-0.2-0.2c0-0.1,0.1-0.2,0.2-0.2l2.6,0.4c0.1,0,0.2,0.1,0.2,0.2
			C158.6,256.6,158.5,256.7,158.4,256.7L158.4,256.7z"/>
		<linearGradient id="SVGID_96_" gradientUnits="userSpaceOnUse" x1="71.8558" y1="255.5215" x2="448.6258" y2="255.5215">
			<stop  offset="0" style="stop-color:#9CFFFB"/>
			<stop  offset="1" style="stop-color:#9BFFFA"/>
		</linearGradient>
		<path class="st103" d="M153.1,255.9l-2.6-0.4c-0.1,0-0.2-0.1-0.1-0.2c0-0.1,0.1-0.2,0.2-0.1l2.6,0.4c0.1,0,0.2,0.1,0.1,0.2
			C153.3,255.8,153.2,255.9,153.1,255.9L153.1,255.9z"/>
		<linearGradient id="SVGID_97_" gradientUnits="userSpaceOnUse" x1="71.8552" y1="254.6951" x2="448.6277" y2="254.6951">
			<stop  offset="0" style="stop-color:#9CFFFB"/>
			<stop  offset="1" style="stop-color:#9BFFFA"/>
		</linearGradient>
		<path class="st104" d="M147.9,255.1l-2.6-0.4c-0.1,0-0.2-0.1-0.1-0.2c0-0.1,0.1-0.2,0.2-0.1l2.6,0.4c0.1,0,0.2,0.1,0.1,0.2
			C148.1,255,148,255.1,147.9,255.1L147.9,255.1z"/>
		<linearGradient id="SVGID_98_" gradientUnits="userSpaceOnUse" x1="71.8558" y1="253.8494" x2="448.6257" y2="253.8494">
			<stop  offset="0" style="stop-color:#9CFFFB"/>
			<stop  offset="1" style="stop-color:#9BFFFA"/>
		</linearGradient>
		<path class="st105" d="M142.7,254.2l-2.6-0.4c-0.1,0-0.1-0.1-0.1-0.2c0-0.1,0.1-0.2,0.2-0.1l2.6,0.4c0.1,0,0.2,0.1,0.1,0.2
			C142.9,254.2,142.8,254.2,142.7,254.2L142.7,254.2z"/>
		<linearGradient id="SVGID_99_" gradientUnits="userSpaceOnUse" x1="71.8554" y1="252.9582" x2="448.6278" y2="252.9582">
			<stop  offset="0" style="stop-color:#9CFFFB"/>
			<stop  offset="1" style="stop-color:#9BFFFA"/>
		</linearGradient>
		<path class="st106" d="M137.5,253.4l-2.6-0.5c-0.1,0-0.1-0.1-0.1-0.2c0-0.1,0.1-0.1,0.2-0.1l2.6,0.5c0.1,0,0.1,0.1,0.1,0.2
			C137.7,253.3,137.6,253.4,137.5,253.4L137.5,253.4z"/>
		<linearGradient id="SVGID_100_" gradientUnits="userSpaceOnUse" x1="71.8559" y1="251.9528" x2="448.625" y2="251.9528">
			<stop  offset="0" style="stop-color:#9CFFFB"/>
			<stop  offset="1" style="stop-color:#9BFFFA"/>
		</linearGradient>
		<path class="st107" d="M132.4,252.4l-2.6-0.5c-0.1,0-0.1-0.1-0.1-0.2s0.1-0.1,0.2-0.1l2.6,0.5c0.1,0,0.1,0.1,0.1,0.2
			C132.5,252.3,132.4,252.4,132.4,252.4L132.4,252.4z"/>
		<linearGradient id="SVGID_101_" gradientUnits="userSpaceOnUse" x1="71.8552" y1="250.8102" x2="448.6279" y2="250.8102">
			<stop  offset="0" style="stop-color:#9CFFFB"/>
			<stop  offset="1" style="stop-color:#9BFFFA"/>
		</linearGradient>
		<path class="st108" d="M127.2,251.3l-2.6-0.6c-0.1,0-0.1-0.1-0.1-0.2c0-0.1,0.1-0.1,0.2-0.1l2.6,0.6c0.1,0,0.1,0.1,0.1,0.2
			C127.4,251.2,127.3,251.3,127.2,251.3L127.2,251.3z"/>
		<linearGradient id="SVGID_102_" gradientUnits="userSpaceOnUse" x1="71.8556" y1="249.5114" x2="448.6265" y2="249.5114">
			<stop  offset="0" style="stop-color:#9CFFFB"/>
			<stop  offset="1" style="stop-color:#9BFFFA"/>
		</linearGradient>
		<path class="st109" d="M122.1,250l-2.5-0.7c-0.1,0-0.1-0.1-0.1-0.2c0-0.1,0.1-0.1,0.2-0.1l2.5,0.7c0.1,0,0.1,0.1,0.1,0.2
			C122.2,250,122.1,250,122.1,250L122.1,250z"/>
		<linearGradient id="SVGID_103_" gradientUnits="userSpaceOnUse" x1="71.8552" y1="248.0358" x2="448.6283" y2="248.0358">
			<stop  offset="0" style="stop-color:#9CFFFB"/>
			<stop  offset="1" style="stop-color:#9BFFFA"/>
		</linearGradient>
		<path class="st110" d="M117,248.6l-2.5-0.8c-0.1,0-0.1-0.1-0.1-0.2c0-0.1,0.1-0.1,0.2-0.1l2.5,0.8c0.1,0,0.1,0.1,0.1,0.2
			C117.1,248.5,117.1,248.6,117,248.6L117,248.6z"/>
		<linearGradient id="SVGID_104_" gradientUnits="userSpaceOnUse" x1="71.8554" y1="246.3598" x2="448.6275" y2="246.3598">
			<stop  offset="0" style="stop-color:#9CFFFB"/>
			<stop  offset="1" style="stop-color:#9BFFFA"/>
		</linearGradient>
		<path class="st111" d="M112,246.9l-2.5-0.9c-0.1,0-0.1-0.1-0.1-0.2c0-0.1,0.1-0.1,0.2-0.1l2.5,0.9c0.1,0,0.1,0.1,0.1,0.2
			C112.1,246.9,112,247,112,246.9L112,246.9z"/>
		<linearGradient id="SVGID_105_" gradientUnits="userSpaceOnUse" x1="71.8554" y1="244.4577" x2="448.6282" y2="244.4577">
			<stop  offset="0" style="stop-color:#9CFFFB"/>
			<stop  offset="1" style="stop-color:#9BFFFA"/>
		</linearGradient>
		<path class="st112" d="M107,245.1l-2.4-1c-0.1,0-0.1-0.1-0.1-0.2c0-0.1,0.1-0.1,0.2-0.1l2.4,1c0.1,0,0.1,0.1,0.1,0.2
			C107.2,245.1,107.1,245.1,107,245.1L107,245.1z"/>
		<linearGradient id="SVGID_106_" gradientUnits="userSpaceOnUse" x1="71.8556" y1="242.3001" x2="448.6251" y2="242.3001">
			<stop  offset="0" style="stop-color:#9CFFFB"/>
			<stop  offset="1" style="stop-color:#9BFFFA"/>
		</linearGradient>
		<path class="st113" d="M102.2,243l-2.4-1.1c-0.1,0-0.1-0.1-0.1-0.2c0-0.1,0.1-0.1,0.2-0.1l2.4,1.1c0.1,0,0.1,0.1,0.1,0.2
			C102.3,243,102.2,243,102.2,243L102.2,243z"/>
		<linearGradient id="SVGID_107_" gradientUnits="userSpaceOnUse" x1="71.8555" y1="239.8557" x2="448.6261" y2="239.8557">
			<stop  offset="0" style="stop-color:#9CFFFB"/>
			<stop  offset="1" style="stop-color:#9BFFFA"/>
		</linearGradient>
		<path class="st114" d="M97.4,240.6l-2.3-1.3c-0.1,0-0.1-0.1,0-0.2c0-0.1,0.1-0.1,0.2,0l2.3,1.3c0.1,0,0.1,0.1,0,0.2
			C97.6,240.6,97.5,240.6,97.4,240.6L97.4,240.6z"/>
		<linearGradient id="SVGID_108_" gradientUnits="userSpaceOnUse" x1="71.8554" y1="237.0917" x2="448.6288" y2="237.0917">
			<stop  offset="0" style="stop-color:#9CFFFB"/>
			<stop  offset="1" style="stop-color:#9BFFFA"/>
		</linearGradient>
		<path class="st115" d="M92.9,237.9l-2.2-1.5c-0.1,0-0.1-0.1,0-0.2c0-0.1,0.1-0.1,0.2,0l2.2,1.5c0.1,0,0.1,0.1,0,0.2
			C93,237.9,92.9,238,92.9,237.9L92.9,237.9z"/>
		<linearGradient id="SVGID_109_" gradientUnits="userSpaceOnUse" x1="71.8554" y1="233.9764" x2="448.6293" y2="233.9764">
			<stop  offset="0" style="stop-color:#9CFFFB"/>
			<stop  offset="1" style="stop-color:#9BFFFA"/>
		</linearGradient>
		<path class="st116" d="M88.6,234.9l-2.1-1.7c0,0-0.1-0.1,0-0.1c0,0,0.1-0.1,0.1,0l2.1,1.6c0,0,0.1,0.1,0,0.2
			C88.7,234.9,88.6,234.9,88.6,234.9L88.6,234.9z"/>
		<linearGradient id="SVGID_110_" gradientUnits="userSpaceOnUse" x1="71.8554" y1="230.4843" x2="448.6291" y2="230.4843">
			<stop  offset="0" style="stop-color:#9CFFFB"/>
			<stop  offset="1" style="stop-color:#9BFFFA"/>
		</linearGradient>
		<path class="st117" d="M84.5,231.5l-1.9-1.8c0,0,0-0.1,0-0.1c0,0,0.1,0,0.1,0l1.9,1.8c0,0,0,0.1,0,0.1
			C84.6,231.5,84.6,231.5,84.5,231.5L84.5,231.5z"/>
		<linearGradient id="SVGID_111_" gradientUnits="userSpaceOnUse" x1="71.8555" y1="226.5733" x2="448.624" y2="226.5733">
			<stop  offset="0" style="stop-color:#9CFFFB"/>
			<stop  offset="1" style="stop-color:#9BFFFA"/>
		</linearGradient>
		<path class="st118" d="M80.8,227.7l-1.6-2.1c0,0,0-0.1,0-0.1c0,0,0.1,0,0.1,0l1.6,2.1c0,0,0,0.1,0,0.1
			C80.9,227.7,80.9,227.7,80.8,227.7L80.8,227.7z"/>
		<linearGradient id="SVGID_112_" gradientUnits="userSpaceOnUse" x1="71.8555" y1="222.1827" x2="448.6225" y2="222.1827">
			<stop  offset="0" style="stop-color:#9CFFFB"/>
			<stop  offset="1" style="stop-color:#9BFFFA"/>
		</linearGradient>
		<path class="st119" d="M77.7,223.4l-1.3-2.3c0,0,0-0.1,0-0.1c0,0,0.1,0,0.1,0l1.3,2.3c0,0,0,0.1,0,0.1
			C77.8,223.4,77.7,223.4,77.7,223.4L77.7,223.4z"/>
		<linearGradient id="SVGID_113_" gradientUnits="userSpaceOnUse" x1="71.8555" y1="217.393" x2="448.6248" y2="217.393">
			<stop  offset="0" style="stop-color:#9CFFFB"/>
			<stop  offset="1" style="stop-color:#9BFFFA"/>
		</linearGradient>
		<path class="st120" d="M75.3,218.7l-0.9-2.5c0,0,0-0.1,0-0.1c0,0,0.1,0,0.1,0l0.9,2.5c0,0,0,0.1,0,0.1
			C75.4,218.7,75.3,218.7,75.3,218.7L75.3,218.7z"/>
		<linearGradient id="SVGID_114_" gradientUnits="userSpaceOnUse" x1="71.8555" y1="212.3234" x2="448.6209" y2="212.3234">
			<stop  offset="0" style="stop-color:#9CFFFB"/>
			<stop  offset="1" style="stop-color:#9BFFFA"/>
		</linearGradient>
		<path class="st121" d="M73.6,213.6L73,211c0,0,0-0.1,0.1-0.1c0,0,0.1,0,0.1,0.1l0.6,2.6C73.8,213.6,73.7,213.7,73.6,213.6
			C73.6,213.7,73.6,213.7,73.6,213.6L73.6,213.6z"/>
		<linearGradient id="SVGID_115_" gradientUnits="userSpaceOnUse" x1="71.8555" y1="207.0915" x2="448.6264" y2="207.0915">
			<stop  offset="0" style="stop-color:#9CFFFB"/>
			<stop  offset="1" style="stop-color:#9BFFFA"/>
		</linearGradient>
		<path class="st122" d="M72.6,208.4l-0.2-2.6c0,0,0-0.1,0.1-0.1c0,0,0.1,0,0.1,0.1l0.2,2.6C72.8,208.4,72.7,208.5,72.6,208.4
			C72.7,208.5,72.6,208.5,72.6,208.4L72.6,208.4z"/>
		<linearGradient id="SVGID_116_" gradientUnits="userSpaceOnUse" x1="71.8555" y1="201.7975" x2="448.5662" y2="201.7975">
			<stop  offset="0" style="stop-color:#9CFFFB"/>
			<stop  offset="1" style="stop-color:#9BFFFA"/>
		</linearGradient>
		<path class="st123" d="M72.3,203.1l0.1-2.6c0,0,0-0.1,0.1-0.1c0,0,0.1,0,0.1,0.1l-0.1,2.7C72.5,203.2,72.4,203.2,72.3,203.1
			C72.3,203.2,72.3,203.2,72.3,203.1L72.3,203.1z"/>
		<linearGradient id="SVGID_117_" gradientUnits="userSpaceOnUse" x1="71.8555" y1="196.5164" x2="448.6245" y2="196.5164">
			<stop  offset="0" style="stop-color:#9CFFFB"/>
			<stop  offset="1" style="stop-color:#9BFFFA"/>
		</linearGradient>
		<path class="st124" d="M72.6,197.8l0.4-2.6c0,0,0-0.1,0.1-0.1c0,0,0.1,0,0.1,0.1l-0.4,2.6C72.7,197.9,72.7,197.9,72.6,197.8
			C72.6,197.9,72.6,197.9,72.6,197.8L72.6,197.8z"/>
		<linearGradient id="SVGID_118_" gradientUnits="userSpaceOnUse" x1="71.8555" y1="191.3049" x2="448.6307" y2="191.3049">
			<stop  offset="0" style="stop-color:#9CFFFB"/>
			<stop  offset="1" style="stop-color:#9BFFFA"/>
		</linearGradient>
		<path class="st125" d="M73.5,192.6l0.6-2.6c0,0,0,0,0.1,0c0,0,0,0,0,0.1l-0.6,2.6C73.6,192.6,73.5,192.7,73.5,192.6
			C73.5,192.6,73.5,192.6,73.5,192.6L73.5,192.6z"/>
		<linearGradient id="SVGID_119_" gradientUnits="userSpaceOnUse" x1="71.8555" y1="186.2046" x2="448.6255" y2="186.2046">
			<stop  offset="0" style="stop-color:#9CFFFB"/>
			<stop  offset="1" style="stop-color:#9BFFFA"/>
		</linearGradient>
		<path class="st126" d="M74.8,187.4l0.8-2.5c0,0,0,0,0.1,0c0,0,0,0,0,0.1l-0.8,2.5C74.9,187.5,74.8,187.5,74.8,187.4
			C74.8,187.5,74.8,187.5,74.8,187.4L74.8,187.4z"/>
		<linearGradient id="SVGID_120_" gradientUnits="userSpaceOnUse" x1="71.8555" y1="181.2474" x2="448.6223" y2="181.2474">
			<stop  offset="0" style="stop-color:#9CFFFB"/>
			<stop  offset="1" style="stop-color:#9BFFFA"/>
		</linearGradient>
		<path class="st127" d="M76.6,182.4l1-2.4c0,0,0,0,0.1,0c0,0,0,0,0,0.1L76.6,182.4C76.6,182.5,76.6,182.5,76.6,182.4
			C76.6,182.5,76.5,182.5,76.6,182.4L76.6,182.4z"/>
		<linearGradient id="SVGID_121_" gradientUnits="userSpaceOnUse" x1="71.8554" y1="176.4619" x2="448.6305" y2="176.4619">
			<stop  offset="0" style="stop-color:#9CFFFB"/>
			<stop  offset="1" style="stop-color:#9BFFFA"/>
		</linearGradient>
		<path class="st128" d="M78.7,177.6l1.2-2.3c0,0,0,0,0.1,0c0,0,0,0,0,0.1L78.7,177.6C78.8,177.7,78.8,177.7,78.7,177.6
			C78.7,177.7,78.7,177.6,78.7,177.6L78.7,177.6z"/>
		<linearGradient id="SVGID_122_" gradientUnits="userSpaceOnUse" x1="71.8554" y1="171.877" x2="448.6277" y2="171.877">
			<stop  offset="0" style="stop-color:#9CFFFB"/>
			<stop  offset="1" style="stop-color:#9BFFFA"/>
		</linearGradient>
		<path class="st129" d="M81.3,173l1.4-2.2c0,0,0,0,0,0c0,0,0,0,0,0L81.3,173C81.3,173,81.3,173,81.3,173
			C81.3,173,81.3,173,81.3,173L81.3,173z"/>
		<linearGradient id="SVGID_123_" gradientUnits="userSpaceOnUse" x1="71.8555" y1="167.5264" x2="448.6265" y2="167.5264">
			<stop  offset="0" style="stop-color:#9CFFFB"/>
			<stop  offset="1" style="stop-color:#9BFFFA"/>
		</linearGradient>
		<path class="st130" d="M84.2,168.6l1.6-2.1c0,0,0,0,0,0c0,0,0,0,0,0L84.2,168.6C84.3,168.6,84.2,168.6,84.2,168.6
			C84.2,168.6,84.2,168.6,84.2,168.6L84.2,168.6z"/>
		<linearGradient id="SVGID_124_" gradientUnits="userSpaceOnUse" x1="71.8554" y1="163.4418" x2="448.6281" y2="163.4418">
			<stop  offset="0" style="stop-color:#9CFFFB"/>
			<stop  offset="1" style="stop-color:#9BFFFA"/>
		</linearGradient>
		<path class="st131" d="M87.5,164.4l1.7-2c0,0,0,0,0,0c0,0,0,0,0,0L87.5,164.4C87.5,164.5,87.5,164.5,87.5,164.4
			C87.5,164.4,87.5,164.4,87.5,164.4L87.5,164.4z"/>
		<linearGradient id="SVGID_125_" gradientUnits="userSpaceOnUse" x1="71.8557" y1="159.5693" x2="448.6244" y2="159.5693">
			<stop  offset="0" style="stop-color:#9CFFFB"/>
			<stop  offset="1" style="stop-color:#9BFFFA"/>
		</linearGradient>
		<path class="st132" d="M91.1,160.5l1.9-1.9c0,0,0,0,0,0c0,0,0,0,0,0L91.1,160.5C91.1,160.5,91.1,160.5,91.1,160.5
			C91.1,160.5,91.1,160.5,91.1,160.5L91.1,160.5z"/>
		<linearGradient id="SVGID_126_" gradientUnits="userSpaceOnUse" x1="71.8554" y1="155.9371" x2="448.625" y2="155.9371">
			<stop  offset="0" style="stop-color:#9CFFFB"/>
			<stop  offset="1" style="stop-color:#9BFFFA"/>
		</linearGradient>
		<path class="st133" d="M94.8,156.8l2-1.7c0,0,0,0,0,0c0,0,0,0,0,0L94.8,156.8C94.8,156.8,94.8,156.8,94.8,156.8
			C94.8,156.8,94.8,156.8,94.8,156.8L94.8,156.8z"/>
		<linearGradient id="SVGID_127_" gradientUnits="userSpaceOnUse" x1="71.8553" y1="152.6577" x2="448.6284" y2="152.6577">
			<stop  offset="0" style="stop-color:#9CFFFB"/>
			<stop  offset="1" style="stop-color:#9BFFFA"/>
		</linearGradient>
		<path class="st134" d="M98.9,153.4l2.2-1.5c0,0,0,0,0,0c0,0,0,0,0,0L98.9,153.4C98.9,153.4,98.9,153.4,98.9,153.4
			C98.9,153.4,98.9,153.4,98.9,153.4L98.9,153.4z"/>
		<linearGradient id="SVGID_128_" gradientUnits="userSpaceOnUse" x1="71.8555" y1="149.9562" x2="448.6281" y2="149.9562">
			<stop  offset="0" style="stop-color:#9CFFFB"/>
			<stop  offset="1" style="stop-color:#9BFFFA"/>
		</linearGradient>
		<polygon class="st135" points="103.3,150.5 105.7,149.4 105.7,149.4 105.7,149.4 103.3,150.5 103.3,150.5 103.3,150.5 		"/>
	</g>
	<g>
		<g>
			<linearGradient id="SVGID_129_" gradientUnits="userSpaceOnUse" x1="296.5917" y1="306.9507" x2="327.6009" y2="306.9507">
				<stop  offset="0" style="stop-color:#9CFFFB"/>
				<stop  offset="1" style="stop-color:#9BFFFA"/>
			</linearGradient>
			<path class="st136" d="M297.9,344.6c-0.2,0-0.4,0-0.5-0.1c-0.7-0.3-1-1.2-0.7-1.9l28.3-72.3c0.3-0.8,1.1-1.1,1.8-0.8
				c0.7,0.3,1,1.2,0.7,1.9l-28.3,72.3C299,344.2,298.5,344.6,297.9,344.6z"/>
			<linearGradient id="SVGID_130_" gradientUnits="userSpaceOnUse" x1="300.1727" y1="306.9506" x2="331.1819" y2="306.9506">
				<stop  offset="0" style="stop-color:#9CFFFB"/>
				<stop  offset="1" style="stop-color:#9BFFFA"/>
			</linearGradient>
			<path class="st137" d="M329.8,344.6c-0.5,0-1-0.3-1.2-0.9l-28.3-72.3c-0.3-0.8,0-1.6,0.7-1.9c0.7-0.3,1.5,0,1.8,0.8l28.3,72.3
				c0.3,0.8,0,1.6-0.7,1.9C330.2,344.5,330,344.6,329.8,344.6z"/>
			<linearGradient id="SVGID_131_" gradientUnits="userSpaceOnUse" x1="417.0908" y1="306.9507" x2="448.1" y2="306.9507">
				<stop  offset="0" style="stop-color:#9CFFFB"/>
				<stop  offset="1" style="stop-color:#9BFFFA"/>
			</linearGradient>
			<path class="st138" d="M418.4,344.6c-0.2,0-0.4,0-0.5-0.1c-0.7-0.3-1-1.2-0.7-1.9l28.3-72.3c0.3-0.8,1.1-1.1,1.8-0.8
				c0.7,0.3,1,1.2,0.7,1.9l-28.3,72.3C419.5,344.2,419,344.6,418.4,344.6z"/>
			<linearGradient id="SVGID_132_" gradientUnits="userSpaceOnUse" x1="420.6716" y1="306.9506" x2="451.6808" y2="306.9506">
				<stop  offset="0" style="stop-color:#9CFFFB"/>
				<stop  offset="1" style="stop-color:#9BFFFA"/>
			</linearGradient>
			<path class="st139" d="M450.3,344.6c-0.5,0-1-0.3-1.2-0.9l-28.3-72.3c-0.3-0.8,0-1.6,0.7-1.9c0.7-0.3,1.5,0,1.8,0.8l28.3,72.3
				c0.3,0.8,0,1.6-0.7,1.9C450.7,344.5,450.5,344.6,450.3,344.6z"/>
		</g>
		<g>
			<linearGradient id="SVGID_133_" gradientUnits="userSpaceOnUse" x1="398.5011" y1="330.6124" x2="405.7791" y2="284.8318">
				<stop  offset="0" style="stop-color:#53D8FF"/>
				<stop  offset="1" style="stop-color:#3840F7"/>
			</linearGradient>
			<rect x="399.5" y="295.9" class="st140" width="3.3" height="36.4"/>
			<linearGradient id="SVGID_134_" gradientUnits="userSpaceOnUse" x1="401.4077" y1="331.0793" x2="408.6566" y2="285.4816">
				<stop  offset="0" style="stop-color:#53D8FF"/>
				<stop  offset="1" style="stop-color:#3840F7"/>
			</linearGradient>
			<path class="st141" d="M415.8,333h-29.3v-0.2c0-1.1,0.9-2,2-2h25.1C414.8,330.8,415.8,331.8,415.8,333L415.8,333z"/>
			<linearGradient id="SVGID_135_" gradientUnits="userSpaceOnUse" x1="397.8536" y1="298.3645" x2="417.6537" y2="270.6444">
				<stop  offset="0" style="stop-color:#53D8FF"/>
				<stop  offset="1" style="stop-color:#3840F7"/>
			</linearGradient>
			<path class="st142" d="M420.1,294.6c0,2-1.6,3.6-3.6,3.6h-29.7c-2,0-3.6-1.6-3.6-3.6v-3.3c0-2,1.6-3.6,3.6-3.6h29.7
				c2,0,3.6,1.6,3.6,3.6V294.6z"/>
		</g>
		<g>
			<linearGradient id="SVGID_136_" gradientUnits="userSpaceOnUse" x1="364.6028" y1="301.4627" x2="388.4015" y2="301.4627">
				<stop  offset="0" style="stop-color:#F9B776"/>
				<stop  offset="1" style="stop-color:#F47960"/>
			</linearGradient>
			<path class="st143" d="M376.4,271.6c0,0-5,0.8-10.6,4.5c-0.9,0.6-1.4,1.6-1.2,2.7c0.7,5.3,3.4,22.6,12.5,39.5
				c0.5,0.9,0.6,1.9,0.4,2.9l-1.6,7.4l-2.9,2.8h7.5l5-13.7l-2.1-0.7c-1.7-0.5-2.8-2.1-2.8-3.8l-0.3-14.7c0.2-6.5-4-11-4-11l12-0.6
				L376.4,271.6z"/>
			<linearGradient id="SVGID_137_" gradientUnits="userSpaceOnUse" x1="379.1675" y1="317.0676" x2="375.6465" y2="371.0565">
				<stop  offset="0" style="stop-color:#CB236D"/>
				<stop  offset="1" style="stop-color:#4C246D"/>
			</linearGradient>
			<path class="st144" d="M370.1,332.7c-0.7,0.9,7.4,2.1,11.5,0.1c0,0,5.7-9.9,5.7-15c0,0-0.4-1-3.8-0.8c0,0-1.9,11.7-3.9,13
				c-2,1.3-5.6,0.1-5.6,0.1S371.1,331.3,370.1,332.7z"/>
			<linearGradient id="SVGID_138_" gradientUnits="userSpaceOnUse" x1="336.6591" y1="303.0983" x2="386.8792" y2="303.0983">
				<stop  offset="0" style="stop-color:#F9B776"/>
				<stop  offset="1" style="stop-color:#F47960"/>
			</linearGradient>
			<path class="st145" d="M386.9,287.7c-0.1-0.1-13-1.6-13-1.6s0.4,3.9-0.9,9.4c-1.3,5.4-20.2,28.9-20.2,28.9l2,6.3
				c-6.1,2.2-12.2,2.5-18.1,1.1l12.3-7.4c0,0,11.5-39.5,18.6-46.5l12.9-4.5L386.9,287.7z"/>
			<linearGradient id="SVGID_139_" gradientUnits="userSpaceOnUse" x1="367.6466" y1="276.7395" x2="423.9076" y2="276.7395">
				<stop  offset="0" style="stop-color:#CB236D"/>
				<stop  offset="1" style="stop-color:#4C246D"/>
			</linearGradient>
			<path class="st146" d="M415.8,264.7c0,0,7.4,11.1,8,16.2c0.6,5.1-2,7.1-9.8,7.5c-7.8,0.3-28.6,0.3-28.6,0.3l-17.8-15.3
				c0,0,12.9-4.6,16.3-6C387.3,266.2,415.8,264.7,415.8,264.7z"/>
			<linearGradient id="SVGID_140_" gradientUnits="userSpaceOnUse" x1="345.3918" y1="314.8657" x2="341.8734" y2="368.8145">
				<stop  offset="0" style="stop-color:#CB236D"/>
				<stop  offset="1" style="stop-color:#4C246D"/>
			</linearGradient>
			<path class="st147" d="M354,328.7c0,0,2.1,2.1,0.7,4.4c0,0-16.9,3-21.5,1.6c0,0,1-2.2,6.1-4.7l-0.4,0.3c-0.5,0.4-0.2,1.2,0.4,1.1
				C342.8,331.2,349.8,330.6,354,328.7z"/>
		</g>
		<g>
			<linearGradient id="SVGID_141_" gradientUnits="userSpaceOnUse" x1="424.611" y1="206.9626" x2="405.3168" y2="225.8373">
				<stop  offset="0" style="stop-color:#CB236D"/>
				<stop  offset="1" style="stop-color:#4C246D"/>
			</linearGradient>
			<path class="st148" d="M400.8,202.3c1.1,0.4,5.2,1.8,4.6,4.4c-0.1,0.3,0.3,0.6,0.6,0.5c1.7-0.5,5.6-1.1,8,1.9
				c2.1,2.7,0.5,5.2-0.8,6.5c-0.3,0.3,0,0.9,0.4,0.8c3.2-0.4,10.2-0.5,11.3,6.1c1.1,6.1-3.2,7.8-5.7,8.3c-0.4,0.1-0.5,0.6-0.2,0.9
				c1.3,0.8,2.7,2.5,2.1,5.7c-0.9,5.1-10.9,4.7-12,4.6c-0.1,0-0.1,0-0.2-0.1l-16-9.2c-0.1-0.1-0.2-0.2-0.2-0.3l-3.2-18.7
				c0-0.2,0-0.3,0.1-0.4l10.6-11.1C400.4,202.3,400.6,202.3,400.8,202.3z"/>
			<linearGradient id="SVGID_142_" gradientUnits="userSpaceOnUse" x1="392.3789" y1="229.8915" x2="419.1872" y2="288.2389">
				<stop  offset="0" style="stop-color:#FDF53F"/>
				<stop  offset="0.6645" style="stop-color:#E57A58"/>
				<stop  offset="1" style="stop-color:#D93C65"/>
			</linearGradient>
			<path class="st149" d="M395.7,263.3c0,0-8.6-8.3-12.9-13.8c-2.3-3-3-6.9-2-10.5c1.9-6.6,5.4-13.4,5.7-14.5
				c0.5-1.6,10.2-1.6,10.2-1.6s19.1,12.5,26.6,33.6l-8.4,2.6c0,0-5-8.4-9.9-13.8c0,0,8.5,11.3,8.8,16L395.7,263.3z"/>
			<linearGradient id="SVGID_143_" gradientUnits="userSpaceOnUse" x1="393.0802" y1="233.7471" x2="390.5531" y2="217.5313">
				<stop  offset="0" style="stop-color:#F9B776"/>
				<stop  offset="1" style="stop-color:#F47960"/>
			</linearGradient>
			<path class="st150" d="M385.4,215.5c0.1,0.3,2.6,8.8,2.8,9c0.2,0.2,5.6,0.5,8.1-1.3l-4.3-9L385.4,215.5z"/>
			<g>
				<linearGradient id="SVGID_144_" gradientUnits="userSpaceOnUse" x1="382.1973" y1="203.2019" x2="404.4274" y2="218.3016">
					<stop  offset="0" style="stop-color:#F9B776"/>
					<stop  offset="1" style="stop-color:#F47960"/>
				</linearGradient>
				<path class="st151" d="M389.5,197.7c0,0-4.6,1.9-7.7,8.6s-0.8,9.7,2.1,10.1c2.9,0.4,7.3,0.4,11.9-3.9
					C400.5,208.2,395.5,195.4,389.5,197.7z"/>
				<linearGradient id="SVGID_145_" gradientUnits="userSpaceOnUse" x1="407.7036" y1="189.5383" x2="388.3417" y2="208.4794">
					<stop  offset="0" style="stop-color:#CB236D"/>
					<stop  offset="1" style="stop-color:#4C246D"/>
				</linearGradient>
				<path class="st152" d="M392.8,209c0,0,3.4-9.7-5.1-9.8l-2,1.4c0,0-3.1-5.4,2-8c5.2-2.6,11.2-0.4,13.4,6.5c2.2,7,2.6,11.7-1.1,15
					c-3.7,3.3-5.2-0.4-5.2-0.4s2-3.1,1.2-4.8c-0.8-1.7-2.7,0.3-2.7,0.3L392.8,209z"/>
				<linearGradient id="SVGID_146_" gradientUnits="userSpaceOnUse" x1="383.5184" y1="201.2542" x2="405.7408" y2="216.3487">
					<stop  offset="0" style="stop-color:#F9B776"/>
					<stop  offset="1" style="stop-color:#F47960"/>
				</linearGradient>
				<path class="st153" d="M393.7,210c0,0,1.7-5,4.1-3c2.3,2-1.9,4.6-3.5,5.5L393.7,210z"/>
			</g>
			<linearGradient id="SVGID_147_" gradientUnits="userSpaceOnUse" x1="407.4877" y1="261.8294" x2="454.6634" y2="261.8294">
				<stop  offset="0" style="stop-color:#F9B776"/>
				<stop  offset="1" style="stop-color:#F47960"/>
			</linearGradient>
			<path class="st154" d="M378.1,263.9l6.4-6.2l8.8,3.7c0,0,8.7,1.4,13.8,0c5-1.4,5-1.4,5-1.4l11.3-3.5l1.8,5.1
				c0.5,1.3,0,2.7-1.1,3.5c-1,0.7-2.1,1.5-2.9,1.8c-1.5,0.7-36.7-0.5-36.7-0.5L378.1,263.9z"/>
		</g>
		<g>
			
				<linearGradient id="SVGID_148_" gradientUnits="userSpaceOnUse" x1="348.8956" y1="410.2645" x2="319.1966" y2="418.4042" gradientTransform="matrix(0.9988 -4.940000e-02 4.940000e-02 0.9988 39.6409 -135.546)">
				<stop  offset="0" style="stop-color:#2B3582"/>
				<stop  offset="1" style="stop-color:#150E42"/>
			</linearGradient>
			<path class="st155" d="M402.1,266.8C402.1,266.8,402.1,266.8,402.1,266.8l-36.9,0c-0.9,0-1.6-0.7-1.6-1.7c0-0.9,0.7-1.7,1.7-1.7
				l36.9,0c0.9,0,1.6,0.7,1.6,1.7C403.7,266,403,266.8,402.1,266.8z"/>
			<linearGradient id="SVGID_149_" gradientUnits="userSpaceOnUse" x1="368.2343" y1="237.6688" x2="347.0896" y2="260.0175">
				<stop  offset="0" style="stop-color:#2B3582"/>
				<stop  offset="1" style="stop-color:#150E42"/>
			</linearGradient>
			<path class="st156" d="M332.1,233.1h30.7c2.3,0,4.3,1.3,5.3,3.4l14.2,30.3h-38.1c-1.5,0-2.8-0.9-3.3-2.3l-11-28
				C329.1,234.9,330.3,233.1,332.1,233.1z"/>
			<linearGradient id="SVGID_150_" gradientUnits="userSpaceOnUse" x1="355.4737" y1="243.2212" x2="345.8587" y2="257.7003">
				<stop  offset="0" style="stop-color:#53D8FF"/>
				<stop  offset="1" style="stop-color:#3840F7"/>
			</linearGradient>
			<path class="st157" d="M353.7,248.6c0.7,2.1,0.2,4.1-1.1,4.5c-1.3,0.4-2.8-0.9-3.5-3c-0.7-2.1-0.2-4.1,1.1-4.5
				C351.4,245.2,353,246.6,353.7,248.6z"/>
		</g>
		<linearGradient id="SVGID_151_" gradientUnits="userSpaceOnUse" x1="284.1299" y1="269.9543" x2="453.6749" y2="269.9543">
			<stop  offset="0" style="stop-color:#9CFFFB"/>
			<stop  offset="1" style="stop-color:#9BFFFA"/>
		</linearGradient>
		<path class="st158" d="M453.6,268.1c0.1-0.4,0-0.9-0.3-1.2c-0.3-0.3-0.8-0.5-1.3-0.5H286c-0.6,0-1.2,0.3-1.6,0.8
			c-0.3,0.5-0.4,1.1-0.1,1.6l1.8,3.4c0.4,0.8,1.3,1.3,2.3,1.3h162.5c0.9,0,1.7-0.6,1.9-1.4L453.6,268.1z"/>
	</g>
	<g>
		<path class="st159" d="M245.6,149.3c0,0,79.1-39.3,53.2-68.3c-25.9-29-74.1-17.4-76.5,13.1C219.8,124.6,278.5,117.5,245.6,149.3z"
			/>
		<g>
			<path class="st3" d="M292.1,89.1h-34.9c-0.3,0-0.5-0.2-0.5-0.5c0-0.3,0.2-0.5,0.5-0.5h34.9c0.3,0,0.5,0.2,0.5,0.5
				C292.7,88.8,292.4,89.1,292.1,89.1z"/>
			<path class="st3" d="M246.9,89.1h-10.4c-0.3,0-0.5-0.2-0.5-0.5c0-0.3,0.2-0.5,0.5-0.5h10.4c0.3,0,0.5,0.2,0.5,0.5
				C247.4,88.8,247.2,89.1,246.9,89.1z"/>
			<path class="st3" d="M293.3,96.2h-13.1c-0.3,0-0.5-0.2-0.5-0.5c0-0.3,0.2-0.5,0.5-0.5h13.1c0.3,0,0.5,0.2,0.5,0.5
				C293.8,95.9,293.6,96.2,293.3,96.2z"/>
			<path class="st3" d="M261,96.2h-23.3c-0.3,0-0.5-0.2-0.5-0.5c0-0.3,0.2-0.5,0.5-0.5H261c0.3,0,0.5,0.2,0.5,0.5
				C261.5,95.9,261.3,96.2,261,96.2z"/>
			<path class="st3" d="M294.5,103.3h-34.8c-0.3,0-0.5-0.2-0.5-0.5c0-0.3,0.2-0.5,0.5-0.5h34.8c0.3,0,0.5,0.2,0.5,0.5
				C295,103,294.8,103.3,294.5,103.3z"/>
			<path class="st3" d="M250.9,103.3h-12.1c-0.3,0-0.5-0.2-0.5-0.5c0-0.3,0.2-0.5,0.5-0.5h12.1c0.3,0,0.5,0.2,0.5,0.5
				C251.4,103,251.2,103.3,250.9,103.3z"/>
		</g>
	</g>
</g>
</svg>
