<svg xmlns="http://www.w3.org/2000/svg" viewBox="0 0 100 100"><path d="M45.9 20.6l1.4 1.8c.2.4.7.5 1.1.3 0 0 .1 0 .1-.1-.8-.8-1.7-1.4-2.6-2z" fill="#ea5397"/><path d="M89.4 33.7c-.2-1.1-.5-2.2-.9-3.2-.3-.9-.7-1.8-1.1-2.7-3.6-8.1-11.7-13.3-20.6-13.2-6.8 0-12.3 2.9-16.8 8.8-4.5-5.9-10-8.8-16.8-8.8-14.4 0-23 12.2-23 23.9 0 7.8 2.9 15.5 8.6 23 1.4 1.8 3 3.5 4.7 5.3.4.5.8.9 1.3 1.3 1.7 1.7 3.5 3.3 5.2 4.7.1 0 .1 0 .1.1 5.8 4.7 12.1 8.8 18.7 12.2.8.4 1.6.4 2.4 0 8.8-4.5 16.9-10.2 24-17 9.7-9.5 14.6-19.5 14.6-29.6 0-1.6-.1-3.2-.4-4.8zM74 66.8c-7 6.7-15 12.3-23.6 16.7h-.8C41 79.1 33 73.5 26 66.8c-2-2-3.9-4.1-5.6-6.3-1.2-1.4-2.2-2.8-3.1-4.4-.8-1.4-1.6-2.8-2.3-4.2-2-4.2-3-8.8-3-13.4 0-10.9 7.9-22.1 21.2-22.1 5.8 0 10.7 2.4 14.7 7.2l1.4 1.8c.2.4.7.5 1.1.3 0 0 .1 0 .1-.1.1-.1.2-.1.2-.2 4.3-6.1 9.6-9 16.1-9 6.3-.1 12.3 2.8 16.2 7.7.6.7 1.1 1.4 1.5 2.2.5.8 1 1.6 1.4 2.5 1.4 3 2.1 6.4 2.1 9.7 0 9.6-4.7 19.1-14 28.3z" fill="#171d2f"/></svg>