<svg id="Layer_1" data-name="Layer 1" xmlns="http://www.w3.org/2000/svg" viewBox="0 0 100 100"><title>heart</title><path d="M49.92,89a2.76,2.76,0,0,1-1.26-.37c-1.4-.7-5.67-3.45-9.13-5.88C28.64,75.08,20.14,66.66,15,58.34A40.81,40.81,0,0,1,8.48,40.22a41.87,41.87,0,0,1,0-5.13,33.31,33.31,0,0,1,.76-4.69A27.1,27.1,0,0,1,14.7,19.53a24.08,24.08,0,0,1,9.5-7A21,21,0,0,1,30,11.09h0a41.29,41.29,0,0,1,4.57.07A20.75,20.75,0,0,1,44.4,14.7a26,26,0,0,1,3.75,3.11,24.35,24.35,0,0,1,1.87,2A22.74,22.74,0,0,1,51.72,18,22.88,22.88,0,0,1,62.2,11.72a14.52,14.52,0,0,1,5.09-.62,17.37,17.37,0,0,1,5.65.48,24,24,0,0,1,14.13,10.3,23,23,0,0,1,1.82,3.17,28.21,28.21,0,0,1,2.63,9.42,48.38,48.38,0,0,1,0,6.14,37.93,37.93,0,0,1-1.26,6.48C86.86,58.88,77,70.93,61.63,81.91c-.09.07-9.45,6.75-11.44,7Zm.3-3h0Zm-20-71.92a18,18,0,0,0-4.87,1.22A21,21,0,0,0,17,21.45a24.06,24.06,0,0,0-4.89,9.68,31,31,0,0,0-.68,4.22,37.06,37.06,0,0,0,0,4.59,37.4,37.4,0,0,0,6,16.81c5,8,13.2,16.1,23.76,23.49,3.56,2.5,7.49,5,8.7,5.63a90.86,90.86,0,0,0,9.93-6.39C74.45,69,84.21,57.24,87.38,46.26a33.93,33.93,0,0,0,1.15-6,47.9,47.9,0,0,0,0-5.49,24.71,24.71,0,0,0-2.35-8.44,21.66,21.66,0,0,0-1.61-2.82,21.06,21.06,0,0,0-12.39-9.06,14.83,14.83,0,0,0-4.87-.38,11.7,11.7,0,0,0-4.3.5,19.81,19.81,0,0,0-9.18,5.49A18.5,18.5,0,0,0,52,22.16a10.57,10.57,0,0,1-.81,1l-.14.13a1.5,1.5,0,0,1-2.08,0l-.18-.17c-.21-.21-.57-.67-.75-.9a18,18,0,0,0-2-2.24,21.88,21.88,0,0,0-3.32-2.76,17.77,17.77,0,0,0-8.5-3A40,40,0,0,0,30.18,14.08Z" fill="#430632"/><path d="M68.62,59.74a1.5,1.5,0,0,1-.94-2.67A31.87,31.87,0,0,0,78.12,36.14a1.51,1.51,0,0,1,1.6-1.39,1.49,1.49,0,0,1,1.39,1.6A34.25,34.25,0,0,1,69.55,59.41,1.47,1.47,0,0,1,68.62,59.74Z" fill="#430632"/></svg>