<svg data-name="Layer 1" xmlns="http://www.w3.org/2000/svg" viewBox="0 0 100 100"><path d="M45.9 20.6l1.4 1.8a.8.8 0 0 0 1.2.2 16.4 16.4 0 0 0-2.6-2z" fill="#ea5397"/><path d="M88.5 38.7c0 9.8-4.8 19.4-14.1 28.6a98.9 98.9 0 0 1-23.2 16.4 2.6 2.6 0 0 1-2.4 0 98.9 98.9 0 0 1-23.2-16.4A61 61 0 0 1 16 55.1a35.7 35.7 0 0 1-3.6-9.3 28.8 28.8 0 0 1-.9-7.1c0-11.4 8.3-23.1 22.3-23.1a19 19 0 0 1 10.3 2.9 10.9 10.9 0 0 1 1.3 1.7.8.8 0 0 0 1.2.2 30.5 30.5 0 0 1 3.4 3.7c4.3-5.7 9.7-8.5 16.2-8.5A21.5 21.5 0 0 1 78 18.9a25.4 25.4 0 0 1 4.3 3.7 24.2 24.2 0 0 1 6.2 16.1z" fill="#d19fdd"/><path d="M89.4 33.7a19.2 19.2 0 0 0-.9-3.2c-.3-.9-.7-1.8-1.1-2.7a22.3 22.3 0 0 0-20.6-13.2c-6.8 0-12.3 2.9-16.8 8.8-4.5-5.9-10-8.8-16.8-8.8-14.4 0-23 12.2-23 23.9 0 7.8 2.9 15.5 8.6 23 1.4 1.8 3 3.5 4.7 5.3a15.9 15.9 0 0 0 1.3 1.3c1.7 1.7 3.5 3.3 5.2 4.7a.1.1 0 0 1 .1.1 107.6 107.6 0 0 0 18.7 12.2 2.6 2.6 0 0 0 2.4 0 100.2 100.2 0 0 0 24-17c9.7-9.5 14.6-19.5 14.6-29.6a25.9 25.9 0 0 0-.4-4.8zM74 66.8a102.6 102.6 0 0 1-23.6 16.7h-.8A102.6 102.6 0 0 1 26 66.8a63.4 63.4 0 0 1-5.6-6.3 31.9 31.9 0 0 1-3.1-4.4c-.8-1.4-1.6-2.8-2.3-4.2a32.2 32.2 0 0 1-3-13.4c0-10.9 7.9-22.1 21.2-22.1q8.7 0 14.7 7.2l1.4 1.8a.8.8 0 0 0 1.2.2c.1-.1.2-.1.2-.2 4.3-6.1 9.6-9 16.1-9A20.3 20.3 0 0 1 83 24.1a17 17 0 0 1 1.5 2.2 15.7 15.7 0 0 1 1.4 2.5 23.5 23.5 0 0 1 2.1 9.7c0 9.6-4.7 19.1-14 28.3z" fill="#171d2f"/></svg>