<svg viewBox="0 0 100 100" xmlns="http://www.w3.org/2000/svg"><g fill="#430632"><path d="m21.36 18.2h-13.79a1.58 1.58 0 0 0 -1.57 1.57v13.79a1.57 1.57 0 0 0 1.57 1.56h13.79a1.56 1.56 0 0 0 1.56-1.56v-13.79a1.57 1.57 0 0 0 -1.56-1.57zm-1.24 14.12h-11.32v-11.32h11.32z"/><path d="m92.44 18.2h-64.72a1.57 1.57 0 0 0 -1.56 1.57v13.79a1.56 1.56 0 0 0 1.56 1.56h64.72a1.56 1.56 0 0 0 1.56-1.56v-13.79a1.57 1.57 0 0 0 -1.56-1.57zm-1.23 2.8v11.32h-62.21v-11.32z"/><path d="m92.44 41.55h-64.72a1.56 1.56 0 0 0 -1.56 1.56v13.79a1.56 1.56 0 0 0 1.56 1.56h64.72a1.56 1.56 0 0 0 1.56-1.56v-13.79a1.56 1.56 0 0 0 -1.56-1.56zm-1.23 2.8v11.31h-62.21v-11.31z"/><path d="m92.44 64.89h-64.72a1.56 1.56 0 0 0 -1.56 1.56v13.79a1.56 1.56 0 0 0 1.56 1.56h64.72a1.56 1.56 0 0 0 1.56-1.56v-13.79a1.56 1.56 0 0 0 -1.56-1.56zm-1.23 2.8v11.31h-62.21v-11.31z"/><path d="m21.36 41.55h-13.79a1.57 1.57 0 0 0 -1.57 1.56v13.79a1.57 1.57 0 0 0 1.57 1.56h13.79a1.56 1.56 0 0 0 1.56-1.56v-13.79a1.56 1.56 0 0 0 -1.56-1.56zm-1.24 2.8v11.31h-11.32v-11.31z"/><path d="m21.36 64.89h-13.79a1.57 1.57 0 0 0 -1.57 1.56v13.79a1.57 1.57 0 0 0 1.57 1.56h13.79a1.56 1.56 0 0 0 1.56-1.56v-13.79a1.56 1.56 0 0 0 -1.56-1.56zm-1.24 2.8v11.31h-11.32v-11.31z"/></g></svg>