<svg data-name="Layer 1" xmlns="http://www.w3.org/2000/svg" viewBox="0 0 100 100"><path d="M21.8 20.7V33a.9.9 0 0 1-1 1H8.5a.9.9 0 0 1-1-1V20.7a.9.9 0 0 1 1-1h12.3a.9.9 0 0 1 1 1zm70.9 0V33a1 1 0 0 1-1 1H28.3a1 1 0 0 1-1.1-1V20.7a1 1 0 0 1 1.1-1h63.4a1 1 0 0 1 1 1zm.3 22.8V56a1 1 0 0 1-1 1H28.3a1 1 0 0 1-1.1-1V43.5a1 1 0 0 1 1.1-.9H92a1 1 0 0 1 1 .9zm-.3 23V80a1.1 1.1 0 0 1-1 1H28.3a1.1 1.1 0 0 1-1.1-1V66.5a1.1 1.1 0 0 1 1.1-1.1h63.4a1.1 1.1 0 0 1 1 1.1zM22 43.5V56a.9.9 0 0 1-1 1H8.5a.9.9 0 0 1-1-1V43.5a.9.9 0 0 1 1-.9H21a.9.9 0 0 1 1 .9zm0 23.4v12.2a.9.9 0 0 1-1 .9H8.5a.9.9 0 0 1-1-.9V66.9a.9.9 0 0 1 1-.9H21a.9.9 0 0 1 1 .9z" fill="#d19fdd"/><path d="M20.6 20.5v12.3H8.3V20.5h12.3m.8-1.8H7.6a1.1 1.1 0 0 0-1.1 1.1v13.8a1.1 1.1 0 0 0 1.1 1h13.8a1.1 1.1 0 0 0 1-1V19.8a1.1 1.1 0 0 0-1-1.1zm70.3 1.8v12.3H28.5V20.5h63.2m.7-1.8H27.7a1 1 0 0 0-1 1.1v13.8a1 1 0 0 0 1 1h64.7a1.1 1.1 0 0 0 1.1-1V19.8a1.1 1.1 0 0 0-1.1-1.1zm-.7 25.1v12.4H28.5V43.8h63.2m.7-1.8H27.7a1 1 0 0 0-1 1.1v13.8a1 1 0 0 0 1 1.1h64.7a1.1 1.1 0 0 0 1.1-1.1V43.1a1.1 1.1 0 0 0-1.1-1.1zm-.7 25.2v12.3H28.5V67.2h63.2m.7-1.8H27.7a1 1 0 0 0-1 1v13.8a1 1 0 0 0 1 1.1h64.7a1.1 1.1 0 0 0 1.1-1.1V66.4a1.1 1.1 0 0 0-1.1-1zM20.6 43.8v12.4H8.3V43.8h12.3m.8-1.8H7.6a1.1 1.1 0 0 0-1.1 1.1v13.8A1.1 1.1 0 0 0 7.6 58h13.8a1.1 1.1 0 0 0 1-1.1V43.1a1.1 1.1 0 0 0-1-1.1zm-.8 25.2v12.3H8.3V67.2h12.3m.8-1.8H7.6a1.1 1.1 0 0 0-1.1 1v13.8a1.1 1.1 0 0 0 1.1 1.1h13.8a1.1 1.1 0 0 0 1-1.1V66.4a1.1 1.1 0 0 0-1-1z" fill="#171d2f"/></svg>