<svg enable-background="new 0 0 310.7 97.6" viewBox="0 0 310.7 97.6" xmlns="http://www.w3.org/2000/svg"><path d="m34.8 18.2h9.3v9.5h-9.3z"/><path d="m29.3 18.1h-9.3v14.1c-1.4-.4-2.7-.5-4.1-.5-9.7 0-16 6.1-16 15.5 0 9.8 5.9 14.8 17.3 14.8 4.1 0 8.1-.4 12.1-1.2zm-9.3 36.3c-1.1.2-2.1.2-3.2.2-4.8 0-7.4-2.7-7.4-7.6s2.7-7.9 7.4-7.9c1.1 0 2.1.1 3.1.5z"/><path d="m34.8 50.5c0 8-.4 11.1-1.8 13.7s-3.3 4.3-7.4 6.2l8.6 4.1c4.1-2 6.1-3.9 7.6-6.8s2.2-6.6 2.2-14v-21.3h-9.3z"/><path d="m62 31.7c-4.3 0-8.5.9-12.3 2.8v7.1c3.4-1.8 7.1-2.7 10.9-2.8 2.3 0 3.2.6 3.2 2.3v2c-11.4 1-16.1 3.9-16.1 10.4 0 6 3.5 8.7 11.3 8.7 4.4 0 8.9-.4 13.3-1v-18.8c0-3.8-.2-5.6-1-7-1.4-2.4-4.5-3.7-9.3-3.7zm2.3 23.6c-1.5.3-3 .4-4.5.4-2.5 0-3.7-.8-3.7-2.6 0-2.4 2-3.4 8.2-4z"/><path d="m154.7 62.5c9.4 0 15.4-6 15.4-15.7 0-9.4-5.7-15.2-15-15.2-9.5 0-15.4 6-15.4 15.7 0 9.4 5.7 15.2 15 15.2zm.3-23.5c3.6 0 5.6 3 5.6 8s-2.1 8-5.7 8-5.7-2.9-5.7-8 2.1-8 5.8-8z"/><path d="m140.7 33.1c-4-.9-8.1-1.3-12.1-1.3-13.6 0-21.3 5.9-21.3 16.4 0 8.4 5.2 13.8 13.3 13.8 2.1.1 4.1-.4 6-1.3v.2c0 5.9-2.6 8.3-8.7 8.3-3.5 0-6.9-.8-10-2.4v8.5c3.2 1.2 6.6 1.8 10 1.8 4.9 0 8.8-1.1 11.7-3.2.5-.3 1-.7 1.4-1.1.8-.7 1.4-1.5 2-2.4 2-3.1 2.7-6.8 2.7-14.7v-2.5c-.1-1.3-.1-2.5-.1-3.8l-.1-5-.1-3.9v-1c1.9.2-.4-.2 2.1.2zm-14 20.2v.7c-1.1.4-2.3.6-3.5.6-4.1 0-6.4-2.6-6.4-7.2 0-3.2 1.2-5.5 3.4-6.8 1.6-.9 3.5-1.4 5.4-1.3h1v.7l.1 3 .1 4.2c0 1.3.1 2.5.1 3.5z"/><path d="m91.5 31.7c-4.9.1-9.9.8-14.6 2.1v27.9h9.3v-21.9c1.4-.4 2.8-.7 4.3-.7 3.3 0 4.5 1.3 4.5 4.9v17.7h9.3v-18.1c0-4.6-.6-6.8-2.5-8.7s-5.5-3.2-10.3-3.2z"/><path d="m231.5 47.3c0-9.4-5.7-15.2-15-15.2-9.5 0-15.4 6-15.4 15.7 0 9.3 5.7 15.2 15.1 15.2s15.3-6 15.3-15.7zm-20.9.3c0-5.1 2.1-8 5.8-8s5.6 3 5.6 8-2.1 8-5.7 8-5.7-2.9-5.7-8z"/><path d="m252.4 44.5v17.7h9.3v-18c0-4.6-.6-6.8-2.5-8.7s-5.5-3.2-10.3-3.2c-4.9.1-9.9.8-14.6 2.1v27.9h9.3v-22c1.4-.4 2.8-.7 4.3-.6 3.3 0 4.5 1.3 4.5 4.8z"/><path d="m290.9 61.5c1.3-1.4 1.8-2.9 1.8-6.1v-12.6h-6.5v12.3c0 2.5-.8 3.4-3.1 3.4-1 0-2-.2-3-.5v-15.2h-6.4v19.4c3.3.9 6.7 1.4 10.2 1.4 3.2.1 5.6-.6 7-2.1z"/><path d="m177.7 58.7c3 2.8 8.5 3.8 12.2 3.7 2.9 0 5.8-.7 8.4-2.1v-7.4c-2 1-4.2 1.6-6.4 1.6-3.6 0-9.3-1.4-9.3-7.8s5.7-7.8 9.3-7.8c2.2 0 4.3.7 6.2 1.8v-7.5c-2.5-1.2-5.3-1.8-8.1-1.8-3.7 0-8.8 1.1-11.8 4-3.2 2.9-5.1 7-5.1 11.3-.3 4.6 1.4 8.9 4.6 12z"/><path d="m302.6 50.4c-1.5-.7-1.4-1.5-1.4-1.5s0-1.3 2.6-1.3c1.9 0 3.7.5 5.4 1.3v-4.9c-2-1-4.3-1.4-6.6-1.2-7.5.3-7.4 6-7.4 6-.2 1.5.4 3 1.4 4.2 1.6 1.3 3.4 2.3 5.3 3 1.4.5 1.9 1.2 1.9 1.5s.2 1.4-2.6 1.4c-2.1-.1-4.1-.7-6-1.6v5.1c2.8 1.1 5.9 1.5 8.8 1.1 2.8-.5 5.6-1.4 5.9-5.9s-4.1-5.7-7.3-7.2z"/><path d="m264 54.9h7.4v7.4h-7.4z"/><g enable-background="new"><path d="m50.5 27.5c-.1-.1-.2-.3-.2-.5v-2.1c0-.6.2-1.1.8-1.5l3.1-3.1c1.8-1.4 3.2-2.5 4.1-3.3s1.6-1.5 2.1-2.1.7-1.2.7-1.8c0-1.6-.8-2.4-2.3-2.4-.8 0-1.5.2-1.9.7s-.7 1.1-.9 1.8c-.1.5-.5.7-1 .7h-3.8c-.2 0-.3-.1-.5-.2s-.2-.3-.2-.5c0-1.3.4-2.5 1.1-3.5.7-1.1 1.6-1.9 2.9-2.6s2.6-.9 4.2-.9c1.7 0 3.1.3 4.3.8s2.1 1.3 2.7 2.3.9 2.1.9 3.4c0 1.4-.4 2.7-1.3 3.8-.9 1.2-2.2 2.4-4 3.7l-2.8 2.8h7.7c.2 0 .4.1.6.2.1.1.2.3.2.5v3c0 .2-.1.4-.2.5s-.3.2-.6.2h-15.2c-.2.3-.4.2-.5.1z"/><path d="m72.4 25.8c-1.4-1.4-2.2-3.4-2.3-5.7 0-1.1-.1-2-.1-2.9s0-1.8.1-3c.1-1.5.4-2.8 1.1-4 .6-1.2 1.6-2.1 2.9-2.8s2.8-1 4.6-1c2.7 0 4.8.8 6.2 2.2 1.5 1.4 2.2 3.3 2.4 5.6 0 1.1.1 2.1.1 3 0 .8 0 1.8-.1 2.9-.1 2.4-.9 4.3-2.3 5.7-1.4 1.5-3.5 2.2-6.3 2.2s-4.9-.7-6.3-2.2zm8.5-3.1c.5-.6.8-1.6.8-2.7 0-.6.1-1.5.1-2.8s0-2.2-.1-2.7c0-1.1-.3-2-.8-2.7s-1.2-1-2.2-1-1.7.4-2.2 1-.8 1.6-.8 2.7v2.7 2.8c.1 2.5 1.1 3.7 3 3.7.9 0 1.7-.4 2.2-1z"/><path d="m90.4 27.5c-.1-.1-.2-.3-.2-.5v-2.1c0-.6.2-1.1.8-1.5l3.1-3.1c1.8-1.4 3.2-2.5 4.1-3.3s1.6-1.5 2.1-2.1.7-1.2.7-1.8c0-1.6-.8-2.4-2.3-2.4-.8 0-1.5.2-1.9.7s-.7 1.1-.9 1.8c-.1.5-.5.7-1 .7h-3.8c-.2 0-.3-.1-.5-.2s-.2-.3-.2-.5c0-1.3.4-2.5 1.1-3.5.7-1.1 1.6-1.9 2.9-2.6s2.6-.9 4.2-.9c1.7 0 3.1.3 4.3.8s2.1 1.3 2.7 2.3.9 2.1.9 3.4c0 1.4-.4 2.7-1.3 3.8-.9 1.2-2.2 2.4-4 3.7l-2.8 2.8h7.7c.2 0 .4.1.6.2.1.1.2.3.2.5v3c0 .2-.1.4-.2.5s-.3.2-.6.2h-15.2c-.2.3-.4.2-.5.1z"/><path d="m116.2 27.5c-.2-.2-.2-.3-.2-.5v-14.3l-4.1 3.2c-.1.1-.3.2-.5.2s-.4-.1-.6-.4l-1.8-2.3c-.1-.2-.1-.3-.1-.5 0-.3.1-.5.4-.6l6.9-5.3c.2-.1.5-.2.7-.2h3.8c.2 0 .4.1.5.2s.2.3.2.5v19.5c0 .2-.1.4-.2.5s-.3.2-.5.2h-3.9c-.3 0-.5-.1-.6-.2z"/></g><g enable-background="new"><path d="m204.8 90.6c-1.6-1.4-2.4-3.3-2.6-5.8 0-.3 0-.8 0-1.6s0-1.3 0-1.6c.1-2.5 1-4.4 2.6-5.8s3.8-2.1 6.6-2.1 5 .7 6.7 2.1c1.6 1.4 2.5 3.3 2.6 5.8v1.6s0 1.3 0 1.6c-.1 2.5-1 4.4-2.6 5.8s-3.8 2.1-6.7 2.1c-2.8 0-5-.7-6.6-2.1zm9-3.1c.5-.6.8-1.6.8-2.9 0-.2 0-.7 0-1.4s0-1.2 0-1.4c-.1-1.3-.4-2.2-.9-2.8s-1.3-.9-2.3-.9c-1.9 0-3 1.3-3.1 3.8v1.4 1.4c0 1.3.3 2.2.8 2.9.5.6 1.3.9 2.3.9 1.1-.1 1.9-.4 2.4-1z"/><path d="m224.5 92.1c-.2-.2-.2-.4-.2-.6v-16.5c0-.3.1-.5.2-.6.2-.2.4-.2.6-.2h4c.3 0 .5.1.6.2.2.2.3.4.3.6v1.3c.6-.8 1.4-1.4 2.4-1.9s2.1-.7 3.4-.7c2.1 0 3.7.7 5 2.1s1.9 3.3 1.9 5.8v9.8c0 .2-.1.4-.2.6-.2.2-.4.3-.6.3h-4.4c-.2 0-.4-.1-.6-.3s-.3-.4-.3-.6v-9.6c0-1.1-.3-1.9-.8-2.5s-1.3-.9-2.3-.9-1.8.3-2.3.9c-.6.6-.8 1.4-.8 2.5v9.6c0 .2-.1.4-.2.6s-.4.3-.6.3h-4.4c-.3 0-.5 0-.7-.2z"/><path d="m247 92.1c-.2-.2-.3-.4-.3-.6v-23.1c0-.3.1-.5.3-.6.2-.2.4-.2.6-.2h4.1c.3 0 .5.1.6.2.2.2.2.4.2.6v23.1c0 .3-.1.5-.2.6-.2.2-.4.2-.6.2h-4.1c-.2 0-.4-.1-.6-.2z"/><path d="m257 71.3c-.2-.2-.2-.4-.2-.6v-3.1c0-.3.1-.5.2-.6.2-.2.4-.2.6-.2h4.2c.3 0 .5.1.6.2.2.2.2.4.2.6v3.1c0 .3-.1.5-.2.6-.2.2-.4.2-.6.2h-4.2c-.2 0-.4-.1-.6-.2zm0 20.8c-.2-.2-.2-.4-.2-.6v-16.5c0-.3.1-.5.2-.6.2-.2.4-.2.6-.2h4.1c.3 0 .5.1.6.2.2.2.2.4.2.6v16.5c0 .2-.1.4-.2.6-.2.2-.4.3-.6.3h-4.1c-.2-.1-.4-.1-.6-.3z"/><path d="m267 92.1c-.2-.2-.2-.4-.2-.6v-16.5c0-.3.1-.5.2-.6.2-.2.4-.2.6-.2h4c.3 0 .5.1.6.2.2.2.3.4.3.6v1.3c.6-.8 1.4-1.4 2.4-1.9s2.1-.7 3.4-.7c2.1 0 3.7.7 5 2.1s1.9 3.3 1.9 5.8v9.8c0 .2-.1.4-.2.6-.2.2-.4.3-.6.3h-4.4c-.2 0-.4-.1-.6-.3s-.3-.4-.3-.6v-9.6c0-1.1-.3-1.9-.8-2.5s-1.3-.9-2.3-.9-1.8.3-2.3.9c-.6.6-.8 1.4-.8 2.5v9.6c0 .2-.1.4-.2.6-.2.2-.4.3-.6.3h-4.4c-.3 0-.5 0-.7-.2z"/><path d="m291.1 90.4c-1.6-1.5-2.5-3.7-2.5-6.6v-1.2c.1-2.8 1-4.9 2.6-6.5s3.8-2.3 6.5-2.3c2 0 3.7.4 5 1.2 1.4.8 2.4 1.9 3.1 3.3s1 3 1 4.8v.9c0 .2-.1.4-.2.6-.2.2-.4.3-.6.3h-11.2v.2c0 1.1.3 2 .8 2.7s1.2 1 2.1 1c.6 0 1.1-.1 1.4-.4.4-.2.7-.5 1-.9.2-.3.4-.4.5-.5s.3-.1.6-.1h4.3c.2 0 .4.1.5.2.2.1.2.3.2.5 0 .6-.3 1.3-1 2.1s-1.7 1.5-3 2.1-2.8.9-4.6.9c-2.7 0-4.9-.8-6.5-2.3zm9.5-9c0-1.2-.3-2.1-.8-2.8s-1.3-1-2.2-1-1.6.3-2.2 1c-.5.7-.8 1.6-.8 2.7v.1z"/></g></svg>