<svg xmlns="http://www.w3.org/2000/svg" viewBox="0 0 300 90"><path fill="#E99C56" d="M34.2 17.5h9v9.1h-9v-9.1zm-5.3-.1h-9V31c-1.2-.3-2.6-.5-4-.5C6.6 30.5.5 36.3.5 45.4c0 9.4 5.7 14.2 16.7 14.3 4 0 7.8-.4 11.7-1.1V17.4zm-9 35c-1 .2-2 .2-3.1.2-4.6 0-7.2-2.6-7.2-7.4s2.6-7.6 7.2-7.6c1 0 2 .1 3 .5l.1 14.3z"/><path fill="#E99C56" d="M34.2 48.6c0 7.7-.4 10.6-1.7 13.2s-3.2 4.1-7.2 5.9l8.3 4c4-1.9 5.8-3.8 7.4-6.6 1.4-2.8 2.1-6.3 2.1-13.5V31.1h-9l.1 17.5zm26.2-18.1c-4.1 0-8.2.8-11.9 2.7V40c3.3-1.7 6.9-2.6 10.5-2.7 2.3 0 3.1.6 3.1 2.3v1.9c-11 .9-15.6 3.8-15.6 10 0 5.7 3.4 8.4 10.9 8.4 4.2 0 8.6-.4 12.8-.9V40.8c0-3.7-.2-5.4-.9-6.8-1.3-2.4-4.2-3.5-8.9-3.5zm2.2 22.7c-1.4.3-2.9.4-4.3.4-2.5 0-3.6-.8-3.6-2.5 0-2.4 1.9-3.3 7.9-3.9v6zm87.1 7c9 0 14.8-5.7 14.8-15.2 0-9-5.5-14.6-14.4-14.6-9.1 0-14.8 5.7-14.8 15.2 0 8.9 5.5 14.6 14.4 14.6zm.3-22.7c3.5 0 5.4 2.9 5.4 7.7s-2 7.7-5.5 7.7-5.5-2.8-5.5-7.7 2.1-7.7 5.6-7.7zm-13.8-5.7c-3.9-.8-7.8-1.2-11.7-1.2-13.1 0-20.6 5.7-20.6 15.8 0 8.1 5 13.3 12.8 13.3 2 .1 4-.4 5.7-1.2v.2c0 5.7-2.5 8-8.4 8-3.4 0-6.7-.8-9.6-2.4v8.2c3.1 1.1 6.3 1.7 9.6 1.7 4.7 0 8.5-1 11.3-3.1.5-.3.9-.7 1.3-1 .8-.7 1.3-1.4 1.9-2.4 1.9-3 2.6-6.6 2.6-14.1v-2.5c-.1-1.2-.1-2.5-.1-3.7l-.1-4.8-.1-3.8v-.9c1.8.2-.4-.2 2 .2l3.4-6.3zm-13.5 19.3v.7c-1 .4-2.3.6-3.4.6-4 0-6.1-2.5-6.1-7 0-3.1 1.1-5.3 3.3-6.6 1.5-.8 3.4-1.3 5.2-1.2h.9v.7l.1 2.9.1 4.1c0 1.2.1 2.5.1 3.4l-.2 2.4zM88.8 30.5c-4.7.1-9.5.8-14 2v26.9h9V38.2c1.3-.4 2.7-.7 4.1-.7 3.2 0 4.3 1.2 4.3 4.7v17.1h9V41.9c0-4.4-.6-6.6-2.5-8.4-1.8-1.8-5.3-3-9.9-3zm135 15c0-9-5.5-14.6-14.4-14.6-9.1 0-14.8 5.7-14.8 15.2 0 9 5.5 14.6 14.5 14.6 8.9 0 14.7-5.9 14.7-15.2zm-20.2.2c0-4.9 2-7.7 5.6-7.7s5.4 2.9 5.4 7.7-2 7.7-5.5 7.7-5.5-2.7-5.5-7.7zm40.3-2.9v17.1h9V42.4c0-4.4-.6-6.6-2.5-8.4-1.8-1.8-5.3-3.1-9.9-3.1-4.7.1-9.5.8-14 2V60h9V38.8c1.3-.4 2.7-.7 4.1-.6 3.1-.1 4.3 1.2 4.3 4.6zM281 59.1c1.2-1.3 1.7-2.8 1.7-5.8V41.1h-6.2V53c0 2.5-.8 3.3-3 3.3-.9 0-1.9-.2-2.9-.5V41.1h-6.1v18.7c3.2.8 6.4 1.3 9.8 1.3 3 .2 5.4-.5 6.7-2zm-109-2.6c2.9 2.7 8.2 3.7 11.8 3.6 2.8 0 5.6-.7 8.1-2v-7.2c-1.9.9-4.1 1.5-6.1 1.5-3.5 0-9-1.3-9-7.5s5.5-7.5 9-7.5c2.1 0 4.1.7 5.9 1.7v-7.3c-2.5-1.1-5.1-1.7-7.8-1.7-3.6 0-8.5 1-11.4 3.9-3.1 2.8-4.9 6.8-4.9 10.9-.5 4.3 1.2 8.6 4.4 11.6zm120.3-8c-1.4-.7-1.3-1.4-1.3-1.4s0-1.2 2.5-1.2c1.8 0 3.6.5 5.2 1.2v-4.7c-1.9-.9-4.1-1.3-6.3-1.1-7.3.3-7.2 5.7-7.2 5.7-.2 1.4.4 2.9 1.3 4.1 1.5 1.2 3.3 2.3 5.1 2.9 1.3.5 1.8 1.1 1.8 1.4 0 .3.2 1.3-2.5 1.3-2-.1-4-.7-5.7-1.5v4.9c2.7 1 5.7 1.4 8.5 1 2.7-.5 5.4-1.3 5.7-5.7.2-4.3-4.1-5.6-7.1-6.9zm-37.2 4.2h7.2v7.2h-7.2v-7.2zM52.1 20.7c-.1-.1-.2-.3-.2-.5v-2.1c0-.6.2-1 .7-1.4l2.6-2.6c1.8-1.4 3.1-2.4 4.1-3.2.9-.8 1.6-1.4 2.1-2.1.5-.6.7-1.2.7-1.7 0-1.4-.7-2.1-2.1-2.1-.7 0-1.3.2-1.7.7-.4.4-.7 1-.8 1.7-.1.4-.4.7-1 .7h-3.7c-.2 0-.3-.1-.4-.2-.1-.1-.2-.3-.2-.4 0-1.2.4-2.4 1-3.4s1.6-1.8 2.7-2.4c1.2-.6 2.5-.9 4-.9 1.6 0 2.9.3 4.1.8s2 1.2 2.6 2.1.9 2 .9 3.2c0 1.4-.4 2.6-1.3 3.7-.8 1.1-2.1 2.3-3.8 3.6l-2.3 2.3h7.2c.2 0 .4.1.5.2s.2.3.2.5v3c0 .2-.1.4-.2.5s-.3.2-.5.2H52.6c-.2.1-.4 0-.5-.2zM72.9 19.2c-1.4-1.4-2.1-3.1-2.2-5.4 0-1-.1-1.9-.1-2.7s0-1.8.1-2.8c.1-1.4.4-2.7 1.1-3.8.6-1.1 1.5-2 2.7-2.6s2.7-1 4.4-1 3.2.3 4.4 1c1.2.6 2.1 1.5 2.8 2.6s1 2.4 1.1 3.8c0 .5.1 1.5.1 2.8s0 2.2-.1 2.7c-.1 2.2-.9 4-2.2 5.4-1.4 1.4-3.3 2-6 2.1-2.7-.1-4.7-.8-6.1-2.1zm8-3.1c.4-.6.7-1.4.7-2.4 0-.5.1-1.4.1-2.7 0-1.2 0-2.1-.1-2.6 0-1-.3-1.8-.7-2.4-.4-.6-1.1-.9-2-.9-1.7 0-2.6 1.1-2.7 3.3V13.7c.1 2.2 1 3.3 2.7 3.3.9 0 1.5-.3 2-.9zM90 20.7c-.1-.1-.2-.3-.2-.5v-2.1c0-.6.2-1 .7-1.4l2.6-2.6c1.8-1.4 3.1-2.4 4.1-3.2.9-.8 1.6-1.4 2.1-2.1.5-.6.7-1.2.7-1.7 0-1.4-.7-2.1-2.1-2.1-.7 0-1.3.2-1.7.7-.4.4-.7 1-.8 1.7-.1.4-.4.7-1 .7h-3.7c-.2 0-.3-.1-.4-.2-.1-.1-.2-.3-.2-.4 0-1.2.4-2.4 1-3.4s1.6-1.8 2.7-2.4c1.2-.6 2.5-.9 4-.9 1.6 0 2.9.3 4.1.8s2 1.2 2.6 2.1.9 2 .9 3.2c0 1.4-.4 2.6-1.3 3.7s-2.1 2.3-3.8 3.6L98 16.5h7.2c.2 0 .4.1.5.2s.2.3.2.5v3c0 .2-.1.4-.2.5s-.3.2-.5.2H90.4c-.1.1-.3 0-.4-.2zM110.8 19.2c-1.4-1.4-2.1-3.1-2.2-5.4 0-1-.1-1.9-.1-2.7s0-1.8.1-2.8c.1-1.4.4-2.7 1.1-3.8.6-1.1 1.5-2 2.7-2.6s2.7-1 4.4-1 3.2.3 4.4 1c1.2.6 2.1 1.5 2.8 2.6s1 2.4 1.1 3.8c0 .5.1 1.5.1 2.8s0 2.2-.1 2.7c-.1 2.2-.9 4-2.2 5.4-1.4 1.4-3.3 2-6 2.1-2.7-.1-4.7-.8-6.1-2.1zm7.9-3.1c.4-.6.7-1.4.7-2.4 0-.5.1-1.4.1-2.7 0-1.2 0-2.1-.1-2.6 0-1-.3-1.8-.7-2.4-.4-.6-1.1-.9-2-.9-1.7 0-2.6 1.1-2.7 3.3V13.7c.1 2.2 1 3.3 2.7 3.3 1 0 1.6-.3 2-.9z"/><g><path fill="#E99C56" d="M139.529 88.289c-1.255-.516-2.206-1.199-2.851-2.048-.646-.849-.988-1.772-1.025-2.768 0-.166.059-.305.18-.415a.61.61 0 0 1 .429-.166h3.682c.222 0 .401.037.54.111.138.074.29.203.457.388.24.442.613.807 1.121 1.093.507.287 1.186.429 2.035.429.997 0 1.762-.152 2.298-.456.534-.305.802-.725.802-1.26 0-.388-.138-.707-.415-.955-.278-.25-.72-.47-1.329-.664-.609-.194-1.486-.411-2.63-.651-2.234-.443-3.904-1.117-5.011-2.021-1.107-.904-1.661-2.196-1.661-3.876 0-1.144.318-2.164.955-3.059s1.541-1.592 2.713-2.091c1.172-.497 2.532-.747 4.083-.747 1.624 0 3.032.282 4.222.844 1.19.563 2.103 1.264 2.74 2.104.636.84.973 1.665 1.01 2.477a.61.61 0 0 1-.166.429.54.54 0 0 1-.415.18h-3.876c-.406 0-.72-.166-.941-.498-.111-.388-.397-.715-.859-.983-.461-.267-1.034-.401-1.716-.401-.775 0-1.375.139-1.8.415-.424.277-.637.683-.637 1.218 0 .535.278.954.831 1.259.553.305 1.587.614 3.101.927 1.734.315 3.114.707 4.138 1.177 1.025.47 1.781 1.08 2.27 1.828.489.747.734 1.693.734 2.837 0 1.255-.36 2.344-1.08 3.267-.719.924-1.716 1.629-2.989 2.118-1.274.489-2.732.734-4.374.734-1.789-.001-3.312-.259-4.566-.776zM153.412 88.608a.555.555 0 0 1-.179-.402c0-.111.009-.194.027-.249l6.451-17.746c.185-.535.554-.803 1.108-.803h4.318c.554 0 .923.268 1.108.803l6.451 17.746a.85.85 0 0 1 .028.249c0 .148-.06.282-.18.402s-.254.179-.401.179h-3.599c-.443 0-.757-.203-.942-.609l-.996-2.685h-7.254l-.997 2.685c-.185.406-.498.609-.942.609h-3.598a.55.55 0 0 1-.403-.179zm7.101-7.267h4.928l-2.464-7.06-2.464 7.06zM175.033 88.581a.666.666 0 0 1-.207-.485V70.129c0-.203.064-.374.194-.512a.648.648 0 0 1 .498-.208h3.128c.424 0 .738.176.942.526l6.534 10.326V70.129c0-.203.064-.374.194-.512a.648.648 0 0 1 .498-.208h3.515c.203 0 .369.069.498.208a.722.722 0 0 1 .194.512v17.94a.724.724 0 0 1-.194.512.653.653 0 0 1-.498.207H187.2c-.425 0-.739-.175-.942-.525l-6.506-9.911v9.744a.65.65 0 0 1-.207.498.72.72 0 0 1-.513.194h-3.515a.668.668 0 0 1-.484-.207zM200.806 88.581a.666.666 0 0 1-.207-.485V70.129c0-.203.064-.374.194-.512a.648.648 0 0 1 .498-.208h7.281c2.731 0 4.854.651 6.368 1.952 1.513 1.301 2.307 3.169 2.381 5.606.018.535.028 1.245.028 2.131s-.01 1.588-.028 2.104c-.185 5.057-3.055 7.585-8.61 7.585h-7.419a.666.666 0 0 1-.486-.206zm7.766-3.946c1.163 0 2.021-.277 2.575-.83.554-.554.849-1.44.886-2.658.037-.535.056-1.227.056-2.076s-.019-1.532-.056-2.049c-.037-1.181-.355-2.053-.955-2.616-.599-.562-1.481-.844-2.643-.844h-2.631v11.074h2.768zM220.711 88.581a.666.666 0 0 1-.207-.485V70.101c0-.203.069-.369.207-.498a.69.69 0 0 1 .485-.194h3.959c.203 0 .369.065.498.194.129.13.194.296.194.498v17.995a.69.69 0 0 1-.194.485.654.654 0 0 1-.498.207h-3.959a.67.67 0 0 1-.485-.207zM229.82 88.581a.666.666 0 0 1-.207-.485V70.129c0-.203.064-.374.194-.512a.648.648 0 0 1 .498-.208h13.067c.203 0 .374.069.512.208a.693.693 0 0 1 .208.512v2.74a.647.647 0 0 1-.208.498.718.718 0 0 1-.512.194h-8.749v3.516h8.139c.203 0 .374.068.512.207a.695.695 0 0 1 .208.512v2.52a.691.691 0 0 1-.208.512.693.693 0 0 1-.512.208h-8.139v3.598h8.97c.203 0 .373.069.512.208a.696.696 0 0 1 .207.512v2.74a.65.65 0 0 1-.207.498.72.72 0 0 1-.512.194h-13.289a.661.661 0 0 1-.484-.205zM249.046 87.113c-1.513-1.301-2.316-3.16-2.408-5.578a77.896 77.896 0 0 1-.028-2.52c0-1.163.009-2.011.028-2.547.073-2.326.881-4.129 2.422-5.412 1.541-1.282 3.631-1.924 6.27-1.924 1.772 0 3.317.287 4.637.858 1.319.572 2.325 1.306 3.017 2.202.692.895 1.056 1.813 1.093 2.754a.583.583 0 0 1-.179.429.583.583 0 0 1-.429.18h-4.291c-.185 0-.328-.032-.429-.096a1.083 1.083 0 0 1-.291-.291 3.274 3.274 0 0 0-1.065-1.329c-.489-.369-1.177-.553-2.063-.553-2.141 0-3.249 1.108-3.322 3.322a71.872 71.872 0 0 0-.028 2.381c0 1.071.009 1.874.028 2.409.073 2.344 1.199 3.515 3.377 3.515 1.071 0 1.919-.267 2.548-.802.627-.535.941-1.347.941-2.437v-.498h-2.464a.694.694 0 0 1-.512-.207.695.695 0 0 1-.208-.512v-2.16c0-.203.069-.373.208-.512a.69.69 0 0 1 .512-.207h7.032c.203 0 .374.068.512.207a.695.695 0 0 1 .208.512v3.212c0 1.569-.365 2.921-1.094 4.055-.729 1.135-1.758 2.003-3.087 2.603-1.329.6-2.879.899-4.651.899-2.676-.002-4.77-.651-6.284-1.953zM269.061 87.155c-1.513-1.273-2.316-3.147-2.408-5.62-.019-.517-.028-1.31-.028-2.381s.009-1.874.028-2.409c.073-2.436.881-4.314 2.422-5.633s3.603-1.98 6.187-1.98c2.565 0 4.619.661 6.16 1.98s2.348 3.197 2.422 5.633c.037 1.071.055 1.874.055 2.409 0 .553-.018 1.347-.055 2.381-.093 2.473-.89 4.346-2.394 5.62-1.505 1.273-3.567 1.91-6.187 1.91-2.621-.001-4.688-.637-6.202-1.91zm8.5-3.115c.571-.581.876-1.472.913-2.672.037-1.07.056-1.836.056-2.297s-.019-1.209-.056-2.243c-.037-1.199-.342-2.09-.913-2.671-.573-.581-1.339-.872-2.298-.872-.979 0-1.754.291-2.326.872s-.877 1.472-.913 2.671a66.118 66.118 0 0 0-.028 2.243c0 .996.009 1.763.028 2.297.036 1.2.341 2.091.913 2.672.572.581 1.347.871 2.326.871.959.001 1.725-.289 2.298-.871z"/></g></svg>
