<?xml version="1.0" encoding="utf-8"?>
<!-- Generator: Adobe Illustrator 24.0.0, SVG Export Plug-In . SVG Version: 6.00 Build 0)  -->
<svg version="1.1" id="Layer_1" xmlns="http://www.w3.org/2000/svg" xmlns:xlink="http://www.w3.org/1999/xlink" x="0px" y="0px"
	 viewBox="0 0 300 90" enable-background="new 0 0 300 90" xml:space="preserve">
<g>
	<g>
		<g>
			<g>
				<path d="M34.2,17.5h9v9.1h-9V17.5z M28.9,17.4h-9V31c-1.2-0.3-2.6-0.5-4-0.5c-9.3,0-15.4,5.8-15.4,14.9
					c0,9.4,5.7,14.2,16.7,14.3c4,0,7.8-0.4,11.7-1.1C28.9,58.6,28.9,17.4,28.9,17.4z M19.9,52.4c-1,0.2-2,0.2-3.1,0.2
					c-4.6,0-7.2-2.6-7.2-7.4s2.6-7.6,7.2-7.6c1,0,2,0.1,3,0.5L19.9,52.4z"/>
				<path d="M34.2,48.6c0,7.7-0.4,10.6-1.7,13.2s-3.2,4.1-7.2,5.9l8.3,4c4-1.9,5.8-3.8,7.4-6.6c1.4-2.8,2.1-6.3,2.1-13.5V31.1h-9
					L34.2,48.6L34.2,48.6z M60.4,30.5c-4.1,0-8.2,0.8-11.9,2.7V40c3.3-1.7,6.9-2.6,10.5-2.7c2.3,0,3.1,0.6,3.1,2.3v1.9
					c-11,0.9-15.6,3.8-15.6,10c0,5.7,3.4,8.4,10.9,8.4c4.2,0,8.6-0.4,12.8-0.9V40.8c0-3.7-0.2-5.4-0.9-6.8
					C68,31.6,65.1,30.5,60.4,30.5z M62.6,53.2c-1.4,0.3-2.9,0.4-4.3,0.4c-2.5,0-3.6-0.8-3.6-2.5c0-2.4,1.9-3.3,7.9-3.9
					C62.6,47.2,62.6,53.2,62.6,53.2z M149.7,60.2c9,0,14.8-5.7,14.8-15.2c0-9-5.5-14.6-14.4-14.6c-9.1,0-14.8,5.7-14.8,15.2
					C135.3,54.5,140.8,60.2,149.7,60.2z M150,37.5c3.5,0,5.4,2.9,5.4,7.7s-2,7.7-5.5,7.7s-5.5-2.8-5.5-7.7S146.5,37.5,150,37.5
					L150,37.5z M136.2,31.8c-3.9-0.8-7.8-1.2-11.7-1.2c-13.1,0-20.6,5.7-20.6,15.8c0,8.1,5,13.3,12.8,13.3c2,0.1,4-0.4,5.7-1.2v0.2
					c0,5.7-2.5,8-8.4,8c-3.4,0-6.7-0.8-9.6-2.4v8.2c3.1,1.1,6.3,1.7,9.6,1.7c4.7,0,8.5-1,11.3-3.1c0.5-0.3,0.9-0.7,1.3-1
					c0.8-0.7,1.3-1.4,1.9-2.4c1.9-3,2.6-6.6,2.6-14.1v-2.5c-0.1-1.2-0.1-2.5-0.1-3.7l-0.1-4.8l-0.1-3.8v-0.9c1.8,0.2-0.4-0.2,2,0.2
					L136.2,31.8L136.2,31.8z M122.7,51.1v0.7c-1,0.4-2.3,0.6-3.4,0.6c-4,0-6.1-2.5-6.1-7c0-3.1,1.1-5.3,3.3-6.6
					c1.5-0.8,3.4-1.3,5.2-1.2h0.9v0.7l0.1,2.9l0.1,4.1c0,1.2,0.1,2.5,0.1,3.4L122.7,51.1z M88.8,30.5c-4.7,0.1-9.5,0.8-14,2v26.9h9
					V38.2c1.3-0.4,2.7-0.7,4.1-0.7c3.2,0,4.3,1.2,4.3,4.7v17.1h9V41.9c0-4.4-0.6-6.6-2.5-8.4C96.9,31.7,93.4,30.5,88.8,30.5
					L88.8,30.5z M223.8,45.5c0-9-5.5-14.6-14.4-14.6c-9.1,0-14.8,5.7-14.8,15.2c0,9,5.5,14.6,14.5,14.6
					C218,60.7,223.8,54.8,223.8,45.5L223.8,45.5z M203.6,45.7c0-4.9,2-7.7,5.6-7.7s5.4,2.9,5.4,7.7s-2,7.7-5.5,7.7
					S203.6,50.7,203.6,45.7L203.6,45.7z M243.9,42.8v17.1h9V42.4c0-4.4-0.6-6.6-2.5-8.4c-1.8-1.8-5.3-3.1-9.9-3.1
					c-4.7,0.1-9.5,0.8-14,2V60h9V38.8c1.3-0.4,2.7-0.7,4.1-0.6C242.7,38.1,243.9,39.4,243.9,42.8L243.9,42.8z M281,59.1
					c1.2-1.3,1.7-2.8,1.7-5.8V41.1h-6.2V53c0,2.5-0.8,3.3-3,3.3c-0.9,0-1.9-0.2-2.9-0.5V41.1h-6.1v18.7c3.2,0.8,6.4,1.3,9.8,1.3
					C277.3,61.3,279.7,60.6,281,59.1z M172,56.5c2.9,2.7,8.2,3.7,11.8,3.6c2.8,0,5.6-0.7,8.1-2v-7.2c-1.9,0.9-4.1,1.5-6.1,1.5
					c-3.5,0-9-1.3-9-7.5s5.5-7.5,9-7.5c2.1,0,4.1,0.7,5.9,1.7v-7.3c-2.5-1.1-5.1-1.7-7.8-1.7c-3.6,0-8.5,1-11.4,3.9
					c-3.1,2.8-4.9,6.8-4.9,10.9C167.1,49.2,168.8,53.5,172,56.5L172,56.5z M292.3,48.5c-1.4-0.7-1.3-1.4-1.3-1.4s0-1.2,2.5-1.2
					c1.8,0,3.6,0.5,5.2,1.2v-4.7c-1.9-0.9-4.1-1.3-6.3-1.1c-7.3,0.3-7.2,5.7-7.2,5.7c-0.2,1.4,0.4,2.9,1.3,4.1
					c1.5,1.2,3.3,2.3,5.1,2.9c1.3,0.5,1.8,1.1,1.8,1.4c0,0.3,0.2,1.3-2.5,1.3c-2-0.1-4-0.7-5.7-1.5v4.9c2.7,1,5.7,1.4,8.5,1
					c2.7-0.5,5.4-1.3,5.7-5.7C299.6,51.1,295.3,49.8,292.3,48.5L292.3,48.5z M255.1,52.7h7.2v7.2h-7.2L255.1,52.7L255.1,52.7z"/>
			</g>
		</g>
	</g>
	<g>
		<path d="M52.1,20.7c-0.1-0.1-0.2-0.3-0.2-0.5v-2.1c0-0.6,0.2-1,0.7-1.4l2.6-2.6c1.8-1.4,3.1-2.4,4.1-3.2c0.9-0.8,1.6-1.4,2.1-2.1
			c0.5-0.6,0.7-1.2,0.7-1.7C62.1,5.7,61.4,5,60,5c-0.7,0-1.3,0.2-1.7,0.7c-0.4,0.4-0.7,1-0.8,1.7c-0.1,0.4-0.4,0.7-1,0.7h-3.7
			c-0.2,0-0.3-0.1-0.4-0.2c-0.1-0.1-0.2-0.3-0.2-0.4c0-1.2,0.4-2.4,1-3.4s1.6-1.8,2.7-2.4c1.2-0.6,2.5-0.9,4-0.9
			c1.6,0,2.9,0.3,4.1,0.8s2,1.2,2.6,2.1s0.9,2,0.9,3.2c0,1.4-0.4,2.6-1.3,3.7c-0.8,1.1-2.1,2.3-3.8,3.6l-2.3,2.3h7.2
			c0.2,0,0.4,0.1,0.5,0.2S68,17,68,17.2v3c0,0.2-0.1,0.4-0.2,0.5s-0.3,0.2-0.5,0.2H52.6C52.4,21,52.2,20.9,52.1,20.7z"/>
		<path d="M72.9,19.2c-1.4-1.4-2.1-3.1-2.2-5.4c0-1-0.1-1.9-0.1-2.7s0-1.8,0.1-2.8c0.1-1.4,0.4-2.7,1.1-3.8c0.6-1.1,1.5-2,2.7-2.6
			s2.7-1,4.4-1s3.2,0.3,4.4,1c1.2,0.6,2.1,1.5,2.8,2.6s1,2.4,1.1,3.8c0,0.5,0.1,1.5,0.1,2.8s0,2.2-0.1,2.7c-0.1,2.2-0.9,4-2.2,5.4
			c-1.4,1.4-3.3,2-6,2.1C76.3,21.2,74.3,20.5,72.9,19.2z M80.9,16.1c0.4-0.6,0.7-1.4,0.7-2.4c0-0.5,0.1-1.4,0.1-2.7
			c0-1.2,0-2.1-0.1-2.6c0-1-0.3-1.8-0.7-2.4c-0.4-0.6-1.1-0.9-2-0.9c-1.7,0-2.6,1.1-2.7,3.3c0,0.5,0,1.4,0,2.6s0,2.1,0,2.7
			c0.1,2.2,1,3.3,2.7,3.3C79.8,17,80.4,16.7,80.9,16.1z"/>
		<path d="M90,20.7c-0.1-0.1-0.2-0.3-0.2-0.5v-2.1c0-0.6,0.2-1,0.7-1.4l2.6-2.6c1.8-1.4,3.1-2.4,4.1-3.2c0.9-0.8,1.6-1.4,2.1-2.1
			c0.5-0.6,0.7-1.2,0.7-1.7c0-1.4-0.7-2.1-2.1-2.1c-0.7,0-1.3,0.2-1.7,0.7c-0.4,0.4-0.7,1-0.8,1.7c-0.1,0.4-0.4,0.7-1,0.7h-3.7
			c-0.2,0-0.3-0.1-0.4-0.2c-0.1-0.1-0.2-0.3-0.2-0.4c0-1.2,0.4-2.4,1-3.4s1.6-1.8,2.7-2.4c1.2-0.6,2.5-0.9,4-0.9
			c1.6,0,2.9,0.3,4.1,0.8s2,1.2,2.6,2.1s0.9,2,0.9,3.2c0,1.4-0.4,2.6-1.3,3.7s-2.1,2.3-3.8,3.6L98,16.5h7.2c0.2,0,0.4,0.1,0.5,0.2
			s0.2,0.3,0.2,0.5v3c0,0.2-0.1,0.4-0.2,0.5s-0.3,0.2-0.5,0.2H90.4C90.3,21,90.1,20.9,90,20.7z"/>
		<path d="M110.8,19.2c-1.4-1.4-2.1-3.1-2.2-5.4c0-1-0.1-1.9-0.1-2.7s0-1.8,0.1-2.8c0.1-1.4,0.4-2.7,1.1-3.8c0.6-1.1,1.5-2,2.7-2.6
			s2.7-1,4.4-1s3.2,0.3,4.4,1c1.2,0.6,2.1,1.5,2.8,2.6s1,2.4,1.1,3.8c0,0.5,0.1,1.5,0.1,2.8s0,2.2-0.1,2.7c-0.1,2.2-0.9,4-2.2,5.4
			c-1.4,1.4-3.3,2-6,2.1C114.2,21.2,112.2,20.5,110.8,19.2z M118.7,16.1c0.4-0.6,0.7-1.4,0.7-2.4c0-0.5,0.1-1.4,0.1-2.7
			c0-1.2,0-2.1-0.1-2.6c0-1-0.3-1.8-0.7-2.4c-0.4-0.6-1.1-0.9-2-0.9c-1.7,0-2.6,1.1-2.7,3.3c0,0.5,0,1.4,0,2.6s0,2.1,0,2.7
			c0.1,2.2,1,3.3,2.7,3.3C117.7,17,118.3,16.7,118.7,16.1z"/>
	</g>
	<g>
		<path d="M139.529,88.289c-1.255-0.516-2.206-1.199-2.851-2.048c-0.646-0.849-0.988-1.772-1.025-2.768
			c0-0.166,0.059-0.305,0.18-0.415c0.12-0.111,0.263-0.166,0.429-0.166h3.682c0.222,0,0.401,0.037,0.54,0.111
			c0.138,0.074,0.29,0.203,0.457,0.388c0.24,0.442,0.613,0.807,1.121,1.093c0.507,0.287,1.186,0.429,2.035,0.429
			c0.997,0,1.762-0.152,2.298-0.456c0.534-0.305,0.802-0.725,0.802-1.26c0-0.388-0.138-0.707-0.415-0.955
			c-0.278-0.25-0.72-0.47-1.329-0.664c-0.609-0.194-1.486-0.411-2.63-0.651c-2.234-0.443-3.904-1.117-5.011-2.021
			c-1.107-0.904-1.661-2.196-1.661-3.876c0-1.144,0.318-2.164,0.955-3.059s1.541-1.592,2.713-2.091
			c1.172-0.497,2.532-0.747,4.083-0.747c1.624,0,3.032,0.282,4.222,0.844c1.19,0.563,2.103,1.264,2.74,2.104
			c0.636,0.84,0.973,1.665,1.01,2.477c0,0.166-0.055,0.309-0.166,0.429c-0.111,0.121-0.25,0.18-0.415,0.18h-3.876
			c-0.406,0-0.72-0.166-0.941-0.498c-0.111-0.388-0.397-0.715-0.859-0.983c-0.461-0.267-1.034-0.401-1.716-0.401
			c-0.775,0-1.375,0.139-1.8,0.415c-0.424,0.277-0.637,0.683-0.637,1.218c0,0.535,0.278,0.954,0.831,1.259
			c0.553,0.305,1.587,0.614,3.101,0.927c1.734,0.315,3.114,0.707,4.138,1.177c1.025,0.47,1.781,1.08,2.27,1.828
			c0.489,0.747,0.734,1.693,0.734,2.837c0,1.255-0.36,2.344-1.08,3.267c-0.719,0.924-1.716,1.629-2.989,2.118
			c-1.274,0.489-2.732,0.734-4.374,0.734C142.306,89.064,140.783,88.806,139.529,88.289z"/>
		<path d="M153.412,88.608c-0.12-0.12-0.179-0.254-0.179-0.402c0-0.111,0.009-0.194,0.027-0.249l6.451-17.746
			c0.185-0.535,0.554-0.803,1.108-0.803h4.318c0.554,0,0.923,0.268,1.108,0.803l6.451,17.746c0.018,0.055,0.028,0.138,0.028,0.249
			c0,0.148-0.06,0.282-0.18,0.402s-0.254,0.179-0.401,0.179h-3.599c-0.443,0-0.757-0.203-0.942-0.609l-0.996-2.685h-7.254
			l-0.997,2.685c-0.185,0.406-0.498,0.609-0.942,0.609h-3.598C153.666,88.788,153.531,88.728,153.412,88.608z M160.513,81.341h4.928
			l-2.464-7.06L160.513,81.341z"/>
		<path d="M175.033,88.581c-0.138-0.139-0.207-0.3-0.207-0.485V70.129c0-0.203,0.064-0.374,0.194-0.512
			c0.129-0.139,0.295-0.208,0.498-0.208h3.128c0.424,0,0.738,0.176,0.942,0.526l6.534,10.326V70.129
			c0-0.203,0.064-0.374,0.194-0.512c0.129-0.139,0.295-0.208,0.498-0.208h3.515c0.203,0,0.369,0.069,0.498,0.208
			c0.129,0.138,0.194,0.309,0.194,0.512v17.94c0,0.203-0.065,0.373-0.194,0.512c-0.129,0.138-0.296,0.207-0.498,0.207H187.2
			c-0.425,0-0.739-0.175-0.942-0.525l-6.506-9.911v9.744c0,0.204-0.069,0.369-0.207,0.498c-0.139,0.13-0.309,0.194-0.513,0.194
			h-3.515C175.333,88.788,175.171,88.718,175.033,88.581z"/>
		<path d="M200.806,88.581c-0.138-0.139-0.207-0.3-0.207-0.485V70.129c0-0.203,0.064-0.374,0.194-0.512
			c0.129-0.139,0.295-0.208,0.498-0.208h7.281c2.731,0,4.854,0.651,6.368,1.952c1.513,1.301,2.307,3.169,2.381,5.606
			c0.018,0.535,0.028,1.245,0.028,2.131s-0.01,1.588-0.028,2.104c-0.185,5.057-3.055,7.585-8.61,7.585h-7.419
			C201.106,88.788,200.945,88.718,200.806,88.581z M208.572,84.635c1.163,0,2.021-0.277,2.575-0.83
			c0.554-0.554,0.849-1.44,0.886-2.658c0.037-0.535,0.056-1.227,0.056-2.076s-0.019-1.532-0.056-2.049
			c-0.037-1.181-0.355-2.053-0.955-2.616c-0.599-0.562-1.481-0.844-2.643-0.844h-2.631v11.074H208.572z"/>
		<path d="M220.711,88.581c-0.138-0.139-0.207-0.3-0.207-0.485V70.101c0-0.203,0.069-0.369,0.207-0.498
			c0.139-0.129,0.3-0.194,0.485-0.194h3.959c0.203,0,0.369,0.065,0.498,0.194c0.129,0.13,0.194,0.296,0.194,0.498v17.995
			c0,0.185-0.065,0.346-0.194,0.485c-0.13,0.138-0.296,0.207-0.498,0.207h-3.959C221.011,88.788,220.85,88.718,220.711,88.581z"/>
		<path d="M229.82,88.581c-0.138-0.139-0.207-0.3-0.207-0.485V70.129c0-0.203,0.064-0.374,0.194-0.512
			c0.129-0.139,0.295-0.208,0.498-0.208h13.067c0.203,0,0.374,0.069,0.512,0.208c0.139,0.138,0.208,0.309,0.208,0.512v2.74
			c0,0.204-0.069,0.369-0.208,0.498c-0.138,0.13-0.309,0.194-0.512,0.194h-8.749v3.516h8.139c0.203,0,0.374,0.068,0.512,0.207
			c0.139,0.139,0.208,0.309,0.208,0.512v2.52c0,0.204-0.069,0.374-0.208,0.512c-0.138,0.139-0.309,0.208-0.512,0.208h-8.139v3.598
			h8.97c0.203,0,0.373,0.069,0.512,0.208c0.138,0.138,0.207,0.309,0.207,0.512v2.74c0,0.204-0.069,0.369-0.207,0.498
			c-0.139,0.13-0.309,0.194-0.512,0.194h-13.289C230.121,88.788,229.959,88.718,229.82,88.581z"/>
		<path d="M249.046,87.113c-1.513-1.301-2.316-3.16-2.408-5.578c-0.019-0.517-0.028-1.357-0.028-2.52
			c0-1.163,0.009-2.011,0.028-2.547c0.073-2.326,0.881-4.129,2.422-5.412c1.541-1.282,3.631-1.924,6.27-1.924
			c1.772,0,3.317,0.287,4.637,0.858c1.319,0.572,2.325,1.306,3.017,2.202c0.692,0.895,1.056,1.813,1.093,2.754
			c0,0.167-0.059,0.309-0.179,0.429c-0.121,0.121-0.263,0.18-0.429,0.18h-4.291c-0.185,0-0.328-0.032-0.429-0.096
			c-0.102-0.065-0.198-0.161-0.291-0.291c-0.221-0.516-0.577-0.96-1.065-1.329c-0.489-0.369-1.177-0.553-2.063-0.553
			c-2.141,0-3.249,1.108-3.322,3.322c-0.019,0.517-0.028,1.311-0.028,2.381c0,1.071,0.009,1.874,0.028,2.409
			c0.073,2.344,1.199,3.515,3.377,3.515c1.071,0,1.919-0.267,2.548-0.802c0.627-0.535,0.941-1.347,0.941-2.437v-0.498h-2.464
			c-0.204,0-0.374-0.069-0.512-0.207c-0.139-0.139-0.208-0.309-0.208-0.512v-2.16c0-0.203,0.069-0.373,0.208-0.512
			c0.138-0.139,0.308-0.207,0.512-0.207h7.032c0.203,0,0.374,0.068,0.512,0.207c0.139,0.139,0.208,0.309,0.208,0.512v3.212
			c0,1.569-0.365,2.921-1.094,4.055c-0.729,1.135-1.758,2.003-3.087,2.603c-1.329,0.6-2.879,0.899-4.651,0.899
			C252.654,89.064,250.56,88.415,249.046,87.113z"/>
		<path d="M269.061,87.155c-1.513-1.273-2.316-3.147-2.408-5.62c-0.019-0.517-0.028-1.31-0.028-2.381s0.009-1.874,0.028-2.409
			c0.073-2.436,0.881-4.314,2.422-5.633s3.603-1.98,6.187-1.98c2.565,0,4.619,0.661,6.16,1.98s2.348,3.197,2.422,5.633
			c0.037,1.071,0.055,1.874,0.055,2.409c0,0.553-0.018,1.347-0.055,2.381c-0.093,2.473-0.89,4.346-2.394,5.62
			c-1.505,1.273-3.567,1.91-6.187,1.91C272.642,89.064,270.575,88.428,269.061,87.155z M277.561,84.04
			c0.571-0.581,0.876-1.472,0.913-2.672c0.037-1.07,0.056-1.836,0.056-2.297s-0.019-1.209-0.056-2.243
			c-0.037-1.199-0.342-2.09-0.913-2.671c-0.573-0.581-1.339-0.872-2.298-0.872c-0.979,0-1.754,0.291-2.326,0.872
			s-0.877,1.472-0.913,2.671c-0.019,0.517-0.028,1.264-0.028,2.243c0,0.996,0.009,1.763,0.028,2.297
			c0.036,1.2,0.341,2.091,0.913,2.672c0.572,0.581,1.347,0.871,2.326,0.871C276.222,84.912,276.988,84.622,277.561,84.04z"/>
	</g>
</g>
</svg>
