<?xml version="1.0" encoding="utf-8"?>
<!-- Generator: Adobe Illustrator 25.0.0, SVG Export Plug-In . SVG Version: 6.00 Build 0)  -->
<svg version="1.1" id="Layer_1" xmlns="http://www.w3.org/2000/svg" xmlns:xlink="http://www.w3.org/1999/xlink" x="0px" y="0px"
	 viewBox="0 0 310.7 97.6" style="enable-background:new 0 0 310.7 97.6;" xml:space="preserve">
<style type="text/css">
	.st0{fill:#E99D56;}
	.st1{enable-background:new    ;}
</style>
<g>
	<rect x="35.1" y="17.5" class="st0" width="9.3" height="9.5"/>
	<path class="st0" d="M29.6,17.4h-9.3v14.1c-1.4-0.4-2.7-0.5-4.1-0.5c-9.7,0-16,6.1-16,15.5c0,9.8,5.9,14.8,17.3,14.8
		c4.1,0,8.1-0.4,12.1-1.2V17.4z M20.3,53.7c-1.1,0.2-2.1,0.2-3.2,0.2c-4.8,0-7.4-2.7-7.4-7.6s2.7-7.9,7.4-7.9c1.1,0,2.1,0.1,3.1,0.5
		L20.3,53.7z"/>
	<path class="st0" d="M35.1,49.8c0,8-0.4,11.1-1.8,13.7c-1.4,2.6-3.3,4.3-7.4,6.2l8.6,4.1c4.1-2,6.1-3.9,7.6-6.8
		c1.5-2.9,2.2-6.6,2.2-14V31.7H35L35.1,49.8L35.1,49.8z"/>
	<path class="st0" d="M62.3,31c-4.3,0-8.5,0.9-12.3,2.8v7.1c3.4-1.8,7.1-2.7,10.9-2.8c2.3,0,3.2,0.6,3.2,2.3v2
		C52.7,43.4,48,46.3,48,52.8c0,6,3.5,8.7,11.3,8.7c4.4,0,8.9-0.4,13.3-1V41.7c0-3.8-0.2-5.6-1-7C70.2,32.3,67.1,31,62.3,31z
		 M64.6,54.6c-1.5,0.3-3,0.4-4.5,0.4c-2.5,0-3.7-0.8-3.7-2.6c0-2.4,2-3.4,8.2-4l0,0V54.6z"/>
	<path class="st0" d="M155,61.8c9.4,0,15.4-6,15.4-15.7c0-9.4-5.7-15.2-15-15.2c-9.5,0-15.4,6-15.4,15.7C140,56,145.7,61.8,155,61.8
		z M155.3,38.3c3.6,0,5.6,3,5.6,8s-2.1,8-5.7,8s-5.7-2.9-5.7-8S151.6,38.3,155.3,38.3L155.3,38.3z"/>
	<path class="st0" d="M141,32.4c-4-0.9-8.1-1.3-12.1-1.3c-13.6,0-21.3,5.9-21.3,16.4c0,8.4,5.2,13.8,13.3,13.8
		c2.1,0.1,4.1-0.4,6-1.3v0.2c0,5.9-2.6,8.3-8.7,8.3c-3.5,0-6.9-0.8-10-2.4v8.5c3.2,1.2,6.6,1.8,10,1.8c4.9,0,8.8-1.1,11.7-3.2
		c0.5-0.3,1-0.7,1.4-1.1c0.8-0.7,1.4-1.5,2-2.4c2-3.1,2.7-6.8,2.7-14.7v-2.5c-0.1-1.3-0.1-2.5-0.1-3.8l-0.1-5l-0.1-3.9v-1
		c1.9,0.2-0.4-0.2,2.1,0.2L141,32.4z M127,52.6v0.7c-1.1,0.4-2.3,0.6-3.5,0.6c-4.1,0-6.4-2.6-6.4-7.2c0-3.2,1.2-5.5,3.4-6.8
		c1.6-0.9,3.5-1.4,5.4-1.3h1v0.7l0.1,3l0.1,4.2c0,1.3,0.1,2.5,0.1,3.5L127,52.6z"/>
	<path class="st0" d="M91.8,31c-4.9,0.1-9.9,0.8-14.6,2.1V61h9.3V39.1c1.4-0.4,2.8-0.7,4.3-0.7c3.3,0,4.5,1.3,4.5,4.9V61h9.3V42.9
		c0-4.6-0.6-6.8-2.5-8.7S96.6,31,91.8,31z"/>
	<path class="st0" d="M231.8,46.6c0-9.4-5.7-15.2-15-15.2c-9.5,0-15.4,6-15.4,15.7c0,9.3,5.7,15.2,15.1,15.2S231.8,56.3,231.8,46.6z
		 M210.9,46.9c0-5.1,2.1-8,5.8-8s5.6,3,5.6,8s-2.1,8-5.7,8S210.9,52,210.9,46.9z"/>
	<path class="st0" d="M252.7,43.8v17.7h9.3v-18c0-4.6-0.6-6.8-2.5-8.7c-1.9-1.9-5.5-3.2-10.3-3.2c-4.9,0.1-9.9,0.8-14.6,2.1v27.9
		h9.3v-22c1.4-0.4,2.8-0.7,4.3-0.6C251.5,39,252.7,40.3,252.7,43.8z"/>
	<path class="st0" d="M291.2,60.8c1.3-1.4,1.8-2.9,1.8-6.1V42.1h-6.5v12.3c0,2.5-0.8,3.4-3.1,3.4c-1,0-2-0.2-3-0.5V42.1H274v19.4
		c3.3,0.9,6.7,1.4,10.2,1.4C287.4,63,289.8,62.3,291.2,60.8z"/>
	<path class="st0" d="M178,58c3,2.8,8.5,3.8,12.2,3.7c2.9,0,5.8-0.7,8.4-2.1v-7.4c-2,1-4.2,1.6-6.4,1.6c-3.6,0-9.3-1.4-9.3-7.8
		s5.7-7.8,9.3-7.8c2.2,0,4.3,0.7,6.2,1.8v-7.5c-2.5-1.2-5.3-1.8-8.1-1.8c-3.7,0-8.8,1.1-11.8,4c-3.2,2.9-5.1,7-5.1,11.3
		C173.1,50.6,174.8,54.9,178,58z"/>
	<path class="st0" d="M302.9,49.7c-1.5-0.7-1.4-1.5-1.4-1.5s0-1.3,2.6-1.3c1.9,0,3.7,0.5,5.4,1.3v-4.9c-2-1-4.3-1.4-6.6-1.2
		c-7.5,0.3-7.4,6-7.4,6c-0.2,1.5,0.4,3,1.4,4.2c1.6,1.3,3.4,2.3,5.3,3c1.4,0.5,1.9,1.2,1.9,1.5s0.2,1.4-2.6,1.4
		c-2.1-0.1-4.1-0.7-6-1.6v5.1c2.8,1.1,5.9,1.5,8.8,1.1c2.8-0.5,5.6-1.4,5.9-5.9S306.1,51.2,302.9,49.7z"/>
	<rect x="264.3" y="54.2" class="st0" width="7.4" height="7.4"/>
	<g class="st1">
		<path class="st0" d="M50.8,26.8c-0.1-0.1-0.2-0.3-0.2-0.5v-2.1c0-0.6,0.2-1.1,0.8-1.5l3.1-3.1c1.8-1.4,3.2-2.5,4.1-3.3
			c0.9-0.8,1.6-1.5,2.1-2.1c0.5-0.6,0.7-1.2,0.7-1.8c0-1.6-0.8-2.4-2.3-2.4c-0.8,0-1.5,0.2-1.9,0.7c-0.4,0.5-0.7,1.1-0.9,1.8
			c-0.1,0.5-0.5,0.7-1,0.7h-3.8c-0.2,0-0.3-0.1-0.5-0.2s-0.2-0.3-0.2-0.5c0-1.3,0.4-2.5,1.1-3.5c0.7-1.1,1.6-1.9,2.9-2.6
			s2.6-0.9,4.2-0.9c1.7,0,3.1,0.3,4.3,0.8c1.2,0.5,2.1,1.3,2.7,2.3s0.9,2.1,0.9,3.4c0,1.4-0.4,2.7-1.3,3.8c-0.9,1.2-2.2,2.4-4,3.7
			L59,22.5h7.7c0.2,0,0.4,0.1,0.6,0.2c0.1,0.1,0.2,0.3,0.2,0.5v3c0,0.2-0.1,0.4-0.2,0.5S67,27,66.7,27H51.4
			C51.1,27,51,26.9,50.8,26.8z"/>
		<path class="st0" d="M72.7,25.1c-1.4-1.4-2.2-3.4-2.3-5.7c0-1.1-0.1-2-0.1-2.9c0-0.9,0-1.8,0.1-3c0.1-1.5,0.4-2.8,1.1-4
			c0.6-1.2,1.6-2.1,2.9-2.8c1.3-0.7,2.8-1,4.6-1c2.7,0,4.8,0.8,6.2,2.2c1.5,1.4,2.2,3.3,2.4,5.6c0,1.1,0.1,2.1,0.1,3
			c0,0.8,0,1.8-0.1,2.9c-0.1,2.4-0.9,4.3-2.3,5.7c-1.4,1.5-3.5,2.2-6.3,2.2C76.3,27.3,74.2,26.6,72.7,25.1z M81.2,22
			c0.5-0.6,0.8-1.6,0.8-2.7c0-0.6,0.1-1.5,0.1-2.8c0-1.3,0-2.2-0.1-2.7c0-1.1-0.3-2-0.8-2.7S80,10,79,10c-1,0-1.7,0.4-2.2,1
			s-0.8,1.6-0.8,2.7c0,0.5,0,1.5,0,2.7c0,1.3,0,2.2,0,2.8c0.1,2.5,1.1,3.7,3,3.7C80,23,80.7,22.6,81.2,22z"/>
		<path class="st0" d="M90.7,26.8c-0.1-0.1-0.2-0.3-0.2-0.5v-2.1c0-0.6,0.2-1.1,0.8-1.5l3.1-3.1c1.8-1.4,3.2-2.5,4.1-3.3
			c0.9-0.8,1.6-1.5,2.1-2.1c0.5-0.6,0.7-1.2,0.7-1.8c0-1.6-0.8-2.4-2.3-2.4c-0.8,0-1.5,0.2-1.9,0.7c-0.4,0.5-0.7,1.1-0.9,1.8
			c-0.1,0.5-0.5,0.7-1,0.7h-3.8c-0.2,0-0.3-0.1-0.5-0.2s-0.2-0.3-0.2-0.5c0-1.3,0.4-2.5,1.1-3.5c0.7-1.1,1.6-1.9,2.9-2.6
			s2.6-0.9,4.2-0.9c1.7,0,3.1,0.3,4.3,0.8c1.2,0.5,2.1,1.3,2.7,2.3s0.9,2.1,0.9,3.4c0,1.4-0.4,2.7-1.3,3.8c-0.9,1.2-2.2,2.4-4,3.7
			l-2.8,2.8h7.7c0.2,0,0.4,0.1,0.6,0.2c0.1,0.1,0.2,0.3,0.2,0.5v3c0,0.2-0.1,0.4-0.2,0.5s-0.3,0.2-0.6,0.2H91.3
			C91,27,90.9,26.9,90.7,26.8z"/>
		<path class="st0" d="M116.5,26.8c-0.2-0.2-0.2-0.3-0.2-0.5V12l-4.1,3.2c-0.1,0.1-0.3,0.2-0.5,0.2c-0.2,0-0.4-0.1-0.6-0.4l-1.8-2.3
			c-0.1-0.2-0.1-0.3-0.1-0.5c0-0.3,0.1-0.5,0.4-0.6l6.9-5.3c0.2-0.1,0.5-0.2,0.7-0.2h3.8c0.2,0,0.4,0.1,0.5,0.2
			c0.1,0.1,0.2,0.3,0.2,0.5v19.5c0,0.2-0.1,0.4-0.2,0.5c-0.1,0.1-0.3,0.2-0.5,0.2h-3.9C116.9,27,116.7,26.9,116.5,26.8z"/>
	</g>
	<g class="st1">
		<path class="st0" d="M205.2,89.9c-1.6-1.4-2.4-3.3-2.6-5.8c0-0.3,0-0.8,0-1.6s0-1.3,0-1.6c0.1-2.5,1-4.4,2.6-5.8
			c1.6-1.4,3.8-2.1,6.6-2.1c2.8,0,5,0.7,6.7,2.1c1.6,1.4,2.5,3.3,2.6,5.8c0,0.3,0,0.8,0,1.6s0,1.3,0,1.6c-0.1,2.5-1,4.4-2.6,5.8
			c-1.6,1.4-3.8,2.1-6.7,2.1C209,92,206.7,91.3,205.2,89.9z M214.1,86.8c0.5-0.6,0.8-1.6,0.8-2.9c0-0.2,0-0.7,0-1.4
			c0-0.7,0-1.2,0-1.4c-0.1-1.3-0.4-2.2-0.9-2.8s-1.3-0.9-2.3-0.9c-1.9,0-3,1.3-3.1,3.8l0,1.4l0,1.4c0,1.3,0.3,2.2,0.8,2.9
			c0.5,0.6,1.3,0.9,2.3,0.9C212.9,87.7,213.6,87.4,214.1,86.8z"/>
		<path class="st0" d="M224.9,91.4c-0.2-0.2-0.2-0.4-0.2-0.6V74.3c0-0.3,0.1-0.5,0.2-0.6c0.2-0.2,0.4-0.2,0.6-0.2h4
			c0.3,0,0.5,0.1,0.6,0.2c0.2,0.2,0.3,0.4,0.3,0.6v1.3c0.6-0.8,1.4-1.4,2.4-1.9s2.1-0.7,3.4-0.7c2.1,0,3.7,0.7,5,2.1
			c1.3,1.4,1.9,3.3,1.9,5.8v9.8c0,0.2-0.1,0.4-0.2,0.6c-0.2,0.2-0.4,0.3-0.6,0.3h-4.4c-0.2,0-0.4-0.1-0.6-0.3
			c-0.2-0.2-0.3-0.4-0.3-0.6v-9.6c0-1.1-0.3-1.9-0.8-2.5c-0.5-0.6-1.3-0.9-2.3-0.9c-1,0-1.8,0.3-2.3,0.9c-0.6,0.6-0.8,1.4-0.8,2.5
			v9.6c0,0.2-0.1,0.4-0.2,0.6s-0.4,0.3-0.6,0.3h-4.4C225.2,91.6,225,91.6,224.9,91.4z"/>
		<path class="st0" d="M247.4,91.4c-0.2-0.2-0.3-0.4-0.3-0.6V67.7c0-0.3,0.1-0.5,0.3-0.6c0.2-0.2,0.4-0.2,0.6-0.2h4.1
			c0.3,0,0.5,0.1,0.6,0.2c0.2,0.2,0.2,0.4,0.2,0.6v23.1c0,0.3-0.1,0.5-0.2,0.6c-0.2,0.2-0.4,0.2-0.6,0.2H248
			C247.8,91.6,247.6,91.5,247.4,91.4z"/>
		<path class="st0" d="M257.3,70.6c-0.2-0.2-0.2-0.4-0.2-0.6v-3.1c0-0.3,0.1-0.5,0.2-0.6c0.2-0.2,0.4-0.2,0.6-0.2h4.2
			c0.3,0,0.5,0.1,0.6,0.2c0.2,0.2,0.2,0.4,0.2,0.6v3.1c0,0.3-0.1,0.5-0.2,0.6c-0.2,0.2-0.4,0.2-0.6,0.2H258
			C257.7,70.8,257.5,70.7,257.3,70.6z M257.4,91.4c-0.2-0.2-0.2-0.4-0.2-0.6V74.3c0-0.3,0.1-0.5,0.2-0.6c0.2-0.2,0.4-0.2,0.6-0.2
			h4.1c0.3,0,0.5,0.1,0.6,0.2c0.2,0.2,0.2,0.4,0.2,0.6v16.5c0,0.2-0.1,0.4-0.2,0.6c-0.2,0.2-0.4,0.3-0.6,0.3H258
			C257.8,91.6,257.5,91.6,257.4,91.4z"/>
		<path class="st0" d="M267.4,91.4c-0.2-0.2-0.2-0.4-0.2-0.6V74.3c0-0.3,0.1-0.5,0.2-0.6c0.2-0.2,0.4-0.2,0.6-0.2h4
			c0.3,0,0.5,0.1,0.6,0.2c0.2,0.2,0.3,0.4,0.3,0.6v1.3c0.6-0.8,1.4-1.4,2.4-1.9c1-0.5,2.1-0.7,3.4-0.7c2.1,0,3.7,0.7,5,2.1
			c1.3,1.4,1.9,3.3,1.9,5.8v9.8c0,0.2-0.1,0.4-0.2,0.6c-0.2,0.2-0.4,0.3-0.6,0.3h-4.4c-0.2,0-0.4-0.1-0.6-0.3s-0.3-0.4-0.3-0.6v-9.6
			c0-1.1-0.3-1.9-0.8-2.5c-0.5-0.6-1.3-0.9-2.3-0.9c-1,0-1.8,0.3-2.3,0.9c-0.6,0.6-0.8,1.4-0.8,2.5v9.6c0,0.2-0.1,0.4-0.2,0.6
			c-0.2,0.2-0.4,0.3-0.6,0.3H268C267.8,91.6,267.6,91.6,267.4,91.4z"/>
		<path class="st0" d="M291.4,89.7c-1.6-1.5-2.5-3.7-2.5-6.6v-1.2c0.1-2.8,1-4.9,2.6-6.5s3.8-2.3,6.5-2.3c2,0,3.7,0.4,5,1.2
			c1.4,0.8,2.4,1.9,3.1,3.3c0.7,1.4,1,3,1,4.8v0.8c0,0.2-0.1,0.4-0.2,0.6c-0.2,0.2-0.4,0.3-0.6,0.3h-11.2v0.2c0,1.1,0.3,2,0.8,2.7
			c0.5,0.7,1.2,1,2.1,1c0.6,0,1.1-0.1,1.4-0.4c0.4-0.2,0.7-0.5,1-0.9c0.2-0.3,0.4-0.4,0.5-0.5c0.1-0.1,0.3-0.1,0.6-0.1h4.3
			c0.2,0,0.4,0.1,0.5,0.2c0.2,0.1,0.2,0.3,0.2,0.5c0,0.6-0.3,1.3-1,2.1c-0.7,0.8-1.7,1.5-3,2.1s-2.8,0.9-4.6,0.9
			C295.3,92,293,91.2,291.4,89.7z M301,80.7L301,80.7c0-1.2-0.3-2.1-0.8-2.8c-0.5-0.7-1.3-1-2.2-1c-0.9,0-1.6,0.3-2.2,1
			c-0.5,0.7-0.8,1.6-0.8,2.7v0.1H301z"/>
	</g>
</g>
</svg>
