<?xml version="1.0" encoding="utf-8"?>
<!-- Generator: Adobe Illustrator 25.0.0, SVG Export Plug-In . SVG Version: 6.00 Build 0)  -->
<svg version="1.1" id="Layer_1" xmlns="http://www.w3.org/2000/svg" xmlns:xlink="http://www.w3.org/1999/xlink" x="0px" y="0px"
	 viewBox="0 0 310.7 97.6" style="enable-background:new 0 0 310.7 97.6;" xml:space="preserve">
<style type="text/css">
	.st0{fill:#E99D56;}
	.st1{font-family:'RobotoCondensed-Bold';}
	.st2{font-size:30px;}
	.st3{font-family:'RobotoCondensed-Regular';}
	.st4{font-size:35px;}
</style>
<rect x="34.9" y="15.5" class="st0" width="9.3" height="9.5"/>
<path class="st0" d="M29.4,15.4h-9.3v14.1C18.7,29.1,17.4,29,16,29C6.3,29,0,35.1,0,44.5c0,9.8,5.9,14.8,17.3,14.8
	c4.1,0,8.1-0.4,12.1-1.2V15.4z M20.1,51.7c-1.1,0.2-2.1,0.2-3.2,0.2c-4.8,0-7.4-2.7-7.4-7.6s2.7-7.9,7.4-7.9c1.1,0,2.1,0.1,3.1,0.5
	L20.1,51.7z"/>
<path class="st0" d="M34.9,47.8c0,8-0.4,11.1-1.8,13.7s-3.3,4.3-7.4,6.2l8.6,4.1c4.1-2,6.1-3.9,7.6-6.8s2.2-6.6,2.2-14V29.7h-9.3
	V47.8z"/>
<path class="st0" d="M62.1,29c-4.3,0-8.5,0.9-12.3,2.8v7.1c3.4-1.8,7.1-2.7,10.9-2.8c2.3,0,3.2,0.6,3.2,2.3v2
	c-11.4,1-16.1,3.9-16.1,10.4c0,6,3.5,8.7,11.3,8.7c4.4,0,8.9-0.4,13.3-1V39.7c0-3.8-0.2-5.6-1-7C70,30.3,66.9,29,62.1,29z
	 M64.4,52.6c-1.5,0.3-3,0.4-4.5,0.4c-2.5,0-3.7-0.8-3.7-2.6c0-2.4,2-3.4,8.2-4l0,0V52.6z"/>
<path class="st0" d="M154.8,59.8c9.4,0,15.4-6,15.4-15.7c0-9.4-5.7-15.2-15-15.2c-9.5,0-15.4,6-15.4,15.7
	C139.8,54,145.5,59.8,154.8,59.8z M155.1,36.3c3.6,0,5.6,3,5.6,8s-2.1,8-5.7,8s-5.7-2.9-5.7-8S151.4,36.3,155.1,36.3L155.1,36.3z"/>
<path class="st0" d="M140.8,30.4c-4-0.9-8.1-1.3-12.1-1.3c-13.6,0-21.3,5.9-21.3,16.4c0,8.4,5.2,13.8,13.3,13.8
	c2.1,0.1,4.1-0.4,6-1.3v0.2c0,5.9-2.6,8.3-8.7,8.3c-3.5,0-6.9-0.8-10-2.4v8.5c3.2,1.2,6.6,1.8,10,1.8c4.9,0,8.8-1.1,11.7-3.2
	c0.5-0.3,1-0.7,1.4-1.1c0.8-0.7,1.4-1.5,2-2.4c2-3.1,2.7-6.8,2.7-14.7v-2.5c-0.1-1.3-0.1-2.5-0.1-3.8l-0.1-5l-0.1-3.9v-1
	c1.9,0.2-0.4-0.2,2.1,0.2L140.8,30.4z M126.8,50.6v0.7c-1.1,0.4-2.3,0.6-3.5,0.6c-4.1,0-6.4-2.6-6.4-7.2c0-3.2,1.2-5.5,3.4-6.8
	c1.6-0.9,3.5-1.4,5.4-1.3h1v0.7l0.1,3l0.1,4.2c0,1.3,0.1,2.5,0.1,3.5L126.8,50.6z"/>
<path class="st0" d="M91.6,29c-4.9,0.1-9.9,0.8-14.6,2.1V59h9.3V37.1c1.4-0.4,2.8-0.7,4.3-0.7c3.3,0,4.5,1.3,4.5,4.9V59h9.3V40.9
	c0-4.6-0.6-6.8-2.5-8.7S96.4,29,91.6,29z"/>
<path class="st0" d="M231.6,44.6c0-9.4-5.7-15.2-15-15.2c-9.5,0-15.4,6-15.4,15.7c0,9.3,5.7,15.2,15.1,15.2S231.6,54.3,231.6,44.6z
	 M210.7,44.9c0-5.1,2.1-8,5.8-8s5.6,3,5.6,8s-2.1,8-5.7,8S210.7,50,210.7,44.9z"/>
<path class="st0" d="M252.5,41.8v17.7h9.3V41.5c0-4.6-0.6-6.8-2.5-8.7s-5.5-3.2-10.3-3.2c-4.9,0.1-9.9,0.8-14.6,2.1v27.9h9.3V37.6
	c1.4-0.4,2.8-0.7,4.3-0.6C251.3,37,252.5,38.3,252.5,41.8z"/>
<path class="st0" d="M291,58.8c1.3-1.4,1.8-2.9,1.8-6.1V40.1h-6.5v12.3c0,2.5-0.8,3.4-3.1,3.4c-1,0-2-0.2-3-0.5V40.1h-6.4v19.4
	c3.3,0.9,6.7,1.4,10.2,1.4C287.2,61,289.6,60.3,291,58.8z"/>
<path class="st0" d="M177.8,56c3,2.8,8.5,3.8,12.2,3.7c2.9,0,5.8-0.7,8.4-2.1v-7.4c-2,1-4.2,1.6-6.4,1.6c-3.6,0-9.3-1.4-9.3-7.8
	s5.7-7.8,9.3-7.8c2.2,0,4.3,0.7,6.2,1.8v-7.5c-2.5-1.2-5.3-1.8-8.1-1.8c-3.7,0-8.8,1.1-11.8,4c-3.2,2.9-5.1,7-5.1,11.3
	C172.9,48.6,174.6,52.9,177.8,56z"/>
<path class="st0" d="M302.7,47.7c-1.5-0.7-1.4-1.5-1.4-1.5s0-1.3,2.6-1.3c1.9,0,3.7,0.5,5.4,1.3v-4.9c-2-1-4.3-1.4-6.6-1.2
	c-7.5,0.3-7.4,6-7.4,6c-0.2,1.5,0.4,3,1.4,4.2c1.6,1.3,3.4,2.3,5.3,3c1.4,0.5,1.9,1.2,1.9,1.5s0.2,1.4-2.6,1.4
	c-2.1-0.1-4.1-0.7-6-1.6v5.1c2.8,1.1,5.9,1.5,8.8,1.1c2.8-0.5,5.6-1.4,5.9-5.9S305.9,49.2,302.7,47.7z"/>
<rect x="264.1" y="52.2" class="st0" width="7.4" height="7.4"/>
<text transform="matrix(1 0 0 1 49.15 24)" class="st0 st1 st2">2021</text>
<text transform="matrix(1 0 0 1 227.9741 89.6253)" class="st0 st3 st4">online</text>
</svg>
