<svg width="64" height="80" xmlns="http://www.w3.org/2000/svg"><g fill="#338DC1" stroke="#338DC1" stroke-width="5" fill-rule="evenodd" stroke-linecap="round"><path d="M31.882 74.573l-4.44-7.787L23 59h17.764l-4.441 7.786z"/><path d="M61.18 32.449c0 16.264-13.024 29.449-29.09 29.449C16.024 61.898 3 48.713 3 32.448 3 16.186 16.024 3 32.09 3c16.066 0 29.09 13.185 29.09 29.449zM32.5 43.019c5.799 0 10.5-4.705 10.5-10.51C43 26.707 38.299 22 32.5 22S22 26.706 22 32.51c0 5.804 4.701 10.51 10.5 10.51z"/></g></svg>