<svg id="Layer_1" data-name="Layer 1" xmlns="http://www.w3.org/2000/svg" viewBox="0 0 100 100"><title>megaphone</title><path d="M71.62,9.87a1.53,1.53,0,0,0-1.41-.13L51,17.82H27.74a24.56,24.56,0,0,0-1,49.1L34,84.62a9.24,9.24,0,0,0,12.09,5.06,3.55,3.55,0,0,0,2-1.94A3.62,3.62,0,0,0,48,85l-7.4-18H51L70.21,75a1.43,1.43,0,0,0,.58.12,1.47,1.47,0,0,0,.83-.25,1.5,1.5,0,0,0,.67-1.25V11.12A1.5,1.5,0,0,0,71.62,9.87ZM45.24,86.12a.59.59,0,0,1,0,.46.61.61,0,0,1-.33.33,6.28,6.28,0,0,1-8.18-3.43L30,66.94h7.42Zm4.57-22.18H27.74a21.56,21.56,0,0,1,0-43.12H49.81Zm19.48,7.44L52.81,64.44V20.33l16.48-6.95Z" fill="#430632"/><path d="M95.32,44.43H82.16a1.5,1.5,0,0,1,0-3H95.32a1.5,1.5,0,0,1,0,3Z" fill="#430632"/><path d="M92.65,56.76a1.55,1.55,0,0,1-.56-.11L79.88,51.74A1.5,1.5,0,1,1,81,49l12.21,4.91a1.5,1.5,0,0,1-.56,2.89Z" fill="#430632"/><path d="M80.44,37a1.51,1.51,0,0,1-.56-2.9l12.21-4.91A1.5,1.5,0,0,1,93.21,32L81,36.91A1.64,1.64,0,0,1,80.44,37Z" fill="#430632"/></svg>