<svg data-name="Layer 1" xmlns="http://www.w3.org/2000/svg" viewBox="0 0 100 100"><path d="M70 12.5v60.6c0 .3.2-.6 0-.4-1 1-.9 0-1 0L52.1 66H37.9l7.6 18.3c.3.7.8 2.7.5 3.4s-1.4.1-2.1.4a8.7 8.7 0 0 1-3.2.6c-3.4 0-4.4-2.8-5.7-6l-7-17C16 64.8 4.2 55 4.2 42.8a23.2 23.2 0 0 1 23.2-23.2h22.7l18.7-7.9a.8.8 0 0 1 .8.1.7.7 0 0 1 .4.7z" fill="#c4b8db"/><path d="M71.3 10.4a1 1 0 0 0-.9-.1l-19.3 8.1H27.7a24 24 0 0 0-.6 47.9l7.4 18.1a8.8 8.8 0 0 0 8.1 5.4 7.4 7.4 0 0 0 3.2-.7 3.3 3.3 0 0 0 1.7-1.6 3 3 0 0 0 0-2.3l-7.8-18.9h11.4l19.3 8.2h.9a1.2 1.2 0 0 0 .4-.8V11.1a.8.8 0 0 0-.4-.7zM45.8 85.9a1.2 1.2 0 0 1-.7 1.6 6.9 6.9 0 0 1-8.9-3.8l-7.1-17.4h8.7zm4.6-21.4H27.7a22.2 22.2 0 0 1 0-44.3h22.7zm19.5 7.8l-17.7-7.5V19.9l17.7-7.4zM95.3 43.8H82.2a.9.9 0 1 1 0-1.8h13.1a.9.9 0 1 1 0 1.8zM92.7 56.2h-.4l-12.2-5a.9.9 0 0 1-.5-1.2 1 1 0 0 1 1.2-.5L93 54.4a1 1 0 0 1 .5 1.2c-.2.3-.5.6-.8.6zM80.4 36.4a.9.9 0 0 1-.3-1.7l12.2-4.9a.9.9 0 0 1 1.2.5.9.9 0 0 1-.5 1.1l-12.2 5z" fill="#171d2f"/></svg>
