<svg xmlns="http://www.w3.org/2000/svg" viewBox="0 0 100 100"><path d="M71.3 10.4c-.3-.2-.6-.2-.9-.1l-19.3 8.1H27.7c-13.2.7-23.4 12-22.8 25.2.6 12.1 10.1 21.8 22.2 22.7l7.4 18.1c1.4 3.3 4.6 5.4 8.1 5.4 1.1 0 2.2-.2 3.2-.7.7-.3 1.3-.9 1.7-1.6.3-.7.3-1.6 0-2.3l-7.8-18.9h11.4l19.3 8.2h.9c.2-.2.4-.5.4-.8V11.1c0-.3-.2-.6-.4-.7zM45.8 85.9c.3.6 0 1.3-.6 1.6h-.1c-3.5 1.4-7.5-.3-8.9-3.8l-7.1-17.4h8.7l8 19.6zm4.6-21.4H27.7C15.5 63.7 6.2 53.1 7 40.9c.7-11.1 9.6-19.9 20.7-20.7h22.7v44.3zm19.5 7.8l-17.7-7.5V19.9l17.7-7.4v59.8zm25.4-28.5H82.2c-.5 0-.9-.4-.9-.9s.4-.9.9-.9h13.1c.5 0 .9.4.9.9s-.4.9-.9.9zm-2.6 12.4h-.4l-12.2-5c-.5-.2-.7-.7-.5-1.2.2-.4.7-.7 1.2-.5L93 54.4c.4.2.7.7.5 1.2-.2.3-.5.6-.8.6zM80.4 36.4c-.5-.1-.8-.5-.8-1 0-.3.2-.6.5-.7l12.2-4.9c.5-.2 1 0 1.2.5.1.4-.1.9-.5 1.1l-12.2 5h-.4z" fill="#171d2f"/></svg>