<svg viewBox="0 0 100 100" xmlns="http://www.w3.org/2000/svg"><path d="m71.3 10.4c-.3-.2-.6-.2-.9-.1l-19.3 8.1h-23.4c-13.2.7-23.4 12-22.8 25.2.6 12.1 10.1 21.8 22.2 22.7l7.4 18.1c1.4 3.3 4.6 5.4 8.1 5.4 1.1 0 2.2-.2 3.2-.7.7-.3 1.3-.9 1.7-1.6.3-.7.3-1.6 0-2.3l-7.8-18.9h11.4l19.3 8.2h.9c.2-.2.4-.5.4-.8v-62.6c0-.3-.2-.6-.4-.7zm-25.5 75.5c.3.6 0 1.3-.6 1.6h-.1c-3.5 1.4-7.5-.3-8.9-3.8l-7.1-17.4h8.7zm4.6-21.4h-22.7c-12.2-.8-21.5-11.4-20.7-23.6.7-11.1 9.6-19.9 20.7-20.7h22.7zm19.5 7.8-17.7-7.5v-44.9l17.7-7.4zm25.4-28.5h-13.1c-.5 0-.9-.4-.9-.9s.4-.9.9-.9h13.1c.5 0 .9.4.9.9s-.4.9-.9.9zm-2.6 12.4h-.4l-12.2-5c-.5-.2-.7-.7-.5-1.2.2-.4.7-.7 1.2-.5l12.2 4.9c.4.2.7.7.5 1.2-.2.3-.5.6-.8.6zm-12.3-19.8c-.5-.1-.8-.5-.8-1 0-.3.2-.6.5-.7l12.2-4.9c.5-.2 1 0 1.2.5.1.4-.1.9-.5 1.1l-12.2 5z" fill="#171d2f"/></svg>