<svg viewBox="0 0 100 100" xmlns="http://www.w3.org/2000/svg"><g fill="#430632"><path d="m50 92.11a42.11 42.11 0 1 1 42.11-42.11 42.16 42.16 0 0 1 -42.11 42.11zm0-81.22a39.11 39.11 0 1 0 39.11 39.11 39.15 39.15 0 0 0 -39.11-39.11z"/><path d="m62.82 61.81c0 6.49-4.27 11.09-10.89 11.78v6a1 1 0 0 1 -1.06 1h-1.09a1 1 0 0 1 -1.05-1v-6a20.07 20.07 0 0 1 -11.19-5 1.05 1.05 0 0 1 -.14-1.42l.72-.93a1 1 0 0 1 1.52-.15 16.23 16.23 0 0 0 10.6 4.33c5.56 0 8.89-3.14 8.89-8.41 0-6.75-4.83-9.18-10-11.76s-10.39-5.25-10.39-12.62a11.06 11.06 0 0 1 10-11.2v-6a1 1 0 0 1 1.05-1.05h1.09a1.06 1.06 0 0 1 1.06 1.05v5.94a13.79 13.79 0 0 1 9.06 4.55 1 1 0 0 1 0 1.46l-.77.81a1.08 1.08 0 0 1 -1.51 0c-2.46-2.36-4.52-3.64-8.36-3.64a7.65 7.65 0 0 0 -8 7.87c0 5.61 4.38 7.76 9 10 5.42 2.66 11.46 5.58 11.46 14.39z"/></g></svg>