<svg id="Layer_1" data-name="Layer 1" xmlns="http://www.w3.org/2000/svg" viewBox="0 0 100 100"><title>money</title><path d="M50,92.11A42.11,42.11,0,1,1,92.11,50,42.16,42.16,0,0,1,50,92.11Zm0-81.22A39.11,39.11,0,1,0,89.11,50,39.15,39.15,0,0,0,50,10.89Z" fill="#430632"/><path d="M62.82,61.81c0,6.49-4.27,11.09-10.89,11.78v6a1,1,0,0,1-1.06,1H49.78a1,1,0,0,1-1.05-1v-6a20.07,20.07,0,0,1-11.19-5,1.05,1.05,0,0,1-.14-1.42l.72-.93a1,1,0,0,1,1.52-.15,16.23,16.23,0,0,0,10.6,4.33c5.56,0,8.89-3.14,8.89-8.41,0-6.75-4.83-9.18-10-11.76S38.74,45,38.74,37.63a11.06,11.06,0,0,1,10-11.2v-6a1,1,0,0,1,1.05-1.05h1.09a1.06,1.06,0,0,1,1.06,1.05v5.94A13.79,13.79,0,0,1,61,30.92a1,1,0,0,1,0,1.46l-.77.81a1.08,1.08,0,0,1-1.51,0c-2.46-2.36-4.52-3.64-8.36-3.64a7.65,7.65,0,0,0-8,7.87c0,5.61,4.38,7.76,9,10C56.78,50.08,62.82,53,62.82,61.81Z" fill="#430632"/></svg>