<svg viewBox="0 0 100 100" xmlns="http://www.w3.org/2000/svg"><g fill="#1e1e1e"><path d="m50 13.8c-19.9 0-36.2 16.2-36.2 36.2s16.3 36.2 36.2 36.2 36.2-16.2 36.2-36.2-16.3-36.2-36.2-36.2zm0 70.6c-19 0-34.4-15.4-34.4-34.4s15.4-34.4 34.4-34.4 34.4 15.4 34.4 34.4-15.4 34.4-34.4 34.4z"/><path d="m68.3 31.7c-.9-.9-2.2-1-3.3-.4l-19.7 11c-.7.4-1.1 1-1.2 1.7v.1h-.1c-.7.1-1.4.5-1.7 1.2l-11 19.7c-.7 1.2-.5 2.5.4 3.3.5.5 1.2.8 1.9.8.5 0 1-.1 1.5-.4l19.8-11c.6-.4 1.1-1 1.2-1.7v-.1h-.1c.7-.1 1.4-.5 1.7-1.2l11-19.7c.6-1.1.5-2.4-.4-3.3zm-14.1 24.1c0 .1-.1.3-.3.4l-19.7 11c-.4.2-.9.2-1.2-.1s-.3-.7-.1-1.2l11-19.7c.1-.2.3-.3.4-.3h.1c.1 0 .2 0 .4.2l9.3 9.3c.1.1.1.2.1.4zm12.9-21.7-11 19.7c-.1.2-.3.3-.4.3s-.3 0-.5-.2l-9.2-9.2c-.2-.2-.2-.4-.2-.5s.1-.3.3-.4l19.7-11c.4-.2.9-.2 1.2.1.3.4.4.8.1 1.2z"/></g></svg>