<svg data-name="Layer 1" xmlns="http://www.w3.org/2000/svg" viewBox="0 0 100 100"><circle cx="49.8" cy="50.3" r="35.2" fill="#c4b8db"/><path d="M50 13.8A36.2 36.2 0 1 0 86.2 50 36.3 36.3 0 0 0 50 13.8zm0 70.6A34.4 34.4 0 1 1 84.4 50 34.4 34.4 0 0 1 50 84.4z" fill="#171d2f"/><path d="M68.3 31.7a2.7 2.7 0 0 0-3.3-.4l-19.8 11a2.3 2.3 0 0 0-1.1 1.7H44a2.3 2.3 0 0 0-1.7 1.1L31.3 65a2.7 2.7 0 0 0 3.7 3.7l19.8-11a2.3 2.3 0 0 0 1.1-1.7h.1a2.3 2.3 0 0 0 1.7-1.1l11-19.9a2.7 2.7 0 0 0-.4-3.3zM54.2 55.8c-.1 0-.1.2-.3.3l-19.8 11a.9.9 0 0 1-1.2-1.2l10.9-19.8c.2-.2.4-.2.4-.3h.1l.4.2 9.3 9.3a.6.6 0 0 1 .2.5zm12.9-21.7l-11 19.8c-.1.2-.3.2-.3.3a.6.6 0 0 1-.5-.2L46 44.7a.6.6 0 0 1-.2-.5l.3-.4 19.8-10.9a.9.9 0 0 1 1.2 1.2z" fill="#171d2f"/></svg>