<svg viewBox="0 0 100 100" xmlns="http://www.w3.org/2000/svg"><circle cx="49.8" cy="50.3" fill="#c4b8db" r="35.2"/><g fill="#171d2f"><path d="m50 13.8a36.2 36.2 0 1 0 36.2 36.2 36.3 36.3 0 0 0 -36.2-36.2zm0 70.6a34.4 34.4 0 1 1 34.4-34.4 34.4 34.4 0 0 1 -34.4 34.4z"/><path d="m68.3 31.7a2.7 2.7 0 0 0 -3.3-.4l-19.8 11a2.3 2.3 0 0 0 -1.1 1.7h-.1a2.3 2.3 0 0 0 -1.7 1.1l-11 19.9a2.7 2.7 0 0 0 3.7 3.7l19.8-11a2.3 2.3 0 0 0 1.1-1.7h.1a2.3 2.3 0 0 0 1.7-1.1l11-19.9a2.7 2.7 0 0 0 -.4-3.3zm-14.1 24.1c-.1 0-.1.2-.3.3l-19.8 11a.9.9 0 0 1 -1.2-1.2l10.9-19.8c.2-.2.4-.2.4-.3h.1l.4.2 9.3 9.3a.6.6 0 0 1 .2.5zm12.9-21.7-11 19.8c-.1.2-.3.2-.3.3a.6.6 0 0 1 -.5-.2l-9.3-9.3a.6.6 0 0 1 -.2-.5l.3-.4 19.8-10.9a.9.9 0 0 1 1.2 1.2z"/></g></svg>