<svg viewBox="0 0 100 100" xmlns="http://www.w3.org/2000/svg"><path d="m75.87 46.23a16.55 16.55 0 1 0 -15.74 0 28.61 28.61 0 0 0 -17.92 15.24 25.39 25.39 0 0 0 -5.78-2.58 14.89 14.89 0 1 0 -14.86 0 25.43 25.43 0 0 0 -18.12 24.44 1.54 1.54 0 0 0 1.55 1.55h48a1.55 1.55 0 0 0 1.55-1.55 25.29 25.29 0 0 0 -1.32-8.11h41.77a1.56 1.56 0 0 0 1.55-1.55 28.75 28.75 0 0 0 -20.68-27.44zm-7.87-28.01a13.45 13.45 0 1 1 -13.45 13.45 13.47 13.47 0 0 1 13.45-13.45zm-50.78 27.78a11.78 11.78 0 1 1 11.78 11.78 11.79 11.79 0 0 1 -11.78-11.78zm-10.62 35.78a22.45 22.45 0 0 1 44.79 0zm45.4-9.66a25.55 25.55 0 0 0 -7.16-8.86 25.44 25.44 0 0 1 48.56 8.86z" fill="#430632"/></svg>