<svg data-name="Layer 1" xmlns="http://www.w3.org/2000/svg" viewBox="0 0 100 100"><path d="M94.9 72.8c0 .5-1.4.9-1.9.9H51.7a23.2 23.2 0 0 1 1.5 8.4.9.9 0 0 1-.8.9H5.9a.9.9 0 0 1-.9-.9c0-11.4 9-20 19.7-22.4-4.9-2.1-9.4-8-9.4-13.7a13.8 13.8 0 1 1 27.6 0c0 5.7-4.4 11.6-9.4 13.7 2.8.6 7.4 1.7 9.7 3.2a30 30 0 0 1 19.9-16.5 15.4 15.4 0 0 1-9.6-14.2c0-8.5 4.9-15.4 13.4-15.4a15.4 15.4 0 0 1 5.8 29.6c12.1 2.7 22.2 13.5 22.2 26.4z" fill="#f7b07c"/><path d="M73.9 46.4a15.9 15.9 0 1 0-11.8 0 27.9 27.9 0 0 0-19.6 16 25 25 0 0 0-7.9-3.3 14.2 14.2 0 1 0-11.2 0A24.8 24.8 0 0 0 4.1 83.3a.9.9 0 0 0 .9.9h48a.9.9 0 0 0 .9-.9 25.3 25.3 0 0 0-1.6-8.7H95a.9.9 0 0 0 .9-.9 27.9 27.9 0 0 0-22-27.3zm-20-14.7A14.1 14.1 0 1 1 68 45.8a14.1 14.1 0 0 1-14.1-14.1zM16.6 46A12.4 12.4 0 1 1 29 58.4 12.3 12.3 0 0 1 16.6 46zM5.9 82.4a23.1 23.1 0 0 1 46.2 0zm45.6-9.6a24.4 24.4 0 0 0-7.5-9.3 26.1 26.1 0 0 1 50.1 9.3z" fill="#171d2f"/></svg>