<?xml version="1.0" encoding="utf-8"?>
<!-- Generator: Adobe Illustrator 23.0.2, SVG Export Plug-In . SVG Version: 6.00 Build 0)  -->
<svg version="1.1" id="Layer_1" xmlns="http://www.w3.org/2000/svg" xmlns:xlink="http://www.w3.org/1999/xlink" x="0px" y="0px"
	 viewBox="0 0 100 100" style="enable-background:new 0 0 100 100;" xml:space="preserve">
<style type="text/css">
	.st0{fill:#F7B07C;}
	.st1{fill:#171D2F;}
</style>
<title>people</title>
<g>
	<path class="st0" d="M94.59,73.42c0,0.48-0.99,0.09-1.47,0.09l-41.63,0.2c0.99,2.69,1.94,6.19,1.94,9.22
		c0,0.49-0.39,0.89-0.87,0.89H6.21c-0.48,0-0.87-0.39-0.87-0.89c0-11.62,9.17-21.37,19.83-23.88c-4.9-2.15-9.52-7.1-9.52-12.87
		c0-7.73,6.16-13.01,13.74-13.01s12.74,5.28,12.74,13.01c0,5.77-4.83,10.72-9.72,12.87c2.74,0.65,7.71,2.97,10.01,4.5
		c3.43-7.92,12.41-15.08,20.89-16.96c-5.63-2.32-9.81-7.95-9.81-14.51c0-8.63,5.49-15.25,13.95-15.25S82.4,23.43,82.4,32.07
		c0,6.56-3.98,12.19-9.61,14.51C84.9,49.28,94.59,60.28,94.59,73.42z"/>
	<g>
		<path class="st1" d="M73.95,46.41c5.83-2.36,9.95-8.08,9.95-14.74c0-8.77-7.13-15.9-15.9-15.9s-15.9,7.13-15.9,15.9
			c0,6.66,4.12,12.38,9.95,14.74c-8.78,1.91-16.01,7.97-19.56,16.01c-2.38-1.55-5.04-2.69-7.88-3.35c5.07-2.18,8.62-7.21,8.62-13.07
			c0-7.85-6.38-14.23-14.23-14.23S14.77,38.15,14.77,46c0,5.86,3.55,10.89,8.62,13.07C12.35,61.62,4.1,71.53,4.1,83.33
			c0,0.5,0.4,0.9,0.9,0.9h48c0.5,0,0.9-0.4,0.9-0.9c0-3.08-0.56-6.03-1.59-8.76H95c0.5,0,0.9-0.41,0.9-0.9
			C95.9,60.32,86.49,49.15,73.95,46.41z M53.9,31.67c0-7.78,6.33-14.1,14.1-14.1s14.1,6.32,14.1,14.1c0,7.77-6.33,14.1-14.1,14.1
			S53.9,39.44,53.9,31.67z M16.57,46c0-6.86,5.57-12.43,12.43-12.43S41.43,39.14,41.43,46S35.86,58.43,29,58.43
			S16.57,52.86,16.57,46z M5.92,82.43C6.39,70.11,16.56,60.23,29,60.23s22.61,9.88,23.08,22.2H5.92z M51.54,72.77
			c-1.72-3.68-4.33-6.88-7.55-9.31C47.97,54.13,57.23,47.57,68,47.57c14.09,0,25.61,11.22,26.08,25.2H51.54z"/>
	</g>
</g>
</svg>
