<svg id="Layer_1" data-name="Layer 1" xmlns="http://www.w3.org/2000/svg" viewBox="0 0 100 100"><title>people</title><path d="M75.87,46.23a16.55,16.55,0,1,0-15.74,0A28.61,28.61,0,0,0,42.21,61.47a25.39,25.39,0,0,0-5.78-2.58,14.89,14.89,0,1,0-14.86,0A25.43,25.43,0,0,0,3.45,83.33,1.54,1.54,0,0,0,5,84.88H53a1.55,1.55,0,0,0,1.55-1.55,25.29,25.29,0,0,0-1.32-8.11H95a1.56,1.56,0,0,0,1.55-1.55A28.75,28.75,0,0,0,75.87,46.23ZM68,18.22A13.45,13.45,0,1,1,54.55,31.67,13.47,13.47,0,0,1,68,18.22ZM17.22,46A11.78,11.78,0,1,1,29,57.78,11.79,11.79,0,0,1,17.22,46ZM6.6,81.78a22.45,22.45,0,0,1,44.79,0ZM52,72.12a25.55,25.55,0,0,0-7.16-8.86A25.44,25.44,0,0,1,93.4,72.12Z" fill="#430632"/></svg>