<svg viewBox="0 0 100 100" xmlns="http://www.w3.org/2000/svg"><path d="m80.8 13.9v72.4a.8.8 0 0 1 -.8.8h-59.9a.9.9 0 0 1 -.8-.8v-72.4a.9.9 0 0 1 .8-.9h59.9a.8.8 0 0 1 .8.9z" fill="#f7b07c"/><g fill="#171d2f"><path d="m81.3 88.2h-62.6a.9.9 0 0 1 -.9-.9v-74.6a.9.9 0 0 1 .9-.9h62.6a.9.9 0 0 1 .9.9v74.6a.9.9 0 0 1 -.9.9zm-61.7-1.7h60.8v-73h-60.8z"/><path d="m73.2 29.1h-46.4a.9.9 0 0 1 -.9-.9.8.8 0 0 1 .9-.8h46.4a.8.8 0 0 1 .9.8.9.9 0 0 1 -.9.9zm0 14.5h-46.4a.9.9 0 0 1 -.9-.9.9.9 0 0 1 .9-.8h46.4a.9.9 0 0 1 .9.8.9.9 0 0 1 -.9.9zm0 14.5h-46.4a.9.9 0 0 1 -.9-.8.9.9 0 0 1 .9-.9h46.4a.9.9 0 0 1 .9.9.9.9 0 0 1 -.9.8zm0 14.5h-46.4a.8.8 0 0 1 -.9-.8.9.9 0 0 1 .9-.9h46.4a.9.9 0 0 1 .9.9.8.8 0 0 1 -.9.8z"/></g></svg>