<svg id="Layer_1" xmlns="http://www.w3.org/2000/svg" viewBox="0 0 100 100"><style>.st0{fill:#171d2f}</style><path class="st0" d="M81.3 88.2H18.7c-.5 0-.9-.4-.9-.9V12.7c0-.5.4-.9.9-.9h62.6c.5 0 .9.4.9.9v74.6c0 .5-.4.9-.9.9zm-61.7-1.7h60.8v-73H19.6v73z"/><path class="st0" d="M73.2 29.1H26.8c-.5 0-.9-.4-.9-.9 0-.4.4-.8.8-.8h46.5c.4-.1.8.3.9.7v.1c0 .5-.4.9-.9.9zm0 14.5H26.8c-.5 0-.9-.4-.9-.9.1-.5.4-.8.9-.8h46.4c.5 0 .8.3.9.8 0 .5-.4.9-.9.9zm0 14.5H26.8c-.5 0-.8-.3-.9-.8 0-.5.4-.9.9-.9h46.4c.5 0 .9.4.9.9-.1.5-.4.8-.9.8zm0 14.5H26.8c-.4.1-.8-.3-.9-.7v-.1c0-.5.4-.9.9-.9h46.4c.5 0 .9.4.9.9 0 .4-.4.8-.8.8h-.1z"/></svg>