<svg viewBox="0 0 100 100" xmlns="http://www.w3.org/2000/svg"><g fill="#171d2f"><path d="m81.3 88.2h-62.6c-.5 0-.9-.4-.9-.9v-74.6c0-.5.4-.9.9-.9h62.6c.5 0 .9.4.9.9v74.6c0 .5-.4.9-.9.9zm-61.7-1.7h60.8v-73h-60.8z"/><path d="m73.2 29.1h-46.4c-.5 0-.9-.4-.9-.9 0-.4.4-.8.8-.8h46.5c.4-.1.8.3.9.7v.1c0 .5-.4.9-.9.9zm0 14.5h-46.4c-.5 0-.9-.4-.9-.9.1-.5.4-.8.9-.8h46.4c.5 0 .8.3.9.8 0 .5-.4.9-.9.9zm0 14.5h-46.4c-.5 0-.8-.3-.9-.8 0-.5.4-.9.9-.9h46.4c.5 0 .9.4.9.9-.1.5-.4.8-.9.8zm0 14.5h-46.4c-.4.1-.8-.3-.9-.7v-.1c0-.5.4-.9.9-.9h46.4c.5 0 .9.4.9.9 0 .4-.4.8-.8.8z"/></g></svg>