<svg data-name="Layer 1" xmlns="http://www.w3.org/2000/svg" viewBox="0 0 100 100"><path d="M80.8 13.9v72.4a.8.8 0 0 1-.8.8H20.1a.9.9 0 0 1-.8-.8V13.9a.9.9 0 0 1 .8-.9H80a.8.8 0 0 1 .8.9z" fill="#F7B07C"/><path d="M81.3 88.2H18.7a.9.9 0 0 1-.9-.9V12.7a.9.9 0 0 1 .9-.9h62.6a.9.9 0 0 1 .9.9v74.6a.9.9 0 0 1-.9.9zm-61.7-1.7h60.8v-73H19.6z" fill="#171d2f"/><path d="M73.2 29.1H26.8a.9.9 0 0 1-.9-.9.8.8 0 0 1 .9-.8h46.4a.8.8 0 0 1 .9.8.9.9 0 0 1-.9.9zM73.2 43.6H26.8a.9.9 0 0 1-.9-.9.9.9 0 0 1 .9-.8h46.4a.9.9 0 0 1 .9.8.9.9 0 0 1-.9.9zM73.2 58.1H26.8a.9.9 0 0 1-.9-.8.9.9 0 0 1 .9-.9h46.4a.9.9 0 0 1 .9.9.9.9 0 0 1-.9.8zM73.2 72.6H26.8a.8.8 0 0 1-.9-.8.9.9 0 0 1 .9-.9h46.4a.9.9 0 0 1 .9.9.8.8 0 0 1-.9.8z" fill="#171d2f"/></svg>
