<svg id="Layer_1" data-name="Layer 1" xmlns="http://www.w3.org/2000/svg" viewBox="0 0 600 600"><title>sail-circle</title><path d="M587.83,300.2h0C587.83,141.21,459,12.32,300,12.32h0C141,12.32,12.08,141.21,12.08,300.2" fill="#f8e6db"/><path d="M12.14,299.81h0c0,159,128.88,287.87,287.87,287.87h0c159,0,287.87-128.89,287.87-287.87" fill="#1155a1"/><path d="M12.08,300.12H587.92c0-3.58-.14-7.12-.27-10.67L12.43,286.6C12.22,291.08,12.08,295.59,12.08,300.12Z" fill="#face77"/><path d="M299.92,12.39A287.18,287.18,0,0,0,144.76,57.68l299.63-6.51A287.33,287.33,0,0,0,299.92,12.39Z" fill="#face77"/><path d="M12.86,279l573.25-9.85a285.89,285.89,0,0,0-20.06-78.83L31.57,195.89A285.65,285.65,0,0,0,12.86,279Z" fill="#face77"/><path d="M61.82,138.22,549,155.73a289.07,289.07,0,0,0-69.67-80.61l-356-2.23A289.28,289.28,0,0,0,61.82,138.22Z" fill="#face77"/><path d="M375.7,264.32h79.67l-17.05,40.05H299.47l-17.05-40.05h80.46V249.9H281.16c0-81.53,34.85-148.25,81.72-153.49V84.86H375.7v28.79l33.23,51,6.8,10.43,40.34,62H375.7Z" fill="#1155a1"/><path d="M122.72,404.27V342.93a6,6,0,0,1,1.28-4,4.18,4.18,0,0,1,3.32-1.49H144.4q16.24,0,24.69,8.18t8.43,25.77q0,37.62-32.1,37.62H127.94Q122.72,409,122.72,404.27Zm19.63-47.44V387.4a7,7,0,0,0,.31,2.71c.2.37.82.56,1.84.56a9.76,9.76,0,0,0,8.54-4.19q2.91-4.2,2.91-14c0-6.5-1-10.75-3-12.72s-5.19-3-9.56-3Z" fill="#fff"/><path d="M232.7,338.58c3.78,1.4,5.68,3.29,5.68,5.67s-.91,5.34-2.71,8.85-3.33,5.26-4.55,5.26a1.91,1.91,0,0,1-1.18-.56,9.53,9.53,0,0,0-3.07-1.23,16,16,0,0,0-4.14-.66,12,12,0,0,0-9.56,4.19q-3.63,4.2-3.63,12.83t3.74,12.83a12.08,12.08,0,0,0,9.45,4.2,24.12,24.12,0,0,0,5.27-.67,8.5,8.5,0,0,0,4.14-1.89,1.18,1.18,0,0,1,.82-.2c.41,0,1.17.76,2.3,2.3a26.26,26.26,0,0,1,3.12,6,17.74,17.74,0,0,1,1.43,5.77q0,4-6.14,6.34A40.48,40.48,0,0,1,219.15,410q-13.49,0-22.18-9.5t-8.69-26.84q0-17.32,8.94-27.25a28.86,28.86,0,0,1,22.34-9.92A37.74,37.74,0,0,1,232.7,338.58Z" fill="#fff"/><path d="M157.07,423.65q0-2.06,11.1-2t11.09,2v46.92a21.69,21.69,0,0,1-7.46,17q-7.47,6.58-20.6,6.59t-21.37-6.8Q121.6,480.6,121.6,469V423.75q0-2,11.09-2.05t11.09,2.05v46.11a3.69,3.69,0,0,0,2.15,3.27,9.68,9.68,0,0,0,4.7,1.23,8.9,8.9,0,0,0,4.45-1.13,3.63,3.63,0,0,0,2-3.37Z" fill="#fff"/><path d="M195.13,468.22a55.68,55.68,0,0,0,6.7,4.19,18.56,18.56,0,0,0,9.09,2.66q4.35,0,4.35-3.37A3.65,3.65,0,0,0,214,469a18,18,0,0,0-4.5-2.71c-2.18-1-3.82-1.82-4.9-2.4a38.65,38.65,0,0,1-4.35-2.87,16.88,16.88,0,0,1-4.14-4.14q-4.1-5.82-4.09-14.82a19.84,19.84,0,0,1,6.7-15.18q6.69-6.19,17.53-6.19a55,55,0,0,1,13.6,1.59c4.16,1.05,6.3,2.43,6.44,4.14V427a25,25,0,0,1-2.25,9.05c-1.5,3.65-2.55,5.67-3.17,6.08q-6.54-3.37-11.7-3.37c-3.45,0-5.17,1.22-5.17,3.68q0,2.25,3.79,4c.54.27,1.32.64,2.35,1.12s2.2,1,3.52,1.69a42.56,42.56,0,0,1,4.3,2.45,37.72,37.72,0,0,1,5,3.94q5.41,5.12,5.42,13.49,0,11-6,17.89t-18.6,7.16a55.34,55.34,0,0,1-11.1-1,20,20,0,0,1-8.64-4,8.91,8.91,0,0,1-3.68-7.16,23.68,23.68,0,0,1,1.54-8.33Q193.39,469.55,195.13,468.22Z" fill="#fff"/><path d="M367.59,489.2q0,3.76-22.49,3.77t-22.49-3.77V380l-23.92.22q-6.65,0-6.65-21.27a68.8,68.8,0,0,1,1.44-14.17c1-4.58,2.63-6.87,5-6.87h60.7a10.23,10.23,0,0,1,6.09,1.66,4.92,4.92,0,0,1,2.33,4.1Z" fill="#fff"/><path d="M406.86,454.19q16.58,3.31,25,3.32A23.88,23.88,0,0,0,447,452.2q6.74-5.31,7.84-16.58-11.06,3.11-17.68,3.1-23.22,0-35.82-12.94t-12.6-36.7q0-23.76,14.48-38.58t39.69-14.81q25.2,0,39.68,17.69t14.48,52.17q0,43.11-15.36,66.22T436,494.87q-37.59,0-37.58-12.6,0-6.63,2.65-17.35T406.86,454.19Zm35.59-78.71q-7.06,0-10.94,4.54a17.24,17.24,0,0,0-3.87,11.6A15,15,0,0,0,432.17,403a16.17,16.17,0,0,0,11.61,4.31q7.08,0,11.49-3.09,0-15.27-2.87-22T442.45,375.48Z" fill="#fff"/><rect x="256.63" y="337.3" width="18.15" height="156.66" rx="2.34" fill="#fff"/></svg>