<svg width="1026" height="512" viewBox="0 0 1026 512" fill="none" xmlns="http://www.w3.org/2000/svg">
<g clip-path="url(#clip0)">
<path d="M0 0H1025.5V512H0V0Z" fill="#430632"/>
<g opacity="0.3">
<path opacity="0.3" d="M797.77 452.33H696.22L693.19 608H799.29L797.77 452.33Z" fill="url(#paint0_linear)"/>
<path opacity="0.3" d="M798.88 452.33H771.33L770.5 608H799.29L798.88 452.33Z" fill="url(#paint1_linear)"/>
<path opacity="0.3" d="M719.41 452.33H693.95L693.19 608H719.79L719.41 452.33Z" fill="url(#paint2_linear)"/>
<path opacity="0.3" d="M693.32 451.98V608V451.98ZM691.81 451.98H694.84V608H691.81V451.98ZM797.9 451.98V608V451.98ZM796.39 451.98H799.42V608H796.39V451.98ZM719.48 473.3V608V473.3ZM717.96 473.3H720.99V608H717.96V473.3ZM771.01 474.95V608V474.95ZM769.5 474.95H772.53V608H769.5V474.95ZM698.65 479.39L712.29 493.32L698.65 479.39ZM712.29 494.84C711.9 494.84 711.5 494.69 711.21 494.38L697.57 480.45C696.98 479.85 696.99 478.89 697.59 478.31C698.19 477.72 699.15 477.73 699.73 478.33L713.37 492.26C713.96 492.86 713.95 493.82 713.35 494.4C713.05 494.69 712.67 494.84 712.29 494.84ZM698.65 497.58L712.29 511.51L698.65 497.58ZM712.29 513.03C711.9 513.03 711.5 512.88 711.21 512.57L697.57 498.64C696.98 498.04 696.99 497.08 697.59 496.5C698.19 495.91 699.15 495.92 699.73 496.52L713.37 510.45C713.96 511.05 713.95 512.01 713.35 512.59C713.05 512.88 712.67 513.03 712.29 513.03ZM698.65 515.77L712.29 529.7L698.65 515.77ZM712.29 531.21C711.9 531.21 711.5 531.06 711.21 530.75L697.57 516.82C696.98 516.22 696.99 515.26 697.59 514.68C698.19 514.09 699.15 514.11 699.73 514.7L713.37 528.63C713.96 529.23 713.95 530.19 713.35 530.77C713.05 531.07 712.67 531.21 712.29 531.21ZM698.65 533.96L712.29 547.89L698.65 533.96ZM712.29 549.4C711.9 549.4 711.5 549.25 711.21 548.94L697.57 535.01C696.98 534.41 696.99 533.45 697.59 532.87C698.19 532.28 699.15 532.29 699.73 532.89L713.37 546.82C713.96 547.42 713.95 548.38 713.35 548.96C713.05 549.26 712.67 549.4 712.29 549.4ZM698.65 552.14L712.29 566.08L698.65 552.14ZM712.29 567.59C711.9 567.59 711.5 567.44 711.21 567.13L697.57 553.2C696.98 552.6 696.99 551.64 697.59 551.06C698.19 550.47 699.15 550.49 699.73 551.08L713.37 565.01C713.96 565.61 713.95 566.57 713.35 567.15C713.05 567.45 712.67 567.59 712.29 567.59ZM698.65 570.33L712.29 584.26L698.65 570.33ZM712.29 585.78C711.9 585.78 711.5 585.63 711.21 585.32L697.57 571.39C696.98 570.79 696.99 569.83 697.59 569.25C698.19 568.66 699.15 568.67 699.73 569.27L713.37 583.2C713.96 583.8 713.95 584.76 713.35 585.34C713.05 585.63 712.67 585.78 712.29 585.78ZM698.65 588.52L712.29 602.45L698.65 588.52ZM712.29 603.97C711.9 603.97 711.5 603.82 711.21 603.51L697.57 589.58C696.98 588.98 696.99 588.02 697.59 587.44C698.19 586.85 699.15 586.87 699.73 587.46L713.37 601.39C713.96 601.99 713.95 602.95 713.35 603.53C713.05 603.82 712.67 603.97 712.29 603.97ZM791.84 479.39L778.2 493.32L791.84 479.39ZM778.2 494.84C777.82 494.84 777.43 494.7 777.14 494.41C776.54 493.82 776.53 492.86 777.12 492.27L790.76 478.34C791.35 477.74 792.3 477.73 792.9 478.32C793.5 478.91 793.51 479.87 792.92 480.46L779.28 494.39C778.99 494.68 778.59 494.84 778.2 494.84ZM791.84 497.58L778.2 511.51L791.84 497.58ZM778.2 513.03C777.82 513.03 777.43 512.89 777.14 512.6C776.54 512.01 776.53 511.05 777.12 510.46L790.76 496.53C791.35 495.93 792.3 495.92 792.9 496.51C793.5 497.1 793.51 498.06 792.92 498.65L779.28 512.58C778.99 512.87 778.59 513.03 778.2 513.03V513.03ZM791.84 515.77L778.2 529.7L791.84 515.77ZM778.2 531.21C777.82 531.21 777.43 531.07 777.14 530.78C776.54 530.19 776.53 529.23 777.12 528.64L790.76 514.71C791.35 514.11 792.3 514.1 792.9 514.69C793.5 515.28 793.51 516.24 792.92 516.83L779.28 530.76C778.99 531.06 778.59 531.21 778.2 531.21V531.21ZM791.84 533.96L778.2 547.89L791.84 533.96ZM778.2 549.4C777.82 549.4 777.43 549.26 777.14 548.97C776.54 548.38 776.53 547.42 777.12 546.83L790.76 532.9C791.35 532.3 792.3 532.29 792.9 532.88C793.5 533.47 793.51 534.43 792.92 535.02L779.28 548.95C778.99 549.25 778.59 549.4 778.2 549.4V549.4ZM791.84 552.14L778.2 566.08L791.84 552.14ZM778.2 567.59C777.82 567.59 777.43 567.45 777.14 567.16C776.54 566.57 776.53 565.61 777.12 565.02L790.76 551.09C791.35 550.49 792.3 550.48 792.9 551.07C793.5 551.66 793.51 552.62 792.92 553.21L779.28 567.14C778.99 567.44 778.59 567.59 778.2 567.59V567.59ZM791.84 570.33L778.2 584.26L791.84 570.33ZM778.2 585.78C777.82 585.78 777.43 585.64 777.14 585.35C776.54 584.76 776.53 583.8 777.12 583.21L790.76 569.28C791.35 568.68 792.3 568.67 792.9 569.26C793.5 569.85 793.51 570.81 792.92 571.4L779.28 585.33C778.99 585.63 778.59 585.78 778.2 585.78V585.78ZM791.84 588.52L778.2 602.45L791.84 588.52ZM778.2 603.97C777.82 603.97 777.43 603.83 777.14 603.54C776.54 602.95 776.53 601.99 777.12 601.4L790.76 587.47C791.35 586.87 792.3 586.86 792.9 587.45C793.5 588.04 793.51 589 792.92 589.59L779.28 603.52C778.99 603.82 778.59 603.97 778.2 603.97V603.97Z" fill="#7B123C"/>
<path opacity="0.3" d="M772.13 429.82H719.18L692.71 452.03L719.18 474.24H772.13L798.61 452.03L772.13 429.82Z" fill="#7B123C"/>
<path opacity="0.3" d="M772.13 475.08H719.18C718.982 475.079 718.791 475.008 718.64 474.88L692.17 452.67C692.076 452.592 692 452.494 691.948 452.383C691.897 452.273 691.87 452.152 691.87 452.03C691.87 451.908 691.897 451.787 691.948 451.677C692 451.566 692.076 451.468 692.17 451.39L718.64 429.18C718.79 429.05 718.98 428.98 719.18 428.98H772.13C772.33 428.98 772.51 429.05 772.67 429.18L799.14 451.39C799.234 451.468 799.31 451.566 799.362 451.677C799.413 451.787 799.44 451.908 799.44 452.03C799.44 452.152 799.413 452.273 799.362 452.383C799.31 452.494 799.234 452.592 799.14 452.67L772.67 474.88C772.52 475.01 772.328 475.081 772.13 475.08V475.08ZM719.49 473.41H771.83L797.31 452.03L771.83 430.65H719.49L694 452.03L719.49 473.41Z" fill="#7B123C"/>
<g opacity="0.3">
<path opacity="0.3" d="M728.47 499.09H761.82H728.47ZM728.47 496.35H761.82V501.83H728.47V496.35Z" fill="#7B123C"/>
</g>
<path opacity="0.3" d="M850.47 384.36H748.92L745.89 608H851.99L850.47 384.36Z" fill="url(#paint3_linear)"/>
<path opacity="0.3" d="M851.58 384.36H824.02L823.2 608H851.99L851.58 384.36Z" fill="url(#paint4_linear)"/>
<path opacity="0.3" d="M772.1 384.36H746.65L745.89 608H772.48L772.1 384.36Z" fill="url(#paint5_linear)"/>
<g opacity="0.3">
<path opacity="0.3" d="M746.02 384.01V608V384.01ZM744.5 384.01H747.53V608H744.5V384.01Z" fill="#7B123C"/>
</g>
<g opacity="0.3">
<path opacity="0.3" d="M850.6 384.01V608V384.01ZM849.09 384.01H852.12V608H849.09V384.01Z" fill="#7B123C"/>
</g>
<g opacity="0.3">
<path opacity="0.3" d="M772.17 405.33V608V405.33ZM770.66 405.33H773.69V608H770.66V405.33Z" fill="#7B123C"/>
</g>
<g opacity="0.3">
<path opacity="0.3" d="M823.71 406.98V608V406.98ZM822.19 406.98H825.22V608H822.19V406.98Z" fill="#7B123C"/>
</g>
<g opacity="0.3">
<path opacity="0.3" d="M751.34 411.42L764.98 425.35L751.34 411.42ZM764.98 426.86C764.59 426.86 764.19 426.71 763.9 426.4L750.26 412.47C749.67 411.87 749.68 410.91 750.28 410.33C750.88 409.74 751.84 409.75 752.42 410.35L766.06 424.28C766.65 424.88 766.64 425.84 766.04 426.42C765.75 426.72 765.37 426.86 764.98 426.86Z" fill="#7B123C"/>
</g>
<g opacity="0.3">
<path opacity="0.3" d="M751.34 429.61L764.98 443.54L751.34 429.61ZM764.98 445.05C764.59 445.05 764.19 444.9 763.9 444.59L750.26 430.66C749.67 430.06 749.68 429.1 750.28 428.52C750.88 427.93 751.84 427.94 752.42 428.54L766.06 442.47C766.65 443.07 766.64 444.03 766.04 444.61C765.75 444.91 765.37 445.05 764.98 445.05Z" fill="#7B123C"/>
</g>
<g opacity="0.3">
<path opacity="0.3" d="M751.34 447.79L764.98 461.73L751.34 447.79ZM764.98 463.24C764.59 463.24 764.19 463.09 763.9 462.78L750.26 448.85C749.67 448.25 749.68 447.29 750.28 446.71C750.88 446.12 751.84 446.13 752.42 446.73L766.06 460.66C766.65 461.26 766.64 462.22 766.04 462.8C765.75 463.1 765.37 463.24 764.98 463.24Z" fill="#7B123C"/>
</g>
<g opacity="0.3">
<path opacity="0.3" d="M751.34 465.98L764.98 479.91L751.34 465.98ZM764.98 481.43C764.59 481.43 764.19 481.28 763.9 480.97L750.26 467.04C749.67 466.44 749.68 465.48 750.28 464.9C750.88 464.31 751.84 464.33 752.42 464.92L766.06 478.85C766.65 479.45 766.64 480.41 766.04 480.99C765.75 481.29 765.37 481.43 764.98 481.43Z" fill="#7B123C"/>
</g>
<g opacity="0.3">
<path opacity="0.3" d="M751.34 484.17L764.98 498.1L751.34 484.17ZM764.98 499.62C764.59 499.62 764.19 499.47 763.9 499.16L750.26 485.23C749.67 484.63 749.68 483.67 750.28 483.09C750.88 482.5 751.84 482.51 752.42 483.11L766.06 497.04C766.65 497.64 766.64 498.6 766.04 499.18C765.75 499.47 765.37 499.62 764.98 499.62Z" fill="#7B123C"/>
</g>
<g opacity="0.3">
<path opacity="0.3" d="M751.34 502.36L764.98 516.29L751.34 502.36ZM764.98 517.81C764.59 517.81 764.19 517.66 763.9 517.35L750.26 503.42C749.67 502.82 749.68 501.86 750.28 501.28C750.88 500.69 751.84 500.71 752.42 501.3L766.06 515.23C766.65 515.83 766.64 516.79 766.04 517.37C765.75 517.66 765.37 517.81 764.98 517.81Z" fill="#7B123C"/>
</g>
<g opacity="0.3">
<path opacity="0.3" d="M844.54 411.42L830.9 425.35L844.54 411.42ZM830.9 426.86C830.52 426.86 830.13 426.72 829.84 426.43C829.24 425.84 829.23 424.88 829.82 424.29L843.46 410.36C844.05 409.76 845 409.75 845.6 410.34C846.2 410.93 846.21 411.89 845.62 412.48L831.98 426.41C831.68 426.71 831.29 426.86 830.9 426.86Z" fill="#7B123C"/>
</g>
<g opacity="0.3">
<path opacity="0.3" d="M844.54 429.61L830.9 443.54L844.54 429.61ZM830.9 445.05C830.52 445.05 830.13 444.91 829.84 444.62C829.24 444.03 829.23 443.07 829.82 442.48L843.46 428.55C844.05 427.95 845 427.94 845.6 428.53C846.2 429.12 846.21 430.08 845.62 430.67L831.98 444.6C831.68 444.9 831.29 445.05 830.9 445.05Z" fill="#7B123C"/>
</g>
<g opacity="0.3">
<path opacity="0.3" d="M844.54 447.79L830.9 461.73L844.54 447.79ZM830.9 463.24C830.52 463.24 830.13 463.1 829.84 462.81C829.24 462.22 829.23 461.26 829.82 460.67L843.46 446.74C844.05 446.14 845 446.13 845.6 446.72C846.2 447.31 846.21 448.27 845.62 448.86L831.98 462.79C831.68 463.09 831.29 463.24 830.9 463.24Z" fill="#7B123C"/>
</g>
<g opacity="0.3">
<path opacity="0.3" d="M844.54 465.98L830.9 479.91L844.54 465.98ZM830.9 481.43C830.52 481.43 830.13 481.29 829.84 481C829.24 480.41 829.23 479.45 829.82 478.86L843.46 464.93C844.05 464.33 845 464.32 845.6 464.91C846.2 465.5 846.21 466.46 845.62 467.05L831.98 480.98C831.68 481.28 831.29 481.43 830.9 481.43Z" fill="#7B123C"/>
</g>
<g opacity="0.3">
<path opacity="0.3" d="M844.54 484.17L830.9 498.1L844.54 484.17ZM830.9 499.62C830.52 499.62 830.13 499.48 829.84 499.19C829.24 498.6 829.23 497.64 829.82 497.05L843.46 483.12C844.05 482.52 845 482.51 845.6 483.1C846.2 483.69 846.21 484.65 845.62 485.24L831.98 499.17C831.68 499.47 831.29 499.62 830.9 499.62Z" fill="#7B123C"/>
</g>
<g opacity="0.3">
<path opacity="0.3" d="M844.54 502.36L830.9 516.29L844.54 502.36ZM830.9 517.81C830.52 517.81 830.13 517.67 829.84 517.38C829.24 516.79 829.23 515.83 829.82 515.24L843.46 501.31C844.05 500.71 845 500.7 845.6 501.29C846.2 501.88 846.21 502.84 845.62 503.43L831.98 517.36C831.68 517.65 831.29 517.81 830.9 517.81V517.81Z" fill="#7B123C"/>
</g>
<g opacity="0.3">
<path opacity="0.3" d="M824.83 361.85H771.88L745.41 384.06L771.88 406.27H824.83L851.3 384.06L824.83 361.85Z" fill="#7B123C"/>
<path opacity="0.3" d="M824.83 407.1H771.88C771.682 407.099 771.491 407.028 771.34 406.9L744.87 384.69C744.776 384.612 744.7 384.514 744.648 384.404C744.597 384.293 744.57 384.172 744.57 384.05C744.57 383.928 744.597 383.807 744.648 383.697C744.7 383.586 744.776 383.488 744.87 383.41L771.34 361.2C771.49 361.07 771.68 361 771.88 361H824.83C825.03 361 825.21 361.07 825.37 361.2L851.84 383.41C851.934 383.488 852.01 383.586 852.062 383.697C852.113 383.807 852.14 383.928 852.14 384.05C852.14 384.172 852.113 384.293 852.062 384.404C852.01 384.514 851.934 384.612 851.84 384.69L825.37 406.9C825.218 407.027 825.028 407.097 824.83 407.1ZM772.18 405.44H824.52L850 384.06L824.52 362.68H772.18L746.7 384.06L772.18 405.44V405.44Z" fill="#7B123C"/>
</g>
<g opacity="0.3">
<path opacity="0.3" d="M781.17 431.12H814.52H781.17ZM781.17 428.38H814.52V433.86H781.17V428.38Z" fill="#7B123C"/>
</g>
<g opacity="0.3">
<path opacity="0.3" d="M781.17 449.31H814.52H781.17ZM781.17 446.57H814.52V452.05H781.17V446.57Z" fill="#7B123C"/>
</g>
<g opacity="0.3">
<path opacity="0.3" d="M781.17 467.5H814.52H781.17ZM781.17 464.76H814.52V470.24H781.17V464.76Z" fill="#7B123C"/>
</g>
<g opacity="0.3">
<path opacity="0.3" d="M781.17 485.69H814.52H781.17ZM781.17 482.95H814.52V488.43H781.17V482.95Z" fill="#7B123C"/>
</g>
<g opacity="0.3">
<path opacity="0.3" d="M781.17 503.88H814.52H781.17ZM781.17 501.13H814.52V506.61H781.17V501.13Z" fill="#7B123C"/>
</g>
<g opacity="0.3">
<path opacity="0.3" d="M909.59 496.72H808.04L805.01 608H911.11L909.59 496.72Z" fill="url(#paint6_linear)"/>
<path opacity="0.3" d="M910.7 496.72H883.14L882.32 608H911.11L910.7 496.72Z" fill="url(#paint7_linear)"/>
<path opacity="0.3" d="M831.22 496.72H805.77L805.01 608H831.6L831.22 496.72Z" fill="url(#paint8_linear)"/>
<path opacity="0.3" d="M805.14 496.37V608V496.37ZM803.62 496.37H806.65V608H803.62V496.37ZM909.72 496.37V608V496.37ZM908.21 496.37H911.24V608H908.21V496.37ZM831.29 517.69V608V517.69ZM829.78 517.69H832.81V608H829.78V517.69ZM882.83 519.34V608V519.34ZM881.31 519.34H884.34V608H881.31V519.34ZM810.46 523.78L824.1 537.71L810.46 523.78ZM824.11 539.23C823.72 539.23 823.32 539.08 823.03 538.77L809.39 524.84C808.8 524.24 808.81 523.28 809.41 522.7C810.01 522.11 810.97 522.12 811.55 522.72L825.19 536.65C825.78 537.25 825.77 538.21 825.17 538.79C824.87 539.08 824.49 539.23 824.11 539.23ZM810.46 541.97L824.1 555.9L810.46 541.97ZM824.11 557.42C823.72 557.42 823.32 557.27 823.03 556.96L809.39 543.03C808.8 542.43 808.81 541.47 809.41 540.89C810.01 540.3 810.97 540.32 811.55 540.91L825.19 554.84C825.78 555.44 825.77 556.4 825.17 556.98C824.87 557.27 824.49 557.42 824.11 557.42ZM810.46 560.16L824.1 574.09L810.46 560.16ZM824.11 575.6C823.72 575.6 823.32 575.45 823.03 575.14L809.39 561.21C808.8 560.61 808.81 559.65 809.41 559.07C810.01 558.48 810.97 558.49 811.55 559.09L825.19 573.02C825.78 573.62 825.77 574.58 825.17 575.16C824.87 575.46 824.49 575.6 824.11 575.6ZM810.46 578.35L824.1 592.28L810.46 578.35ZM824.11 593.79C823.72 593.79 823.32 593.64 823.03 593.33L809.39 579.4C808.8 578.8 808.81 577.84 809.41 577.26C810.01 576.67 810.97 576.69 811.55 577.28L825.19 591.21C825.78 591.81 825.77 592.77 825.17 593.35C824.87 593.65 824.49 593.79 824.11 593.79ZM903.66 523.78L890.02 537.71L903.66 523.78ZM890.02 539.23C889.64 539.23 889.25 539.09 888.96 538.8C888.36 538.21 888.35 537.25 888.94 536.66L902.58 522.73C903.17 522.13 904.12 522.12 904.72 522.71C905.32 523.3 905.33 524.26 904.74 524.85L891.1 538.78C890.8 539.08 890.41 539.23 890.02 539.23V539.23Z" fill="#7B123C"/>
<g opacity="0.3">
<path opacity="0.3" d="M883.95 474.21H831L804.53 496.42L831 518.63H883.95L910.42 496.42L883.95 474.21Z" fill="#7B123C"/>
<path opacity="0.3" d="M883.95 519.47H831C830.802 519.469 830.611 519.398 830.46 519.27L803.99 497.06C803.896 496.982 803.82 496.884 803.768 496.773C803.717 496.663 803.69 496.542 803.69 496.42C803.69 496.298 803.717 496.177 803.768 496.066C803.82 495.956 803.896 495.858 803.99 495.78L830.46 473.57C830.61 473.44 830.8 473.37 831 473.37H883.95C884.15 473.37 884.33 473.44 884.49 473.57L910.96 495.78C911.054 495.858 911.13 495.956 911.182 496.066C911.233 496.177 911.26 496.298 911.26 496.42C911.26 496.542 911.233 496.663 911.182 496.773C911.13 496.884 911.054 496.982 910.96 497.06L884.49 519.27C884.338 519.397 884.148 519.467 883.95 519.47V519.47ZM831.3 517.8H883.64L909.12 496.42L883.64 475.04H831.3L805.82 496.42L831.3 517.8V517.8Z" fill="#7B123C"/>
</g>
</g>
</g>
<g opacity="0.3">
<path opacity="0.3" d="M557.3 346.17V307.16L609.79 266.22L660.97 307.16V347.74L557.3 346.17Z" fill="#E99C56"/>
<path opacity="0.3" d="M660.97 347.78H557.3L554.25 585.61H665.54L660.97 347.78Z" fill="#C73B3D"/>
<path opacity="0.3" d="M660.97 347.78H557.3L558.83 387.42H660.97V347.78Z" fill="#430632"/>
<path opacity="0.3" d="M598.46 347.78H557.3L557.91 387.42H598.46V347.78Z" fill="url(#paint9_linear)"/>
<path opacity="0.3" d="M577.36 347.78H557.3L557.6 387.42H577.36V347.78Z" fill="url(#paint10_linear)"/>
<path opacity="0.3" d="M598.46 465.17H665.54V585.61H598.46V465.17Z" fill="#E99C56"/>
<path opacity="0.3" d="M662.49 427.06H641.15V547.49H665.54L662.49 427.06Z" fill="url(#paint11_linear)"/>
<path opacity="0.3" d="M663.88 505.88H641.15V547.49H665.54L663.88 505.88Z" fill="url(#paint12_linear)"/>
<path opacity="0.3" d="M663.17 305.98C663.16 305.29 662.82 304.63 662.28 304.22L611.13 263.3C610.76 262.99 610.3 262.83 609.84 262.81C609.707 262.8 609.573 262.8 609.44 262.81C608.98 262.82 608.52 262.99 608.15 263.3L557 304.22C556.46 304.64 556.13 305.29 556.11 305.98L551 607.92L555.58 608L555.94 587.01H575.07V607.96H579.65V587.01H596.34V607.96H600.9V587.01H618.39V607.96H622.95V587.01H639.64V607.96H644.22V587.01H663.35L663.71 608L668.27 607.92L663.17 305.98V305.98ZM662.6 542.8H644.22V507.73H662L662.6 542.8V542.8ZM644.22 503.17V468.1H661.34L661.94 503.17H644.22V503.17ZM661.26 463.52H644.23V428.47H660.67L661.26 463.52V463.52ZM660.58 423.89H644.22V388.82H659.99L660.58 423.89ZM659.91 384.25H644.22V349.2H659.31L659.91 384.25ZM659.24 344.61H644.22V332.37L658.7 312.8L659.24 344.61ZM575.07 582.43H556.01L556.61 547.38H575.07V582.43V582.43ZM575.07 542.8H556.69L557.29 507.73H575.07V542.8ZM575.07 503.17H557.36L557.96 468.1H575.08V503.17H575.07ZM575.07 463.52H558.04L558.64 428.47H575.08V463.52H575.07ZM575.07 423.89H558.72L559.3 388.82H575.07V423.89ZM575.07 384.25H559.38L559.98 349.2H575.07V384.25ZM575.07 344.61H560.05L560.59 312.8L575.07 332.37V344.61ZM576.1 326.08L561.56 306.44L603.49 272.9L576.1 326.08ZM596.34 582.43H579.65V547.38H596.34V582.43ZM596.34 542.8H579.65V507.73H596.34V542.8ZM596.34 503.17H579.65V468.1H596.34V503.17V503.17ZM596.34 463.52H579.65V428.47H596.34V463.52ZM596.34 423.89H579.65V388.82H596.34V423.89ZM596.34 384.25H579.65V349.2H596.34V384.25V384.25ZM596.34 344.61H579.65V332.72L596.34 319.46V344.61ZM581.64 325.29L607.3 275.5V304.92L581.64 325.29ZM618.39 582.43H600.9V547.38H618.39V582.43ZM618.39 542.8H600.9V507.73H618.39V542.8ZM618.39 503.17H600.9V468.1H618.39V503.17V503.17ZM618.39 463.52H600.9V428.47H618.39V463.52ZM618.39 423.89H600.9V388.82H618.39V423.89ZM618.39 384.25H600.9V349.2H618.39V384.25V384.25ZM618.39 344.61H600.9V315.84L609.65 308.89L618.39 315.84V344.61ZM611.98 304.93V275.5L637.64 325.29L611.98 304.93V304.93ZM639.64 582.43H622.95V547.38H639.64V582.43ZM639.64 542.8H622.95V507.73H639.64V542.8ZM639.64 503.17H622.95V468.1H639.64V503.17V503.17ZM639.64 463.52H622.95V428.47H639.64V463.52ZM639.64 423.89H622.95V388.82H639.64V423.89ZM639.64 384.25H622.95V349.2H639.64V384.25V384.25ZM639.64 344.61H622.95V319.46L639.64 332.72V344.61ZM643.19 326.08L615.79 272.89L657.72 306.43L643.19 326.08ZM644.22 582.43V547.38H662.68L663.28 582.43H644.22V582.43Z" fill="#7B123C"/>
</g>
<g opacity="0.3">
<path opacity="0.3" d="M942.99 333.32H1026.22V344.42H942.99V333.32Z" fill="#E99C56"/>
<path opacity="0.3" d="M1028.09 323.4V342.35C1028.09 343.63 1027.06 344.65 1025.79 344.65C1024.51 344.65 1023.49 343.62 1023.49 342.35V336.22H1000.66V343.41H996.05V336.22H970.14V343.41H965.53V336.22H943.71V342.35C943.71 343.63 942.68 344.65 941.41 344.65C940.15 344.65 939.11 343.62 939.11 342.35V323.4C939.11 322.79 939.352 322.205 939.784 321.774C940.215 321.342 940.8 321.1 941.41 321.1C942.02 321.1 942.605 321.342 943.036 321.774C943.468 322.205 943.71 322.79 943.71 323.4V331.61H1023.49V323.4C1023.49 322.79 1023.73 322.205 1024.16 321.774C1024.6 321.342 1025.18 321.1 1025.79 321.1C1026.4 321.1 1026.99 321.342 1027.42 321.774C1027.85 322.205 1028.09 322.79 1028.09 323.4Z" fill="#C73B3D"/>
<path opacity="0.3" d="M1031.93 343.35V605.7C1031.93 606.96 1030.89 608 1029.63 608H937.58C936.97 608 936.385 607.758 935.954 607.326C935.522 606.895 935.28 606.31 935.28 605.7V343.35C935.28 342.07 936.31 341.05 937.58 341.05H1029.63C1030.24 341.05 1030.83 341.292 1031.26 341.724C1031.69 342.155 1031.93 342.74 1031.93 343.35ZM984.29 246.84V259.11V246.84ZM984.29 261.41C983.68 261.41 983.095 261.168 982.664 260.736C982.232 260.305 981.99 259.72 981.99 259.11V246.84C981.99 246.23 982.232 245.645 982.664 245.214C983.095 244.782 983.68 244.54 984.29 244.54C984.9 244.54 985.485 244.782 985.916 245.214C986.348 245.645 986.59 246.23 986.59 246.84V259.11C986.59 259.72 986.348 260.305 985.916 260.736C985.485 261.168 984.9 261.41 984.29 261.41V261.41Z" fill="#C73B3D"/>
<path opacity="0.3" d="M1031.92 343.35V605.7C1031.92 606.96 1030.89 607.99 1029.63 607.99H982.91V341.06H1029.63C1030.89 341.06 1031.92 342.09 1031.92 343.35Z" fill="#A52D36"/>
<path opacity="0.3" d="M946.39 352.99H952.86V359.46H946.39V352.99ZM957.71 352.99H964.18V359.46H957.71V352.99ZM969.04 352.99H975.51V359.46H969.04V352.99ZM980.36 352.99H986.83V359.46H980.36V352.99ZM991.68 352.99H998.15V359.46H991.68V352.99ZM1003.01 352.99H1009.48V359.46H1003.01V352.99ZM1014.33 352.99H1020.8V359.46H1014.33V352.99ZM946.39 365.26H952.86V371.73H946.39V365.26ZM957.71 365.26H964.18V371.73H957.71V365.26ZM969.04 365.26H975.51V371.73H969.04V365.26ZM991.68 365.26H998.15V371.73H991.68V365.26ZM1003.01 365.26H1009.48V371.73H1003.01V365.26ZM1014.33 365.26H1020.8V371.73H1014.33V365.26ZM946.39 377.53H952.86V384H946.39V377.53ZM957.71 377.53H964.18V384H957.71V377.53ZM969.04 377.53H975.51V384H969.04V377.53ZM991.68 377.53H998.15V384H991.68V377.53ZM1003.01 377.53H1009.48V384H1003.01V377.53ZM1014.33 377.53H1020.8V384H1014.33V377.53Z" fill="#5E1B51"/>
<g opacity="0.3">
<path opacity="0.3" d="M946.39 389.81H952.86V396.28H946.39V389.81ZM957.71 389.81H964.18V396.28H957.71V389.81ZM969.04 389.81H975.51V396.28H969.04V389.81Z" fill="#5E1B51"/>
<path opacity="0.3" d="M991.68 389.81H998.15V396.28H991.68V389.81Z" fill="#E99C56"/>
<path opacity="0.3" d="M1003.01 389.81H1009.48V396.28H1003.01V389.81Z" fill="url(#paint13_linear)"/>
<path opacity="0.3" d="M1014.33 389.81H1020.8V396.28H1014.33V389.81Z" fill="#E99C56"/>
</g>
<g opacity="0.3">
<path opacity="0.3" d="M946.39 402.08H952.86V408.55H946.39V402.08ZM957.71 402.08H964.18V408.55H957.71V402.08ZM969.04 402.08H975.51V408.55H969.04V402.08ZM991.68 402.08H998.15V408.55H991.68V402.08ZM1003.01 402.08H1009.48V408.55H1003.01V402.08ZM1014.33 402.08H1020.8V408.55H1014.33V402.08Z" fill="#5E1B51"/>
</g>
<g opacity="0.3">
<path opacity="0.3" d="M946.39 414.35H952.86V420.82H946.39V414.35ZM957.71 414.35H964.18V420.82H957.71V414.35ZM969.04 414.35H975.51V420.82H969.04V414.35ZM991.68 414.35H998.15V420.82H991.68V414.35ZM1003.01 414.35H1009.48V420.82H1003.01V414.35ZM1014.33 414.35H1020.8V420.82H1014.33V414.35Z" fill="#5E1B51"/>
</g>
<g opacity="0.3">
<path opacity="0.3" d="M946.39 426.63H952.86V433.1H946.39V426.63ZM957.71 426.63H964.18V433.1H957.71V426.63ZM969.04 426.63H975.51V433.1H969.04V426.63ZM991.68 426.63H998.15V433.1H991.68V426.63ZM1003.01 426.63H1009.48V433.1H1003.01V426.63ZM1014.33 426.63H1020.8V433.1H1014.33V426.63Z" fill="#5E1B51"/>
</g>
<g opacity="0.3">
<path opacity="0.3" d="M946.39 438.9H952.86V445.37H946.39V438.9ZM957.71 438.9H964.18V445.37H957.71V438.9ZM969.04 438.9H975.51V445.37H969.04V438.9ZM991.68 438.9H998.15V445.37H991.68V438.9ZM1003.01 438.9H1009.48V445.37H1003.01V438.9ZM1014.33 438.9H1020.8V445.37H1014.33V438.9Z" fill="#5E1B51"/>
</g>
<g opacity="0.3">
<path opacity="0.3" d="M946.39 451.17H952.86V457.64H946.39V451.17Z" fill="#E99C56"/>
<path opacity="0.3" d="M957.71 451.17H964.18V457.64H957.71V451.17Z" fill="url(#paint14_linear)"/>
<path opacity="0.3" d="M969.04 451.17H975.51V457.64H969.04V451.17Z" fill="#E99C56"/>
<path opacity="0.3" d="M991.68 451.17H998.15V457.64H991.68V451.17ZM1003.01 451.17H1009.48V457.64H1003.01V451.17ZM1014.33 451.17H1020.8V457.64H1014.33V451.17Z" fill="#5E1B51"/>
</g>
<g opacity="0.3">
<path opacity="0.3" d="M946.39 463.45H952.86V469.92H946.39V463.45ZM957.71 463.45H964.18V469.92H957.71V463.45ZM969.04 463.45H975.51V469.92H969.04V463.45ZM991.68 463.45H998.15V469.92H991.68V463.45ZM1003.01 463.45H1009.48V469.92H1003.01V463.45ZM1014.33 463.45H1020.8V469.92H1014.33V463.45Z" fill="#5E1B51"/>
</g>
<g opacity="0.3">
<path opacity="0.3" d="M946.39 475.72H952.86V482.19H946.39V475.72ZM957.71 475.72H964.18V482.19H957.71V475.72ZM969.04 475.72H975.51V482.19H969.04V475.72ZM991.68 475.72H998.15V482.19H991.68V475.72ZM1003.01 475.72H1009.48V482.19H1003.01V475.72ZM1014.33 475.72H1020.8V482.19H1014.33V475.72Z" fill="#5E1B51"/>
</g>
<g opacity="0.3">
<path opacity="0.3" d="M946.39 488H952.86V494.47H946.39V488ZM957.71 488H964.18V494.47H957.71V488ZM969.04 488H975.51V494.47H969.04V488ZM991.68 488H998.15V494.47H991.68V488ZM1003.01 488H1009.48V494.47H1003.01V488ZM1014.33 488H1020.8V494.47H1014.33V488Z" fill="#5E1B51"/>
</g>
<g opacity="0.3">
<path opacity="0.3" d="M946.39 500.27H952.86V506.74H946.39V500.27ZM957.71 500.27H964.18V506.74H957.71V500.27ZM969.04 500.27H975.51V506.74H969.04V500.27ZM991.68 500.27H998.15V506.74H991.68V500.27ZM1003.01 500.27H1009.48V506.74H1003.01V500.27ZM1014.33 500.27H1020.8V506.74H1014.33V500.27Z" fill="#5E1B51"/>
</g>
<g opacity="0.3">
<path opacity="0.3" d="M1024.69 330.88C1024.27 331.57 1023.52 331.99 1022.72 331.99H944.47C943.67 331.99 942.92 331.56 942.5 330.87C942.08 330.18 942.07 329.3 942.44 328.6L982.22 254.95C982.64 254.17 983.51 253.7 984.3 253.74C985.13 253.73 985.98 254.18 986.4 254.99L1024.76 328.62C1025.13 329.34 1025.11 330.19 1024.69 330.88Z" fill="#7B123C"/>
</g>
</g>
<path opacity="0.3" d="M668.88 145.68C670.437 145.68 671.7 144.417 671.7 142.86C671.7 141.303 670.437 140.04 668.88 140.04C667.323 140.04 666.06 141.303 666.06 142.86C666.06 144.417 667.323 145.68 668.88 145.68Z" fill="#E99C56"/>
<path opacity="0.3" d="M668.45 157.28C673.095 157.28 676.86 153.515 676.86 148.87C676.86 144.225 673.095 140.46 668.45 140.46C663.805 140.46 660.04 144.225 660.04 148.87C660.04 153.515 663.805 157.28 668.45 157.28Z" fill="#420F3B"/>
<path opacity="0.3" d="M1025.19 138.6H942.75C942.75 128.33 951.08 120 961.35 120C963.85 120 966.23 120.5 968.4 121.39C973.96 113.08 983.43 107.6 994.18 107.6C1011.31 107.6 1025.19 121.48 1025.19 138.6ZM571.07 64.04H459.27C459.27 40.82 478.1 22 501.31 22C515.9 22 528.75 29.42 536.28 40.7C539.23 39.48 542.46 38.81 545.83 38.81C559.78 38.82 571.07 50.11 571.07 64.04Z" fill="#54184B"/>
<path opacity="0.3" d="M765.35 48.44C766.907 48.44 768.17 47.1774 768.17 45.62C768.17 44.0625 766.907 42.8 765.35 42.8C763.793 42.8 762.53 44.0625 762.53 45.62C762.53 47.1774 763.793 48.44 765.35 48.44Z" fill="#E99C56" stroke="#E99C56" stroke-width="8.088" stroke-miterlimit="10" stroke-linecap="round" stroke-linejoin="round"/>
<path opacity="0.3" d="M991.83 244.17C993.387 244.17 994.65 242.907 994.65 241.35C994.65 239.793 993.387 238.53 991.83 238.53C990.273 238.53 989.01 239.793 989.01 241.35C989.01 242.907 990.273 244.17 991.83 244.17Z" fill="#66225C"/>
<path opacity="0.3" d="M564.65 146.2C564.65 147.13 563.89 147.89 562.96 147.89H557.88V152.97C557.88 153.9 557.12 154.66 556.19 154.66C555.25 154.66 554.5 153.89 554.5 152.97V147.89H549.42C548.48 147.89 547.73 147.12 547.73 146.2C547.73 145.26 548.49 144.51 549.42 144.51H554.5V139.43C554.5 138.49 555.26 137.74 556.19 137.74C557.13 137.74 557.88 138.5 557.88 139.43V144.51H562.96C563.9 144.5 564.65 145.26 564.65 146.2Z" fill="#C73B3D"/>
<path opacity="0.3" d="M963.64 178C965.197 178 966.46 176.737 966.46 175.18C966.46 173.623 965.197 172.36 963.64 172.36C962.083 172.36 960.82 173.623 960.82 175.18C960.82 176.737 962.083 178 963.64 178Z" fill="#66225C"/>
<path opacity="0.3" d="M725.1 253.23C725.1 254.16 724.34 254.92 723.41 254.92H718.33V260C718.33 260.93 717.57 261.69 716.64 261.69C715.7 261.69 714.95 260.92 714.95 260V254.92H709.87C708.93 254.92 708.18 254.15 708.18 253.23C708.18 252.29 708.94 251.54 709.87 251.54H714.95V246.46C714.95 245.52 715.71 244.77 716.64 244.77C717.58 244.77 718.33 245.53 718.33 246.46V251.54H723.41C724.34 251.54 725.1 252.3 725.1 253.23Z" fill="#C73B3D"/>
<path d="M796.011 378.834H788.887V385.258H796.011V378.834Z" fill="#E99D56"/>
<path d="M784.674 378.766H777.55V388.301C776.478 388.031 775.482 387.963 774.409 387.963C766.979 387.963 762.153 392.088 762.153 398.445C762.153 405.072 766.673 408.453 775.405 408.453C778.546 408.453 781.61 408.182 784.674 407.641V378.766ZM777.55 403.314C776.707 403.449 775.941 403.449 775.099 403.449C771.422 403.449 769.43 401.623 769.43 398.309C769.43 394.996 771.499 392.967 775.099 392.967C775.941 392.967 776.707 393.035 777.473 393.305L777.55 403.314Z" fill="#E99D56"/>
<path d="M788.887 400.676C788.887 406.086 788.581 408.182 787.508 409.941C786.436 411.699 784.98 412.848 781.84 414.133L788.427 416.906C791.568 415.553 793.1 414.268 794.249 412.307C795.398 410.346 795.934 407.844 795.934 402.84V388.436H788.81L788.887 400.676Z" fill="#E99D56"/>
<path d="M809.723 387.963C806.429 387.963 803.211 388.572 800.301 389.857V394.658C802.905 393.441 805.739 392.832 808.65 392.764C810.412 392.764 811.101 393.17 811.101 394.32V395.672C802.369 396.348 798.769 398.309 798.769 402.705C798.769 406.762 801.45 408.588 807.425 408.588C810.795 408.588 814.242 408.318 817.612 407.912V395.199C817.612 392.629 817.459 391.412 816.846 390.465C815.774 388.842 813.399 387.963 809.723 387.963ZM811.484 403.922C810.335 404.125 809.186 404.193 808.037 404.193C806.122 404.193 805.203 403.652 805.203 402.434C805.203 400.811 806.735 400.135 811.484 399.73V403.922Z" fill="#E99D56"/>
<path d="M880.732 408.791C887.932 408.791 892.528 404.734 892.528 398.174C892.528 391.818 888.162 387.895 881.038 387.895C873.761 387.895 869.242 391.953 869.242 398.512C869.242 404.869 873.608 408.791 880.732 408.791ZM880.962 392.9C883.719 392.9 885.251 394.928 885.251 398.309C885.251 401.691 883.643 403.719 880.885 403.719C878.127 403.719 876.519 401.758 876.519 398.309C876.519 394.861 878.127 392.9 880.962 392.9Z" fill="#E99D56"/>
<path d="M870.008 388.91C866.944 388.301 863.803 388.031 860.739 388.031C850.321 388.031 844.423 392.02 844.423 399.121C844.423 404.801 848.406 408.453 854.611 408.453C856.22 408.52 857.752 408.182 859.207 407.574V407.709C859.207 411.699 857.215 413.322 852.543 413.322C849.862 413.322 847.257 412.781 844.883 411.699V417.447C847.334 418.258 849.938 418.664 852.543 418.664C856.296 418.664 859.284 417.92 861.505 416.5C861.888 416.297 862.271 416.027 862.577 415.756C863.19 415.283 863.65 414.742 864.109 414.133C865.641 412.037 866.178 409.535 866.178 404.193V402.502C866.101 401.623 866.101 400.811 866.101 399.932L866.024 396.551L865.948 393.914V393.238C867.403 393.373 865.641 393.102 867.556 393.373L870.008 388.91ZM859.284 402.57V403.043C858.441 403.314 857.522 403.449 856.603 403.449C853.462 403.449 851.7 401.691 851.7 398.58C851.7 396.416 852.619 394.861 854.304 393.982C855.53 393.373 856.986 393.035 858.441 393.102H859.207V393.576L859.284 395.605L859.36 398.445C859.36 399.324 859.437 400.135 859.437 400.811L859.284 402.57Z" fill="#E99D56"/>
<path d="M832.32 387.963C828.566 388.031 824.736 388.504 821.136 389.383V408.25H828.26V393.441C829.332 393.17 830.405 392.967 831.554 392.967C834.082 392.967 835.001 393.846 835.001 396.281V408.25H842.125V396.01C842.125 392.9 841.665 391.412 840.21 390.127C838.754 388.842 835.997 387.963 832.32 387.963Z" fill="#E99D56"/>
<path d="M939.562 398.512C939.562 392.156 935.195 388.234 928.071 388.234C920.794 388.234 916.275 392.291 916.275 398.85C916.275 405.139 920.641 409.129 927.842 409.129C935.042 409.129 939.562 405.072 939.562 398.512ZM923.552 398.715C923.552 395.266 925.161 393.305 927.995 393.305C930.829 393.305 932.285 395.334 932.285 398.715C932.285 402.096 930.676 404.125 927.918 404.125C925.161 404.125 923.552 402.164 923.552 398.715Z" fill="#E99D56"/>
<path d="M955.571 396.619V408.588H962.695V396.416C962.695 393.305 962.236 391.818 960.78 390.533C959.325 389.248 956.567 388.369 952.89 388.369C949.137 388.436 945.307 388.91 941.706 389.789V408.656H948.83V393.779C949.903 393.508 950.975 393.305 952.124 393.373C954.652 393.373 955.571 394.252 955.571 396.619Z" fill="#E99D56"/>
<path d="M985.063 408.115C986.059 407.168 986.442 406.154 986.442 403.99V395.469H981.462V403.787C981.462 405.477 980.85 406.086 979.088 406.086C978.322 406.086 977.556 405.951 976.79 405.748V395.469H971.887V408.588C974.415 409.197 977.02 409.535 979.701 409.535C982.152 409.602 983.99 409.129 985.063 408.115Z" fill="#E99D56"/>
<path d="M898.35 406.221C900.648 408.115 904.861 408.791 907.696 408.723C909.917 408.723 912.138 408.25 914.13 407.303V402.299C912.598 402.975 910.913 403.381 909.228 403.381C906.47 403.381 902.104 402.434 902.104 398.107C902.104 393.779 906.47 392.832 909.228 392.832C910.913 392.832 912.521 393.305 913.977 394.049V388.977C912.062 388.166 909.917 387.76 907.772 387.76C904.938 387.76 901.031 388.504 898.733 390.465C896.282 392.426 894.826 395.199 894.826 398.107C894.597 401.217 895.899 404.125 898.35 406.221Z" fill="#E99D56"/>
<path d="M994.025 400.609C992.876 400.135 992.953 399.594 992.953 399.594C992.953 399.594 992.953 398.715 994.944 398.715C996.4 398.715 997.779 399.053 999.081 399.594V396.281C997.549 395.605 995.787 395.334 994.025 395.469C988.28 395.672 988.357 399.527 988.357 399.527C988.203 400.541 988.663 401.555 989.429 402.367C990.655 403.246 992.033 403.922 993.489 404.395C994.561 404.734 994.944 405.207 994.944 405.41C994.944 405.613 995.097 406.357 992.953 406.357C991.344 406.289 989.812 405.883 988.357 405.275V408.723C990.501 409.467 992.876 409.738 995.097 409.467C997.242 409.129 999.387 408.52 999.617 405.477C999.847 402.434 996.476 401.623 994.025 400.609Z" fill="#E99D56"/>
<path d="M970.126 403.652H964.457V408.656H970.126V403.652Z" fill="#E99D56"/>
<path d="M800.913 385.123C800.837 385.055 800.76 384.92 800.76 384.785V383.365C800.76 382.959 800.913 382.621 801.373 382.35L803.748 380.254C805.126 379.307 806.199 378.564 806.888 378.023C807.578 377.482 808.114 377.008 808.497 376.602C808.88 376.197 809.033 375.791 809.033 375.385C809.033 374.303 808.42 373.762 807.271 373.762C806.659 373.762 806.122 373.898 805.816 374.236C805.51 374.574 805.28 374.98 805.126 375.453C805.05 375.791 804.743 375.926 804.36 375.926H801.45C801.296 375.926 801.22 375.859 801.067 375.791C800.913 375.723 800.913 375.588 800.913 375.453C800.913 374.574 801.22 373.762 801.756 373.086C802.292 372.342 802.982 371.801 803.977 371.328C804.973 370.855 805.969 370.719 807.195 370.719C808.497 370.719 809.569 370.922 810.489 371.26C811.408 371.598 812.097 372.139 812.557 372.816C813.016 373.492 813.246 374.236 813.246 375.115C813.246 376.061 812.94 376.941 812.25 377.684C811.561 378.496 810.565 379.307 809.186 380.186L807.195 382.215H813.093C813.246 382.215 813.399 382.283 813.553 382.35C813.629 382.418 813.706 382.553 813.706 382.689V384.717C813.706 384.852 813.629 384.988 813.553 385.055C813.476 385.123 813.323 385.258 813.093 385.258H801.373C801.143 385.258 801.067 385.191 800.913 385.123Z" fill="#E99D56"/>
<path d="M817.689 383.973C816.617 383.027 816.004 381.674 815.927 380.119C815.927 379.375 815.851 378.766 815.851 378.158C815.851 377.549 815.851 376.941 815.927 376.129C816.004 375.115 816.234 374.236 816.77 373.424C817.229 372.613 817.996 372.004 818.991 371.531C819.987 371.057 821.136 370.855 822.515 370.855C824.583 370.855 826.192 371.395 827.264 372.342C828.413 373.289 828.949 374.574 829.103 376.129C829.103 376.873 829.179 377.549 829.179 378.158C829.179 378.699 829.179 379.375 829.103 380.119C829.026 381.742 828.413 383.027 827.341 383.973C826.268 384.988 824.66 385.461 822.515 385.461C820.447 385.461 818.838 384.988 817.689 383.973ZM824.2 381.877C824.583 381.471 824.813 380.795 824.813 380.051C824.813 379.645 824.89 379.037 824.89 378.158C824.89 377.279 824.89 376.67 824.813 376.332C824.813 375.588 824.583 374.98 824.2 374.506C823.817 374.033 823.281 373.762 822.515 373.762C821.749 373.762 821.213 374.033 820.83 374.439C820.447 374.844 820.217 375.52 820.217 376.264C820.217 376.602 820.217 377.279 820.217 378.09C820.217 378.969 820.217 379.578 820.217 379.984C820.294 381.674 821.06 382.486 822.515 382.486C823.281 382.553 823.817 382.283 824.2 381.877Z" fill="#E99D56"/>
<path d="M831.477 385.123C831.401 385.055 831.324 384.92 831.324 384.785V383.365C831.324 382.959 831.477 382.621 831.937 382.35L834.312 380.254C835.69 379.307 836.763 378.564 837.452 378.023C838.142 377.482 838.678 377.008 839.061 376.602C839.444 376.197 839.597 375.791 839.597 375.385C839.597 374.303 838.984 373.762 837.835 373.762C837.222 373.762 836.686 373.898 836.38 374.236C836.073 374.574 835.844 374.98 835.69 375.453C835.614 375.791 835.307 375.926 834.924 375.926H832.014C831.86 375.926 831.784 375.859 831.631 375.791C831.477 375.723 831.477 375.588 831.477 375.453C831.477 374.574 831.784 373.762 832.32 373.086C832.856 372.342 833.546 371.801 834.541 371.328C835.537 370.855 836.533 370.719 837.759 370.719C839.061 370.719 840.133 370.922 841.052 371.26C841.972 371.598 842.661 372.139 843.121 372.816C843.58 373.492 843.81 374.236 843.81 375.115C843.81 376.061 843.504 376.941 842.814 377.684C842.125 378.496 841.129 379.307 839.75 380.186L837.605 382.08H843.504C843.657 382.08 843.81 382.148 843.963 382.215C844.04 382.283 844.116 382.418 844.116 382.553V384.582C844.116 384.717 844.04 384.852 843.963 384.92C843.887 384.988 843.733 385.055 843.504 385.055H831.937C831.707 385.258 831.63 385.191 831.477 385.123Z" fill="#E99D56"/>
<path d="M851.24 385.123C851.087 384.988 851.087 384.92 851.087 384.785V375.115L847.947 377.279C847.87 377.346 847.717 377.414 847.564 377.414C847.41 377.414 847.257 377.346 847.104 377.143L845.725 375.588C845.649 375.453 845.649 375.385 845.649 375.25C845.649 375.047 845.725 374.912 845.955 374.844L851.24 371.26C851.394 371.193 851.623 371.125 851.777 371.125H854.688C854.841 371.125 854.994 371.193 855.071 371.26C855.147 371.328 855.224 371.463 855.224 371.598V384.785C855.224 384.92 855.147 385.055 855.071 385.123C854.994 385.191 854.841 385.258 854.688 385.258H851.7C851.547 385.258 851.394 385.191 851.24 385.123Z" fill="#E99D56"/>
<path d="M919.186 427.793C917.96 426.846 917.347 425.561 917.194 423.871C917.194 423.668 917.194 423.33 917.194 422.789C917.194 422.248 917.194 421.91 917.194 421.707C917.271 420.016 917.96 418.732 919.186 417.785C920.411 416.838 922.097 416.365 924.241 416.365C926.386 416.365 928.071 416.838 929.374 417.785C930.599 418.732 931.289 420.016 931.365 421.707C931.365 421.91 931.365 422.248 931.365 422.789C931.365 423.33 931.365 423.668 931.365 423.871C931.289 425.561 930.599 426.846 929.374 427.793C928.148 428.74 926.463 429.213 924.241 429.213C922.097 429.213 920.335 428.74 919.186 427.793ZM926.003 425.697C926.386 425.291 926.616 424.615 926.616 423.736C926.616 423.6 926.616 423.262 926.616 422.789C926.616 422.316 926.616 421.977 926.616 421.842C926.539 420.963 926.31 420.355 925.927 419.949C925.544 419.543 924.931 419.34 924.165 419.34C922.709 419.34 921.867 420.219 921.79 421.91V422.857V423.803C921.79 424.682 922.02 425.291 922.403 425.764C922.786 426.17 923.399 426.373 924.165 426.373C925.084 426.305 925.62 426.102 926.003 425.697Z" fill="#E99D56"/>
<path d="M934.276 428.807C934.123 428.672 934.123 428.537 934.123 428.402V417.244C934.123 417.041 934.2 416.906 934.276 416.838C934.429 416.703 934.583 416.703 934.736 416.703H937.8C938.03 416.703 938.183 416.77 938.259 416.838C938.413 416.973 938.489 417.109 938.489 417.244V418.123C938.949 417.582 939.562 417.176 940.328 416.838C941.094 416.5 941.936 416.365 942.932 416.365C944.541 416.365 945.766 416.838 946.762 417.785C947.758 418.732 948.218 420.016 948.218 421.707V428.334C948.218 428.469 948.141 428.605 948.064 428.74C947.911 428.875 947.758 428.943 947.605 428.943H944.234C944.081 428.943 943.928 428.875 943.775 428.74C943.622 428.605 943.545 428.469 943.545 428.334V421.842C943.545 421.098 943.315 420.557 942.932 420.152C942.549 419.746 941.936 419.543 941.17 419.543C940.404 419.543 939.791 419.746 939.408 420.152C938.949 420.557 938.796 421.098 938.796 421.842V428.334C938.796 428.469 938.719 428.605 938.642 428.74C938.566 428.875 938.336 428.943 938.183 428.943H934.812C934.506 428.943 934.353 428.943 934.276 428.807Z" fill="#E99D56"/>
<path d="M951.511 428.807C951.358 428.672 951.282 428.537 951.282 428.402V412.781C951.282 412.578 951.358 412.443 951.511 412.375C951.665 412.24 951.818 412.24 951.971 412.24H955.112C955.341 412.24 955.495 412.307 955.571 412.375C955.724 412.51 955.724 412.645 955.724 412.781V428.402C955.724 428.605 955.648 428.74 955.571 428.807C955.418 428.943 955.265 428.943 955.112 428.943H951.971C951.818 428.943 951.665 428.875 951.511 428.807Z" fill="#E99D56"/>
<path d="M959.095 414.742C958.942 414.607 958.942 414.471 958.942 414.336V412.24C958.942 412.037 959.018 411.902 959.095 411.834C959.248 411.699 959.401 411.699 959.555 411.699H962.772C963.002 411.699 963.155 411.766 963.231 411.834C963.385 411.969 963.385 412.105 963.385 412.24V414.336C963.385 414.539 963.308 414.674 963.231 414.742C963.078 414.877 962.925 414.877 962.772 414.877H959.631C959.401 414.877 959.248 414.809 959.095 414.742ZM959.172 428.807C959.018 428.672 959.018 428.537 959.018 428.402V417.244C959.018 417.041 959.095 416.906 959.172 416.838C959.325 416.703 959.478 416.703 959.631 416.703H962.772C963.002 416.703 963.155 416.77 963.231 416.838C963.385 416.973 963.385 417.109 963.385 417.244V428.402C963.385 428.537 963.308 428.672 963.231 428.807C963.078 428.943 962.925 429.01 962.772 429.01H959.631C959.478 428.943 959.248 428.943 959.172 428.807Z" fill="#E99D56"/>
<path d="M966.832 428.807C966.678 428.672 966.678 428.537 966.678 428.402V417.244C966.678 417.041 966.755 416.906 966.832 416.838C966.985 416.703 967.138 416.703 967.291 416.703H970.355C970.585 416.703 970.738 416.77 970.815 416.838C970.968 416.973 971.045 417.109 971.045 417.244V418.123C971.504 417.582 972.117 417.176 972.883 416.838C973.649 416.5 974.492 416.365 975.488 416.365C977.096 416.365 978.322 416.838 979.318 417.785C980.313 418.732 980.773 420.016 980.773 421.707V428.334C980.773 428.469 980.696 428.605 980.62 428.74C980.467 428.875 980.313 428.943 980.16 428.943H976.79C976.637 428.943 976.483 428.875 976.33 428.74C976.177 428.605 976.1 428.469 976.1 428.334V421.842C976.1 421.098 975.871 420.557 975.488 420.152C975.105 419.746 974.492 419.543 973.726 419.543C972.96 419.543 972.347 419.746 971.964 420.152C971.504 420.557 971.351 421.098 971.351 421.842V428.334C971.351 428.469 971.275 428.605 971.198 428.74C971.045 428.875 970.892 428.943 970.738 428.943H967.291C967.138 428.943 966.985 428.943 966.832 428.807Z" fill="#E99D56"/>
<path d="M985.216 427.658C983.99 426.643 983.301 425.156 983.301 423.195V422.383C983.378 420.49 984.067 419.07 985.293 417.988C986.518 416.906 988.203 416.432 990.272 416.432C991.804 416.432 993.106 416.703 994.102 417.244C995.174 417.785 995.94 418.529 996.476 419.475C997.013 420.422 997.242 421.504 997.242 422.721V423.262C997.242 423.398 997.166 423.533 997.089 423.668C996.936 423.803 996.783 423.871 996.63 423.871H988.05V424.006C988.05 424.75 988.28 425.359 988.663 425.832C989.046 426.305 989.582 426.508 990.272 426.508C990.731 426.508 991.114 426.441 991.344 426.238C991.65 426.102 991.88 425.9 992.11 425.629C992.263 425.426 992.416 425.359 992.493 425.291C992.57 425.223 992.723 425.223 992.953 425.223H996.247C996.4 425.223 996.553 425.291 996.63 425.359C996.783 425.426 996.783 425.561 996.783 425.697C996.783 426.102 996.553 426.576 996.017 427.117C995.481 427.658 994.715 428.131 993.719 428.537C992.723 428.943 991.574 429.145 990.195 429.145C988.203 429.213 986.442 428.672 985.216 427.658ZM992.57 421.572C992.57 420.76 992.34 420.152 991.957 419.678C991.574 419.205 990.961 419.002 990.272 419.002C989.582 419.002 989.046 419.205 988.586 419.678C988.203 420.152 987.974 420.76 987.974 421.504V421.572H992.57Z" fill="#E99D56"/>
</g>
<defs>
<linearGradient id="paint0_linear" x1="799.29" y1="530.166" x2="693.191" y2="530.166" gradientUnits="userSpaceOnUse">
<stop stop-color="#E99C56"/>
<stop offset="0.179" stop-color="#E59253"/>
<stop offset="0.489" stop-color="#DC764C"/>
<stop offset="0.888" stop-color="#CC4941"/>
<stop offset="1" stop-color="#C73B3D"/>
</linearGradient>
<linearGradient id="paint1_linear" x1="799.29" y1="530.166" x2="770.504" y2="530.166" gradientUnits="userSpaceOnUse">
<stop stop-color="#E99C56"/>
<stop offset="0.179" stop-color="#E59253"/>
<stop offset="0.489" stop-color="#DC764C"/>
<stop offset="0.888" stop-color="#CC4941"/>
<stop offset="1" stop-color="#C73B3D"/>
</linearGradient>
<linearGradient id="paint2_linear" x1="719.787" y1="530.166" x2="693.191" y2="530.166" gradientUnits="userSpaceOnUse">
<stop stop-color="#E99C56"/>
<stop offset="0.179" stop-color="#E59253"/>
<stop offset="0.489" stop-color="#DC764C"/>
<stop offset="0.888" stop-color="#CC4941"/>
<stop offset="1" stop-color="#C73B3D"/>
</linearGradient>
<linearGradient id="paint3_linear" x1="851.986" y1="496.18" x2="745.888" y2="496.18" gradientUnits="userSpaceOnUse">
<stop stop-color="#E99C56"/>
<stop offset="0.179" stop-color="#E59253"/>
<stop offset="0.489" stop-color="#DC764C"/>
<stop offset="0.888" stop-color="#CC4941"/>
<stop offset="1" stop-color="#C73B3D"/>
</linearGradient>
<linearGradient id="paint4_linear" x1="851.986" y1="496.18" x2="823.201" y2="496.18" gradientUnits="userSpaceOnUse">
<stop stop-color="#E99C56"/>
<stop offset="0.179" stop-color="#E59253"/>
<stop offset="0.489" stop-color="#DC764C"/>
<stop offset="0.888" stop-color="#CC4941"/>
<stop offset="1" stop-color="#C73B3D"/>
</linearGradient>
<linearGradient id="paint5_linear" x1="772.484" y1="496.18" x2="745.888" y2="496.18" gradientUnits="userSpaceOnUse">
<stop stop-color="#E99C56"/>
<stop offset="0.179" stop-color="#E59253"/>
<stop offset="0.489" stop-color="#DC764C"/>
<stop offset="0.888" stop-color="#CC4941"/>
<stop offset="1" stop-color="#C73B3D"/>
</linearGradient>
<linearGradient id="paint6_linear" x1="911.107" y1="552.361" x2="805.009" y2="552.361" gradientUnits="userSpaceOnUse">
<stop stop-color="#E99C56"/>
<stop offset="0.179" stop-color="#E59253"/>
<stop offset="0.489" stop-color="#DC764C"/>
<stop offset="0.888" stop-color="#CC4941"/>
<stop offset="1" stop-color="#C73B3D"/>
</linearGradient>
<linearGradient id="paint7_linear" x1="911.107" y1="552.361" x2="882.322" y2="552.361" gradientUnits="userSpaceOnUse">
<stop stop-color="#E99C56"/>
<stop offset="0.179" stop-color="#E59253"/>
<stop offset="0.489" stop-color="#DC764C"/>
<stop offset="0.888" stop-color="#CC4941"/>
<stop offset="1" stop-color="#C73B3D"/>
</linearGradient>
<linearGradient id="paint8_linear" x1="831.605" y1="552.361" x2="805.009" y2="552.361" gradientUnits="userSpaceOnUse">
<stop stop-color="#E99C56"/>
<stop offset="0.179" stop-color="#E59253"/>
<stop offset="0.489" stop-color="#DC764C"/>
<stop offset="0.888" stop-color="#CC4941"/>
<stop offset="1" stop-color="#C73B3D"/>
</linearGradient>
<linearGradient id="paint9_linear" x1="557.302" y1="367.602" x2="598.464" y2="367.602" gradientUnits="userSpaceOnUse">
<stop stop-color="#E99C56"/>
<stop offset="0.179" stop-color="#E59253"/>
<stop offset="0.489" stop-color="#DC764C"/>
<stop offset="0.888" stop-color="#CC4941"/>
<stop offset="1" stop-color="#C73B3D"/>
</linearGradient>
<linearGradient id="paint10_linear" x1="557.302" y1="367.602" x2="577.364" y2="367.602" gradientUnits="userSpaceOnUse">
<stop stop-color="#E99C56"/>
<stop offset="0.179" stop-color="#E59253"/>
<stop offset="0.489" stop-color="#DC764C"/>
<stop offset="0.888" stop-color="#CC4941"/>
<stop offset="1" stop-color="#C73B3D"/>
</linearGradient>
<linearGradient id="paint11_linear" x1="665.543" y1="487.276" x2="641.15" y2="487.276" gradientUnits="userSpaceOnUse">
<stop stop-color="#E99C56"/>
<stop offset="0.179" stop-color="#E59253"/>
<stop offset="0.489" stop-color="#DC764C"/>
<stop offset="0.888" stop-color="#CC4941"/>
<stop offset="1" stop-color="#C73B3D"/>
</linearGradient>
<linearGradient id="paint12_linear" x1="665.543" y1="526.688" x2="641.15" y2="526.688" gradientUnits="userSpaceOnUse">
<stop stop-color="#E99C56"/>
<stop offset="0.179" stop-color="#E59253"/>
<stop offset="0.489" stop-color="#DC764C"/>
<stop offset="0.888" stop-color="#CC4941"/>
<stop offset="1" stop-color="#C73B3D"/>
</linearGradient>
<linearGradient id="paint13_linear" x1="1009.48" y1="393.042" x2="1003.01" y2="393.042" gradientUnits="userSpaceOnUse">
<stop stop-color="#E99C56"/>
<stop offset="0.179" stop-color="#E59253"/>
<stop offset="0.489" stop-color="#DC764C"/>
<stop offset="0.888" stop-color="#CC4941"/>
<stop offset="1" stop-color="#C73B3D"/>
</linearGradient>
<linearGradient id="paint14_linear" x1="964.185" y1="454.41" x2="957.715" y2="454.41" gradientUnits="userSpaceOnUse">
<stop stop-color="#E99C56"/>
<stop offset="0.179" stop-color="#E59253"/>
<stop offset="0.489" stop-color="#DC764C"/>
<stop offset="0.888" stop-color="#CC4941"/>
<stop offset="1" stop-color="#C73B3D"/>
</linearGradient>
<clipPath id="clip0">
<rect width="1025.19" height="512" fill="white"/>
</clipPath>
</defs>
</svg>
