<svg fill="none" height="512" viewBox="0 0 1026 512" width="1026" xmlns="http://www.w3.org/2000/svg" xmlns:xlink="http://www.w3.org/1999/xlink"><linearGradient id="a"><stop offset="0" stop-color="#e99c56"/><stop offset=".179" stop-color="#e59253"/><stop offset=".489" stop-color="#dc764c"/><stop offset=".888" stop-color="#cc4941"/><stop offset="1" stop-color="#c73b3d"/></linearGradient><linearGradient id="b" gradientUnits="userSpaceOnUse" x1="799.29" x2="693.191" xlink:href="#a" y1="530.166" y2="530.166"/><linearGradient id="c" gradientUnits="userSpaceOnUse" x1="799.29" x2="770.504" xlink:href="#a" y1="530.166" y2="530.166"/><linearGradient id="d" gradientUnits="userSpaceOnUse" x1="719.787" x2="693.191" xlink:href="#a" y1="530.166" y2="530.166"/><linearGradient id="e" gradientUnits="userSpaceOnUse" x1="851.986" x2="745.888" xlink:href="#a" y1="496.18" y2="496.18"/><linearGradient id="f" gradientUnits="userSpaceOnUse" x1="851.986" x2="823.201" xlink:href="#a" y1="496.18" y2="496.18"/><linearGradient id="g" gradientUnits="userSpaceOnUse" x1="772.484" x2="745.888" xlink:href="#a" y1="496.18" y2="496.18"/><linearGradient id="h" gradientUnits="userSpaceOnUse" x1="911.107" x2="805.009" xlink:href="#a" y1="552.361" y2="552.361"/><linearGradient id="i" gradientUnits="userSpaceOnUse" x1="911.107" x2="882.322" xlink:href="#a" y1="552.361" y2="552.361"/><linearGradient id="j" gradientUnits="userSpaceOnUse" x1="831.605" x2="805.009" xlink:href="#a" y1="552.361" y2="552.361"/><linearGradient id="k" gradientUnits="userSpaceOnUse" x1="557.302" x2="598.464" xlink:href="#a" y1="367.602" y2="367.602"/><linearGradient id="l" gradientUnits="userSpaceOnUse" x1="557.302" x2="577.364" xlink:href="#a" y1="367.602" y2="367.602"/><linearGradient id="m" gradientUnits="userSpaceOnUse" x1="665.543" x2="641.15" xlink:href="#a" y1="487.276" y2="487.276"/><linearGradient id="n" gradientUnits="userSpaceOnUse" x1="665.543" x2="641.15" xlink:href="#a" y1="526.688" y2="526.688"/><linearGradient id="o" gradientUnits="userSpaceOnUse" x1="1009.48" x2="1003.01" xlink:href="#a" y1="393.042" y2="393.042"/><linearGradient id="p" gradientUnits="userSpaceOnUse" x1="964.185" x2="957.715" xlink:href="#a" y1="454.41" y2="454.41"/><clipPath id="q"><path d="m0 0h1025.19v512h-1025.19z"/></clipPath><g clip-path="url(#q)"><path d="m0 0h1025.5v512h-1025.5z" fill="#430632"/><g opacity=".3"><path d="m797.77 452.33h-101.55l-3.03 155.67h106.1z" fill="url(#b)" opacity=".3"/><path d="m798.88 452.33h-27.55l-.83 155.67h28.79z" fill="url(#c)" opacity=".3"/><path d="m719.41 452.33h-25.46l-.76 155.67h26.6z" fill="url(#d)" opacity=".3"/><path d="m693.32 451.98v156.02zm-1.51 0h3.03v156.02h-3.03zm106.09 0v156.02zm-1.51 0h3.03v156.02h-3.03zm-76.91 21.32v134.7zm-1.52 0h3.03v134.7h-3.03zm53.05 1.65v133.05zm-1.51 0h3.03v133.05h-3.03zm-70.85 4.44 13.64 13.93zm13.64 15.45c-.39 0-.79-.15-1.08-.46l-13.64-13.93c-.59-.6-.58-1.56.02-2.14.6-.59 1.56-.58 2.14.02l13.64 13.93c.59.6.58 1.56-.02 2.14-.3.29-.68.44-1.06.44zm-13.64 2.74 13.64 13.93zm13.64 15.45c-.39 0-.79-.15-1.08-.46l-13.64-13.93c-.59-.6-.58-1.56.02-2.14.6-.59 1.56-.58 2.14.02l13.64 13.93c.59.6.58 1.56-.02 2.14-.3.29-.68.44-1.06.44zm-13.64 2.74 13.64 13.93zm13.64 15.44c-.39 0-.79-.15-1.08-.46l-13.64-13.93c-.59-.6-.58-1.56.02-2.14.6-.59 1.56-.57 2.14.02l13.64 13.93c.59.6.58 1.56-.02 2.14-.3.3-.68.44-1.06.44zm-13.64 2.75 13.64 13.93zm13.64 15.44c-.39 0-.79-.15-1.08-.46l-13.64-13.93c-.59-.6-.58-1.56.02-2.14.6-.59 1.56-.58 2.14.02l13.64 13.93c.59.6.58 1.56-.02 2.14-.3.3-.68.44-1.06.44zm-13.64 2.74 13.64 13.94zm13.64 15.45c-.39 0-.79-.15-1.08-.46l-13.64-13.93c-.59-.6-.58-1.56.02-2.14.6-.59 1.56-.57 2.14.02l13.64 13.93c.59.6.58 1.56-.02 2.14-.3.3-.68.44-1.06.44zm-13.64 2.74 13.64 13.93zm13.64 15.45c-.39 0-.79-.15-1.08-.46l-13.64-13.93c-.59-.6-.58-1.56.02-2.14.6-.59 1.56-.58 2.14.02l13.64 13.93c.59.6.58 1.56-.02 2.14-.3.29-.68.44-1.06.44zm-13.64 2.74 13.64 13.93zm13.64 15.45c-.39 0-.79-.15-1.08-.46l-13.64-13.93c-.59-.6-.58-1.56.02-2.14.6-.59 1.56-.57 2.14.02l13.64 13.93c.59.6.58 1.56-.02 2.14-.3.29-.68.44-1.06.44zm79.55-124.58-13.64 13.93zm-13.64 15.45c-.38 0-.77-.14-1.06-.43-.6-.59-.61-1.55-.02-2.14l13.64-13.93c.59-.6 1.54-.61 2.14-.02s.61 1.55.02 2.14l-13.64 13.93c-.29.29-.69.45-1.08.45zm13.64 2.74-13.64 13.93zm-13.64 15.45c-.38 0-.77-.14-1.06-.43-.6-.59-.61-1.55-.02-2.14l13.64-13.93c.59-.6 1.54-.61 2.14-.02s.61 1.55.02 2.14l-13.64 13.93c-.29.29-.69.45-1.08.45zm13.64 2.74-13.64 13.93zm-13.64 15.44c-.38 0-.77-.14-1.06-.43-.6-.59-.61-1.55-.02-2.14l13.64-13.93c.59-.6 1.54-.61 2.14-.02s.61 1.55.02 2.14l-13.64 13.93c-.29.3-.69.45-1.08.45zm13.64 2.75-13.64 13.93zm-13.64 15.44c-.38 0-.77-.14-1.06-.43-.6-.59-.61-1.55-.02-2.14l13.64-13.93c.59-.6 1.54-.61 2.14-.02s.61 1.55.02 2.14l-13.64 13.93c-.29.3-.69.45-1.08.45zm13.64 2.74-13.64 13.94zm-13.64 15.45c-.38 0-.77-.14-1.06-.43-.6-.59-.61-1.55-.02-2.14l13.64-13.93c.59-.6 1.54-.61 2.14-.02s.61 1.55.02 2.14l-13.64 13.93c-.29.3-.69.45-1.08.45zm13.64 2.74-13.64 13.93zm-13.64 15.45c-.38 0-.77-.14-1.06-.43-.6-.59-.61-1.55-.02-2.14l13.64-13.93c.59-.6 1.54-.61 2.14-.02s.61 1.55.02 2.14l-13.64 13.93c-.29.3-.69.45-1.08.45zm13.64 2.74-13.64 13.93zm-13.64 15.45c-.38 0-.77-.14-1.06-.43-.6-.59-.61-1.55-.02-2.14l13.64-13.93c.59-.6 1.54-.61 2.14-.02s.61 1.55.02 2.14l-13.64 13.93c-.29.3-.69.45-1.08.45z" fill="#7b123c" opacity=".3"/><path d="m772.13 429.82h-52.95l-26.47 22.21 26.47 22.21h52.95l26.48-22.21z" fill="#7b123c" opacity=".3"/><path d="m772.13 475.08h-52.95c-.198-.001-.389-.072-.54-.2l-26.47-22.21c-.094-.078-.17-.176-.222-.287-.051-.11-.078-.231-.078-.353s.027-.243.078-.353c.052-.111.128-.209.222-.287l26.47-22.21c.15-.13.34-.2.54-.2h52.95c.2 0 .38.07.54.2l26.47 22.21c.094.078.17.176.222.287.051.11.078.231.078.353s-.027.243-.078.353c-.052.111-.128.209-.222.287l-26.47 22.21c-.15.13-.342.201-.54.2zm-52.64-1.67h52.34l25.48-21.38-25.48-21.38h-52.34l-25.49 21.38z" fill="#7b123c" opacity=".3"/><path d="m728.47 499.09h33.35zm0-2.74h33.35v5.48h-33.35z" fill="#7b123c" opacity=".09"/><path d="m850.47 384.36h-101.55l-3.03 223.64h106.1z" fill="url(#e)" opacity=".3"/><path d="m851.58 384.36h-27.56l-.82 223.64h28.79z" fill="url(#f)" opacity=".3"/><path d="m772.1 384.36h-25.45l-.76 223.64h26.59z" fill="url(#g)" opacity=".3"/><g fill="#7b123c"><path d="m746.02 384.01v223.99zm-1.52 0h3.03v223.99h-3.03z" opacity=".09"/><path d="m850.6 384.01v223.99zm-1.51 0h3.03v223.99h-3.03z" opacity=".09"/><path d="m772.17 405.33v202.67zm-1.51 0h3.03v202.67h-3.03z" opacity=".09"/><path d="m823.71 406.98v201.02zm-1.52 0h3.03v201.02h-3.03z" opacity=".09"/><path d="m751.34 411.42 13.64 13.93zm13.64 15.44c-.39 0-.79-.15-1.08-.46l-13.64-13.93c-.59-.6-.58-1.56.02-2.14.6-.59 1.56-.58 2.14.02l13.64 13.93c.59.6.58 1.56-.02 2.14-.29.3-.67.44-1.06.44z" opacity=".09"/><path d="m751.34 429.61 13.64 13.93zm13.64 15.44c-.39 0-.79-.15-1.08-.46l-13.64-13.93c-.59-.6-.58-1.56.02-2.14.6-.59 1.56-.58 2.14.02l13.64 13.93c.59.6.58 1.56-.02 2.14-.29.3-.67.44-1.06.44z" opacity=".09"/><path d="m751.34 447.79 13.64 13.94zm13.64 15.45c-.39 0-.79-.15-1.08-.46l-13.64-13.93c-.59-.6-.58-1.56.02-2.14.6-.59 1.56-.58 2.14.02l13.64 13.93c.59.6.58 1.56-.02 2.14-.29.3-.67.44-1.06.44z" opacity=".09"/><path d="m751.34 465.98 13.64 13.93zm13.64 15.45c-.39 0-.79-.15-1.08-.46l-13.64-13.93c-.59-.6-.58-1.56.02-2.14.6-.59 1.56-.57 2.14.02l13.64 13.93c.59.6.58 1.56-.02 2.14-.29.3-.67.44-1.06.44z" opacity=".09"/><path d="m751.34 484.17 13.64 13.93zm13.64 15.45c-.39 0-.79-.15-1.08-.46l-13.64-13.93c-.59-.6-.58-1.56.02-2.14.6-.59 1.56-.58 2.14.02l13.64 13.93c.59.6.58 1.56-.02 2.14-.29.29-.67.44-1.06.44z" opacity=".09"/><path d="m751.34 502.36 13.64 13.93zm13.64 15.45c-.39 0-.79-.15-1.08-.46l-13.64-13.93c-.59-.6-.58-1.56.02-2.14.6-.59 1.56-.57 2.14.02l13.64 13.93c.59.6.58 1.56-.02 2.14-.29.29-.67.44-1.06.44z" opacity=".09"/><path d="m844.54 411.42-13.64 13.93zm-13.64 15.44c-.38 0-.77-.14-1.06-.43-.6-.59-.61-1.55-.02-2.14l13.64-13.93c.59-.6 1.54-.61 2.14-.02s.61 1.55.02 2.14l-13.64 13.93c-.3.3-.69.45-1.08.45z" opacity=".09"/><path d="m844.54 429.61-13.64 13.93zm-13.64 15.44c-.38 0-.77-.14-1.06-.43-.6-.59-.61-1.55-.02-2.14l13.64-13.93c.59-.6 1.54-.61 2.14-.02s.61 1.55.02 2.14l-13.64 13.93c-.3.3-.69.45-1.08.45z" opacity=".09"/><path d="m844.54 447.79-13.64 13.94zm-13.64 15.45c-.38 0-.77-.14-1.06-.43-.6-.59-.61-1.55-.02-2.14l13.64-13.93c.59-.6 1.54-.61 2.14-.02s.61 1.55.02 2.14l-13.64 13.93c-.3.3-.69.45-1.08.45z" opacity=".09"/><path d="m844.54 465.98-13.64 13.93zm-13.64 15.45c-.38 0-.77-.14-1.06-.43-.6-.59-.61-1.55-.02-2.14l13.64-13.93c.59-.6 1.54-.61 2.14-.02s.61 1.55.02 2.14l-13.64 13.93c-.3.3-.69.45-1.08.45z" opacity=".09"/><path d="m844.54 484.17-13.64 13.93zm-13.64 15.45c-.38 0-.77-.14-1.06-.43-.6-.59-.61-1.55-.02-2.14l13.64-13.93c.59-.6 1.54-.61 2.14-.02s.61 1.55.02 2.14l-13.64 13.93c-.3.3-.69.45-1.08.45z" opacity=".09"/><path d="m844.54 502.36-13.64 13.93zm-13.64 15.45c-.38 0-.77-.14-1.06-.43-.6-.59-.61-1.55-.02-2.14l13.64-13.93c.59-.6 1.54-.61 2.14-.02s.61 1.55.02 2.14l-13.64 13.93c-.3.29-.69.45-1.08.45z" opacity=".09"/><g opacity=".3"><path d="m824.83 361.85h-52.95l-26.47 22.21 26.47 22.21h52.95l26.47-22.21z" opacity=".3"/><path d="m824.83 407.1h-52.95c-.198-.001-.389-.072-.54-.2l-26.47-22.21c-.094-.078-.17-.176-.222-.286-.051-.111-.078-.232-.078-.354s.027-.243.078-.353c.052-.111.128-.209.222-.287l26.47-22.21c.15-.13.34-.2.54-.2h52.95c.2 0 .38.07.54.2l26.47 22.21c.094.078.17.176.222.287.051.11.078.231.078.353s-.027.243-.078.354c-.052.11-.128.208-.222.286l-26.47 22.21c-.152.127-.342.197-.54.2zm-52.65-1.66h52.34l25.48-21.38-25.48-21.38h-52.34l-25.48 21.38z" opacity=".3"/></g><path d="m781.17 431.12h33.35zm0-2.74h33.35v5.48h-33.35z" opacity=".09"/><path d="m781.17 449.31h33.35zm0-2.74h33.35v5.48h-33.35z" opacity=".09"/><path d="m781.17 467.5h33.35zm0-2.74h33.35v5.48h-33.35z" opacity=".09"/><path d="m781.17 485.69h33.35zm0-2.74h33.35v5.48h-33.35z" opacity=".09"/><path d="m781.17 503.88h33.35zm0-2.75h33.35v5.48h-33.35z" opacity=".09"/></g><g opacity=".3"><path d="m909.59 496.72h-101.55l-3.03 111.28h106.1z" fill="url(#h)" opacity=".3"/><path d="m910.7 496.72h-27.56l-.82 111.28h28.79z" fill="url(#i)" opacity=".3"/><path d="m831.22 496.72h-25.45l-.76 111.28h26.59z" fill="url(#j)" opacity=".3"/><g fill="#7b123c"><path d="m805.14 496.37v111.63zm-1.52 0h3.03v111.63h-3.03zm106.1 0v111.63zm-1.51 0h3.03v111.63h-3.03zm-76.92 21.32v90.31zm-1.51 0h3.03v90.31h-3.03zm53.05 1.65v88.66zm-1.52 0h3.03v88.66h-3.03zm-70.85 4.44 13.64 13.93zm13.65 15.45c-.39 0-.79-.15-1.08-.46l-13.64-13.93c-.59-.6-.58-1.56.02-2.14.6-.59 1.56-.58 2.14.02l13.64 13.93c.59.6.58 1.56-.02 2.14-.3.29-.68.44-1.06.44zm-13.65 2.74 13.64 13.93zm13.65 15.45c-.39 0-.79-.15-1.08-.46l-13.64-13.93c-.59-.6-.58-1.56.02-2.14.6-.59 1.56-.57 2.14.02l13.64 13.93c.59.6.58 1.56-.02 2.14-.3.29-.68.44-1.06.44zm-13.65 2.74 13.64 13.93zm13.65 15.44c-.39 0-.79-.15-1.08-.46l-13.64-13.93c-.59-.6-.58-1.56.02-2.14.6-.59 1.56-.58 2.14.02l13.64 13.93c.59.6.58 1.56-.02 2.14-.3.3-.68.44-1.06.44zm-13.65 2.75 13.64 13.93zm13.65 15.44c-.39 0-.79-.15-1.08-.46l-13.64-13.93c-.59-.6-.58-1.56.02-2.14.6-.59 1.56-.57 2.14.02l13.64 13.93c.59.6.58 1.56-.02 2.14-.3.3-.68.44-1.06.44zm79.55-70.01-13.64 13.93zm-13.64 15.45c-.38 0-.77-.14-1.06-.43-.6-.59-.61-1.55-.02-2.14l13.64-13.93c.59-.6 1.54-.61 2.14-.02s.61 1.55.02 2.14l-13.64 13.93c-.3.3-.69.45-1.08.45z" opacity=".3"/><g opacity=".3"><path d="m883.95 474.21h-52.95l-26.47 22.21 26.47 22.21h52.95l26.47-22.21z" opacity=".3"/><path d="m883.95 519.47h-52.95c-.198-.001-.389-.072-.54-.2l-26.47-22.21c-.094-.078-.17-.176-.222-.287-.051-.11-.078-.231-.078-.353s.027-.243.078-.354c.052-.11.128-.208.222-.286l26.47-22.21c.15-.13.34-.2.54-.2h52.95c.2 0 .38.07.54.2l26.47 22.21c.094.078.17.176.222.286.051.111.078.232.078.354s-.027.243-.078.353c-.052.111-.128.209-.222.287l-26.47 22.21c-.152.127-.342.197-.54.2zm-52.65-1.67h52.34l25.48-21.38-25.48-21.38h-52.34l-25.48 21.38z" opacity=".3"/></g></g></g></g><g opacity=".3"><path d="m557.3 346.17v-39.01l52.49-40.94 51.18 40.94v40.58z" fill="#e99c56" opacity=".3"/><path d="m660.97 347.78h-103.67l-3.05 237.83h111.29z" fill="#c73b3d" opacity=".3"/><path d="m660.97 347.78h-103.67l1.53 39.64h102.14z" fill="#430632" opacity=".3"/><path d="m598.46 347.78h-41.16l.61 39.64h40.55z" fill="url(#k)" opacity=".3"/><path d="m577.36 347.78h-20.06l.3 39.64h19.76z" fill="url(#l)" opacity=".3"/><path d="m598.46 465.17h67.08v120.44h-67.08z" fill="#e99c56" opacity=".3"/><path d="m662.49 427.06h-21.34v120.43h24.39z" fill="url(#m)" opacity=".3"/><path d="m663.88 505.88h-22.73v41.61h24.39z" fill="url(#n)" opacity=".3"/><path d="m663.17 305.98c-.01-.69-.35-1.35-.89-1.76l-51.15-40.92c-.37-.31-.83-.47-1.29-.49-.133-.01-.267-.01-.4 0-.46.01-.92.18-1.29.49l-51.15 40.92c-.54.42-.87 1.07-.89 1.76l-5.11 301.94 4.58.08.36-20.99h19.13v20.95h4.58v-20.95h16.69v20.95h4.56v-20.95h17.49v20.95h4.56v-20.95h16.69v20.95h4.58v-20.95h19.13l.36 20.99 4.56-.08zm-.57 236.82h-18.38v-35.07h17.78zm-18.38-39.63v-35.07h17.12l.6 35.07zm17.04-39.65h-17.03v-35.05h16.44zm-.68-39.63h-16.36v-35.07h15.77zm-.67-39.64h-15.69v-35.05h15.09zm-.67-39.64h-15.02v-12.24l14.48-19.57zm-84.17 237.82h-19.06l.6-35.05h18.46zm0-39.63h-18.38l.6-35.07h17.78zm0-39.63h-17.71l.6-35.07h17.12v35.07zm0-39.65h-17.03l.6-35.05h16.44v35.05zm0-39.63h-16.35l.58-35.07h15.77zm0-39.64h-15.69l.6-35.05h15.09zm0-39.64h-15.02l.54-31.81 14.48 19.57zm1.03-18.53-14.54-19.64 41.93-33.54zm20.24 256.35h-16.69v-35.05h16.69zm0-39.63h-16.69v-35.07h16.69zm0-39.63h-16.69v-35.07h16.69zm0-39.65h-16.69v-35.05h16.69zm0-39.63h-16.69v-35.07h16.69zm0-39.64h-16.69v-35.05h16.69zm0-39.64h-16.69v-11.89l16.69-13.26zm-14.7-19.32 25.66-49.79v29.42zm36.75 257.14h-17.49v-35.05h17.49zm0-39.63h-17.49v-35.07h17.49zm0-39.63h-17.49v-35.07h17.49zm0-39.65h-17.49v-35.05h17.49zm0-39.63h-17.49v-35.07h17.49zm0-39.64h-17.49v-35.05h17.49zm0-39.64h-17.49v-28.77l8.75-6.95 8.74 6.95zm-6.41-39.68v-29.43l25.66 49.79zm27.66 277.5h-16.69v-35.05h16.69zm0-39.63h-16.69v-35.07h16.69zm0-39.63h-16.69v-35.07h16.69zm0-39.65h-16.69v-35.05h16.69zm0-39.63h-16.69v-35.07h16.69zm0-39.64h-16.69v-35.05h16.69zm0-39.64h-16.69v-25.15l16.69 13.26zm3.55-18.53-27.4-53.19 41.93 33.54zm1.03 256.35v-35.05h18.46l.6 35.05z" fill="#7b123c" opacity=".3"/></g><g opacity=".3"><path d="m942.99 333.32h83.23v11.1h-83.23z" fill="#e99c56" opacity=".3"/><path d="m1028.09 323.4v18.95c0 1.28-1.03 2.3-2.3 2.3-1.28 0-2.3-1.03-2.3-2.3v-6.13h-22.83v7.19h-4.61v-7.19h-25.91v7.19h-4.61v-7.19h-21.82v6.13c0 1.28-1.03 2.3-2.3 2.3-1.26 0-2.3-1.03-2.3-2.3v-18.95c0-.61.242-1.195.674-1.626.431-.432 1.016-.674 1.626-.674s1.195.242 1.626.674c.432.431.674 1.016.674 1.626v8.21h79.78v-8.21c0-.61.24-1.195.67-1.626.44-.432 1.02-.674 1.63-.674s1.2.242 1.63.674c.43.431.67 1.016.67 1.626z" fill="#c73b3d" opacity=".3"/><path d="m1031.93 343.35v262.35c0 1.26-1.04 2.3-2.3 2.3h-92.05c-.61 0-1.195-.242-1.626-.674-.432-.431-.674-1.016-.674-1.626v-262.35c0-1.28 1.03-2.3 2.3-2.3h92.05c.61 0 1.2.242 1.63.674.43.431.67 1.016.67 1.626zm-47.64-96.51v12.27zm0 14.57c-.61 0-1.195-.242-1.626-.674-.432-.431-.674-1.016-.674-1.626v-12.27c0-.61.242-1.195.674-1.626.431-.432 1.016-.674 1.626-.674s1.195.242 1.626.674c.432.431.674 1.016.674 1.626v12.27c0 .61-.242 1.195-.674 1.626-.431.432-1.016.674-1.626.674z" fill="#c73b3d" opacity=".3"/><path d="m1031.92 343.35v262.35c0 1.26-1.03 2.29-2.29 2.29h-46.72v-266.93h46.72c1.26 0 2.29 1.03 2.29 2.29z" fill="#a52d36" opacity=".3"/><path d="m946.39 352.99h6.47v6.47h-6.47zm11.32 0h6.47v6.47h-6.47zm11.33 0h6.47v6.47h-6.47zm11.32 0h6.47v6.47h-6.47zm11.32 0h6.47v6.47h-6.47zm11.33 0h6.47v6.47h-6.47zm11.32 0h6.47v6.47h-6.47zm-67.94 12.27h6.47v6.47h-6.47zm11.32 0h6.47v6.47h-6.47zm11.33 0h6.47v6.47h-6.47zm22.64 0h6.47v6.47h-6.47zm11.33 0h6.47v6.47h-6.47zm11.32 0h6.47v6.47h-6.47zm-67.94 12.27h6.47v6.47h-6.47zm11.32 0h6.47v6.47h-6.47zm11.33 0h6.47v6.47h-6.47zm22.64 0h6.47v6.47h-6.47zm11.33 0h6.47v6.47h-6.47zm11.32 0h6.47v6.47h-6.47z" fill="#5e1b51" opacity=".3"/><g opacity=".3"><path d="m946.39 389.81h6.47v6.47h-6.47zm11.32 0h6.47v6.47h-6.47zm11.33 0h6.47v6.47h-6.47z" fill="#5e1b51" opacity=".3"/><path d="m991.68 389.81h6.47v6.47h-6.47z" fill="#e99c56" opacity=".3"/><path d="m1003.01 389.81h6.47v6.47h-6.47z" fill="url(#o)" opacity=".3"/><path d="m1014.33 389.81h6.47v6.47h-6.47z" fill="#e99c56" opacity=".3"/></g><g fill="#5e1b51"><path d="m946.39 402.08h6.47v6.47h-6.47zm11.32 0h6.47v6.47h-6.47zm11.33 0h6.47v6.47h-6.47zm22.64 0h6.47v6.47h-6.47zm11.33 0h6.47v6.47h-6.47zm11.32 0h6.47v6.47h-6.47z" opacity=".09"/><path d="m946.39 414.35h6.47v6.47h-6.47zm11.32 0h6.47v6.47h-6.47zm11.33 0h6.47v6.47h-6.47zm22.64 0h6.47v6.47h-6.47zm11.33 0h6.47v6.47h-6.47zm11.32 0h6.47v6.47h-6.47z" opacity=".09"/><path d="m946.39 426.63h6.47v6.47h-6.47zm11.32 0h6.47v6.47h-6.47zm11.33 0h6.47v6.47h-6.47zm22.64 0h6.47v6.47h-6.47zm11.33 0h6.47v6.47h-6.47zm11.32 0h6.47v6.47h-6.47z" opacity=".09"/><path d="m946.39 438.9h6.47v6.47h-6.47zm11.32 0h6.47v6.47h-6.47zm11.33 0h6.47v6.47h-6.47zm22.64 0h6.47v6.47h-6.47zm11.33 0h6.47v6.47h-6.47zm11.32 0h6.47v6.47h-6.47z" opacity=".09"/></g><g opacity=".3"><path d="m946.39 451.17h6.47v6.47h-6.47z" fill="#e99c56" opacity=".3"/><path d="m957.71 451.17h6.47v6.47h-6.47z" fill="url(#p)" opacity=".3"/><path d="m969.04 451.17h6.47v6.47h-6.47z" fill="#e99c56" opacity=".3"/><path d="m991.68 451.17h6.47v6.47h-6.47zm11.33 0h6.47v6.47h-6.47zm11.32 0h6.47v6.47h-6.47z" fill="#5e1b51" opacity=".3"/></g><path d="m946.39 463.45h6.47v6.47h-6.47zm11.32 0h6.47v6.47h-6.47zm11.33 0h6.47v6.47h-6.47zm22.64 0h6.47v6.47h-6.47zm11.33 0h6.47v6.47h-6.47zm11.32 0h6.47v6.47h-6.47z" fill="#5e1b51" opacity=".09"/><path d="m946.39 475.72h6.47v6.47h-6.47zm11.32 0h6.47v6.47h-6.47zm11.33 0h6.47v6.47h-6.47zm22.64 0h6.47v6.47h-6.47zm11.33 0h6.47v6.47h-6.47zm11.32 0h6.47v6.47h-6.47z" fill="#5e1b51" opacity=".09"/><path d="m946.39 488h6.47v6.47h-6.47zm11.32 0h6.47v6.47h-6.47zm11.33 0h6.47v6.47h-6.47zm22.64 0h6.47v6.47h-6.47zm11.33 0h6.47v6.47h-6.47zm11.32 0h6.47v6.47h-6.47z" fill="#5e1b51" opacity=".09"/><path d="m946.39 500.27h6.47v6.47h-6.47zm11.32 0h6.47v6.47h-6.47zm11.33 0h6.47v6.47h-6.47zm22.64 0h6.47v6.47h-6.47zm11.33 0h6.47v6.47h-6.47zm11.32 0h6.47v6.47h-6.47z" fill="#5e1b51" opacity=".09"/><path d="m1024.69 330.88c-.42.69-1.17 1.11-1.97 1.11h-78.25c-.8 0-1.55-.43-1.97-1.12s-.43-1.57-.06-2.27l39.78-73.65c.42-.78 1.29-1.25 2.08-1.21.83-.01 1.68.44 2.1 1.25l38.36 73.63c.37.72.35 1.57-.07 2.26z" fill="#7b123c" opacity=".09"/></g><path d="m668.88 145.68c1.557 0 2.82-1.263 2.82-2.82s-1.263-2.82-2.82-2.82-2.82 1.263-2.82 2.82 1.263 2.82 2.82 2.82z" fill="#e99c56" opacity=".3"/><path d="m668.45 157.28c4.645 0 8.41-3.765 8.41-8.41s-3.765-8.41-8.41-8.41-8.41 3.765-8.41 8.41 3.765 8.41 8.41 8.41z" fill="#420f3b" opacity=".3"/><path d="m1025.19 138.6h-82.44c0-10.27 8.33-18.6 18.6-18.6 2.5 0 4.88.5 7.05 1.39 5.56-8.31 15.03-13.79 25.78-13.79 17.13 0 31.01 13.88 31.01 31zm-454.12-74.56h-111.8c0-23.22 18.83-42.04 42.04-42.04 14.59 0 27.44 7.42 34.97 18.7 2.95-1.22 6.18-1.89 9.55-1.89 13.95.01 25.24 11.3 25.24 25.23z" fill="#54184b" opacity=".3"/><path d="m765.35 48.44c1.557 0 2.82-1.2626 2.82-2.82 0-1.5575-1.263-2.82-2.82-2.82s-2.82 1.2625-2.82 2.82c0 1.5574 1.263 2.82 2.82 2.82z" style="opacity:.3;fill:#e99c56;stroke:#e99c56;stroke-width:8.088;stroke-miterlimit:10;stroke-linecap:round;stroke-linejoin:round"/><path d="m991.83 244.17c1.557 0 2.82-1.263 2.82-2.82s-1.263-2.82-2.82-2.82-2.82 1.263-2.82 2.82 1.263 2.82 2.82 2.82z" fill="#66225c" opacity=".3"/><path d="m564.65 146.2c0 .93-.76 1.69-1.69 1.69h-5.08v5.08c0 .93-.76 1.69-1.69 1.69-.94 0-1.69-.77-1.69-1.69v-5.08h-5.08c-.94 0-1.69-.77-1.69-1.69 0-.94.76-1.69 1.69-1.69h5.08v-5.08c0-.94.76-1.69 1.69-1.69.94 0 1.69.76 1.69 1.69v5.08h5.08c.94-.01 1.69.75 1.69 1.69z" fill="#c73b3d" opacity=".3"/><path d="m963.64 178c1.557 0 2.82-1.263 2.82-2.82s-1.263-2.82-2.82-2.82-2.82 1.263-2.82 2.82 1.263 2.82 2.82 2.82z" fill="#66225c" opacity=".3"/><path d="m725.1 253.23c0 .93-.76 1.69-1.69 1.69h-5.08v5.08c0 .93-.76 1.69-1.69 1.69-.94 0-1.69-.77-1.69-1.69v-5.08h-5.08c-.94 0-1.69-.77-1.69-1.69 0-.94.76-1.69 1.69-1.69h5.08v-5.08c0-.94.76-1.69 1.69-1.69.94 0 1.69.76 1.69 1.69v5.08h5.08c.93 0 1.69.76 1.69 1.69z" fill="#c73b3d" opacity=".3"/><g fill="#e99d56"><path d="m796.011 378.834h-7.124v6.424h7.124z"/><path d="m784.674 378.766h-7.124v9.535c-1.072-.27-2.068-.338-3.141-.338-7.43 0-12.256 4.125-12.256 10.482 0 6.627 4.52 10.008 13.252 10.008 3.141 0 6.205-.271 9.269-.812zm-7.124 24.548c-.843.135-1.609.135-2.451.135-3.677 0-5.669-1.826-5.669-5.14 0-3.313 2.069-5.342 5.669-5.342.842 0 1.608.068 2.374.338z"/><path d="m788.887 400.676c0 5.41-.306 7.506-1.379 9.265-1.072 1.758-2.528 2.907-5.668 4.192l6.587 2.773c3.141-1.353 4.673-2.638 5.822-4.599s1.685-4.463 1.685-9.467v-14.404h-7.124z"/><path d="m809.723 387.963c-3.294 0-6.512.609-9.422 1.894v4.801c2.604-1.217 5.438-1.826 8.349-1.894 1.762 0 2.451.406 2.451 1.556v1.352c-8.732.676-12.332 2.637-12.332 7.033 0 4.057 2.681 5.883 8.656 5.883 3.37 0 6.817-.27 10.187-.676v-12.713c0-2.57-.153-3.787-.766-4.734-1.072-1.623-3.447-2.502-7.123-2.502zm1.761 15.959c-1.149.203-2.298.271-3.447.271-1.915 0-2.834-.541-2.834-1.759 0-1.623 1.532-2.299 6.281-2.704z"/><path d="m880.732 408.791c7.2 0 11.796-4.057 11.796-10.617 0-6.356-4.366-10.279-11.49-10.279-7.277 0-11.796 4.058-11.796 10.617 0 6.357 4.366 10.279 11.49 10.279zm.23-15.891c2.757 0 4.289 2.028 4.289 5.409 0 3.382-1.608 5.41-4.366 5.41s-4.366-1.961-4.366-5.41c0-3.448 1.608-5.409 4.443-5.409z"/><path d="m870.008 388.91c-3.064-.609-6.205-.879-9.269-.879-10.418 0-16.316 3.989-16.316 11.09 0 5.68 3.983 9.332 10.188 9.332 1.609.067 3.141-.271 4.596-.879v.135c0 3.99-1.992 5.613-6.664 5.613-2.681 0-5.286-.541-7.66-1.623v5.748c2.451.811 5.055 1.217 7.66 1.217 3.753 0 6.741-.744 8.962-2.164.383-.203.766-.473 1.072-.744.613-.473 1.073-1.014 1.532-1.623 1.532-2.096 2.069-4.598 2.069-9.94v-1.691c-.077-.879-.077-1.691-.077-2.57l-.077-3.381-.076-2.637v-.676c1.455.135-.307-.136 1.608.135zm-10.724 13.66v.473c-.843.271-1.762.406-2.681.406-3.141 0-4.903-1.758-4.903-4.869 0-2.164.919-3.719 2.604-4.598 1.226-.609 2.682-.947 4.137-.88h.766v.474l.077 2.029.076 2.84c0 .879.077 1.69.077 2.366z"/><path d="m832.32 387.963c-3.754.068-7.584.541-11.184 1.42v18.867h7.124v-14.809c1.072-.271 2.145-.474 3.294-.474 2.528 0 3.447.879 3.447 3.314v11.969h7.124v-12.24c0-3.11-.46-4.598-1.915-5.883-1.456-1.285-4.213-2.164-7.89-2.164z"/><path d="m939.562 398.512c0-6.356-4.367-10.278-11.491-10.278-7.277 0-11.796 4.057-11.796 10.616 0 6.289 4.366 10.279 11.567 10.279 7.2 0 11.72-4.057 11.72-10.617zm-16.01.203c0-3.449 1.609-5.41 4.443-5.41s4.29 2.029 4.29 5.41-1.609 5.41-4.367 5.41c-2.757 0-4.366-1.961-4.366-5.41z"/><path d="m955.571 396.619v11.969h7.124v-12.172c0-3.111-.459-4.598-1.915-5.883-1.455-1.285-4.213-2.164-7.89-2.164-3.753.067-7.583.541-11.184 1.42v18.867h7.124v-14.877c1.073-.271 2.145-.474 3.294-.406 2.528 0 3.447.879 3.447 3.246z"/><path d="m985.063 408.115c.996-.947 1.379-1.961 1.379-4.125v-8.521h-4.98v8.318c0 1.69-.612 2.299-2.374 2.299-.766 0-1.532-.135-2.298-.338v-10.279h-4.903v13.119c2.528.609 5.133.947 7.814.947 2.451.067 4.289-.406 5.362-1.42z"/><path d="m898.35 406.221c2.298 1.894 6.511 2.57 9.346 2.502 2.221 0 4.442-.473 6.434-1.42v-5.004c-1.532.676-3.217 1.082-4.902 1.082-2.758 0-7.124-.947-7.124-5.274 0-4.328 4.366-5.275 7.124-5.275 1.685 0 3.293.473 4.749 1.217v-5.072c-1.915-.811-4.06-1.217-6.205-1.217-2.834 0-6.741.744-9.039 2.705-2.451 1.961-3.907 4.734-3.907 7.642-.229 3.11 1.073 6.018 3.524 8.114z"/><path d="m994.025 400.609c-1.149-.474-1.072-1.015-1.072-1.015s0-.879 1.991-.879c1.456 0 2.835.338 4.137.879v-3.313c-1.532-.676-3.294-.947-5.056-.812-5.745.203-5.668 4.058-5.668 4.058-.154 1.014.306 2.028 1.072 2.84 1.226.879 2.604 1.555 4.06 2.028 1.072.339 1.455.812 1.455 1.015s.153.947-1.991.947c-1.609-.068-3.141-.474-4.596-1.082v3.448c2.144.744 4.519 1.015 6.74.744 2.145-.338 4.29-.947 4.52-3.99s-3.141-3.854-5.592-4.868z"/><path d="m970.126 403.652h-5.669v5.004h5.669z"/><path d="m800.913 385.123c-.076-.068-.153-.203-.153-.338v-1.42c0-.406.153-.744.613-1.015l2.375-2.096c1.378-.947 2.451-1.69 3.14-2.231.69-.541 1.226-1.015 1.609-1.421.383-.405.536-.811.536-1.217 0-1.082-.613-1.623-1.762-1.623-.612 0-1.149.136-1.455.474s-.536.744-.69 1.217c-.076.338-.383.473-.766.473h-2.91c-.154 0-.23-.067-.383-.135-.154-.068-.154-.203-.154-.338 0-.879.307-1.691.843-2.367.536-.744 1.226-1.285 2.221-1.758.996-.473 1.992-.609 3.218-.609 1.302 0 2.374.203 3.294.541.919.338 1.608.879 2.068 1.556.459.676.689 1.42.689 2.299 0 .946-.306 1.826-.996 2.569-.689.812-1.685 1.623-3.064 2.502l-1.991 2.029h5.898c.153 0 .306.068.46.135.076.068.153.203.153.339v2.028c0 .135-.077.271-.153.338-.077.068-.23.203-.46.203h-11.72c-.23 0-.306-.067-.46-.135z"/><path d="m817.689 383.973c-1.072-.946-1.685-2.299-1.762-3.854 0-.744-.076-1.353-.076-1.961 0-.609 0-1.217.076-2.029.077-1.014.307-1.893.843-2.705.459-.811 1.226-1.42 2.221-1.893.996-.474 2.145-.676 3.524-.676 2.068 0 3.677.54 4.749 1.487 1.149.947 1.685 2.232 1.839 3.787 0 .744.076 1.42.076 2.029 0 .541 0 1.217-.076 1.961-.077 1.623-.69 2.908-1.762 3.854-1.073 1.015-2.681 1.488-4.826 1.488-2.068 0-3.677-.473-4.826-1.488zm6.511-2.096c.383-.406.613-1.082.613-1.826 0-.406.077-1.014.077-1.893s0-1.488-.077-1.826c0-.744-.23-1.352-.613-1.826-.383-.473-.919-.744-1.685-.744s-1.302.271-1.685.677c-.383.405-.613 1.081-.613 1.825v1.826 1.894c.077 1.69.843 2.502 2.298 2.502.766.067 1.302-.203 1.685-.609z"/><path d="m831.477 385.123c-.076-.068-.153-.203-.153-.338v-1.42c0-.406.153-.744.613-1.015l2.375-2.096c1.378-.947 2.451-1.69 3.14-2.231.69-.541 1.226-1.015 1.609-1.421.383-.405.536-.811.536-1.217 0-1.082-.613-1.623-1.762-1.623-.613 0-1.149.136-1.455.474-.307.338-.536.744-.69 1.217-.076.338-.383.473-.766.473h-2.91c-.154 0-.23-.067-.383-.135-.154-.068-.154-.203-.154-.338 0-.879.307-1.691.843-2.367.536-.744 1.226-1.285 2.221-1.758.996-.473 1.992-.609 3.218-.609 1.302 0 2.374.203 3.293.541.92.338 1.609.879 2.069 1.556.459.676.689 1.42.689 2.299 0 .946-.306 1.826-.996 2.569-.689.812-1.685 1.623-3.064 2.502l-2.145 1.894h5.899c.153 0 .306.068.459.135.077.068.153.203.153.338v2.029c0 .135-.076.27-.153.338-.076.068-.23.135-.459.135h-11.567c-.23.203-.307.136-.46.068z"/><path d="m851.24 385.123c-.153-.135-.153-.203-.153-.338v-9.67l-3.14 2.164c-.077.067-.23.135-.383.135-.154 0-.307-.068-.46-.271l-1.379-1.555c-.076-.135-.076-.203-.076-.338 0-.203.076-.338.306-.406l5.285-3.584c.154-.067.383-.135.537-.135h2.911c.153 0 .306.068.383.135.076.068.153.203.153.338v13.187c0 .135-.077.27-.153.338-.077.068-.23.135-.383.135h-2.988c-.153 0-.306-.067-.46-.135z"/><path d="m919.186 427.793c-1.226-.947-1.839-2.232-1.992-3.922 0-.203 0-.541 0-1.082s0-.879 0-1.082c.077-1.691.766-2.975 1.992-3.922 1.225-.947 2.911-1.42 5.055-1.42 2.145 0 3.83.473 5.133 1.42 1.225.947 1.915 2.231 1.991 3.922v1.082 1.082c-.076 1.69-.766 2.975-1.991 3.922-1.226.947-2.911 1.42-5.133 1.42-2.144 0-3.906-.473-5.055-1.42zm6.817-2.096c.383-.406.613-1.082.613-1.961 0-.136 0-.474 0-.947s0-.812 0-.947c-.077-.879-.306-1.487-.689-1.893s-.996-.609-1.762-.609c-1.456 0-2.298.879-2.375 2.57v.947.946c0 .879.23 1.488.613 1.961.383.406.996.609 1.762.609.919-.068 1.455-.271 1.838-.676z"/><path d="m934.276 428.807c-.153-.135-.153-.27-.153-.405v-11.158c0-.203.077-.338.153-.406.153-.135.307-.135.46-.135h3.064c.23 0 .383.067.459.135.154.135.23.271.23.406v.879c.46-.541 1.073-.947 1.839-1.285s1.608-.473 2.604-.473c1.609 0 2.834.473 3.83 1.42s1.456 2.231 1.456 3.922v6.627c0 .135-.077.271-.154.406-.153.135-.306.203-.459.203h-3.371c-.153 0-.306-.068-.459-.203s-.23-.271-.23-.406v-6.492c0-.744-.23-1.285-.613-1.69-.383-.406-.996-.609-1.762-.609s-1.379.203-1.762.609c-.459.405-.612.946-.612 1.69v6.492c0 .135-.077.271-.154.406-.076.135-.306.203-.459.203h-3.371c-.306 0-.459 0-.536-.136z"/><path d="m951.511 428.807c-.153-.135-.229-.27-.229-.405v-15.621c0-.203.076-.338.229-.406.154-.135.307-.135.46-.135h3.141c.229 0 .383.067.459.135.153.135.153.27.153.406v15.621c0 .203-.076.338-.153.405-.153.136-.306.136-.459.136h-3.141c-.153 0-.306-.068-.46-.136z"/><path d="m959.095 414.742c-.153-.135-.153-.271-.153-.406v-2.096c0-.203.076-.338.153-.406.153-.135.306-.135.46-.135h3.217c.23 0 .383.067.459.135.154.135.154.271.154.406v2.096c0 .203-.077.338-.154.406-.153.135-.306.135-.459.135h-3.141c-.23 0-.383-.068-.536-.135zm.077 14.065c-.154-.135-.154-.27-.154-.405v-11.158c0-.203.077-.338.154-.406.153-.135.306-.135.459-.135h3.141c.23 0 .383.067.459.135.154.135.154.271.154.406v11.158c0 .135-.077.27-.154.405-.153.136-.306.203-.459.203h-3.141c-.153-.067-.383-.067-.459-.203z"/><path d="m966.832 428.807c-.154-.135-.154-.27-.154-.405v-11.158c0-.203.077-.338.154-.406.153-.135.306-.135.459-.135h3.064c.23 0 .383.067.46.135.153.135.23.271.23.406v.879c.459-.541 1.072-.947 1.838-1.285s1.609-.473 2.605-.473c1.608 0 2.834.473 3.83 1.42.995.947 1.455 2.231 1.455 3.922v6.627c0 .135-.077.271-.153.406-.153.135-.307.203-.46.203h-3.37c-.153 0-.307-.068-.46-.203s-.23-.271-.23-.406v-6.492c0-.744-.229-1.285-.612-1.69-.383-.406-.996-.609-1.762-.609s-1.379.203-1.762.609c-.46.405-.613.946-.613 1.69v6.492c0 .135-.076.271-.153.406-.153.135-.306.203-.46.203h-3.447c-.153 0-.306 0-.459-.136z"/><path d="m985.216 427.658c-1.226-1.015-1.915-2.502-1.915-4.463v-.812c.077-1.893.766-3.313 1.992-4.395 1.225-1.082 2.91-1.556 4.979-1.556 1.532 0 2.834.271 3.83.812 1.072.541 1.838 1.285 2.374 2.231.537.947.766 2.029.766 3.246v.541c0 .136-.076.271-.153.406-.153.135-.306.203-.459.203h-8.58v.135c0 .744.23 1.353.613 1.826s.919.676 1.609.676c.459 0 .842-.067 1.072-.27.306-.136.536-.338.766-.609.153-.203.306-.27.383-.338s.23-.068.46-.068h3.294c.153 0 .306.068.383.136.153.067.153.202.153.338 0 .405-.23.879-.766 1.42s-1.302 1.014-2.298 1.42-2.145.608-3.524.608c-1.992.068-3.753-.473-4.979-1.487zm7.354-6.086c0-.812-.23-1.42-.613-1.894-.383-.473-.996-.676-1.685-.676-.69 0-1.226.203-1.686.676-.383.474-.612 1.082-.612 1.826v.068z"/></g></g></svg>