<svg version="1.1" id="Layer_1" xmlns="http://www.w3.org/2000/svg" x="0" y="0" viewBox="0 0 1025.19 512" xml:space="preserve"><style>.st0{fill:#430632}.st1{fill:#54184b}.st1,.st2{opacity:.3}.st6{fill:#7b123c}.st13{fill:#e99c56}.st14{fill:#c73b3d}.st20{fill:none}.st22{fill:#5e1b51}.st31,.st32{opacity:.3;fill:#66225c}.st32{fill:#c73b3d}</style><path class="st0" d="M0 0h1025.5v512H0z"/><path class="st1" d="M1003.35 561.41h61.69V608h-61.69z"/><g class="st2"><linearGradient id="SVGID_1_" gradientUnits="userSpaceOnUse" x1="799.29" y1="530.166" x2="693.191" y2="530.166"><stop offset="0" stop-color="#e99c56"/><stop offset=".179" stop-color="#e59253"/><stop offset=".489" stop-color="#dc764c"/><stop offset=".888" stop-color="#cc4941"/><stop offset="1" stop-color="#c73b3d"/></linearGradient><path fill="url(#SVGID_1_)" d="M797.77 452.33H696.22L693.19 608h106.1z"/><linearGradient id="SVGID_2_" gradientUnits="userSpaceOnUse" x1="799.29" y1="530.166" x2="770.504" y2="530.166"><stop offset="0" stop-color="#e99c56"/><stop offset=".179" stop-color="#e59253"/><stop offset=".489" stop-color="#dc764c"/><stop offset=".888" stop-color="#cc4941"/><stop offset="1" stop-color="#c73b3d"/></linearGradient><path fill="url(#SVGID_2_)" d="M798.88 452.33h-27.55L770.5 608h28.79z"/><linearGradient id="SVGID_3_" gradientUnits="userSpaceOnUse" x1="719.787" y1="530.166" x2="693.191" y2="530.166"><stop offset="0" stop-color="#e99c56"/><stop offset=".179" stop-color="#e59253"/><stop offset=".489" stop-color="#dc764c"/><stop offset=".888" stop-color="#cc4941"/><stop offset="1" stop-color="#c73b3d"/></linearGradient><path fill="url(#SVGID_3_)" d="M719.41 452.33h-25.46L693.19 608h26.6z"/><path class="st6" d="M693.32 451.98V608M691.81 451.98h3.03V608h-3.03zM797.9 451.98V608M796.39 451.98h3.03V608h-3.03zM719.48 473.3V608M717.96 473.3h3.03V608h-3.03zM771.01 474.95V608M769.5 474.95h3.03V608h-3.03zM698.65 479.39l13.64 13.93M712.29 494.84c-.39 0-.79-.15-1.08-.46l-13.64-13.93c-.59-.6-.58-1.56.02-2.14.6-.59 1.56-.58 2.14.02l13.64 13.93c.59.6.58 1.56-.02 2.14-.3.29-.68.44-1.06.44zM698.65 497.58l13.64 13.93M712.29 513.03c-.39 0-.79-.15-1.08-.46l-13.64-13.93c-.59-.6-.58-1.56.02-2.14.6-.59 1.56-.58 2.14.02l13.64 13.93c.59.6.58 1.56-.02 2.14-.3.29-.68.44-1.06.44zM698.65 515.77l13.64 13.93M712.29 531.21c-.39 0-.79-.15-1.08-.46l-13.64-13.93c-.59-.6-.58-1.56.02-2.14.6-.59 1.56-.57 2.14.02l13.64 13.93c.59.6.58 1.56-.02 2.14-.3.3-.68.44-1.06.44zM698.65 533.96l13.64 13.93M712.29 549.4c-.39 0-.79-.15-1.08-.46l-13.64-13.93c-.59-.6-.58-1.56.02-2.14.6-.59 1.56-.58 2.14.02l13.64 13.93c.59.6.58 1.56-.02 2.14-.3.3-.68.44-1.06.44zM698.65 552.14l13.64 13.94M712.29 567.59c-.39 0-.79-.15-1.08-.46l-13.64-13.93c-.59-.6-.58-1.56.02-2.14.6-.59 1.56-.57 2.14.02l13.64 13.93c.59.6.58 1.56-.02 2.14-.3.3-.68.44-1.06.44zM698.65 570.33l13.64 13.93M712.29 585.78c-.39 0-.79-.15-1.08-.46l-13.64-13.93c-.59-.6-.58-1.56.02-2.14.6-.59 1.56-.58 2.14.02l13.64 13.93c.59.6.58 1.56-.02 2.14-.3.29-.68.44-1.06.44zM698.65 588.52l13.64 13.93M712.29 603.97c-.39 0-.79-.15-1.08-.46l-13.64-13.93c-.59-.6-.58-1.56.02-2.14.6-.59 1.56-.57 2.14.02l13.64 13.93c.59.6.58 1.56-.02 2.14-.3.29-.68.44-1.06.44zM791.84 479.39l-13.64 13.93M778.2 494.84c-.38 0-.77-.14-1.06-.43-.6-.59-.61-1.55-.02-2.14l13.64-13.93c.59-.6 1.54-.61 2.14-.02.6.59.61 1.55.02 2.14l-13.64 13.93c-.29.29-.69.45-1.08.45zM791.84 497.58l-13.64 13.93M778.2 513.03c-.38 0-.77-.14-1.06-.43-.6-.59-.61-1.55-.02-2.14l13.64-13.93c.59-.6 1.54-.61 2.14-.02.6.59.61 1.55.02 2.14l-13.64 13.93c-.29.29-.69.45-1.08.45zM791.84 515.77L778.2 529.7M778.2 531.21c-.38 0-.77-.14-1.06-.43-.6-.59-.61-1.55-.02-2.14l13.64-13.93c.59-.6 1.54-.61 2.14-.02.6.59.61 1.55.02 2.14l-13.64 13.93c-.29.3-.69.45-1.08.45zM791.84 533.96l-13.64 13.93M778.2 549.4c-.38 0-.77-.14-1.06-.43-.6-.59-.61-1.55-.02-2.14l13.64-13.93c.59-.6 1.54-.61 2.14-.02.6.59.61 1.55.02 2.14l-13.64 13.93c-.29.3-.69.45-1.08.45zM791.84 552.14l-13.64 13.94M778.2 567.59c-.38 0-.77-.14-1.06-.43-.6-.59-.61-1.55-.02-2.14l13.64-13.93c.59-.6 1.54-.61 2.14-.02.6.59.61 1.55.02 2.14l-13.64 13.93c-.29.3-.69.45-1.08.45zM791.84 570.33l-13.64 13.93M778.2 585.78c-.38 0-.77-.14-1.06-.43-.6-.59-.61-1.55-.02-2.14l13.64-13.93c.59-.6 1.54-.61 2.14-.02.6.59.61 1.55.02 2.14l-13.64 13.93c-.29.3-.69.45-1.08.45zM791.84 588.52l-13.64 13.93M778.2 603.97c-.38 0-.77-.14-1.06-.43-.6-.59-.61-1.55-.02-2.14l13.64-13.93c.59-.6 1.54-.61 2.14-.02.6.59.61 1.55.02 2.14l-13.64 13.93c-.29.3-.69.45-1.08.45z"/><path class="st6" d="M772.13 429.82h-52.95l-26.47 22.21 26.47 22.21h52.95l26.48-22.21z"/><path class="st6" d="M772.13 475.08h-52.95a.84.84 0 01-.54-.2l-26.47-22.21a.832.832 0 010-1.28l26.47-22.21c.15-.13.34-.2.54-.2h52.95c.2 0 .38.07.54.2l26.47 22.21a.832.832 0 010 1.28l-26.47 22.21a.82.82 0 01-.54.2zm-52.64-1.67h52.34l25.48-21.38-25.48-21.38h-52.34L694 452.03l25.49 21.38z"/><g><path class="st6" d="M728.47 499.09h33.35M728.47 496.35h33.35v5.48h-33.35z"/></g><g><path class="st6" d="M728.47 517.28h33.35M728.47 514.54h33.35v5.48h-33.35z"/></g><g><path class="st6" d="M728.47 535.47h33.35M728.47 532.73h33.35v5.48h-33.35z"/></g><g><path class="st6" d="M728.47 553.66h33.35M728.47 550.92h33.35v5.48h-33.35z"/></g><g><path class="st6" d="M728.47 571.85h33.35M728.47 569.11h33.35v5.48h-33.35z"/></g><g><path class="st6" d="M728.47 590.04h33.35M728.47 587.3h33.35v5.48h-33.35z"/></g><linearGradient id="SVGID_4_" gradientUnits="userSpaceOnUse" x1="851.986" y1="496.18" x2="745.888" y2="496.18"><stop offset="0" stop-color="#e99c56"/><stop offset=".179" stop-color="#e59253"/><stop offset=".489" stop-color="#dc764c"/><stop offset=".888" stop-color="#cc4941"/><stop offset="1" stop-color="#c73b3d"/></linearGradient><path fill="url(#SVGID_4_)" d="M850.47 384.36H748.92L745.89 608h106.1z"/><linearGradient id="SVGID_5_" gradientUnits="userSpaceOnUse" x1="851.986" y1="496.18" x2="823.201" y2="496.18"><stop offset="0" stop-color="#e99c56"/><stop offset=".179" stop-color="#e59253"/><stop offset=".489" stop-color="#dc764c"/><stop offset=".888" stop-color="#cc4941"/><stop offset="1" stop-color="#c73b3d"/></linearGradient><path fill="url(#SVGID_5_)" d="M851.58 384.36h-27.56L823.2 608h28.79z"/><linearGradient id="SVGID_6_" gradientUnits="userSpaceOnUse" x1="772.484" y1="496.18" x2="745.888" y2="496.18"><stop offset="0" stop-color="#e99c56"/><stop offset=".179" stop-color="#e59253"/><stop offset=".489" stop-color="#dc764c"/><stop offset=".888" stop-color="#cc4941"/><stop offset="1" stop-color="#c73b3d"/></linearGradient><path fill="url(#SVGID_6_)" d="M772.1 384.36h-25.45L745.89 608h26.59z"/><g><path class="st6" d="M746.02 384.01V608M744.5 384.01h3.03V608h-3.03z"/></g><g><path class="st6" d="M850.6 384.01V608M849.09 384.01h3.03V608h-3.03z"/></g><g><path class="st6" d="M772.17 405.33V608M770.66 405.33h3.03V608h-3.03z"/></g><g><path class="st6" d="M823.71 406.98V608M822.19 406.98h3.03V608h-3.03z"/></g><g><path class="st6" d="M751.34 411.42l13.64 13.93M764.98 426.86c-.39 0-.79-.15-1.08-.46l-13.64-13.93c-.59-.6-.58-1.56.02-2.14.6-.59 1.56-.58 2.14.02l13.64 13.93c.59.6.58 1.56-.02 2.14-.29.3-.67.44-1.06.44z"/></g><g><path class="st6" d="M751.34 429.61l13.64 13.93M764.98 445.05c-.39 0-.79-.15-1.08-.46l-13.64-13.93c-.59-.6-.58-1.56.02-2.14.6-.59 1.56-.58 2.14.02l13.64 13.93c.59.6.58 1.56-.02 2.14-.29.3-.67.44-1.06.44z"/></g><g><path class="st6" d="M751.34 447.79l13.64 13.94M764.98 463.24c-.39 0-.79-.15-1.08-.46l-13.64-13.93c-.59-.6-.58-1.56.02-2.14.6-.59 1.56-.58 2.14.02l13.64 13.93c.59.6.58 1.56-.02 2.14-.29.3-.67.44-1.06.44z"/></g><g><path class="st6" d="M751.34 465.98l13.64 13.93M764.98 481.43c-.39 0-.79-.15-1.08-.46l-13.64-13.93c-.59-.6-.58-1.56.02-2.14.6-.59 1.56-.57 2.14.02l13.64 13.93c.59.6.58 1.56-.02 2.14-.29.3-.67.44-1.06.44z"/></g><g><path class="st6" d="M751.34 484.17l13.64 13.93M764.98 499.62c-.39 0-.79-.15-1.08-.46l-13.64-13.93c-.59-.6-.58-1.56.02-2.14.6-.59 1.56-.58 2.14.02l13.64 13.93c.59.6.58 1.56-.02 2.14-.29.29-.67.44-1.06.44z"/></g><g><path class="st6" d="M751.34 502.36l13.64 13.93M764.98 517.81c-.39 0-.79-.15-1.08-.46l-13.64-13.93c-.59-.6-.58-1.56.02-2.14.6-.59 1.56-.57 2.14.02l13.64 13.93c.59.6.58 1.56-.02 2.14-.29.29-.67.44-1.06.44z"/></g><g><path class="st6" d="M751.34 520.55l13.64 13.93M764.98 536c-.39 0-.79-.15-1.08-.46l-13.64-13.93c-.59-.6-.58-1.56.02-2.14.6-.59 1.56-.58 2.14.02l13.64 13.93c.59.6.58 1.56-.02 2.14-.29.29-.67.44-1.06.44z"/></g><g><path class="st6" d="M751.34 538.74l13.64 13.93M764.98 554.18c-.39 0-.79-.15-1.08-.46l-13.64-13.93c-.59-.6-.58-1.56.02-2.14.6-.59 1.56-.57 2.14.02l13.64 13.93c.59.6.58 1.56-.02 2.14-.29.3-.67.44-1.06.44z"/></g><g><path class="st6" d="M751.34 556.92l13.64 13.94M764.98 572.37c-.39 0-.79-.15-1.08-.46l-13.64-13.93c-.59-.6-.58-1.56.02-2.14.6-.59 1.56-.58 2.14.02l13.64 13.93c.59.6.58 1.56-.02 2.14-.29.3-.67.44-1.06.44z"/></g><g><path class="st6" d="M751.34 575.11l13.64 13.93M764.98 590.56c-.39 0-.79-.15-1.08-.46l-13.64-13.93c-.59-.6-.58-1.56.02-2.14.6-.59 1.56-.58 2.14.02l13.64 13.93c.59.6.58 1.56-.02 2.14-.29.3-.67.44-1.06.44z"/></g><g><path class="st6" d="M844.54 411.42l-13.64 13.93M830.9 426.86c-.38 0-.77-.14-1.06-.43-.6-.59-.61-1.55-.02-2.14l13.64-13.93c.59-.6 1.54-.61 2.14-.02.6.59.61 1.55.02 2.14l-13.64 13.93c-.3.3-.69.45-1.08.45z"/></g><g><path class="st6" d="M844.54 429.61l-13.64 13.93M830.9 445.05c-.38 0-.77-.14-1.06-.43-.6-.59-.61-1.55-.02-2.14l13.64-13.93c.59-.6 1.54-.61 2.14-.02.6.59.61 1.55.02 2.14l-13.64 13.93c-.3.3-.69.45-1.08.45z"/></g><g><path class="st6" d="M844.54 447.79l-13.64 13.94M830.9 463.24c-.38 0-.77-.14-1.06-.43-.6-.59-.61-1.55-.02-2.14l13.64-13.93c.59-.6 1.54-.61 2.14-.02.6.59.61 1.55.02 2.14l-13.64 13.93c-.3.3-.69.45-1.08.45z"/></g><g><path class="st6" d="M844.54 465.98l-13.64 13.93M830.9 481.43c-.38 0-.77-.14-1.06-.43-.6-.59-.61-1.55-.02-2.14l13.64-13.93c.59-.6 1.54-.61 2.14-.02.6.59.61 1.55.02 2.14l-13.64 13.93c-.3.3-.69.45-1.08.45z"/></g><g><path class="st6" d="M844.54 484.17L830.9 498.1M830.9 499.62c-.38 0-.77-.14-1.06-.43-.6-.59-.61-1.55-.02-2.14l13.64-13.93c.59-.6 1.54-.61 2.14-.02.6.59.61 1.55.02 2.14l-13.64 13.93c-.3.3-.69.45-1.08.45z"/></g><g><path class="st6" d="M844.54 502.36l-13.64 13.93M830.9 517.81c-.38 0-.77-.14-1.06-.43-.6-.59-.61-1.55-.02-2.14l13.64-13.93c.59-.6 1.54-.61 2.14-.02.6.59.61 1.55.02 2.14l-13.64 13.93c-.3.29-.69.45-1.08.45z"/></g><g><path class="st6" d="M844.54 520.55l-13.64 13.93M830.9 536c-.38 0-.77-.14-1.06-.43-.6-.59-.61-1.55-.02-2.14l13.64-13.93c.59-.6 1.54-.61 2.14-.02.6.59.61 1.55.02 2.14l-13.64 13.93c-.3.29-.69.45-1.08.45z"/></g><g><path class="st6" d="M844.54 538.74l-13.64 13.93M830.9 554.18c-.38 0-.77-.14-1.06-.43-.6-.59-.61-1.55-.02-2.14l13.64-13.93c.59-.6 1.54-.61 2.14-.02.6.59.61 1.55.02 2.14l-13.64 13.93c-.3.3-.69.45-1.08.45z"/></g><g><path class="st6" d="M844.54 556.92l-13.64 13.94M830.9 572.37c-.38 0-.77-.14-1.06-.43-.6-.59-.61-1.55-.02-2.14l13.64-13.93c.59-.6 1.54-.61 2.14-.02.6.59.61 1.55.02 2.14l-13.64 13.93c-.3.3-.69.45-1.08.45z"/></g><g><path class="st6" d="M844.54 575.11l-13.64 13.93M830.9 590.56c-.38 0-.77-.14-1.06-.43-.6-.59-.61-1.55-.02-2.14l13.64-13.93c.59-.6 1.54-.61 2.14-.02.6.59.61 1.55.02 2.14l-13.64 13.93c-.3.3-.69.45-1.08.45z"/></g><g><path class="st6" d="M824.83 361.85h-52.95l-26.47 22.21 26.47 22.21h52.95l26.47-22.21z"/><path class="st6" d="M824.83 407.1h-52.95a.84.84 0 01-.54-.2l-26.47-22.21a.832.832 0 010-1.28l26.47-22.21c.15-.13.34-.2.54-.2h52.95c.2 0 .38.07.54.2l26.47 22.21a.832.832 0 010 1.28l-26.47 22.21a.86.86 0 01-.54.2zm-52.65-1.66h52.34L850 384.06l-25.48-21.38h-52.34l-25.48 21.38 25.48 21.38z"/></g><g><path class="st6" d="M781.17 431.12h33.35M781.17 428.38h33.35v5.48h-33.35z"/></g><g><path class="st6" d="M781.17 449.31h33.35M781.17 446.57h33.35v5.48h-33.35z"/></g><g><path class="st6" d="M781.17 467.5h33.35M781.17 464.76h33.35v5.48h-33.35z"/></g><g><path class="st6" d="M781.17 485.69h33.35M781.17 482.95h33.35v5.48h-33.35z"/></g><g><path class="st6" d="M781.17 503.88h33.35M781.17 501.13h33.35v5.48h-33.35z"/></g><g><path class="st6" d="M781.17 522.06h33.35M781.17 519.32h33.35v5.48h-33.35z"/></g><g><path class="st6" d="M781.17 540.25h33.35M781.17 537.51h33.35v5.48h-33.35z"/></g><g><path class="st6" d="M781.17 558.44h33.35M781.17 555.7h33.35v5.48h-33.35z"/></g><g><path class="st6" d="M781.17 576.63h33.35M781.17 573.89h33.35v5.48h-33.35z"/></g><g><path class="st6" d="M781.17 594.82h33.35M781.17 592.08h33.35v5.48h-33.35z"/></g><g><linearGradient id="SVGID_7_" gradientUnits="userSpaceOnUse" x1="911.107" y1="552.361" x2="805.009" y2="552.361"><stop offset="0" stop-color="#e99c56"/><stop offset=".179" stop-color="#e59253"/><stop offset=".489" stop-color="#dc764c"/><stop offset=".888" stop-color="#cc4941"/><stop offset="1" stop-color="#c73b3d"/></linearGradient><path fill="url(#SVGID_7_)" d="M909.59 496.72H808.04L805.01 608h106.1z"/><linearGradient id="SVGID_8_" gradientUnits="userSpaceOnUse" x1="911.107" y1="552.361" x2="882.322" y2="552.361"><stop offset="0" stop-color="#e99c56"/><stop offset=".179" stop-color="#e59253"/><stop offset=".489" stop-color="#dc764c"/><stop offset=".888" stop-color="#cc4941"/><stop offset="1" stop-color="#c73b3d"/></linearGradient><path fill="url(#SVGID_8_)" d="M910.7 496.72h-27.56L882.32 608h28.79z"/><linearGradient id="SVGID_9_" gradientUnits="userSpaceOnUse" x1="831.605" y1="552.361" x2="805.009" y2="552.361"><stop offset="0" stop-color="#e99c56"/><stop offset=".179" stop-color="#e59253"/><stop offset=".489" stop-color="#dc764c"/><stop offset=".888" stop-color="#cc4941"/><stop offset="1" stop-color="#c73b3d"/></linearGradient><path fill="url(#SVGID_9_)" d="M831.22 496.72h-25.45L805.01 608h26.59z"/><path class="st6" d="M805.14 496.37V608M803.62 496.37h3.03V608h-3.03zM909.72 496.37V608M908.21 496.37h3.03V608h-3.03zM831.29 517.69V608M829.78 517.69h3.03V608h-3.03zM882.83 519.34V608M881.31 519.34h3.03V608h-3.03zM810.46 523.78l13.64 13.93M824.11 539.23c-.39 0-.79-.15-1.08-.46l-13.64-13.93c-.59-.6-.58-1.56.02-2.14.6-.59 1.56-.58 2.14.02l13.64 13.93c.59.6.58 1.56-.02 2.14-.3.29-.68.44-1.06.44zM810.46 541.97l13.64 13.93M824.11 557.42c-.39 0-.79-.15-1.08-.46l-13.64-13.93c-.59-.6-.58-1.56.02-2.14.6-.59 1.56-.57 2.14.02l13.64 13.93c.59.6.58 1.56-.02 2.14-.3.29-.68.44-1.06.44zM810.46 560.16l13.64 13.93M824.11 575.6c-.39 0-.79-.15-1.08-.46l-13.64-13.93c-.59-.6-.58-1.56.02-2.14.6-.59 1.56-.58 2.14.02l13.64 13.93c.59.6.58 1.56-.02 2.14-.3.3-.68.44-1.06.44zM810.46 578.35l13.64 13.93M824.11 593.79c-.39 0-.79-.15-1.08-.46l-13.64-13.93c-.59-.6-.58-1.56.02-2.14.6-.59 1.56-.57 2.14.02l13.64 13.93c.59.6.58 1.56-.02 2.14-.3.3-.68.44-1.06.44zM903.66 523.78l-13.64 13.93M890.02 539.23c-.38 0-.77-.14-1.06-.43-.6-.59-.61-1.55-.02-2.14l13.64-13.93c.59-.6 1.54-.61 2.14-.02.6.59.61 1.55.02 2.14l-13.64 13.93c-.3.3-.69.45-1.08.45z"/><g><path class="st6" d="M903.66 541.97l-13.64 13.93M890.02 557.42c-.38 0-.77-.14-1.06-.43-.6-.59-.61-1.55-.02-2.14l13.64-13.93c.59-.6 1.54-.61 2.14-.02.6.59.61 1.55.02 2.14l-13.64 13.93c-.3.29-.69.45-1.08.45z"/></g><g><path class="st6" d="M903.66 560.16l-13.64 13.93M890.02 575.6c-.38 0-.77-.14-1.06-.43-.6-.59-.61-1.55-.02-2.14l13.64-13.93c.59-.6 1.54-.61 2.14-.02.6.59.61 1.55.02 2.14l-13.64 13.93c-.3.3-.69.45-1.08.45z"/></g><g><path class="st6" d="M903.66 578.35l-13.64 13.93M890.02 593.79c-.38 0-.77-.14-1.06-.43-.6-.59-.61-1.55-.02-2.14l13.64-13.93c.59-.6 1.54-.61 2.14-.02.6.59.61 1.55.02 2.14l-13.64 13.93c-.3.3-.69.45-1.08.45z"/></g><g><path class="st6" d="M883.95 474.21H831l-26.47 22.21L831 518.63h52.95l26.47-22.21z"/><path class="st6" d="M883.95 519.47H831a.84.84 0 01-.54-.2l-26.47-22.21a.832.832 0 010-1.28l26.47-22.21c.15-.13.34-.2.54-.2h52.95c.2 0 .38.07.54.2l26.47 22.21a.832.832 0 010 1.28l-26.47 22.21a.86.86 0 01-.54.2zm-52.65-1.67h52.34l25.48-21.38-25.48-21.38H831.3l-25.48 21.38 25.48 21.38z"/></g><g><path class="st6" d="M840.29 543.48h33.35M840.29 540.74h33.34v5.48h-33.34z"/></g><g><path class="st6" d="M840.29 561.67h33.35M840.29 558.93h33.34v5.48h-33.34z"/></g><g><path class="st6" d="M840.29 579.86h33.35M840.29 577.12h33.34v5.48h-33.34z"/></g><g><path class="st6" d="M840.29 598.05h33.35M840.29 595.31h33.34v5.48h-33.34z"/></g></g></g><g class="st2"><path class="st0" d="M554.25 584.37h111.29v23.58H554.25z"/><path class="st13" d="M557.3 346.17v-39.01l52.49-40.94 51.18 40.94v40.58z"/><path class="st14" d="M660.97 347.78H557.3l-3.05 237.83h111.29z"/><path class="st0" d="M660.97 347.78H557.3l1.53 39.64h102.14z"/><linearGradient id="SVGID_10_" gradientUnits="userSpaceOnUse" x1="557.302" y1="367.602" x2="598.464" y2="367.602"><stop offset="0" stop-color="#e99c56"/><stop offset=".179" stop-color="#e59253"/><stop offset=".489" stop-color="#dc764c"/><stop offset=".888" stop-color="#cc4941"/><stop offset="1" stop-color="#c73b3d"/></linearGradient><path fill="url(#SVGID_10_)" d="M598.46 347.78H557.3l.61 39.64h40.55z"/><linearGradient id="SVGID_11_" gradientUnits="userSpaceOnUse" x1="557.302" y1="367.602" x2="577.364" y2="367.602"><stop offset="0" stop-color="#e99c56"/><stop offset=".179" stop-color="#e59253"/><stop offset=".489" stop-color="#dc764c"/><stop offset=".888" stop-color="#cc4941"/><stop offset="1" stop-color="#c73b3d"/></linearGradient><path fill="url(#SVGID_11_)" d="M577.36 347.78H557.3l.3 39.64h19.76z"/><path class="st13" d="M598.46 465.17h67.08v120.44h-67.08z"/><linearGradient id="SVGID_12_" gradientUnits="userSpaceOnUse" x1="620.367" y1="565.452" x2="598.464" y2="565.452"><stop offset="0" stop-color="#e99c56"/><stop offset=".179" stop-color="#e59253"/><stop offset=".489" stop-color="#dc764c"/><stop offset=".888" stop-color="#cc4941"/><stop offset="1" stop-color="#c73b3d"/></linearGradient><path fill="url(#SVGID_12_)" d="M598.46 545.3h21.9v40.31h-21.9z"/><linearGradient id="SVGID_13_" gradientUnits="userSpaceOnUse" x1="665.543" y1="487.276" x2="641.15" y2="487.276"><stop offset="0" stop-color="#e99c56"/><stop offset=".179" stop-color="#e59253"/><stop offset=".489" stop-color="#dc764c"/><stop offset=".888" stop-color="#cc4941"/><stop offset="1" stop-color="#c73b3d"/></linearGradient><path fill="url(#SVGID_13_)" d="M662.49 427.06h-21.34v120.43h24.39z"/><linearGradient id="SVGID_14_" gradientUnits="userSpaceOnUse" x1="665.543" y1="526.688" x2="641.15" y2="526.688"><stop offset="0" stop-color="#e99c56"/><stop offset=".179" stop-color="#e59253"/><stop offset=".489" stop-color="#dc764c"/><stop offset=".888" stop-color="#cc4941"/><stop offset="1" stop-color="#c73b3d"/></linearGradient><path fill="url(#SVGID_14_)" d="M663.88 505.88h-22.73v41.61h24.39z"/><path class="st6" d="M663.17 305.98c-.01-.69-.35-1.35-.89-1.76l-51.15-40.92c-.37-.31-.83-.47-1.29-.49a2.67 2.67 0 00-.4 0c-.46.01-.92.18-1.29.49L557 304.22c-.54.42-.87 1.07-.89 1.76L551 607.92l4.58.08.36-20.99h19.13v20.95h4.58v-20.95h16.69v20.95h4.56v-20.95h17.49v20.95h4.56v-20.95h16.69v20.95h4.58v-20.95h19.13l.36 20.99 4.56-.08-5.1-301.94zm-.57 236.82h-18.38v-35.07H662l.6 35.07zm-18.38-39.63V468.1h17.12l.6 35.07h-17.72zm17.04-39.65h-17.03v-35.05h16.44l.59 35.05zm-.68-39.63h-16.36v-35.07h15.77l.59 35.07zm-.67-39.64h-15.69V349.2h15.09l.6 35.05zm-.67-39.64h-15.02v-12.24l14.48-19.57.54 31.81zm-84.17 237.82h-19.06l.6-35.05h18.46v35.05zm0-39.63h-18.38l.6-35.07h17.78v35.07zm0-39.63h-17.71l.6-35.07h17.12v35.07zm0-39.65h-17.03l.6-35.05h16.44v35.05zm0-39.63h-16.35l.58-35.07h15.77v35.07zm0-39.64h-15.69l.6-35.05h15.09v35.05zm0-39.64h-15.02l.54-31.81 14.48 19.57v12.24zm1.03-18.53l-14.54-19.64 41.93-33.54-27.39 53.18zm20.24 256.35h-16.69v-35.05h16.69v35.05zm0-39.63h-16.69v-35.07h16.69v35.07zm0-39.63h-16.69V468.1h16.69v35.07zm0-39.65h-16.69v-35.05h16.69v35.05zm0-39.63h-16.69v-35.07h16.69v35.07zm0-39.64h-16.69V349.2h16.69v35.05zm0-39.64h-16.69v-11.89l16.69-13.26v25.15zm-14.7-19.32l25.66-49.79v29.42l-25.66 20.37zm36.75 257.14H600.9v-35.05h17.49v35.05zm0-39.63H600.9v-35.07h17.49v35.07zm0-39.63H600.9V468.1h17.49v35.07zm0-39.65H600.9v-35.05h17.49v35.05zm0-39.63H600.9v-35.07h17.49v35.07zm0-39.64H600.9V349.2h17.49v35.05zm0-39.64H600.9v-28.77l8.75-6.95 8.74 6.95v28.77zm-6.41-39.68V275.5l25.66 49.79-25.66-20.36zm27.66 277.5h-16.69v-35.05h16.69v35.05zm0-39.63h-16.69v-35.07h16.69v35.07zm0-39.63h-16.69V468.1h16.69v35.07zm0-39.65h-16.69v-35.05h16.69v35.05zm0-39.63h-16.69v-35.07h16.69v35.07zm0-39.64h-16.69V349.2h16.69v35.05zm0-39.64h-16.69v-25.15l16.69 13.26v11.89zm3.55-18.53l-27.4-53.19 41.93 33.54-14.53 19.65zm1.03 256.35v-35.05h18.46l.6 35.05h-19.06z"/></g><g class="st2"><path class="st13" d="M942.99 333.32h83.23v11.1h-83.23z"/><path class="st20" d="M943.71 333.92h-1.96M1025.44 333.92h-1.96"/><path class="st14" d="M1028.09 323.4v18.95c0 1.28-1.03 2.3-2.3 2.3-1.28 0-2.3-1.03-2.3-2.3v-6.13h-22.83v7.19h-4.61v-7.19h-25.91v7.19h-4.61v-7.19h-21.82v6.13c0 1.28-1.03 2.3-2.3 2.3-1.26 0-2.3-1.03-2.3-2.3V323.4a2.3 2.3 0 014.6 0v8.21h79.78v-8.21a2.3 2.3 0 014.6 0z"/><path class="st14" d="M1031.93 343.35V605.7c0 1.26-1.04 2.3-2.3 2.3h-92.05a2.3 2.3 0 01-2.3-2.3V343.35c0-1.28 1.03-2.3 2.3-2.3h92.05a2.3 2.3 0 012.3 2.3zM984.29 246.84v12.27M984.29 261.41a2.3 2.3 0 01-2.3-2.3v-12.27a2.3 2.3 0 014.6 0v12.27a2.3 2.3 0 01-2.3 2.3z"/><path class="st20" d="M941.4 342.35v-6.16M941.4 331.64v-8.24M1025.79 342.35v-6.16M1025.79 331.64v-8.24"/><path d="M1031.92 343.35V605.7c0 1.26-1.03 2.29-2.29 2.29h-46.72V341.06h46.72c1.26 0 2.29 1.03 2.29 2.29z" fill="#a52d36"/><path class="st22" d="M946.39 352.99h6.47v6.47h-6.47zM957.71 352.99h6.47v6.47h-6.47zM969.04 352.99h6.47v6.47h-6.47zM980.36 352.99h6.47v6.47h-6.47zM991.68 352.99h6.47v6.47h-6.47zM1003.01 352.99h6.47v6.47h-6.47zM1014.33 352.99h6.47v6.47h-6.47zM946.39 365.26h6.47v6.47h-6.47zM957.71 365.26h6.47v6.47h-6.47zM969.04 365.26h6.47v6.47h-6.47zM991.68 365.26h6.47v6.47h-6.47zM1003.01 365.26h6.47v6.47h-6.47zM1014.33 365.26h6.47v6.47h-6.47zM946.39 377.53h6.47V384h-6.47zM957.71 377.53h6.47V384h-6.47zM969.04 377.53h6.47V384h-6.47zM991.68 377.53h6.47V384h-6.47zM1003.01 377.53h6.47V384h-6.47zM1014.33 377.53h6.47V384h-6.47z"/><g><path class="st22" d="M946.39 389.81h6.47v6.47h-6.47zM957.71 389.81h6.47v6.47h-6.47zM969.04 389.81h6.47v6.47h-6.47z"/><path class="st13" d="M991.68 389.81h6.47v6.47h-6.47z"/><linearGradient id="SVGID_15_" gradientUnits="userSpaceOnUse" x1="1009.477" y1="393.042" x2="1003.007" y2="393.042"><stop offset="0" stop-color="#e99c56"/><stop offset=".179" stop-color="#e59253"/><stop offset=".489" stop-color="#dc764c"/><stop offset=".888" stop-color="#cc4941"/><stop offset="1" stop-color="#c73b3d"/></linearGradient><path fill="url(#SVGID_15_)" d="M1003.01 389.81h6.47v6.47h-6.47z"/><path class="st13" d="M1014.33 389.81h6.47v6.47h-6.47z"/></g><g><path class="st22" d="M946.39 402.08h6.47v6.47h-6.47zM957.71 402.08h6.47v6.47h-6.47zM969.04 402.08h6.47v6.47h-6.47zM991.68 402.08h6.47v6.47h-6.47zM1003.01 402.08h6.47v6.47h-6.47zM1014.33 402.08h6.47v6.47h-6.47z"/></g><g><path class="st22" d="M946.39 414.35h6.47v6.47h-6.47zM957.71 414.35h6.47v6.47h-6.47zM969.04 414.35h6.47v6.47h-6.47zM991.68 414.35h6.47v6.47h-6.47zM1003.01 414.35h6.47v6.47h-6.47zM1014.33 414.35h6.47v6.47h-6.47z"/></g><g><path class="st22" d="M946.39 426.63h6.47v6.47h-6.47zM957.71 426.63h6.47v6.47h-6.47zM969.04 426.63h6.47v6.47h-6.47zM991.68 426.63h6.47v6.47h-6.47zM1003.01 426.63h6.47v6.47h-6.47zM1014.33 426.63h6.47v6.47h-6.47z"/></g><g><path class="st22" d="M946.39 438.9h6.47v6.47h-6.47zM957.71 438.9h6.47v6.47h-6.47zM969.04 438.9h6.47v6.47h-6.47zM991.68 438.9h6.47v6.47h-6.47zM1003.01 438.9h6.47v6.47h-6.47zM1014.33 438.9h6.47v6.47h-6.47z"/></g><g><path class="st13" d="M946.39 451.17h6.47v6.47h-6.47z"/><linearGradient id="SVGID_16_" gradientUnits="userSpaceOnUse" x1="964.185" y1="454.41" x2="957.715" y2="454.41"><stop offset="0" stop-color="#e99c56"/><stop offset=".179" stop-color="#e59253"/><stop offset=".489" stop-color="#dc764c"/><stop offset=".888" stop-color="#cc4941"/><stop offset="1" stop-color="#c73b3d"/></linearGradient><path fill="url(#SVGID_16_)" d="M957.71 451.17h6.47v6.47h-6.47z"/><path class="st13" d="M969.04 451.17h6.47v6.47h-6.47z"/><path class="st22" d="M991.68 451.17h6.47v6.47h-6.47zM1003.01 451.17h6.47v6.47h-6.47zM1014.33 451.17h6.47v6.47h-6.47z"/></g><g><path class="st22" d="M946.39 463.45h6.47v6.47h-6.47zM957.71 463.45h6.47v6.47h-6.47zM969.04 463.45h6.47v6.47h-6.47zM991.68 463.45h6.47v6.47h-6.47zM1003.01 463.45h6.47v6.47h-6.47zM1014.33 463.45h6.47v6.47h-6.47z"/></g><g><path class="st22" d="M946.39 475.72h6.47v6.47h-6.47zM957.71 475.72h6.47v6.47h-6.47zM969.04 475.72h6.47v6.47h-6.47zM991.68 475.72h6.47v6.47h-6.47zM1003.01 475.72h6.47v6.47h-6.47zM1014.33 475.72h6.47v6.47h-6.47z"/></g><g><path class="st22" d="M946.39 488h6.47v6.47h-6.47zM957.71 488h6.47v6.47h-6.47zM969.04 488h6.47v6.47h-6.47zM991.68 488h6.47v6.47h-6.47zM1003.01 488h6.47v6.47h-6.47zM1014.33 488h6.47v6.47h-6.47z"/></g><g><path class="st22" d="M946.39 500.27h6.47v6.47h-6.47zM957.71 500.27h6.47v6.47h-6.47zM969.04 500.27h6.47v6.47h-6.47zM991.68 500.27h6.47v6.47h-6.47zM1003.01 500.27h6.47v6.47h-6.47zM1014.33 500.27h6.47v6.47h-6.47z"/></g><g><path class="st22" d="M946.39 512.54h6.47v6.47h-6.47zM957.71 512.54h6.47v6.47h-6.47zM969.04 512.54h6.47v6.47h-6.47zM991.68 512.54h6.47v6.47h-6.47zM1003.01 512.54h6.47v6.47h-6.47zM1014.33 512.54h6.47v6.47h-6.47z"/></g><g><path class="st13" d="M946.39 524.82h6.47v6.47h-6.47zM957.71 524.82h6.47v6.47h-6.47zM969.04 524.82h6.47v6.47h-6.47z"/><linearGradient id="SVGID_17_" gradientUnits="userSpaceOnUse" x1="998.154" y1="528.052" x2="991.684" y2="528.052"><stop offset="0" stop-color="#e99c56"/><stop offset=".179" stop-color="#e59253"/><stop offset=".489" stop-color="#dc764c"/><stop offset=".888" stop-color="#cc4941"/><stop offset="1" stop-color="#c73b3d"/></linearGradient><path fill="url(#SVGID_17_)" d="M991.68 524.82h6.47v6.47h-6.47z"/><linearGradient id="SVGID_18_" gradientUnits="userSpaceOnUse" x1="1009.477" y1="528.052" x2="1003.007" y2="528.052"><stop offset="0" stop-color="#e99c56"/><stop offset=".179" stop-color="#e59253"/><stop offset=".489" stop-color="#dc764c"/><stop offset=".888" stop-color="#cc4941"/><stop offset="1" stop-color="#c73b3d"/></linearGradient><path fill="url(#SVGID_18_)" d="M1003.01 524.82h6.47v6.47h-6.47z"/><linearGradient id="SVGID_19_" gradientUnits="userSpaceOnUse" x1="1020.801" y1="528.052" x2="1014.33" y2="528.052"><stop offset="0" stop-color="#e99c56"/><stop offset=".179" stop-color="#e59253"/><stop offset=".489" stop-color="#dc764c"/><stop offset=".888" stop-color="#cc4941"/><stop offset="1" stop-color="#c73b3d"/></linearGradient><path fill="url(#SVGID_19_)" d="M1014.33 524.82h6.47v6.47h-6.47z"/></g><g><path class="st22" d="M946.39 537.09h6.47v6.47h-6.47zM957.71 537.09h6.47v6.47h-6.47zM969.04 537.09h6.47v6.47h-6.47zM991.68 537.09h6.47v6.47h-6.47zM1003.01 537.09h6.47v6.47h-6.47zM1014.33 537.09h6.47v6.47h-6.47z"/></g><g><path class="st22" d="M946.39 549.36h6.47v6.47h-6.47zM957.71 549.36h6.47v6.47h-6.47zM969.04 549.36h6.47v6.47h-6.47zM991.68 549.36h6.47v6.47h-6.47zM1003.01 549.36h6.47v6.47h-6.47zM1014.33 549.36h6.47v6.47h-6.47z"/></g><g><path class="st22" d="M946.39 561.64h6.47v6.47h-6.47zM957.71 561.64h6.47v6.47h-6.47zM969.04 561.64h6.47v6.47h-6.47zM991.68 561.64h6.47v6.47h-6.47zM1003.01 561.64h6.47v6.47h-6.47zM1014.33 561.64h6.47v6.47h-6.47z"/></g><g><path class="st22" d="M946.39 573.91h6.47v6.47h-6.47zM957.71 573.91h6.47v6.47h-6.47zM969.04 573.91h6.47v6.47h-6.47zM991.68 573.91h6.47v6.47h-6.47zM1003.01 573.91h6.47v6.47h-6.47zM1014.33 573.91h6.47v6.47h-6.47z"/></g><g><path class="st22" d="M946.39 586.18h6.47v6.47h-6.47zM957.71 586.18h6.47v6.47h-6.47zM969.04 586.18h6.47v6.47h-6.47zM991.68 586.18h6.47v6.47h-6.47zM1003.01 586.18h6.47v6.47h-6.47zM1014.33 586.18h6.47v6.47h-6.47z"/></g><g><path class="st6" d="M1024.69 330.88c-.42.69-1.17 1.11-1.97 1.11h-78.25c-.8 0-1.55-.43-1.97-1.12-.42-.69-.43-1.57-.06-2.27l39.78-73.65c.42-.78 1.29-1.25 2.08-1.21.83-.01 1.68.44 2.1 1.25l38.36 73.63c.37.72.35 1.57-.07 2.26z"/></g></g><circle cx="668.88" cy="142.86" r="2.82" opacity=".3" fill="#e99c56"/><circle cx="668.45" cy="148.87" r="8.41" opacity=".3" fill="#420f3b"/><path class="st1" d="M1025.19 138.6h-82.44c0-10.27 8.33-18.6 18.6-18.6 2.5 0 4.88.5 7.05 1.39 5.56-8.31 15.03-13.79 25.78-13.79 17.13 0 31.01 13.88 31.01 31zM571.07 64.04h-111.8c0-23.22 18.83-42.04 42.04-42.04 14.59 0 27.44 7.42 34.97 18.7 2.95-1.22 6.18-1.89 9.55-1.89 13.95.01 25.24 11.3 25.24 25.23z"/><circle cx="765.35" cy="45.62" r="2.82" opacity=".3" fill="#e99c56" stroke="#e99c56" stroke-width="8.088" stroke-linecap="round" stroke-linejoin="round" stroke-miterlimit="10"/><circle class="st31" cx="991.83" cy="241.35" r="2.82"/><path class="st32" d="M564.65 146.2c0 .93-.76 1.69-1.69 1.69h-5.08v5.08c0 .93-.76 1.69-1.69 1.69-.94 0-1.69-.77-1.69-1.69v-5.08h-5.08c-.94 0-1.69-.77-1.69-1.69 0-.94.76-1.69 1.69-1.69h5.08v-5.08c0-.94.76-1.69 1.69-1.69.94 0 1.69.76 1.69 1.69v5.08h5.08c.94-.01 1.69.75 1.69 1.69z"/><circle class="st31" cx="963.64" cy="175.18" r="2.82"/><path class="st32" d="M725.1 253.23c0 .93-.76 1.69-1.69 1.69h-5.08V260c0 .93-.76 1.69-1.69 1.69-.94 0-1.69-.77-1.69-1.69v-5.08h-5.08c-.94 0-1.69-.77-1.69-1.69 0-.94.76-1.69 1.69-1.69h5.08v-5.08c0-.94.76-1.69 1.69-1.69.94 0 1.69.76 1.69 1.69v5.08h5.08c.93 0 1.69.76 1.69 1.69z"/><path class="st13" d="M788.66 377.15h6.99v7.06h-6.99v-7.06zm-4.12-.08h-6.99v10.56c-.93-.23-2.02-.39-3.1-.39-7.22 0-11.95 4.5-11.95 11.56 0 7.3 4.42 11.02 12.96 11.1 3.1 0 6.05-.31 9.08-.85v-31.98zm-6.98 27.17c-.78.16-1.55.16-2.41.16-3.57 0-5.59-2.02-5.59-5.74s2.02-5.9 5.59-5.9c.78 0 1.55.08 2.33.39l.08 11.09z"/><path class="st13" d="M788.66 401.29c0 5.98-.31 8.23-1.32 10.25-1.01 2.02-2.48 3.18-5.59 4.58l6.44 3.1c3.1-1.47 4.5-2.95 5.74-5.12 1.09-2.17 1.63-4.89 1.63-10.48v-15.91h-6.99l.09 13.58zm20.33-14.05c-3.18 0-6.36.62-9.24 2.1v5.28a19 19 0 018.15-2.1c1.79 0 2.41.47 2.41 1.79v1.47c-8.54.7-12.11 2.95-12.11 7.76 0 4.42 2.64 6.52 8.46 6.52 3.26 0 6.67-.31 9.93-.7v-14.13c0-2.87-.16-4.19-.7-5.28-1-1.86-3.25-2.71-6.9-2.71zm1.71 17.62c-1.09.23-2.25.31-3.34.31-1.94 0-2.79-.62-2.79-1.94 0-1.86 1.47-2.56 6.13-3.03v4.66zm67.6 5.43c6.99 0 11.49-4.42 11.49-11.8 0-6.99-4.27-11.33-11.18-11.33-7.06 0-11.49 4.42-11.49 11.8.01 6.91 4.28 11.33 11.18 11.33zm.24-17.62c2.72 0 4.19 2.25 4.19 5.98 0 3.73-1.55 5.98-4.27 5.98-2.72 0-4.27-2.17-4.27-5.98s1.63-5.98 4.35-5.98zm-10.71-4.42a45.14 45.14 0 00-9.08-.93c-10.17 0-15.99 4.42-15.99 12.26 0 6.29 3.88 10.32 9.93 10.32 1.55.08 3.1-.31 4.42-.93v.16c0 4.42-1.94 6.21-6.52 6.21-2.64 0-5.2-.62-7.45-1.86v6.36c2.41.85 4.89 1.32 7.45 1.32 3.65 0 6.6-.78 8.77-2.41.39-.23.7-.54 1.01-.78.62-.54 1.01-1.09 1.47-1.86 1.47-2.33 2.02-5.12 2.02-10.94v-1.94c-.08-.93-.08-1.94-.08-2.87l-.08-3.73-.08-2.95v-.7c1.4.16-.31-.16 1.55.16l2.66-4.89zm-10.48 14.98v.54c-.78.31-1.79.47-2.64.47-3.1 0-4.73-1.94-4.73-5.43 0-2.41.85-4.11 2.56-5.12 1.16-.62 2.64-1.01 4.04-.93h.7v.54l.08 2.25.08 3.18c0 .93.08 1.94.08 2.64l-.17 1.86zm-26.31-15.99c-3.65.08-7.37.62-10.87 1.55v20.88h6.99v-16.45c1.01-.31 2.1-.54 3.18-.54 2.48 0 3.34.93 3.34 3.65v13.27h6.99v-13.51c0-3.42-.47-5.12-1.94-6.52-1.41-1.4-4.12-2.33-7.69-2.33zm104.78 11.64c0-6.99-4.27-11.33-11.18-11.33-7.06 0-11.49 4.42-11.49 11.8 0 6.99 4.27 11.33 11.25 11.33 6.92 0 11.42-4.58 11.42-11.8zm-15.68.16c0-3.8 1.55-5.98 4.35-5.98s4.19 2.25 4.19 5.98c0 3.73-1.55 5.98-4.27 5.98-2.72-.01-4.27-2.1-4.27-5.98zm31.28-2.25v13.27h6.99v-13.58c0-3.42-.47-5.12-1.94-6.52-1.4-1.4-4.11-2.41-7.68-2.41-3.65.08-7.37.62-10.87 1.55v21.03h6.99v-16.45c1.01-.31 2.1-.54 3.18-.47 2.4-.07 3.33.94 3.33 3.58zm28.79 12.65c.93-1.01 1.32-2.17 1.32-4.5v-9.47h-4.81v9.24c0 1.94-.62 2.56-2.33 2.56-.7 0-1.47-.16-2.25-.39v-11.41h-4.73v14.51c2.48.62 4.97 1.01 7.61 1.01 2.32.16 4.18-.39 5.19-1.55zm-84.6-2.02c2.25 2.1 6.36 2.87 9.16 2.79 2.17 0 4.35-.54 6.29-1.55v-5.59c-1.47.7-3.18 1.16-4.73 1.16-2.72 0-6.99-1.01-6.99-5.82 0-4.81 4.27-5.82 6.99-5.82 1.63 0 3.18.54 4.58 1.32v-5.67c-1.94-.85-3.96-1.32-6.05-1.32-2.79 0-6.6.78-8.85 3.03-2.41 2.17-3.8 5.28-3.8 8.46-.4 3.34.92 6.68 3.4 9.01zm93.37-6.21c-1.09-.54-1.01-1.09-1.01-1.09s0-.93 1.94-.93c1.4 0 2.79.39 4.04.93v-3.65a9.408 9.408 0 00-4.89-.85c-5.67.23-5.59 4.42-5.59 4.42-.16 1.09.31 2.25 1.01 3.18 1.16.93 2.56 1.79 3.96 2.25 1.01.39 1.4.85 1.4 1.09s.16 1.01-1.94 1.01c-1.55-.08-3.1-.54-4.42-1.16v3.8c2.1.78 4.42 1.09 6.6.78 2.1-.39 4.19-1.01 4.42-4.42.15-3.34-3.19-4.35-5.52-5.36zm-28.87 3.26h5.59v5.59h-5.59v-5.59zM802.55 379.63a.584.584 0 01-.16-.39v-1.63c0-.47.16-.78.54-1.09l2.02-2.02c1.4-1.09 2.41-1.86 3.18-2.48.7-.62 1.24-1.09 1.63-1.63.39-.47.54-.93.54-1.32 0-1.09-.54-1.63-1.63-1.63-.54 0-1.01.16-1.32.54-.31.31-.54.78-.62 1.32-.08.31-.31.54-.78.54h-2.87c-.16 0-.23-.08-.31-.16-.08-.08-.16-.23-.16-.31 0-.93.31-1.86.78-2.64.47-.78 1.24-1.4 2.1-1.86.93-.47 1.94-.7 3.1-.7 1.24 0 2.25.23 3.18.62.93.39 1.55.93 2.02 1.63.47.7.7 1.55.7 2.48 0 1.09-.31 2.02-1.01 2.87-.62.85-1.63 1.79-2.95 2.79l-1.79 1.79h5.59c.16 0 .31.08.39.16.08.08.16.23.16.39v2.33c0 .16-.08.31-.16.39-.08.08-.23.16-.39.16h-11.41c-.14.09-.29.01-.37-.15zM818.69 378.47c-1.09-1.09-1.63-2.41-1.71-4.19 0-.78-.08-1.47-.08-2.1 0-.62 0-1.4.08-2.17.08-1.09.31-2.1.85-2.95.47-.85 1.16-1.55 2.1-2.02s2.1-.78 3.42-.78c1.32 0 2.48.23 3.42.78.93.47 1.63 1.16 2.17 2.02.54.85.78 1.86.85 2.95 0 .39.08 1.16.08 2.17s0 1.71-.08 2.1c-.08 1.71-.7 3.1-1.71 4.19-1.09 1.09-2.56 1.55-4.66 1.63-2.09-.08-3.64-.62-4.73-1.63zm6.21-2.41c.31-.47.54-1.09.54-1.86 0-.39.08-1.09.08-2.1 0-.93 0-1.63-.08-2.02 0-.78-.23-1.4-.54-1.86-.31-.47-.85-.7-1.55-.7-1.32 0-2.02.85-2.1 2.56v4.12c.08 1.71.78 2.56 2.1 2.56.7 0 1.17-.23 1.55-.7zM831.97 379.63a.584.584 0 01-.16-.39v-1.63c0-.47.16-.78.54-1.09l2.02-2.02c1.4-1.09 2.41-1.86 3.18-2.48.7-.62 1.24-1.09 1.63-1.63.39-.47.54-.93.54-1.32 0-1.09-.54-1.63-1.63-1.63-.54 0-1.01.16-1.32.54-.31.31-.54.78-.62 1.32-.08.31-.31.54-.78.54h-2.87c-.16 0-.23-.08-.31-.16-.08-.08-.16-.23-.16-.31 0-.93.31-1.86.78-2.64.47-.78 1.24-1.4 2.1-1.86.93-.47 1.94-.7 3.1-.7 1.24 0 2.25.23 3.18.62.93.39 1.55.93 2.02 1.63s.7 1.55.7 2.48c0 1.09-.31 2.02-1.01 2.87-.7.85-1.63 1.79-2.95 2.79l-1.79 1.79h5.59c.16 0 .31.08.39.16.08.08.16.23.16.39v2.33c0 .16-.08.31-.16.39-.08.08-.23.16-.39.16h-11.49c-.06.09-.22.01-.29-.15zM848.11 378.47c-1.09-1.09-1.63-2.41-1.71-4.19 0-.78-.08-1.47-.08-2.1 0-.62 0-1.4.08-2.17.08-1.09.31-2.1.85-2.95a4.83 4.83 0 012.1-2.02c.93-.47 2.1-.78 3.42-.78 1.32 0 2.48.23 3.42.78.93.47 1.63 1.16 2.17 2.02.54.85.78 1.86.85 2.95 0 .39.08 1.16.08 2.17s0 1.71-.08 2.1c-.08 1.71-.7 3.1-1.71 4.19-1.09 1.09-2.56 1.55-4.66 1.63-2.09-.08-3.64-.62-4.73-1.63zm6.13-2.41c.31-.47.54-1.09.54-1.86 0-.39.08-1.09.08-2.1 0-.93 0-1.63-.08-2.02 0-.78-.23-1.4-.54-1.86-.31-.47-.85-.7-1.55-.7-1.32 0-2.02.85-2.1 2.56v4.12c.08 1.71.78 2.56 2.1 2.56.78 0 1.24-.23 1.55-.7zM870.41 432.09c-.97-.4-1.71-.93-2.21-1.59s-.77-1.38-.8-2.15c0-.13.05-.24.14-.32.09-.09.2-.13.33-.13h2.86c.17 0 .31.03.42.09.11.06.23.16.35.3.19.34.48.63.87.85.39.22.92.33 1.58.33.77 0 1.37-.12 1.78-.35.41-.24.62-.56.62-.98 0-.3-.11-.55-.32-.74-.22-.19-.56-.37-1.03-.52s-1.15-.32-2.04-.51c-1.73-.34-3.03-.87-3.89-1.57-.86-.7-1.29-1.7-1.29-3.01 0-.89.25-1.68.74-2.37.49-.69 1.2-1.24 2.11-1.62.91-.39 1.97-.58 3.17-.58 1.26 0 2.35.22 3.28.66.92.44 1.63.98 2.13 1.63.49.65.76 1.29.78 1.92 0 .13-.04.24-.13.33-.09.09-.19.14-.32.14h-3.01c-.32 0-.56-.13-.73-.39-.09-.3-.31-.55-.67-.76-.36-.21-.8-.31-1.33-.31-.6 0-1.07.11-1.4.32-.33.21-.49.53-.49.95 0 .42.22.74.64.98.43.24 1.23.48 2.41.72 1.35.24 2.42.55 3.21.91.8.37 1.38.84 1.76 1.42.38.58.57 1.31.57 2.2 0 .97-.28 1.82-.84 2.54-.56.72-1.33 1.26-2.32 1.64-.99.38-2.12.57-3.4.57-1.38 0-2.56-.2-3.53-.6zM881.18 432.34a.444.444 0 01-.14-.31c0-.09.01-.15.02-.19l5.01-13.77c.14-.42.43-.62.86-.62h3.35c.43 0 .72.21.86.62l5.01 13.77c.01.04.02.11.02.19 0 .11-.05.22-.14.31-.09.09-.2.14-.31.14h-2.79a.75.75 0 01-.73-.47l-.77-2.08h-5.63l-.77 2.08c-.14.32-.39.47-.73.47h-2.79a.47.47 0 01-.33-.14zm5.52-5.64h3.82l-1.91-5.48-1.91 5.48zM897.97 432.32a.507.507 0 01-.16-.38V418c0-.16.05-.29.15-.4.1-.11.23-.16.39-.16h2.43c.33 0 .57.14.73.41l5.07 8.01V418c0-.16.05-.29.15-.4.1-.11.23-.16.39-.16h2.73c.16 0 .29.05.39.16.1.11.15.24.15.4v13.92c0 .16-.05.29-.15.4-.1.11-.23.16-.39.16h-2.43c-.33 0-.57-.14-.73-.41l-5.05-7.69v7.56c0 .16-.05.29-.16.39-.11.1-.24.15-.4.15h-2.73c-.15 0-.28-.05-.38-.16zM917.97 432.32a.507.507 0 01-.16-.38V418c0-.16.05-.29.15-.4.1-.11.23-.16.39-.16H924c2.12 0 3.77.51 4.94 1.52 1.17 1.01 1.79 2.46 1.85 4.35a68.058 68.058 0 010 3.28c-.14 3.93-2.37 5.89-6.68 5.89h-5.76c-.15 0-.27-.05-.38-.16zm6.03-3.06c.9 0 1.57-.21 2-.64.43-.43.66-1.12.69-2.06.03-.42.04-.95.04-1.61 0-.66-.01-1.19-.04-1.59-.03-.92-.28-1.59-.74-2.03-.47-.44-1.15-.66-2.05-.66h-2.04v8.59H924zM933.42 432.32a.507.507 0 01-.16-.38v-13.97c0-.16.05-.29.16-.39.11-.1.23-.15.38-.15h3.07c.16 0 .29.05.39.15.1.1.15.23.15.39v13.97c0 .14-.05.27-.15.38-.1.11-.23.16-.39.16h-3.07c-.15 0-.27-.05-.38-.16zM940.49 432.32a.507.507 0 01-.16-.38V418c0-.16.05-.29.15-.4.1-.11.23-.16.39-.16h10.14c.16 0 .29.05.4.16.11.11.16.24.16.4v2.13c0 .16-.05.29-.16.39-.11.1-.24.15-.4.15h-6.79v2.73h6.32c.16 0 .29.05.4.16.11.11.16.24.16.4v1.96c0 .16-.05.29-.16.4-.11.11-.24.16-.4.16h-6.32v2.79h6.96c.16 0 .29.05.4.16.11.11.16.24.16.4v2.13c0 .16-.05.29-.16.39-.11.1-.24.15-.4.15h-10.31a.617.617 0 01-.38-.18zM955.41 431.18c-1.17-1.01-1.8-2.45-1.87-4.33-.01-.4-.02-1.05-.02-1.96 0-.9.01-1.56.02-1.98.06-1.81.68-3.2 1.88-4.2 1.2-1 2.82-1.49 4.87-1.49 1.38 0 2.57.22 3.6.67 1.02.44 1.8 1.01 2.34 1.71.54.69.82 1.41.85 2.14 0 .13-.05.24-.14.33-.09.09-.2.14-.33.14h-3.33c-.14 0-.25-.02-.33-.07a.998.998 0 01-.23-.23c-.17-.4-.45-.74-.83-1.03-.38-.29-.91-.43-1.6-.43-1.66 0-2.52.86-2.58 2.58-.01.4-.02 1.02-.02 1.85 0 .83.01 1.45.02 1.87.06 1.82.93 2.73 2.62 2.73.83 0 1.49-.21 1.98-.62.49-.42.73-1.05.73-1.89v-.39h-1.91c-.16 0-.29-.05-.4-.16a.535.535 0 01-.16-.4v-1.68c0-.16.05-.29.16-.4.11-.11.24-.16.4-.16h5.46c.16 0 .29.05.4.16.11.11.16.24.16.4v2.49c0 1.22-.28 2.27-.85 3.15-.57.88-1.36 1.55-2.4 2.02-1.03.47-2.23.7-3.61.7-2.08-.01-3.7-.51-4.88-1.52zM970.95 431.21c-1.17-.99-1.8-2.44-1.87-4.36-.01-.4-.02-1.02-.02-1.85 0-.83.01-1.45.02-1.87.06-1.89.68-3.35 1.88-4.37 1.2-1.02 2.8-1.54 4.8-1.54 1.99 0 3.58.51 4.78 1.54 1.2 1.02 1.82 2.48 1.88 4.37.03.83.04 1.45.04 1.87 0 .43-.01 1.05-.04 1.85-.07 1.92-.69 3.37-1.86 4.36-1.17.99-2.77 1.48-4.8 1.48s-3.64-.49-4.81-1.48zm6.59-2.41c.44-.45.68-1.14.71-2.07.03-.83.04-1.42.04-1.78s-.01-.94-.04-1.74c-.03-.93-.27-1.62-.71-2.07-.44-.45-1.04-.68-1.78-.68-.76 0-1.36.23-1.81.68s-.68 1.14-.71 2.07a73.485 73.485 0 000 3.52c.03.93.26 1.62.71 2.07s1.05.68 1.81.68c.74-.01 1.34-.23 1.78-.68z"/></svg>