<?xml version="1.0" encoding="utf-8"?>
<!-- Generator: Adobe Illustrator 22.1.0, SVG Export Plug-In . SVG Version: 6.00 Build 0)  -->
<svg version="1.1" id="Layer_1" xmlns="http://www.w3.org/2000/svg" xmlns:xlink="http://www.w3.org/1999/xlink" x="0px" y="0px"
	 viewBox="0 0 1200 628" style="enable-background:new 0 0 1200 628;" xml:space="preserve">
<style type="text/css">
	.st0{fill:#F9D8B4;}
	.st1{fill:#FCEDDE;}
	.st2{fill:#F9C5A2;}
	.st3{fill:#C5B9F9;}
	.st4{fill:#F9E7DC;}
	.st5{fill:#F9D0B4;}
	.st6{fill:#F9F4F4;}
	.st7{fill:#E2DEFC;}
	.st8{fill:#F9A7A7;}
	.st9{fill:none;}
	.st10{display:none;fill:#0A51A4;}
	.st11{font-family:'LilitaOne';}
	.st12{font-size:70px;}
	.st13{display:none;}
	.st14{display:inline;fill:#0A51A4;}
	.st15{font-family:'SourceSansPro-SemiBold';}
	.st16{font-size:44px;}
	.st17{fill:#FCD077;}
	.st18{fill:#0A51A4;}
	.st19{fill:#FFFFFF;}
	.st20{display:none;opacity:0.4;fill:url(#SVGID_1_);}
</style>
<g>
	<rect x="-120.7" y="415.4" class="st0" width="1399.2" height="129.6"/>
	<rect x="-122.2" y="157.1" class="st1" width="1400.7" height="300.8"/>
	<rect x="-122.2" y="357.6" class="st2" width="1400.7" height="100.3"/>
	<polygon class="st1" points="1278.5,173.4 606,218.2 967.7,224.2 -122.5,224.2 -122.5,400 1278.5,400 	"/>
	<polygon class="st1" points="1278.5,214.9 -140.7,230.4 -140.7,279.6 1278.5,284.1 	"/>
	<path class="st1" d="M1278.5,373.6l-1428.7,58c0.3,10.6-0.7,47.8-0.6,61.9l1429.3,16.7V373.6z"/>
	<path class="st3" d="M1278.5,392.7l-1417-22.5v17.7c0,1.5-0.3,9.2-0.5,18.2l1417.6-6.2V392.7z"/>
	<path class="st1" d="M1278.5,362.8v-47.5l-1423-13.8c0.1,11.6-0.3,48.5-0.3,65.2L1278.5,362.8z"/>
	<polygon class="st4" points="1278.5,365.8 -151.4,350.9 -151.4,384 1278.5,379.7 	"/>
	<polygon class="st1" points="1278.5,259.8 -154.3,253.4 -154.3,267.6 1278.5,265.8 	"/>
	<polygon class="st5" points="1278.5,358.8 -106.1,384.9 -106.1,386.4 1278.5,395.5 	"/>
	<path class="st6" d="M-159.5,442.7c0,4.8,0,9.7,0,14.5l1430.2-3.2L-159.5,442.7z"/>
	<polygon class="st7" points="1278.5,505.9 620.6,512.1 1278.5,513.8 	"/>
	<polygon class="st8" points="1278.5,473.5 -145.5,491.6 1278.5,496.8 	"/>
	<polygon class="st6" points="1278.5,411.1 598.9,431.1 1278.5,436.8 	"/>
</g>
<rect x="725.5" y="54.9" class="st9" width="573" height="66.1"/>
<text transform="matrix(1 0 0 1 871.7881 104.4829)" class="st10 st11 st12">Jacinda Shelly</text>
<rect x="645.5" y="192.9" class="st9" width="650" height="152.1"/>
<text transform="matrix(1 0 0 1 728.3926 223.917)" class="st13"><tspan x="0" y="0" class="st14 st15 st16">Web Application Security with</tspan><tspan x="30.8" y="52.8" class="st14 st15 st16">Django: A Hands-On Tutorial</tspan></text>
<path class="st17" d="M591.5,508.8c0-240.2-194.7-434.9-434.9-434.9s-434.9,194.7-434.9,434.9c0,20.1,1.4,39.9,4,59.2h861.7
	C590.1,548.6,591.5,528.8,591.5,508.8z"/>
<polygon class="st0" points="1278.5,145 -275.5,159.4 -275.5,160.1 1278.5,165.1 "/>
<path class="st18" d="M99.9,510.2h32.4l-6.9,16.3H68.9L62,510.2h32.7v-5.9H61.4c0-33.1,14.2-60.2,33.2-62.4v-4.7h5.2V449l13.5,20.7
	l2.8,4.2l16.4,25.2H99.9L99.9,510.2L99.9,510.2z"/>
<rect x="-75.1" y="526" class="st18" width="1342.1" height="104"/>
<g>
	<g>
		<path class="st19" d="M1050.7,574.1v-21.5c0-0.6,0.1-1.1,0.4-1.4c0.3-0.3,0.7-0.5,1.2-0.5h6c3.8,0,6.7,1,8.7,2.9
			c2,1.9,3,4.9,3,9.1c0,8.8-3.8,13.2-11.3,13.2h-6.1C1051.3,575.8,1050.7,575.2,1050.7,574.1z M1057.6,557.5v10.7c0,0.5,0,0.8,0.1,1
			c0.1,0.1,0.3,0.2,0.6,0.2c1.3,0,2.3-0.5,3-1.5c0.7-1,1-2.6,1-4.9c0-2.3-0.4-3.8-1.1-4.5c-0.7-0.7-1.8-1-3.4-1H1057.6z"/>
		<path class="st19" d="M1089.4,551.1c1.3,0.5,2,1.2,2,2c0,0.8-0.3,1.9-1,3.1c-0.6,1.2-1.2,1.8-1.6,1.8c-0.1,0-0.3-0.1-0.4-0.2
			c-0.2-0.1-0.5-0.3-1.1-0.4c-0.6-0.2-1-0.2-1.5-0.2c-1.4,0-2.5,0.5-3.4,1.5c-0.8,1-1.3,2.5-1.3,4.5c0,2,0.4,3.5,1.3,4.5
			c0.9,1,2,1.5,3.3,1.5c0.6,0,1.2-0.1,1.8-0.2c0.7-0.2,1.2-0.4,1.5-0.7c0,0,0.1-0.1,0.3-0.1c0.1,0,0.4,0.3,0.8,0.8
			c0.4,0.5,0.8,1.2,1.1,2.1c0.3,0.9,0.5,1.6,0.5,2c0,0.9-0.7,1.7-2.2,2.2s-3.1,0.8-5.1,0.8c-3.2,0-5.8-1.1-7.8-3.3
			c-2-2.2-3.1-5.4-3.1-9.4c0-4.1,1-7.2,3.1-9.6c2.1-2.3,4.7-3.5,7.8-3.5C1086.5,550.3,1088,550.6,1089.4,551.1z"/>
		<path class="st19" d="M1062.8,580.9c0-0.5,1.3-0.7,3.9-0.7c2.6,0,3.9,0.2,3.9,0.7v16.5c0,2.4-0.9,4.4-2.6,6
			c-1.7,1.5-4.2,2.3-7.2,2.3c-3.1,0-5.6-0.8-7.5-2.4c-1.9-1.6-2.9-3.7-2.9-6.4V581c0-0.5,1.3-0.7,3.9-0.7c2.6,0,3.9,0.2,3.9,0.7
			v16.2c0,0.5,0.3,0.9,0.8,1.1c0.5,0.3,1.1,0.4,1.7,0.4c0.6,0,1.1-0.1,1.6-0.4c0.5-0.3,0.7-0.7,0.7-1.2V580.9z"/>
		<path class="st19" d="M1076.2,596.6c0.5,0.4,1.2,0.9,2.4,1.5c1.1,0.6,2.2,0.9,3.2,0.9c1,0,1.5-0.4,1.5-1.2c0-0.4-0.1-0.7-0.4-1
			c-0.3-0.3-0.8-0.6-1.6-1c-0.8-0.4-1.3-0.6-1.7-0.8c-0.4-0.2-0.9-0.5-1.5-1c-0.6-0.5-1.1-1-1.5-1.5c-1-1.4-1.4-3.1-1.4-5.2
			c0-2.1,0.8-3.9,2.4-5.3c1.6-1.4,3.6-2.2,6.2-2.2c1.7,0,3.3,0.2,4.8,0.6c1.5,0.4,2.2,0.9,2.3,1.5c0,0.1,0,0.1,0,0.2
			c0,0.8-0.3,1.9-0.8,3.2c-0.5,1.3-0.9,2-1.1,2.1c-1.5-0.8-2.9-1.2-4.1-1.2c-1.2,0-1.8,0.4-1.8,1.3c0,0.5,0.4,1,1.3,1.4
			c0.2,0.1,0.5,0.2,0.8,0.4c0.4,0.2,0.8,0.4,1.2,0.6c0.5,0.2,1,0.5,1.5,0.9c0.5,0.3,1.1,0.8,1.7,1.4c1.3,1.2,1.9,2.8,1.9,4.7
			c0,2.6-0.7,4.7-2.1,6.3c-1.4,1.6-3.6,2.5-6.5,2.5c-1.4,0-2.7-0.1-3.9-0.4c-1.2-0.2-2.2-0.7-3-1.4c-0.9-0.7-1.3-1.5-1.3-2.5
			c0-1,0.2-2,0.5-2.9C1075.4,597.5,1075.8,596.9,1076.2,596.6z"/>
	</g>
	<path class="st19" d="M1136.8,604c0,0.9-2.6,1.3-7.9,1.3c-5.3,0-7.9-0.4-7.9-1.3v-38.4l-8.4,0.1c-1.6,0-2.3-2.5-2.3-7.5
		c0-1.7,0.2-3.4,0.5-5c0.3-1.6,0.9-2.4,1.8-2.4h21.3c0.9,0,1.6,0.2,2.1,0.6c0.5,0.4,0.8,0.9,0.8,1.4V604z"/>
	<path class="st19" d="M1150.6,591.7c3.9,0.8,6.8,1.2,8.8,1.2c2,0,3.7-0.6,5.3-1.9c1.6-1.2,2.5-3.2,2.8-5.8
		c-2.6,0.7-4.7,1.1-6.2,1.1c-5.4,0-9.6-1.5-12.6-4.5c-3-3-4.4-7.3-4.4-12.9c0-5.6,1.7-10.1,5.1-13.6c3.4-3.5,8-5.2,13.9-5.2
		s10.5,2.1,13.9,6.2c3.4,4.1,5.1,10.3,5.1,18.3c0,10.1-1.8,17.9-5.4,23.3c-3.6,5.4-8.9,8.1-16,8.1c-8.8,0-13.2-1.5-13.2-4.4
		c0-1.6,0.3-3.6,0.9-6.1C1149.2,592.9,1149.8,591.7,1150.6,591.7z M1163.1,564c-1.7,0-2.9,0.5-3.8,1.6c-0.9,1.1-1.4,2.4-1.4,4.1
		c0,1.7,0.5,3,1.6,4c1.1,1,2.4,1.5,4.1,1.5c1.7,0,3-0.4,4-1.1c0-3.6-0.3-6.1-1-7.7C1165.9,564.8,1164.7,564,1163.1,564z"/>
	<path class="st19" d="M1103.3,605.6h-4.7c-0.5,0-0.8-0.4-0.8-0.8v-53.4c0-0.5,0.4-0.8,0.8-0.8h4.7c0.5,0,0.8,0.4,0.8,0.8v53.4
		C1104.2,605.3,1103.8,605.6,1103.3,605.6z"/>
</g>
<rect x="589.2" y="-668.3" transform="matrix(6.123234e-17 -1 1 6.123234e-17 593.1807 610.1807)" class="st8" width="25" height="1353.6"/>
<linearGradient id="SVGID_1_" gradientUnits="userSpaceOnUse" x1="409.5" y1="470" x2="409.5" y2="34">
	<stop  offset="0" style="stop-color:#F9A7A7"/>
	<stop  offset="1" style="stop-color:#FCD077"/>
</linearGradient>
<circle class="st20" cx="409.5" cy="252" r="218"/>
<g>
	<g>
		<path class="st18" d="M399.1,878.4c0.3,0.2,0.8,0.5,1.4,0.9c0.7,0.4,1.3,0.6,2,0.6c0.6,0,0.9-0.2,0.9-0.7c0-0.2-0.1-0.4-0.3-0.6
			c-0.2-0.2-0.5-0.4-1-0.6c-0.5-0.2-0.8-0.4-1.1-0.5c-0.2-0.1-0.5-0.3-0.9-0.6c-0.4-0.3-0.7-0.6-0.9-0.9c-0.6-0.8-0.9-1.9-0.9-3.2
			c0-1.3,0.5-2.4,1.4-3.3c1-0.9,2.2-1.3,3.8-1.3c1.1,0,2,0.1,2.9,0.3c0.9,0.2,1.4,0.5,1.4,0.9c0,0,0,0.1,0,0.1c0,0.5-0.2,1.2-0.5,2
			c-0.3,0.8-0.6,1.2-0.7,1.3c-0.9-0.5-1.8-0.7-2.5-0.7c-0.7,0-1.1,0.3-1.1,0.8c0,0.3,0.3,0.6,0.8,0.9c0.1,0.1,0.3,0.1,0.5,0.2
			c0.2,0.1,0.5,0.2,0.8,0.4c0.3,0.1,0.6,0.3,0.9,0.5c0.3,0.2,0.7,0.5,1.1,0.8c0.8,0.7,1.2,1.7,1.2,2.9c0,1.6-0.4,2.9-1.3,3.9
			c-0.9,1-2.2,1.5-4,1.5c-0.9,0-1.7-0.1-2.4-0.2c-0.7-0.1-1.3-0.4-1.9-0.9c-0.5-0.4-0.8-0.9-0.8-1.5c0-0.6,0.1-1.2,0.3-1.8
			C398.6,879,398.8,878.6,399.1,878.4z"/>
		<path class="st18" d="M420.6,883.8c-1.3,0-2-0.2-2.1-0.6l-0.7-2.8h-3.5l-0.6,2.7c-0.1,0.5-0.8,0.7-2.1,0.7c-0.7,0-1.2,0-1.6-0.1
			c-0.3-0.1-0.5-0.1-0.5-0.2l3.9-14.9c0-0.1,1-0.2,3-0.2c2,0,3,0.1,3,0.2l3.8,15c0,0.1-0.3,0.2-1,0.2
			C421.5,883.8,421,883.8,420.6,883.8z M414.8,877.6h2.3l-1-4.6H416L414.8,877.6z"/>
		<path class="st18" d="M436.8,883.3c0,0.3-0.7,0.5-2.1,0.5c-1.4,0-2.1-0.1-2.3-0.3l-3.7-6.9v6.9c0,0.3-0.7,0.4-2,0.4
			c-1.4,0-2-0.1-2-0.4v-14.8c0-0.2,0.6-0.3,1.7-0.3c0.5,0,1,0,1.6,0.1c0.6,0.1,1,0.2,1.1,0.5l3.5,6.8v-6.9c0-0.3,0.7-0.4,2.1-0.4
			c1.4,0,2.1,0.1,2.1,0.4V883.3z"/>
		<path class="st18" d="M443.1,882.8v-13.2c0-0.4,0.1-0.7,0.3-0.9c0.2-0.2,0.4-0.3,0.7-0.3h3.7c2.3,0,4.1,0.6,5.3,1.8
			c1.2,1.2,1.8,3,1.8,5.6c0,5.4-2.3,8.1-6.9,8.1h-3.8C443.5,883.8,443.1,883.4,443.1,882.8z M447.4,872.5v6.6c0,0.3,0,0.5,0.1,0.6
			c0,0.1,0.2,0.1,0.4,0.1c0.8,0,1.4-0.3,1.8-0.9c0.4-0.6,0.6-1.6,0.6-3c0-1.4-0.2-2.3-0.7-2.7c-0.4-0.4-1.1-0.6-2.1-0.6H447.4z"/>
		<path class="st18" d="M458.2,880v-7.9h-1.6c-0.3,0-0.4-0.3-0.5-0.9c0-0.3-0.1-0.6-0.1-0.9s0-0.6,0.1-0.9c0.1-0.6,0.3-0.9,0.5-0.9
			h7.4c0.3,0,0.4,0.3,0.5,0.9c0.1,0.3,0.1,0.6,0.1,0.9s0,0.6-0.1,0.9c-0.1,0.6-0.3,0.9-0.5,0.9h-1.5v7.9h1.5c0.3,0,0.4,0.3,0.5,0.9
			c0.1,0.3,0.1,0.6,0.1,0.9c0,0.3,0,0.6-0.1,0.9c-0.1,0.6-0.3,0.9-0.5,0.9h-7.4c-0.3,0-0.4-0.3-0.5-0.9c-0.1-0.3-0.1-0.6-0.1-0.9
			c0-0.3,0-0.6,0.1-0.9c0.1-0.6,0.3-0.9,0.5-0.9H458.2z"/>
		<path class="st18" d="M473.4,874.5c0.3,0,0.4,0.5,0.4,1.5c0,0.3,0,0.7-0.1,1.1c-0.1,0.4-0.2,0.6-0.4,0.6h-2.8v2.2h4.1
			c0.3,0,0.4,0.3,0.5,1c0,0.3,0.1,0.6,0.1,0.9c0,0.3,0,0.7-0.1,1.2c-0.1,0.5-0.2,0.8-0.4,0.8H467c-0.6,0-0.8-0.2-0.8-0.7v-14.2
			c0-0.4,0.2-0.6,0.5-0.6h7.9c0.3,0,0.5,0.7,0.5,2c0,1.3-0.2,2-0.5,2h-4.1v2.2H473.4z"/>
		<path class="st18" d="M485.3,879.2l0-3c0-0.2,0.2-0.3,0.6-0.4c0.4-0.1,0.8-0.1,1.1-0.1l0.9,0.1c0.6,0.1,0.8,0.2,0.8,0.5l-0.1,6.9
			c-0.3,0.2-0.9,0.4-1.8,0.6c-0.9,0.2-1.9,0.3-3.1,0.3c-2.1,0-3.9-0.7-5.2-2.1c-1.3-1.4-2-3.4-2-6.1c0-2.3,0.6-4.1,1.9-5.6
			c1.3-1.4,3.1-2.1,5.3-2.1c1,0,2,0.1,2.8,0.3c0.8,0.2,1.4,0.5,1.7,0.8c0,0.1,0,0.3,0,0.7c0,0.3-0.1,0.8-0.3,1.4
			c-0.2,0.6-0.5,1-0.8,1.3c-0.3,0.3-0.5,0.4-0.6,0.4c-0.1,0-0.3-0.1-0.4-0.2c-0.1-0.1-0.4-0.2-0.8-0.4c-0.4-0.1-0.8-0.2-1.2-0.2
			c-0.9,0-1.7,0.3-2.2,0.9c-0.6,0.6-0.9,1.5-0.9,2.7c0,1.2,0.3,2.2,0.9,2.8c0.6,0.6,1.3,1,2,1C484.9,879.7,485.3,879.5,485.3,879.2z
			"/>
		<path class="st18" d="M497.4,884c-2.1,0-3.8-0.7-5.1-2c-1.3-1.4-2-3.3-2-5.9c0-2.6,0.7-4.6,2-5.9c1.3-1.3,3-2,5.1-2
			c2.1,0,3.8,0.7,5,2c1.3,1.3,1.9,3.3,1.9,6c0,2.7-0.7,4.7-2,6C501.1,883.3,499.4,884,497.4,884z M497.4,872.4c-0.7,0-1.3,0.3-1.8,1
			c-0.5,0.6-0.7,1.6-0.7,2.7s0.2,2.1,0.7,2.7c0.5,0.6,1.1,0.9,1.8,0.9c0.7,0,1.3-0.3,1.8-0.9c0.5-0.6,0.7-1.5,0.7-2.7
			c0-1.2-0.2-2.1-0.7-2.7C498.7,872.7,498.1,872.4,497.4,872.4z"/>
	</g>
	<g>
		<g>
			<path class="st18" d="M324.9,830.8h6.5v6.6h-6.5V830.8z M321.1,830.7h-6.5v9.8c-0.9-0.2-1.8-0.4-2.9-0.4
				c-6.7,0-11.1,4.2-11.1,10.8c0,6.8,4.1,10.3,12,10.3c2.9,0,5.6-0.3,8.4-0.8V830.7z M314.6,856c-0.7,0.1-1.5,0.1-2.2,0.1
				c-3.3,0-5.2-1.8-5.2-5.3s1.8-5.5,5.2-5.5c0.7,0,1.5,0.1,2.1,0.4L314.6,856z"/>
			<path class="st18" d="M324.9,853.3c0,5.5-0.3,7.7-1.3,9.5s-2.3,3-5.2,4.3l6,2.9c2.9-1.4,4.2-2.7,5.3-4.7c1-2,1.6-4.6,1.6-9.8
				v-14.9h-6.5L324.9,853.3L324.9,853.3z M343.8,840.2c-3,0-5.9,0.6-8.6,1.9v5c2.4-1.3,5-1.8,7.6-1.9c1.6,0,2.2,0.4,2.2,1.6v1.4
				c-7.9,0.7-11.2,2.7-11.2,7.2c0,4.1,2.4,6.1,7.8,6.1c3,0,6.2-0.3,9.2-0.7v-13.2c0-2.7-0.1-3.9-0.7-4.9
				C349.3,841,347.2,840.2,343.8,840.2z M345.4,856.6c-1,0.2-2.1,0.3-3.1,0.3c-1.8,0-2.6-0.6-2.6-1.8c0-1.7,1.4-2.4,5.7-2.8V856.6z
				 M408.3,861.6c6.5,0,10.7-4.1,10.7-10.9c0-6.5-4-10.6-10.4-10.6c-6.6,0-10.7,4.1-10.7,10.9C397.9,857.6,401.9,861.6,408.3,861.6z
				 M408.5,845.3c2.5,0,3.9,2.1,3.9,5.5s-1.5,5.5-4,5.5c-2.5,0-4-2-4-5.5S405.9,845.3,408.5,845.3L408.5,845.3z M398.6,841.2
				c-2.8-0.6-5.6-0.9-8.4-0.9c-9.5,0-14.9,4.1-14.9,11.4c0,5.8,3.6,9.6,9.2,9.6c1.5,0.1,2.9-0.3,4.1-0.9v0.1c0,4.1-1.8,5.8-6.1,5.8
				c-2.4,0-4.8-0.6-6.9-1.7v5.9c2.2,0.8,4.6,1.3,6.9,1.3c3.4,0,6.1-0.7,8.1-2.2c0.4-0.2,0.7-0.5,1-0.7c0.6-0.5,1-1,1.4-1.7
				c1.4-2.1,1.8-4.7,1.8-10.2v-1.8c-0.1-0.9-0.1-1.8-0.1-2.7l-0.1-3.5l-0.1-2.7v-0.7c1.3,0.1-0.3-0.1,1.5,0.1L398.6,841.2
				L398.6,841.2z M388.8,855.1v0.5c-0.7,0.3-1.6,0.4-2.4,0.4c-2.9,0-4.4-1.8-4.4-5c0-2.2,0.8-3.8,2.4-4.7c1.1-0.6,2.4-1,3.8-0.9h0.7
				v0.5l0.1,2.1l0.1,3c0,0.9,0.1,1.8,0.1,2.4L388.8,855.1z M364.3,840.2c-3.4,0.1-6.9,0.6-10.1,1.5v19.4h6.5v-15.3
				c1-0.3,1.9-0.5,3-0.5c2.3,0,3.1,0.9,3.1,3.4V861h6.5v-12.6c0-3.2-0.4-4.7-1.8-6.1C370.2,841.1,367.7,840.2,364.3,840.2
				L364.3,840.2z M461.7,851.1c0-6.5-4-10.6-10.4-10.6c-6.6,0-10.7,4.1-10.7,10.9c0,6.5,4,10.6,10.5,10.6
				C457.6,862,461.7,857.8,461.7,851.1L461.7,851.1z M447.2,851.2c0-3.5,1.5-5.5,4.1-5.5s3.9,2.1,3.9,5.5c0,3.5-1.5,5.5-4,5.5
				S447.2,854.8,447.2,851.2L447.2,851.2z M476.3,849.1v12.3h6.5v-12.6c0-3.2-0.4-4.7-1.8-6.1c-1.3-1.3-3.8-2.2-7.2-2.2
				c-3.4,0.1-6.9,0.6-10.1,1.5v19.4h6.5v-15.3c1-0.3,1.9-0.5,3-0.4C475.4,845.7,476.3,846.6,476.3,849.1L476.3,849.1z M503,860.9
				c0.9-1,1.3-2,1.3-4.2v-8.8h-4.5v8.6c0,1.8-0.6,2.4-2.1,2.4c-0.7,0-1.4-0.1-2.1-0.4v-10.6h-4.4v13.5c2.3,0.6,4.7,1,7.1,1
				C500.4,862.4,502.1,861.9,503,860.9z M424.3,859c2.1,1.9,5.9,2.7,8.5,2.6c2,0,4.1-0.5,5.8-1.5v-5.2c-1.4,0.7-3,1.1-4.4,1.1
				c-2.5,0-6.5-1-6.5-5.4s4-5.4,6.5-5.4c1.6,0,3,0.5,4.3,1.3v-5.2c-1.8-0.8-3.7-1.3-5.6-1.3c-2.6,0-6.1,0.7-8.2,2.8
				c-2.2,2-3.5,4.9-3.5,7.8C420.9,853.7,422.1,856.8,424.3,859L424.3,859z M511.2,853.2c-1-0.5-1-1-1-1s0-0.9,1.8-0.9
				c1.3,0,2.6,0.4,3.8,0.9v-3.4c-1.4-0.7-3-1-4.6-0.8c-5.2,0.2-5.2,4.1-5.2,4.1c-0.1,1,0.3,2.1,1,3c1.1,0.9,2.4,1.6,3.7,2.1
				c1,0.4,1.3,0.8,1.3,1s0.1,1-1.8,1c-1.5-0.1-2.9-0.5-4.1-1.1v3.5c1.9,0.7,4.1,1,6.1,0.7c1.9-0.4,3.9-1,4.1-4.1
				C516.5,855.1,513.4,854.2,511.2,853.2L511.2,853.2z M484.4,856.2h5.2v5.2h-5.2L484.4,856.2L484.4,856.2z"/>
		</g>
	</g>
	<g>
		<path class="st18" d="M348,833.3h-8.1c-0.6,0-1-0.6-1.2-1.7c-0.1-0.6-0.2-1.1-0.2-1.4c0-0.3,0-0.5,0.1-0.6
			c3.6-3.8,5.5-6.3,5.5-7.7c0-0.5-0.1-0.8-0.4-1c-0.2-0.2-0.6-0.3-1.1-0.3c-0.5,0-1,0.1-1.5,0.3c-0.5,0.2-0.9,0.4-1.2,0.6
			c-0.6-0.8-1.1-1.6-1.3-2.4c-0.1-0.3-0.1-0.5-0.1-0.8c0-0.2,0-0.5,0.1-0.7c0.1-0.4,0.7-0.8,1.8-1.2c1.1-0.4,2.2-0.6,3.4-0.6
			c3.6,0,5.5,1.6,5.5,4.9c0,1.4-0.5,2.9-1.5,4.4c-1,1.5-2.1,2.7-3.4,3.8l4.9-0.2c0.1,0.9,0.1,1.6,0.1,2.2c0,0.6-0.1,1.2-0.4,1.6
			C348.9,833.1,348.5,833.3,348,833.3z"/>
		<path class="st18" d="M358.1,833.6c-2,0-3.7-0.7-5-2.2c-1.3-1.5-1.9-3.7-1.9-6.6c0-2.9,0.6-5.1,2-6.5c1.3-1.5,3-2.2,5-2.2
			c2.1,0,3.7,0.7,5,2.2c1.3,1.5,1.9,3.7,1.9,6.6c0,2.9-0.6,5.1-1.9,6.6C361.8,832.9,360.1,833.6,358.1,833.6z M358.1,820.7
			c-0.6,0-1.2,0.4-1.6,1.1c-0.4,0.7-0.6,1.7-0.6,3c0,1.3,0.2,2.3,0.6,3c0.4,0.7,1,1,1.6,1c0.7,0,1.2-0.3,1.6-1
			c0.4-0.7,0.6-1.7,0.6-3s-0.2-2.3-0.6-3C359.2,821.1,358.7,820.7,358.1,820.7z"/>
		<path class="st18" d="M374.5,832.9c0,0.3-0.8,0.4-2.5,0.4c-1.6,0-2.5-0.1-2.5-0.4v-12l-2.6,0c-0.5,0-0.7-0.8-0.7-2.3
			c0-0.5,0.1-1.1,0.2-1.6c0.1-0.5,0.3-0.8,0.5-0.8h6.7c0.3,0,0.5,0.1,0.7,0.2c0.2,0.1,0.3,0.3,0.3,0.5V832.9z"/>
		<path class="st18" d="M378.7,829.1c1.2,0.2,2.1,0.4,2.8,0.4c0.6,0,1.2-0.2,1.7-0.6c0.5-0.4,0.8-1,0.9-1.8c-0.8,0.2-1.5,0.3-2,0.3
			c-1.7,0-3-0.5-3.9-1.4c-0.9-1-1.4-2.3-1.4-4s0.5-3.2,1.6-4.3c1.1-1.1,2.5-1.6,4.4-1.6s3.3,0.7,4.4,2c1.1,1.3,1.6,3.2,1.6,5.8
			c0,3.2-0.6,5.6-1.7,7.3c-1.1,1.7-2.8,2.5-5,2.5c-2.8,0-4.1-0.5-4.1-1.4c0-0.5,0.1-1.1,0.3-1.9
			C378.3,829.5,378.5,829.1,378.7,829.1z M382.7,820.4c-0.5,0-0.9,0.2-1.2,0.5c-0.3,0.3-0.4,0.8-0.4,1.3s0.2,0.9,0.5,1.3
			c0.3,0.3,0.8,0.5,1.3,0.5c0.5,0,0.9-0.1,1.3-0.3c0-1.1-0.1-1.9-0.3-2.4C383.5,820.7,383.2,820.4,382.7,820.4z"/>
	</g>
</g>
<polygon class="st9" points="1583.5,295 1594.5,295 1594.5,295 1583.5,295 "/>
<g class="st13">
</g>
</svg>
