<svg id="Layer_1" data-name="Layer 1" xmlns="http://www.w3.org/2000/svg" viewBox="0 0 100 100"><title>star</title><path d="M75.47,91.62a2.51,2.51,0,0,1-1.12-.28L50,78.54,25.65,91.34a2.39,2.39,0,0,1-2.54-.19,2.41,2.41,0,0,1-1-2.36l4.65-27.11L7.1,42.48a2.42,2.42,0,0,1,1.34-4.13l27.22-4L47.83,9.73a2.42,2.42,0,0,1,4.34,0h0L64.34,34.4l27.22,4a2.42,2.42,0,0,1,1.34,4.13L73.21,61.68l4.65,27.11a2.44,2.44,0,0,1-2.39,2.83ZM10,41.15,29.45,60.08a1.46,1.46,0,0,1,.43,1.33L25.3,88.13l24-12.62a1.57,1.57,0,0,1,1.4,0l24,12.62L70.12,61.41a1.46,1.46,0,0,1,.43-1.33L90,41.15l-26.83-3.9A1.5,1.5,0,0,1,62,36.43L50,12.12,38,36.43a1.5,1.5,0,0,1-1.13.82Z" fill="#430632"/></svg>