<svg data-name="Layer 1" xmlns="http://www.w3.org/2000/svg" viewBox="0 0 100 100"><path d="M89.2 41.8l-19 18.7L74.7 87a.9.9 0 0 1-1.3.9L50 75.4 26.6 87.9a.9.9 0 0 1-1.3-.9l4.5-26.5-19-18.7a.9.9 0 0 1 .5-1.5l26.2-3.9 11.7-24a.9.9 0 0 1 1.6 0l11.7 24 26.2 3.9a.9.9 0 0 1 .5 1.5z" fill="#fbaecd"/><path d="M50 12.8l11.7 23.8a1.7 1.7 0 0 0 1.4.9l26.2 3.9-19 18.5a1.8 1.8 0 0 0-.5 1.6l4.5 26.1-23.5-12.4-.8-.2-.8.2-23.5 12.4 4.5-26.1a1.8 1.8 0 0 0-.5-1.6l-19-18.5 26.2-3.9a1.7 1.7 0 0 0 1.4-.9L50 12.8m0-2.9a.9.9 0 0 0-.8.5L36.7 35.8l-28 4a1 1 0 0 0-.6 1.6l20.3 19.8L23.6 89a1 1 0 0 0 .9 1.1h.5l25-13.3L75 90h.5a1 1 0 0 0 .9-1.1l-4.8-27.7 20.3-19.8a1 1 0 0 0-.6-1.6l-28-4-12.5-25.4a.9.9 0 0 0-.8-.5z" fill="#171d2f"/></svg>