<svg viewBox="0 0 100 100" xmlns="http://www.w3.org/2000/svg"><path d="m75.47 91.62a2.51 2.51 0 0 1 -1.12-.28l-24.35-12.8-24.35 12.8a2.39 2.39 0 0 1 -2.54-.19 2.41 2.41 0 0 1 -1-2.36l4.65-27.11-19.66-19.2a2.42 2.42 0 0 1 1.34-4.13l27.22-4 12.17-24.62a2.42 2.42 0 0 1 4.34 0l12.17 24.67 27.22 4a2.42 2.42 0 0 1 1.34 4.13l-19.69 19.15 4.65 27.11a2.44 2.44 0 0 1 -2.39 2.83zm-65.47-50.47 19.45 18.93a1.46 1.46 0 0 1 .43 1.33l-4.58 26.72 24-12.62a1.57 1.57 0 0 1 1.4 0l24 12.62-4.58-26.72a1.46 1.46 0 0 1 .43-1.33l19.45-18.93-26.83-3.9a1.5 1.5 0 0 1 -1.17-.82l-12-24.31-12 24.31a1.5 1.5 0 0 1 -1.13.82z" fill="#430632"/></svg>