<svg width="149" height="52" fill="none" xmlns="http://www.w3.org/2000/svg"><path d="M52.797 51.585h-4.36a.779.779 0 0 1-.768-.767V1.885c0-.416.352-.767.769-.767h4.36c.416 0 .769.351.769.766V50.85c-.032.415-.353.735-.77.735zM.256 22.997a.747.747 0 0 1-.224-.543V2.14c0-.224.064-.415.224-.575.16-.16.32-.224.577-.224h8.271c3.11 0 5.514.735 7.245 2.204 1.731 1.47 2.629 3.578 2.693 6.357.032.606.032 1.405.032 2.395s0 1.789-.032 2.396c-.225 5.717-3.463 8.592-9.778 8.592H.801a1.011 1.011 0 0 1-.545-.288zm8.816-4.44c1.314 0 2.308-.319 2.917-.926.641-.639.962-1.629.994-3.002a43.237 43.237 0 0 0 0-4.696c-.032-1.341-.417-2.331-1.09-2.97-.673-.639-1.667-.958-3.013-.958H5.898v12.52h3.174v.033zM24.684 21.4c-1.7-1.437-2.629-3.545-2.725-6.324-.032-.575-.032-1.47-.032-2.747 0-1.31 0-2.236.032-2.81.096-2.716 1.026-4.792 2.757-6.293 1.73-1.47 4.07-2.204 7.02-2.204 1.86 0 3.526.287 5.001.894 1.475.607 2.66 1.47 3.494 2.62.866 1.15 1.314 2.49 1.347 4.056a.654.654 0 0 1-.673.67h-4.456c-.289 0-.513-.063-.642-.159-.128-.128-.256-.32-.352-.639-.289-1.022-.738-1.725-1.347-2.14-.609-.415-1.378-.607-2.372-.607-2.372 0-3.59 1.31-3.686 3.961-.032.575-.032 1.437-.032 2.587 0 1.15 0 2.044.032 2.651.096 2.62 1.314 3.93 3.686 3.93.962 0 1.763-.224 2.372-.64.61-.415 1.058-1.118 1.347-2.14.096-.32.192-.543.352-.639.16-.127.353-.16.674-.16h4.455a.654.654 0 0 1 .674.671c-.032 1.565-.481 2.939-1.347 4.057-.865 1.15-2.02 2.012-3.494 2.62-1.475.606-3.142.894-5 .894-3.014.031-5.386-.671-7.085-2.109zM2.565 49.477C.865 48.007 0 45.835 0 42.897V29.929c0-.224.064-.416.224-.575a.774.774 0 0 1 .577-.224h4.36c.225 0 .417.064.577.224a.77.77 0 0 1 .225.575v12.904c0 1.31.32 2.3.93 2.97.64.671 1.538.99 2.692.99 1.154 0 2.084-.319 2.693-.99.64-.67.93-1.66.93-2.938V29.929c0-.224.063-.416.224-.575a.774.774 0 0 1 .577-.224h4.328c.224 0 .416.064.576.224a.77.77 0 0 1 .225.575v12.968c0 2.938-.866 5.11-2.565 6.58-1.699 1.469-4.039 2.204-7.052 2.204-2.885-.032-5.225-.735-6.956-2.204zm24.042 1.309c-1.442-.607-2.532-1.373-3.302-2.364-.737-.99-1.154-2.044-1.186-3.194a.654.654 0 0 1 .673-.67h4.232c.256 0 .449.032.609.127.16.096.32.224.513.448.288.51.705.926 1.282 1.245.577.32 1.378.48 2.34.48 1.154 0 2.02-.16 2.661-.512.609-.351.93-.83.93-1.437 0-.447-.16-.798-.481-1.086-.32-.287-.834-.543-1.539-.767-.705-.223-1.699-.479-3.045-.734-2.565-.511-4.488-1.278-5.77-2.332-1.283-1.054-1.924-2.523-1.924-4.44 0-1.31.353-2.491 1.09-3.513.737-1.022 1.763-1.82 3.141-2.396 1.347-.575 2.918-.862 4.713-.862 1.86 0 3.494.32 4.872.958 1.379.639 2.437 1.437 3.174 2.428.737.99 1.122 1.916 1.154 2.842a.654.654 0 0 1-.673.67h-4.456c-.48.001-.833-.19-1.09-.574-.128-.447-.449-.83-.994-1.118-.545-.32-1.186-.447-1.987-.447-.898 0-1.57.16-2.084.48-.48.319-.737.798-.737 1.404 0 .607.32 1.087.962 1.438.64.351 1.827.703 3.558 1.054 1.987.351 3.59.798 4.776 1.341 1.186.543 2.052 1.246 2.629 2.109.577.862.833 1.948.833 3.258 0 1.437-.416 2.683-1.25 3.737-.833 1.054-1.987 1.884-3.43 2.427-1.474.575-3.141.83-5.033.83-1.955.033-3.718-.255-5.16-.83zm33.499-.032c-.352-.351-.544-.766-.544-1.245v-5.43c0-1.438.609-2.651 1.795-3.61l6.7-6.548c4.584-3.45 8.014-6.132 10.354-8.049 2.34-1.916 4.103-3.641 5.353-5.206 1.25-1.565 1.828-3.035 1.828-4.408 0-3.545-1.796-5.334-5.354-5.334-1.891 0-3.334.575-4.328 1.693-1.025 1.118-1.698 2.523-2.02 4.216-.288 1.118-1.121 1.66-2.468 1.66h-9.52c-.45 0-.802-.159-1.122-.478-.32-.32-.481-.671-.481-1.054.096-3.162.962-6.037 2.629-8.592 1.666-2.556 3.975-4.6 6.956-6.101C72.865.767 76.295 0 80.206 0c4.04 0 7.533.639 10.45 1.948 2.95 1.31 5.162 3.13 6.668 5.462 1.507 2.364 2.276 5.079 2.276 8.21 0 3.449-1.057 6.579-3.205 9.358-2.148 2.779-5.418 5.813-9.777 9.071l-5.995 5.973h18.272c.513 0 .962.16 1.315.511.32.32.512.767.512 1.278v7.698c0 .479-.16.894-.512 1.245-.353.352-.77.543-1.315.543H61.357c-.481-.032-.898-.191-1.25-.543zm52.67-3.993c-3.462-3.481-5.386-8.017-5.706-13.67a185.365 185.365 0 0 1-.129-6.963c0-2.108.032-4.504.129-7.187.192-3.61 1.09-6.804 2.692-9.614 1.603-2.811 3.943-5.015 6.989-6.644 3.045-1.63 6.764-2.46 11.156-2.46 4.391 0 8.11.83 11.187 2.46 3.078 1.629 5.418 3.833 7.021 6.644 1.603 2.81 2.5 6.005 2.693 9.614.096 1.341.16 3.737.16 7.187 0 3.353-.064 5.685-.16 6.963-.353 5.653-2.244 10.22-5.707 13.67-3.462 3.45-8.527 5.207-15.227 5.239-6.603-.064-11.636-1.789-15.098-5.239zm20.196-7.825c1.122-1.47 1.699-3.545 1.795-6.229.096-1.373.128-3.64.128-6.771 0-3.13-.032-5.334-.128-6.612-.096-2.587-.706-4.631-1.795-6.165-1.122-1.5-2.789-2.267-5.065-2.267-4.328 0-6.604 2.81-6.861 8.4-.064 1.278-.064 3.514-.064 6.612 0 3.098.032 5.366.064 6.771.257 5.622 2.533 8.401 6.861 8.401 2.276.064 3.975-.67 5.065-2.14z" fill="#fff"/></svg>