<?xml version="1.0" encoding="utf-8"?>
<!-- Generator: Adobe Illustrator 23.0.1, SVG Export Plug-In . SVG Version: 6.00 Build 0)  -->
<svg version="1.1" id="Layer_1" xmlns="http://www.w3.org/2000/svg" xmlns:xlink="http://www.w3.org/1999/xlink" x="0px" y="0px"
	 viewBox="0 0 400 180" style="enable-background:new 0 0 400 180;" xml:space="preserve">
<style type="text/css">
	.st0{fill:#FFFFFF;}
</style>
<g>
	<path class="st0" d="M11.13,78.54V16.67c0-1.72,0.43-3.08,1.29-4.07c0.86-1,1.97-1.5,3.35-1.5H33c10.93,0,19.23,2.75,24.9,8.25
		c5.67,5.5,8.51,14.16,8.51,25.99c0,25.3-10.79,37.95-32.38,37.95H16.39C12.89,83.28,11.13,81.7,11.13,78.54z M30.93,30.69v30.83
		c0,1.44,0.1,2.36,0.31,2.73c0.21,0.38,0.83,0.57,1.86,0.57c3.78,0,6.65-1.41,8.61-4.23c1.96-2.82,2.94-7.51,2.94-14.08
		c0-6.56-1.01-10.84-3.04-12.84c-2.03-1.99-5.24-2.99-9.64-2.99H30.93z"/>
	<path class="st0" d="M122.06,12.29c3.81,1.41,5.72,3.32,5.72,5.72c0,2.41-0.91,5.38-2.73,8.92c-1.82,3.54-3.35,5.31-4.59,5.31
		c-0.35,0-0.74-0.19-1.19-0.57c-0.45-0.38-1.48-0.79-3.09-1.24c-1.62-0.45-3.01-0.67-4.18-0.67c-3.99,0-7.2,1.41-9.64,4.23
		c-2.44,2.82-3.66,7.13-3.66,12.94c0,5.81,1.25,10.12,3.76,12.94c2.51,2.82,5.69,4.23,9.54,4.23c1.58,0,3.35-0.22,5.31-0.67
		c1.96-0.45,3.35-1.08,4.18-1.91c0.14-0.14,0.41-0.21,0.83-0.21c0.41,0,1.18,0.77,2.32,2.32c1.13,1.55,2.18,3.57,3.14,6.08
		c0.96,2.51,1.45,4.45,1.45,5.83c0,2.68-2.06,4.81-6.19,6.39c-4.12,1.58-9.01,2.37-14.64,2.37c-9.07,0-16.53-3.2-22.38-9.59
		c-5.84-6.39-8.76-15.42-8.76-27.07c0-11.65,3.01-20.81,9.02-27.48c6.01-6.67,13.53-10,22.53-10
		C113.82,10.17,118.24,10.88,122.06,12.29z"/>
	<path class="st0" d="M45.78,98.08c0-1.37,3.73-2.06,11.19-2.06c7.46,0,11.19,0.69,11.19,2.06v47.33c0,7.01-2.51,12.73-7.53,17.17
		c-5.02,4.43-11.95,6.65-20.78,6.65c-8.84,0-16.02-2.28-21.55-6.86c-5.53-4.57-8.3-10.74-8.3-18.51V98.19
		c0-1.37,3.73-2.06,11.19-2.06c7.46,0,11.19,0.69,11.19,2.06v46.51c0,1.38,0.72,2.48,2.17,3.3c1.51,0.83,3.09,1.24,4.74,1.24
		c1.65,0,3.15-0.38,4.49-1.13c1.34-0.76,2.01-1.89,2.01-3.4V98.08z"/>
	<path class="st0" d="M84.16,143.04c1.31,1.03,3.56,2.44,6.75,4.23c3.2,1.79,6.25,2.68,9.18,2.68c2.92,0,4.38-1.13,4.38-3.4
		c0-1.03-0.41-1.94-1.24-2.73c-0.82-0.79-2.34-1.7-4.54-2.73c-2.2-1.03-3.85-1.84-4.95-2.42c-1.1-0.58-2.56-1.55-4.38-2.89
		c-1.82-1.34-3.21-2.73-4.18-4.18c-2.75-3.92-4.12-8.9-4.12-14.95c0-6.05,2.25-11.15,6.75-15.31c4.5-4.16,10.4-6.24,17.68-6.24
		c4.95,0,9.52,0.53,13.71,1.6c4.19,1.07,6.36,2.46,6.5,4.18c0,0.21,0,0.41,0,0.62c0,2.41-0.76,5.45-2.27,9.13
		c-1.51,3.68-2.58,5.72-3.2,6.13c-4.4-2.27-8.34-3.4-11.81-3.4c-3.47,0-5.21,1.24-5.21,3.71c0,1.51,1.27,2.85,3.82,4.02
		c0.55,0.28,1.34,0.65,2.37,1.13c1.03,0.48,2.22,1.05,3.56,1.7c1.34,0.65,2.78,1.48,4.33,2.47c1.55,1,3.21,2.32,5,3.97
		c3.64,3.44,5.47,7.98,5.47,13.61c0,7.36-2.03,13.37-6.08,18.04c-4.06,4.68-10.31,7.08-18.77,7.22c-4.12,0-7.85-0.34-11.19-1.03
		c-3.33-0.69-6.24-2.03-8.71-4.02c-2.48-1.99-3.71-4.4-3.71-7.22c0-2.82,0.52-5.62,1.55-8.4S82.99,143.93,84.16,143.04z"/>
</g>
<path class="st0" d="M258.1,164.2c0,2.53-7.56,3.8-22.68,3.8c-15.12,0-22.68-1.27-22.68-3.8V54.05l-24.13,0.22
	c-4.47,0-6.7-7.15-6.7-21.45c0-4.92,0.48-9.68,1.45-14.3c0.97-4.61,2.64-6.93,5.03-6.93h61.22c2.53,0,4.58,0.56,6.14,1.68
	c1.57,1.12,2.35,2.5,2.35,4.13V164.2z"/>
<path class="st0" d="M297.7,128.89c11.15,2.23,19.55,3.35,25.2,3.35c5.64,0,10.74-1.78,15.27-5.35c4.53-3.57,7.17-9.14,7.92-16.72
	c-7.43,2.08-13.38,3.12-17.84,3.12c-15.61,0-27.65-4.35-36.12-13.05c-8.48-8.7-12.71-21.03-12.71-37.01
	c0-15.98,4.87-28.95,14.61-38.91c9.74-9.96,23.08-14.94,40.02-14.94s30.29,5.95,40.02,17.84c9.74,11.89,14.61,29.43,14.61,52.62
	c0,28.99-5.17,51.25-15.5,66.78c-10.33,15.54-25.68,23.3-46.05,23.3c-25.27,0-37.91-4.24-37.91-12.71c0-4.46,0.89-10.29,2.68-17.5
	C293.69,132.5,295.62,128.89,297.7,128.89z M333.6,49.51c-4.76,0-8.44,1.52-11.04,4.57c-2.6,3.05-3.9,6.95-3.9,11.71
	c0,4.76,1.52,8.59,4.57,11.48c3.04,2.9,6.95,4.35,11.71,4.35c4.76,0,8.62-1.04,11.59-3.12c0-10.26-0.96-17.65-2.9-22.19
	C341.71,51.78,338.36,49.51,333.6,49.51z"/>
<path class="st0" d="M162.13,169h-13.58c-1.3,0-2.36-1.06-2.36-2.36V13.36c0-1.3,1.06-2.36,2.36-2.36h13.58
	c1.3,0,2.36,1.06,2.36,2.36v153.27C164.49,167.94,163.44,169,162.13,169z"/>
</svg>
