<?xml version="1.0" encoding="utf-8"?>
<!-- Generator: Adobe Illustrator 25.0.0, SVG Export Plug-In . SVG Version: 6.00 Build 0)  -->
<svg version="1.1" id="Layer_1" xmlns="http://www.w3.org/2000/svg" xmlns:xlink="http://www.w3.org/1999/xlink" x="0px" y="0px"
	 viewBox="0 0 149 52" style="enable-background:new 0 0 149 52;" xml:space="preserve">
<style type="text/css">
	.st0{fill:#FFFFFF;}
</style>
<path class="st0" d="M60.8,51.6h-4.4c-0.4,0-0.8-0.3-0.8-0.8V1.9c0-0.4,0.4-0.8,0.8-0.8h4.4c0.4,0,0.8,0.4,0.8,0.8v49
	C61.5,51.3,61.2,51.6,60.8,51.6z M8.3,23c-0.1-0.1-0.2-0.3-0.2-0.5V2.1c0-0.2,0.1-0.4,0.2-0.6c0.2-0.2,0.3-0.2,0.6-0.2h8.3
	c3.1,0,5.5,0.7,7.2,2.2C26.1,5,27,7.1,27,9.9c0,0.6,0,1.4,0,2.4s0,1.8,0,2.4c-0.2,5.7-3.5,8.6-9.8,8.6H8.7C8.6,23.2,8.4,23.1,8.3,23
	z M17.1,18.6c1.3,0,2.3-0.3,2.9-0.9s1-1.6,1-3c0.1-1.6,0.1-3.1,0-4.7c0-1.3-0.4-2.3-1.1-3s-1.7-1-3-1h-3v12.5L17.1,18.6L17.1,18.6
	L17.1,18.6z M32.7,21.4C31,20,30.1,17.9,30,15.1c0-0.6,0-1.5,0-2.7c0-1.3,0-2.2,0-2.8c0.1-2.7,1-4.8,2.8-6.3c1.7-1.5,4.1-2.2,7-2.2
	c1.9,0,3.5,0.3,5,0.9s2.7,1.5,3.5,2.6c0.9,1.2,1.3,2.5,1.3,4.1c0,0.4-0.3,0.7-0.6,0.7l0,0h-4.5c-0.3,0-0.5-0.1-0.6-0.2
	c-0.1-0.1-0.3-0.3-0.4-0.6c-0.3-1-0.7-1.7-1.3-2.1s-1.4-0.6-2.4-0.6c-2.4,0-3.6,1.3-3.7,4c0,0.6,0,1.4,0,2.6s0,2,0,2.7
	c0.1,2.6,1.3,3.9,3.7,3.9c1,0,1.8-0.2,2.4-0.6c0.6-0.4,1.1-1.1,1.3-2.1c0.1-0.3,0.2-0.5,0.4-0.6s0.4-0.2,0.7-0.2h4.5
	c0.4,0,0.7,0.3,0.7,0.6l0,0c0,1.6-0.5,2.9-1.3,4.1c-0.9,1.1-2,2-3.5,2.6s-3.1,0.9-5,0.9C36.8,23.5,34.4,22.8,32.7,21.4z M10.6,49.5
	C8.9,48,8,45.8,8,42.9v-13c0-0.2,0.1-0.4,0.2-0.6c0.2-0.2,0.4-0.2,0.6-0.2h4.4c0.2,0,0.4,0.1,0.6,0.2c0.2,0.2,0.2,0.4,0.2,0.6v12.9
	c0,1.3,0.3,2.3,0.9,3s1.5,1,2.7,1s2.1-0.3,2.7-1s0.9-1.7,0.9-2.9v-13c0-0.2,0.1-0.4,0.2-0.6c0.2-0.2,0.4-0.2,0.6-0.2h4.3
	c0.2,0,0.4,0.1,0.6,0.2c0.2,0.2,0.2,0.4,0.2,0.6v13c0,2.9-0.9,5.1-2.6,6.6s-4,2.2-7.1,2.2C14.6,51.6,12.3,50.9,10.6,49.5z
	 M34.6,50.8c-1.4-0.6-2.5-1.4-3.3-2.4c-0.7-1-1.2-2-1.2-3.2c0-0.4,0.3-0.7,0.6-0.7l0,0H35c0.3,0,0.4,0,0.6,0.1
	c0.2,0.1,0.3,0.2,0.5,0.4c0.3,0.5,0.7,0.9,1.3,1.2s1.4,0.5,2.3,0.5c1.2,0,2-0.2,2.7-0.5c0.6-0.4,0.9-0.8,0.9-1.4
	c0-0.4-0.2-0.8-0.5-1.1s-0.8-0.5-1.5-0.8c-0.7-0.2-1.7-0.5-3-0.7c-2.6-0.5-4.5-1.3-5.8-2.3c-1.3-1.1-1.9-2.5-1.9-4.4
	c0-1.3,0.4-2.5,1.1-3.5s1.8-1.8,3.1-2.4s2.9-0.9,4.7-0.9c1.9,0,3.5,0.3,4.9,1c1.4,0.6,2.4,1.4,3.2,2.4c0.7,1,1.1,1.9,1.2,2.8
	c0,0.4-0.3,0.7-0.6,0.7l0,0h-4.5c-0.5,0-0.8-0.2-1.1-0.6c-0.1-0.4-0.4-0.8-1-1.1c-0.5-0.3-1.2-0.4-2-0.4c-0.9,0-1.6,0.2-2.1,0.5
	s-0.7,0.8-0.7,1.4c0,0.6,0.3,1.1,1,1.4c0.6,0.4,1.8,0.7,3.6,1.1c2,0.4,3.6,0.8,4.8,1.3s2.1,1.2,2.6,2.1c0.6,0.9,0.8,1.9,0.8,3.3
	c0,1.4-0.4,2.7-1.2,3.7c-0.8,1.1-2,1.9-3.4,2.4c-1.5,0.6-3.1,0.8-5,0.8C37.8,51.6,36.1,51.4,34.6,50.8L34.6,50.8z M67.5,51.2
	c-0.4-0.3-0.5-0.8-0.5-1.3v-5c0-1.4,0.6-2.6,1.8-3.5l7.4-7.2c4.3-3.3,7.6-5.9,9.8-7.7c2.2-1.8,3.9-3.5,5-5c1.1-1.5,1.7-3,1.7-4.3
	c0-3.7-1.8-5.6-5.5-5.6c-1.9,0-3.4,0.6-4.5,1.7c-1,1.2-1.7,2.6-2.1,4.4c-0.3,1.1-1.1,1.6-2.4,1.6h-8.9c-0.4,0-0.8-0.1-1.1-0.4
	c-0.3-0.3-0.4-0.6-0.4-1.1c0.1-3,0.9-5.8,2.5-8.3c1.6-2.5,3.8-4.5,6.7-6C80,1.8,83.3,1,87.1,1c4,0,7.4,0.6,10.2,1.9s5,3.1,6.5,5.4
	c1.5,2.3,2.2,5,2.2,8.1c0,3.3-1,6.3-3.1,9.1c-2.1,2.7-5.2,5.7-9.4,8.8L87,40.9h18.2c0.5,0,1,0.2,1.3,0.5c0.4,0.3,0.5,0.8,0.5,1.3
	v7.2c0,0.5-0.2,0.9-0.5,1.3c-0.4,0.3-0.8,0.5-1.3,0.5H68.8C68.3,51.7,67.8,51.5,67.5,51.2z M128.6,51.1c-0.4-0.4-0.5-0.8-0.5-1.2
	V16.1l-9.7,7.5c-0.3,0.3-0.7,0.4-1.1,0.4c-0.5,0-1-0.3-1.4-0.9l-4.2-5.5c-0.2-0.4-0.4-0.7-0.4-1.1c0-0.7,0.3-1.2,0.9-1.5l16.3-12.6
	c0.5-0.3,1.1-0.5,1.7-0.5h8.9c0.5,0,0.9,0.2,1.3,0.5c0.3,0.3,0.5,0.8,0.5,1.3v46.1c0,0.5-0.2,0.9-0.5,1.2c-0.3,0.4-0.8,0.5-1.3,0.5
	h-9.2C129.4,51.7,129,51.5,128.6,51.1z"/>
</svg>
