<svg enable-background="new 0 0 149 52" viewBox="0 0 149 52" xmlns="http://www.w3.org/2000/svg"><path d="m60.8 51.6h-4.4c-.4 0-.8-.3-.8-.8v-48.9c0-.4.4-.8.8-.8h4.4c.4 0 .8.4.8.8v49c-.1.4-.4.7-.8.7zm-52.5-28.6c-.1-.1-.2-.3-.2-.5v-20.4c0-.2.1-.4.2-.6.2-.2.3-.2.6-.2h8.3c3.1 0 5.5.7 7.2 2.2s2.6 3.6 2.6 6.4v2.4s0 1.8 0 2.4c-.2 5.7-3.5 8.6-9.8 8.6h-8.5c-.1-.1-.3-.2-.4-.3zm8.8-4.4c1.3 0 2.3-.3 2.9-.9s1-1.6 1-3c.1-1.6.1-3.1 0-4.7 0-1.3-.4-2.3-1.1-3s-1.7-1-3-1h-3v12.5zm15.6 2.8c-1.7-1.4-2.6-3.5-2.7-6.3 0-.6 0-1.5 0-2.7 0-1.3 0-2.2 0-2.8.1-2.7 1-4.8 2.8-6.3 1.7-1.5 4.1-2.2 7-2.2 1.9 0 3.5.3 5 .9s2.7 1.5 3.5 2.6c.9 1.2 1.3 2.5 1.3 4.1 0 .4-.3.7-.6.7h-4.5c-.3 0-.5-.1-.6-.2s-.3-.3-.4-.6c-.3-1-.7-1.7-1.3-2.1s-1.4-.6-2.4-.6c-2.4 0-3.6 1.3-3.7 4v2.6s0 2 0 2.7c.1 2.6 1.3 3.9 3.7 3.9 1 0 1.8-.2 2.4-.6s1.1-1.1 1.3-2.1c.1-.3.2-.5.4-.6s.4-.2.7-.2h4.5c.4 0 .7.3.7.6 0 1.6-.5 2.9-1.3 4.1-.9 1.1-2 2-3.5 2.6s-3.1.9-5 .9c-3.2-.3-5.6-1-7.3-2.4zm-22.1 28.1c-1.7-1.5-2.6-3.7-2.6-6.6v-13c0-.2.1-.4.2-.6.2-.2.4-.2.6-.2h4.4c.2 0 .4.1.6.2.2.2.2.4.2.6v12.9c0 1.3.3 2.3.9 3s1.5 1 2.7 1 2.1-.3 2.7-1 .9-1.7.9-2.9v-13c0-.2.1-.4.2-.6.2-.2.4-.2.6-.2h4.3c.2 0 .4.1.6.2.2.2.2.4.2.6v13c0 2.9-.9 5.1-2.6 6.6s-4 2.2-7.1 2.2c-2.8-.1-5.1-.8-6.8-2.2zm24 1.3c-1.4-.6-2.5-1.4-3.3-2.4-.7-1-1.2-2-1.2-3.2 0-.4.3-.7.6-.7h4.3c.3 0 .4 0 .6.1s.3.2.5.4c.3.5.7.9 1.3 1.2s1.4.5 2.3.5c1.2 0 2-.2 2.7-.5.6-.4.9-.8.9-1.4 0-.4-.2-.8-.5-1.1s-.8-.5-1.5-.8c-.7-.2-1.7-.5-3-.7-2.6-.5-4.5-1.3-5.8-2.3-1.3-1.1-1.9-2.5-1.9-4.4 0-1.3.4-2.5 1.1-3.5s1.8-1.8 3.1-2.4 2.9-.9 4.7-.9c1.9 0 3.5.3 4.9 1 1.4.6 2.4 1.4 3.2 2.4.7 1 1.1 1.9 1.2 2.8 0 .4-.3.7-.6.7h-4.5c-.5 0-.8-.2-1.1-.6-.1-.4-.4-.8-1-1.1-.5-.3-1.2-.4-2-.4-.9 0-1.6.2-2.1.5s-.7.8-.7 1.4.3 1.1 1 1.4c.6.4 1.8.7 3.6 1.1 2 .4 3.6.8 4.8 1.3s2.1 1.2 2.6 2.1c.6.9.8 1.9.8 3.3s-.4 2.7-1.2 3.7c-.8 1.1-2 1.9-3.4 2.4-1.5.6-3.1.8-5 .8-2.2.1-3.9-.1-5.4-.7zm32.9.4c-.4-.3-.5-.8-.5-1.3v-5c0-1.4.6-2.6 1.8-3.5l7.4-7.2c4.3-3.3 7.6-5.9 9.8-7.7s3.9-3.5 5-5 1.7-3 1.7-4.3c0-3.7-1.8-5.6-5.5-5.6-1.9 0-3.4.6-4.5 1.7-1 1.2-1.7 2.6-2.1 4.4-.3 1.1-1.1 1.6-2.4 1.6h-8.9c-.4 0-.8-.1-1.1-.4s-.4-.6-.4-1.1c.1-3 .9-5.8 2.5-8.3s3.8-4.5 6.7-6c3-1.7 6.3-2.5 10.1-2.5 4 0 7.4.6 10.2 1.9s5 3.1 6.5 5.4 2.2 5 2.2 8.1c0 3.3-1 6.3-3.1 9.1-2.1 2.7-5.2 5.7-9.4 8.8l-6.5 6.6h18.2c.5 0 1 .2 1.3.5.4.3.5.8.5 1.3v7.2c0 .5-.2.9-.5 1.3-.4.3-.8.5-1.3.5h-36.4c-.5 0-1-.2-1.3-.5zm61.1-.1c-.4-.4-.5-.8-.5-1.2v-33.8l-9.7 7.5c-.3.3-.7.4-1.1.4-.5 0-1-.3-1.4-.9l-4.2-5.5c-.2-.4-.4-.7-.4-1.1 0-.7.3-1.2.9-1.5l16.3-12.6c.5-.3 1.1-.5 1.7-.5h8.9c.5 0 .9.2 1.3.5.3.3.5.8.5 1.3v46.1c0 .5-.2.9-.5 1.2-.3.4-.8.5-1.3.5h-9.2c-.5.2-.9 0-1.3-.4z" fill="#fff"/></svg>