<svg id="Layer_1" data-name="Layer 1" xmlns="http://www.w3.org/2000/svg" viewBox="0 0 1545 430"><title>sunrise-post-event</title><rect x="-25.4" y="230.3" width="1593.1" height="201.9" fill="#f9d8b4"/><rect x="-26.8" y="-2.2" width="1592.6" height="298.5" fill="#f9e7dc"/><polygon points="-26.8 -2.56 1565.8 -17.9 1565.8 117.24 -26.8 117.24 -26.8 -2.56" fill="#f9c5a2"/><path d="M-51.5,255.5c.3,16.5-.6,74.5-.5,96.5l1623.4,30.8V148.5Z" fill="#fcedde"/><path d="M1598.2,147V78.7L-46.4,52.8c.1,18.1-.3,75.5-.3,101.6Z" fill="#f9e7dc"/><path d="M1605.9,146.9-60.9,129.4v31.9l1666.8-5Z" fill="#f9e7dc"/><path d="M-59.7,272.7v22.6l1320.5-5Z" fill="#f9f4f4"/><path d="M1597.9,408.81V394.06L429.3,411.89,1597.9,417Z" fill="#e2defc"/><path d="M1589.5,349.2-47.3,382.9l1636.8,9.7Z" fill="#f9a7a7"/><polygon points="1603.9 209.8 1603.9 267.5 667.8 254.6 1603.9 209.8" fill="#f9f4f4"/><path d="M1571.2,82.2v-3L-41.2,37.8V65.4c0,2.3-.3,14.4-.5,28.3Z" fill="#c5b9f9"/></svg> 