<?xml version="1.0" encoding="utf-8"?>
<!-- Generator: Adobe Illustrator 22.1.0, SVG Export Plug-In . SVG Version: 6.00 Build 0)  -->
<svg version="1.1" id="Layer_1" xmlns="http://www.w3.org/2000/svg" xmlns:xlink="http://www.w3.org/1999/xlink" x="0px" y="0px"
	 viewBox="0 0 1536.8 604.6" style="enable-background:new 0 0 1536.8 604.6;" xml:space="preserve">
<style type="text/css">
	.st0{fill:#D19FDD;}
	.st1{fill:#063760;}
	.st2{fill:#4A2C7A;}
	.st3{fill:#5A51B7;}
	.st4{fill:#914E9B;}
	.st5{fill:#CE5184;}
	.st6{fill:#F47E76;}
	.st7{fill:#F98FB0;}
	.st8{fill:#8F85CC;}
	.st9{fill:#F7B07C;}
	.st10{fill:#F27979;}
</style>
<path class="st0" d="M35.5,402.7h1463.1v201.9H35.5V402.7z"/>
<path class="st1" d="M34.1,0h1462.6v468.7H34.1V0z"/>
<path class="st2" d="M34.1,312.5h1462.6v156.2H34.1V312.5z"/>
<path class="st1" d="M1507.2,0.1v119.3l-35.6-1v260.3H33.9v-274h962.3l-319.3-9.2l809-95.2L1507.2,0.1L1507.2,0.1z"/>
<path class="st1" d="M17.8,191.1v-76.6l1503.5-29c-0.1,20.3,0.3,84.8,0.3,114.1L17.8,191.1z"/>
<path class="st3" d="M9.4,427.9c0.3,16.5-0.6,74.5-0.5,96.5l1493.5,30.9V320.9L9.4,427.9z"/>
<path class="st4" d="M1502.1,376.6v-3L19.7,332.2v27.6c0,2.3-0.3,14.4-0.5,28.3L1502.1,376.6L1502.1,376.6z"/>
<path class="st1" d="M1529.2,319.4v-68.3L14.5,225.2c0.1,18.1-0.3,75.5-0.3,101.6L1529.2,319.4z"/>
<path class="st1" d="M1536.8,319.3L0,301.9v31.9l1536.8-5V319.3z M1512.5,162.6v-0.5L5.8,150.2v22.1l1506.5-3.4
	C1512.4,165.8,1512.5,163.2,1512.5,162.6L1512.5,162.6z"/>
<path class="st5" d="M48.3,355.1v2.4l1461.2,17v-67.9L48.3,355.1z"/>
<path class="st6" d="M1322.8,573.6c0-125.5-101.7-227.2-227.2-227.2S868.3,448.1,868.3,573.6c0,10.5,0.7,20.8,2.1,31h450.3
	C1322,594.5,1322.8,584.1,1322.8,573.6z"/>
<path class="st7" d="M1.2,445.1v22.6l1262.5-5L1.2,445.1z"/>
<path class="st8" d="M1528.8,550.8v-11.5l-838.9,13.9l838.9,4V550.8z"/>
<path class="st9" d="M1520.4,487.6L13.6,521.3l1506.8,9.7V487.6z"/>
<path class="st10" d="M1534.8,382.2v57.7L670.7,427L1534.8,382.2L1534.8,382.2z"/>
</svg>
