<svg viewBox="0 0 100 100" xmlns="http://www.w3.org/2000/svg"><path d="m91.6 52.3a40.8 40.8 0 0 1 -12 26.5 41.2 41.2 0 0 1 -26.6 11.9h-2.5a40.6 40.6 0 0 1 -21.4-6.1l-15.6 3.5a2.7 2.7 0 0 1 -2.8-.8 3 3 0 0 1 -.8-2.7l3.7-16.8a41.1 41.1 0 0 1 34.3-59.3 41.1 41.1 0 0 1 43.7 43.8z" fill="#f7b07c"/><path d="m50 92.1a42 42 0 0 1 -21.9-6.1l-16 3.5a3 3 0 0 1 -2.8-.9 3.2 3.2 0 0 1 -.8-2.8l3.7-17.1a43.9 43.9 0 0 1 -4.3-21.5 42.2 42.2 0 0 1 84.2 5.6 42.3 42.3 0 0 1 -39.5 39.3zm-21.8-8 .5.2a40.4 40.4 0 0 0 61.6-31.6 40.4 40.4 0 0 0 -42.9-43 40.3 40.3 0 0 0 -33.4 58.5 1.3 1.3 0 0 1 .1.6l-3.9 17.4a1.4 1.4 0 0 0 .4 1.2 1.2 1.2 0 0 0 1.2.3l16.2-3.5z" fill="#171d2f"/></svg>