<svg fill="none" height="24" viewBox="0 0 219 24" width="219" xmlns="http://www.w3.org/2000/svg"><path clip-rule="evenodd" d="m10.3125 22.5v-1.875h-2.8125c-3.1066 0-5.625-2.5184-5.625-5.625v-7.5c0-3.1066 2.5184-5.625 5.625-5.625h2.8125v-1.875h-2.8125c-4.14214 0-7.5 3.35786-7.5 7.5v7.5c0 4.1421 3.35786 7.5 7.5 7.5zm4.6875-1.875h-2.8125v1.875h2.8125c4.1421 0 7.5-3.3579 7.5-7.5v-7.5c0-4.14214-3.3579-7.5-7.5-7.5h-2.8125v1.875h2.8125c3.1066 0 5.625 2.5184 5.625 5.625v7.5c0 3.1066-2.5184 5.625-5.625 5.625zm26.3792-1.35c.8123.35 1.7253.525 2.7389.525.9987 0 1.9079-.175 2.7277-.525s1.5166-.8638 2.0905-1.5415 1.0173-1.5191 1.3303-2.5245c.3131-1.0053.4696-2.1632.4696-3.4739 0-1.3106-.1565-2.46488-.4696-3.46276-.313-.99788-.7564-1.83936-1.3303-2.52447s-1.2707-1.20266-2.0905-1.55266-1.729-.525-2.7277-.525c-1.0136 0-1.9266.175-2.7389.525-.8124.35-1.5055.86755-2.0793 1.55266-.5739.68511-1.0174 1.52659-1.3304 2.52447s-.4695 2.15216-.4695 3.46276c0 1.3107.1565 2.4686.4695 3.4739.313 1.0054.7565 1.8468 1.3304 2.5245.5738.6777 1.2669 1.1915 2.0793 1.5415zm4.5946-1.508c-.5664.2383-1.185.3575-1.8557.3575-.6708 0-1.2894-.1192-1.8558-.3575s-1.0545-.5808-1.4644-1.0276-.7267-.983-.9503-1.6085c-.2236-.6256-.3353-1.3256-.3353-2.1v-2.5915c0-.77451.1117-1.4745.3353-2.10004.2236-.62553.5404-1.1617.9503-1.60851s.898-.78936 1.4644-1.02766 1.185-.35744 1.8558-.35744c.6707 0 1.2893.11914 1.8557.35744s1.0546.58085 1.4645 1.02766.7266.98298.9502 1.60851c.2236.62554.3354 1.32553.3354 2.10004v2.5915c0 .7744-.1118 1.4744-.3354 2.1-.2236.6255-.5403 1.1617-.9502 1.6085s-.8981.7893-1.4645 1.0276zm9.7483-9.76274h-1.7887v15.99574h1.7887v-6.3447h.0894c.6857 1.4298 1.811 2.1447 3.3761 2.1447.7155 0 1.3639-.1415 1.9452-.4245.5813-.2829 1.0769-.6851 1.4868-1.2064.4099-.5212.723-1.1542.9391-1.8989s.3242-1.5787.3242-2.5021-.1081-1.7575-.3242-2.5021c-.2161-.7447-.5292-1.3777-.9391-1.89898s-.9055-.9234-1.4868-1.20638-1.2297-.42447-1.9452-.42447c-.8049 0-1.4943.175-2.0681.525-.5739.35-1.0099.88989-1.308 1.61968h-.0894zm5.366 9.23774c-.5813.633-1.3788.9495-2.3924.9495-.4024 0-.7862-.0521-1.1514-.1564-.3652-.1042-.6819-.2569-.9502-.458-.2683-.201-.4808-.4468-.6373-.7372s-.2347-.6218-.2347-.9942v-4.2893c0-.3128.0782-.6069.2347-.8825.1565-.2755.369-.5101.6373-.70369.2683-.19362.585-.34627.9502-.45798.3652-.1117.749-.16755 1.1514-.16755 1.0136 0 1.8111.31649 2.3924.94942.5813.633.872 1.4633.872 2.491v1.966c0 1.0276-.2907 1.8579-.872 2.4909zm6.9423 1.7649c.3204.35.7937.525 1.4197.525h2.2359v-1.5638h-2.3477v-8.40002h2.5265v-1.56382h-2.5265v-3.19469h-1.6098v2.14469c0 .38723-.0708.65904-.2124.81542s-.4062.23458-.7937.23458h-1.0732v1.56382h1.9005v8.06492c0 .5659.1602 1.0239.4807 1.3739zm6.7746-13.98509c.1714.18617.4508.27925.8384.27925.3875 0 .667-.09308.8384-.27925s.2572-.42819.2572-.72607v-.29042c0-.29787-.0858-.53989-.2572-.72606-.1714-.18618-.4509-.27926-.8384-.27926-.3876 0-.667.09308-.8384.27926-.1715.18617-.2572.42819-.2572.72606v.29042c0 .29788.0857.5399.2572.72607zm7.3223 2.98245h-1.7886v11.52764h1.7886v-7.9979c0-.3723.0783-.6962.2348-.9718.1565-.2755.3614-.5026.6148-.68135.2534-.17872.5441-.31276.872-.40213.3279-.08936.6708-.13404 1.0285-.13404.8496 0 1.4757.26064 1.8781.78192.4025.5213.6037 1.2957.6037 2.3234v7.0819h1.7887v-7.9979c0-.3723.0745-.6962.2235-.9718.1491-.2755.3503-.5026.6037-.68135.2534-.17872.5403-.31276.8608-.40213.3205-.08936.6596-.13404 1.0173-.13404.8795 0 1.5204.26064 1.9228.78192.4025.5213.6037 1.2957.6037 2.3234v7.0819h1.7887v-7.3947c0-1.4-.3317-2.48347-.995-3.2505-.6633-.76702-1.5837-1.15053-2.7612-1.15053-.9838 0-1.7626.23457-2.3365.70372-.5738.46916-.9651 1.01649-1.1738 1.64201h-.0447c-.313-.83403-.79-1.43349-1.4309-1.79839-.641-.36489-1.3415-.54734-2.1017-.54734-.4472 0-.8347.05585-1.1627.16755-.3279.11171-.6148.26436-.8608.45798-.2459.19362-.4546.42074-.626.68139-.1714.26063-.3242.53989-.4583.83776h-.0895zm24.6727 10.99144c.29.3575.771.5362 1.442.5362h1.006v-1.5638h-1.319v-6.3447c0-1.2213-.388-2.17446-1.163-2.85957s-1.863-1.02766-3.264-1.02766c-1.043 0-1.908.21968-2.594.65904-.685.43937-1.1846.97181-1.4976 1.59734l1.0736 1.00535c.313-.5213.704-.9383 1.173-1.25109.47-.31277 1.055-.46915 1.756-.46915.924 0 1.609.21596 2.056.64787.448.43187.671 1.05747.671 1.87657v1.1394h-2.28c-1.685 0-2.926.2904-3.723.8713-.7975.5808-1.1962 1.4149-1.1962 2.5021 0 1.0723.3391 1.9213 1.0173 2.5468.6779.6255 1.6289.9383 2.8509.9383.805 0 1.498-.1787 2.079-.5362.581-.3574.999-.8936 1.252-1.6085h.112c.075.5362.257.983.548 1.3404zm-30.2623-10.99144h-1.7886v11.52764h1.7886zm27.7913 10.12024c-.372.1042-.782.1564-1.23.1564-.7 0-1.255-.1564-1.665-.4692s-.615-.7521-.615-1.3181v-.4691c0-.566.235-.9979.704-1.2958.47-.2978 1.219-.4468 2.247-.4468h2.37v1.899c0 .2978-.074.5734-.223.8265-.149.2532-.358.4766-.626.6703-.269.1936-.589.3425-.962.4468zm7.949.8824c.32.35.793.525 1.419.525h1.588v-1.5638h-1.699v-14.9681h-1.789v14.6777c0 .5361.16.9792.481 1.3292zm17.244-15.0686h-5.232v15.5936h5.232c.969 0 1.848-.1638 2.638-.4915.79-.3276 1.465-.8154 2.024-1.4633.558-.6478.987-1.4595 1.285-2.4351.298-.9755.447-2.1111.447-3.4069 0-1.2957-.149-2.43137-.447-3.40691-.298-.97553-.727-1.78723-1.285-2.4351-.559-.64788-1.234-1.13564-2.024-1.4633s-1.669-.49149-2.638-.49149zm1.766 13.6165c-.537.2159-1.125.3239-1.766.3239h-3.354v-12.28721h3.354c.641 0 1.229.10798 1.766.32394.537.21595.999.53244 1.386.94946.388.41703.69.92713.906 1.53032.216.6032.324 1.29202.324 2.06649v2.5468c0 .7745-.108 1.4633-.324 2.0665s-.518 1.1133-.906 1.5303c-.387.417-.849.7335-1.386.9495zm16.702-9.55055h-1.767l-2.794 7.84145-.626 1.8766h-.112l-.537-1.8766-2.772-7.84145h-1.789l4.315 11.97445-.872 2.4575h-1.811v1.5638h.917c.417 0 .771-.0298 1.062-.0894.291-.0595.533-.1563.727-.2904.193-.134.357-.3165.492-.5473.134-.2309.268-.5176.402-.8601zm4.069 0h-1.789v11.52765h1.789v-7.9979c0-.3723.078-.6962.235-.9718.156-.2755.369-.5026.637-.68135.268-.17872.57-.31276.906-.40213.335-.08936.681-.13404 1.039-.13404 1.744 0 2.616 1.03512 2.616 3.10532v7.0819h1.789v-7.3947c0-1.4-.347-2.48347-1.04-3.2505-.693-.76702-1.636-1.15053-2.828-1.15053-.865 0-1.554.19362-2.068.58085-.515.38724-.913.90851-1.197 1.56383h-.089zm17.853 10.99145c.291.3575.772.5362 1.442.5362h1.006v-1.5638h-1.319v-6.3447c0-1.2213-.387-2.17446-1.162-2.85957s-1.864-1.02766-3.265-1.02766c-1.043 0-1.908.21968-2.593.65904-.686.43937-1.185.97181-1.498 1.59734l1.073 1.00535c.313-.5213.704-.9383 1.174-1.25109.469-.31277 1.054-.46915 1.755-.46915.924 0 1.61.21595 2.057.64787.447.43187.671 1.05747.671 1.87657v1.1394h-2.281c-1.684 0-2.925.2904-3.723.8713-.797.5808-1.196 1.4149-1.196 2.5021 0 1.0723.339 1.9213 1.018 2.5468.678.6255 1.628.9383 2.85.9383.805 0 1.498-.1787 2.08-.5362.581-.3574.998-.8936 1.252-1.6085h.111c.075.5362.258.983.548 1.3404zm-2.47-.8712c-.373.1042-.783.1564-1.23.1564-.701 0-1.256-.1564-1.666-.4692s-.615-.7521-.615-1.3181v-.4691c0-.566.235-.9979.705-1.2958.469-.2978 1.218-.4468 2.247-.4468h2.37v1.899c0 .2978-.075.5734-.224.8265-.149.2532-.358.4766-.626.6703-.268.1936-.589.3425-.961.4468zm9.256-10.12025h-1.789v11.52765h1.789v-7.9979c0-.3723.078-.6962.235-.9718.156-.2755.361-.5026.615-.68135.253-.17872.544-.31276.872-.40213.327-.08936.67-.13404 1.028-.13404.85 0 1.476.26064 1.878.78192.403.5213.604 1.2957.604 2.3234v7.0819h1.788v-7.9979c0-.3723.075-.6962.224-.9718.149-.2755.35-.5026.604-.68135.253-.17872.54-.31276.861-.40213.32-.08936.659-.13404 1.017-.13404.879 0 1.52.26064 1.923.78192.402.5213.603 1.2957.603 2.3234v7.0819h1.789v-7.3947c0-1.4-.332-2.48347-.995-3.2505-.663-.76702-1.584-1.15053-2.761-1.15053-.984 0-1.763.23457-2.337.70372-.574.46916-.965 1.01649-1.173 1.64201h-.045c-.313-.83403-.79-1.43349-1.431-1.79839-.641-.36489-1.342-.54734-2.102-.54734-.447 0-.835.05585-1.162.16755-.328.11171-.615.26436-.861.45798s-.455.42075-.626.68139c-.172.26064-.324.53989-.459.83776h-.089zm17.786-2.98244c.171.18617.451.27925.838.27925.388 0 .668-.09308.839-.27925s.257-.42819.257-.72607v-.29042c0-.29787-.086-.53989-.257-.72606-.171-.18618-.451-.27926-.839-.27926-.387 0-.667.09308-.838.27926-.171.18617-.257.42819-.257.72606v.29042c0 .29788.086.5399.257.72607zm1.733 2.98244h-1.789v11.52765h1.789zm5.925 11.37125c.641.283 1.364.4245 2.169.4245 1.103 0 2.023-.2457 2.761-.7372s1.293-1.1543 1.666-1.9883l-1.297-.8713c-.641 1.3404-1.685 2.0106-3.13 2.0106-1.059 0-1.86-.3239-2.404-.9718s-.816-1.4782-.816-2.4909v-1.966c0-.5064.067-.9718.201-1.3963.134-.4244.336-.7893.604-1.0947.268-.30527.604-.54357 1.006-.71485.402-.17127.872-.25691 1.409-.25691.715 0 1.311.16383 1.788.49149.477.32767.82.78937 1.029 1.38507l1.498-.7595c-.343-.8043-.861-1.45589-1.554-1.95483-.693-.49893-1.614-.7484-2.761-.7484-.805 0-1.528.14149-2.169.42447s-1.181.6851-1.621 1.20638-.775 1.15428-1.006 1.89898c-.231.7446-.347 1.5787-.347 2.5021s.116 1.7574.347 2.5021.566 1.3777 1.006 1.8989c.44.5213.98.9235 1.621 1.2064zm9.893-.1899c.723.4096 1.621.6144 2.695.6144 1.326 0 2.37-.3202 3.13-.9606.76-.6405 1.14-1.5192 1.14-2.6362 0-.8787-.268-1.5899-.805-2.1335-.536-.5436-1.446-.9123-2.728-1.1059l-.894-.134c-.715-.1192-1.263-.3053-1.643-.5585s-.57-.6628-.57-1.2287c0-.5511.19-.9867.57-1.30696.38-.32022.942-.48032 1.688-.48032.745 0 1.364.14521 1.856.43564.491.29043.864.61434 1.117.97184l1.185-1.07237c-.477-.58086-1.032-1.03511-1.665-1.36277-.634-.32766-1.42-.49149-2.359-.49149-.581 0-1.125.07074-1.632.21223s-.943.35373-1.308.63671-.652.6367-.861 1.06117c-.209.42442-.313.91972-.313 1.48562 0 .5362.093.9979.279 1.3851.187.3873.448.7112.783.9718.335.2607.727.4692 1.174.6256.447.1563.939.2718 1.475.3462l.917.1341c.76.1191 1.286.3388 1.576.659.291.3202.436.7037.436 1.1506 0 .5957-.212 1.0574-.637 1.3851-.425.3276-1.017.4915-1.777.4915-.731 0-1.372-.1527-1.923-.458-.552-.3053-1.051-.741-1.498-1.3069l-1.275 1.0276c.522.6851 1.144 1.2325 1.867 1.642z" fill="#000" fill-rule="evenodd"/></svg>