<svg xmlns="http://www.w3.org/2000/svg" viewBox="0 0 464.19 207.43"><title>Two-Rock-Software-Logo</title><path d="M35.475,138.136C62.724,113.065,83.8,93.811,83.8,78.186c0-10.355-5.813-15.259-14.169-15.259-7.629,0-13.442,5.451-18.891,10.9L34.022,57.114C46.011,44.4,56.911,38.585,73.988,38.585c23.253,0,39.6,14.9,39.6,37.787,0,18.526-17.44,38.873-33.063,54.86a185.177,185.177,0,0,1,19.256-1.456h19.256v26.161H35.475Z" transform="translate(-34.022 -29.512)" style="fill:#231f20"/><path d="M161.356,110.16c11.445-6.179,19.073-17.258,19.073-34.154,0-29.428-21.8-38.149-47.232-38.149H119.039V62.565h11.98c12.35,0,18.892,3.271,18.892,13.441s-6.542,15.625-18.892,15.625h-11.98v24.7h12.706l20.346,39.6H186.97Z" transform="translate(-34.022 -29.512)" style="fill:#231f20"/><path d="M237.829,62.934c23.249,0,45.046,17.437,45.046,47.59s-21.8,47.59-45.046,47.59-45.047-17.438-45.047-47.59S214.579,62.934,237.829,62.934Zm0,70.113c9.444,0,13.077-8.719,13.077-22.523S247.273,88,237.829,88s-13.079,8.719-13.079,22.524S228.383,133.047,237.829,133.047Z" transform="translate(-34.022 -29.512)" style="fill:#231f20"/><path d="M343.182,62.934c10.9,0,20.343,4,26.519,10.172L355.533,92.36c-4-3.27-7.266-4.36-10.535-4.36-11.625,0-18.527,8.719-18.527,22.524s7.629,22.523,17.437,22.523c5.813,0,10.535-2.906,14.531-5.812l12.352,19.617c-9.082,7.992-21.07,11.262-30.516,11.262-25.793,0-45.773-17.438-45.773-47.59S317.389,62.934,343.182,62.934Z" transform="translate(-34.022 -29.512)" style="fill:#231f20"/><path d="M384.958,29.512h30.516V96.719h.726l25.067-31.6h33.785L442.72,102.9l34.148,53.039H443.083L424.919,123.6l-9.445,10.535v21.8H384.958Z" transform="translate(-34.022 -29.512)" style="fill:#231f20"/><path d="M41.1,224.045c4,3.088,7.81,5,12.351,5,4.814,0,7.084-2.27,7.084-5.358,0-3.724-4.813-5.359-9.536-7.175-5.9-2.18-12.533-5.54-12.533-12.987,0-7.811,6.267-13.351,16.257-13.351a24.072,24.072,0,0,1,14.8,5.359l-4.814,6.357c-3.088-2.27-6.266-3.814-9.808-3.814-4.451,0-6.539,2.088-6.539,4.9,0,3.451,4.45,4.9,9.263,6.63,6.085,2.27,12.806,5.176,12.806,13.532,0,7.629-6.085,13.805-17.347,13.805A28.239,28.239,0,0,1,36.2,230.766Z" transform="translate(-34.022 -29.512)" style="fill:#231f20"/><path d="M112.126,190.169c11.171,0,21.252,8.537,21.252,23.432,0,14.8-10.081,23.341-21.252,23.341-11.08,0-21.161-8.537-21.161-23.341C90.965,198.706,101.046,190.169,112.126,190.169Zm0,38.236c6.539,0,10.536-5.9,10.536-14.8,0-8.991-4-14.9-10.536-14.9s-10.444,5.9-10.444,14.9C101.682,222.5,105.587,228.405,112.126,228.405Z" transform="translate(-34.022 -29.512)" style="fill:#231f20"/><path d="M180.243,180a12.328,12.328,0,0,0-4.905-1.09c-3.633,0-5.631,2.362-5.631,7.539v4.813h8.719v8.265h-8.719v36.328H159.263V199.524h-5.994v-7.811l5.994-.454v-4.632c0-9.263,4.269-15.984,14.8-15.984a22.556,22.556,0,0,1,8.174,1.544Z" transform="translate(-34.022 -29.512)" style="fill:#231f20"/><path d="M201.857,199.524H195.5v-7.811l6.9-.454,1.272-12.17h8.718v12.17h11.353v8.265H212.392v21.252c0,5.267,2,7.81,6.267,7.81a12.787,12.787,0,0,0,4.632-1l1.816,7.72a28.492,28.492,0,0,1-9.082,1.635c-10.353,0-14.168-6.539-14.168-16.166Z" transform="translate(-34.022 -29.512)" style="fill:#231f20"/><path d="M242.727,191.259h10.535l5.359,23.159c.908,4.269,1.543,8.447,2.361,12.806h.364c.816-4.359,1.724-8.628,2.814-12.806l5.813-23.159h9.537l5.9,23.159c1.09,4.269,2,8.447,3,12.806h.363c.817-4.359,1.543-8.537,2.362-12.806l5.357-23.159H306.3l-11.352,44.593H282.506l-5.176-20.8c-1-4.178-1.727-8.265-2.725-12.987h-.363c-.818,4.722-1.635,8.9-2.635,13.078l-5.086,20.707H254.533Z" transform="translate(-34.022 -29.512)" style="fill:#231f20"/><path d="M352.62,207.334c-.091-4.722-2.089-8.719-8.083-8.719-4.45,0-8.628,2-12.533,4.36l-3.815-6.993c4.9-3.088,11.171-5.813,18.255-5.813,11.171,0,16.62,6.812,16.62,19.254v26.429h-8.537l-.817-4.9h-.273c-4,3.36-8.537,5.994-13.8,5.994-7.811,0-13.26-5.268-13.26-13.078C326.373,214.327,334.365,209.332,352.62,207.334ZM342.9,228.768c3.633,0,6.448-1.817,9.718-4.9v-9.991c-12.079,1.544-16.075,4.723-16.075,9.173C336.545,227.042,339.179,228.768,342.9,228.768Z" transform="translate(-34.022 -29.512)" style="fill:#231f20"/><path d="M389.857,191.259h8.628l.727,7.9h.363c3.179-5.812,7.9-8.991,12.624-8.991a11.34,11.34,0,0,1,5.086.908l-1.816,9.082a14.582,14.582,0,0,0-4.632-.726c-3.542,0-7.811,2.452-10.535,9.173v27.246H389.857Z" transform="translate(-34.022 -29.512)" style="fill:#231f20"/><path d="M454.521,190.169c12.079,0,18.437,8.719,18.437,21.161a22.475,22.475,0,0,1-.454,4.905H444.168c.908,8.083,5.994,12.624,13.169,12.624a18.627,18.627,0,0,0,10.353-3.27l3.542,6.539a28.132,28.132,0,0,1-15.257,4.814c-12.352,0-21.979-8.628-21.979-23.341C434,199.07,444.077,190.169,454.521,190.169Zm9.355,19.436c0-7.084-3-11.353-9.082-11.353-5.268,0-9.809,3.905-10.717,11.353Z" transform="translate(-34.022 -29.512)" style="fill:#231f20"/><path d="M479.338,54.68h-4.3V53.274H485.2V54.68h-4.338V65.6h-1.525Zm7.951-1.406h2.089l2.088,5.02,1.245,3.454h.161l1.245-3.454,2.008-5.02h2.088V65.6h-1.526V59.138l.2-3.936h-.161l-3.293,8.474h-1.366L488.775,55.2h-.16l.2,3.936V65.6h-1.526Z" transform="translate(-34.022 -29.512)" style="fill:#231f20"/></svg>