<svg viewBox="0 0 464.19 207.43" xmlns="http://www.w3.org/2000/svg"><g fill="#231f20" transform="translate(-34.022 -29.512)"><path d="m35.475 138.136c27.249-25.071 48.325-44.325 48.325-59.95 0-10.355-5.813-15.259-14.169-15.259-7.629 0-13.442 5.451-18.891 10.9l-16.718-16.713c11.989-12.714 22.889-18.529 39.966-18.529 23.253 0 39.6 14.9 39.6 37.787 0 18.526-17.44 38.873-33.063 54.86a185.177 185.177 0 0 1 19.256-1.456h19.256v26.161h-83.562z"/><path d="m161.356 110.16c11.445-6.179 19.073-17.258 19.073-34.154 0-29.428-21.8-38.149-47.232-38.149h-14.158v24.708h11.98c12.35 0 18.892 3.271 18.892 13.441s-6.542 15.625-18.892 15.625h-11.98v24.7h12.706l20.346 39.6h34.879z"/><path d="m237.829 62.934c23.249 0 45.046 17.437 45.046 47.59s-21.8 47.59-45.046 47.59-45.047-17.438-45.047-47.59 21.797-47.59 45.047-47.59zm0 70.113c9.444 0 13.077-8.719 13.077-22.523s-3.633-22.524-13.077-22.524-13.079 8.719-13.079 22.524 3.633 22.523 13.079 22.523z"/><path d="m343.182 62.934c10.9 0 20.343 4 26.519 10.172l-14.168 19.254c-4-3.27-7.266-4.36-10.535-4.36-11.625 0-18.527 8.719-18.527 22.524s7.629 22.523 17.437 22.523c5.813 0 10.535-2.906 14.531-5.812l12.352 19.617c-9.082 7.992-21.07 11.262-30.516 11.262-25.793 0-45.773-17.438-45.773-47.59s22.887-47.59 48.68-47.59z"/><path d="m384.958 29.512h30.516v67.207h.726l25.067-31.6h33.785l-32.332 37.781 34.148 53.039h-33.785l-18.164-32.339-9.445 10.535v21.8h-30.516z"/><path d="m41.1 224.045c4 3.088 7.81 5 12.351 5 4.814 0 7.084-2.27 7.084-5.358 0-3.724-4.813-5.359-9.536-7.175-5.9-2.18-12.533-5.54-12.533-12.987 0-7.811 6.267-13.351 16.257-13.351a24.072 24.072 0 0 1 14.8 5.359l-4.814 6.357c-3.088-2.27-6.266-3.814-9.808-3.814-4.451 0-6.539 2.088-6.539 4.9 0 3.451 4.45 4.9 9.263 6.63 6.085 2.27 12.806 5.176 12.806 13.532 0 7.629-6.085 13.805-17.347 13.805a28.239 28.239 0 0 1 -16.884-6.177z"/><path d="m112.126 190.169c11.171 0 21.252 8.537 21.252 23.432 0 14.8-10.081 23.341-21.252 23.341-11.08 0-21.161-8.537-21.161-23.341 0-14.895 10.081-23.432 21.161-23.432zm0 38.236c6.539 0 10.536-5.9 10.536-14.8 0-8.991-4-14.9-10.536-14.9s-10.444 5.9-10.444 14.9c0 8.895 3.905 14.8 10.444 14.8z"/><path d="m180.243 180a12.328 12.328 0 0 0 -4.905-1.09c-3.633 0-5.631 2.362-5.631 7.539v4.813h8.719v8.265h-8.719v36.328h-10.444v-36.331h-5.994v-7.811l5.994-.454v-4.632c0-9.263 4.269-15.984 14.8-15.984a22.556 22.556 0 0 1 8.174 1.544z"/><path d="m201.857 199.524h-6.357v-7.811l6.9-.454 1.272-12.17h8.718v12.17h11.353v8.265h-11.351v21.252c0 5.267 2 7.81 6.267 7.81a12.787 12.787 0 0 0 4.632-1l1.816 7.72a28.492 28.492 0 0 1 -9.082 1.635c-10.353 0-14.168-6.539-14.168-16.166z"/><path d="m242.727 191.259h10.535l5.359 23.159c.908 4.269 1.543 8.447 2.361 12.806h.364c.816-4.359 1.724-8.628 2.814-12.806l5.813-23.159h9.537l5.9 23.159c1.09 4.269 2 8.447 3 12.806h.363c.817-4.359 1.543-8.537 2.362-12.806l5.357-23.159h9.808l-11.352 44.593h-12.442l-5.176-20.8c-1-4.178-1.727-8.265-2.725-12.987h-.363c-.818 4.722-1.635 8.9-2.635 13.078l-5.086 20.707h-11.988z"/><path d="m352.62 207.334c-.091-4.722-2.089-8.719-8.083-8.719-4.45 0-8.628 2-12.533 4.36l-3.815-6.993c4.9-3.088 11.171-5.813 18.255-5.813 11.171 0 16.62 6.812 16.62 19.254v26.429h-8.537l-.817-4.9h-.273c-4 3.36-8.537 5.994-13.8 5.994-7.811 0-13.26-5.268-13.26-13.078-.004-9.541 7.988-14.536 26.243-16.534zm-9.72 21.434c3.633 0 6.448-1.817 9.718-4.9v-9.991c-12.079 1.544-16.075 4.723-16.075 9.173.002 3.992 2.636 5.718 6.357 5.718z"/><path d="m389.857 191.259h8.628l.727 7.9h.363c3.179-5.812 7.9-8.991 12.624-8.991a11.34 11.34 0 0 1 5.086.908l-1.816 9.082a14.582 14.582 0 0 0 -4.632-.726c-3.542 0-7.811 2.452-10.535 9.173v27.246h-10.445z"/><path d="m454.521 190.169c12.079 0 18.437 8.719 18.437 21.161a22.475 22.475 0 0 1 -.454 4.905h-28.336c.908 8.083 5.994 12.624 13.169 12.624a18.627 18.627 0 0 0 10.353-3.27l3.542 6.539a28.132 28.132 0 0 1 -15.257 4.814c-12.352 0-21.979-8.628-21.979-23.341.004-14.531 10.081-23.432 20.525-23.432zm9.355 19.436c0-7.084-3-11.353-9.082-11.353-5.268 0-9.809 3.905-10.717 11.353z"/><path d="m479.338 54.68h-4.3v-1.406h10.162v1.406h-4.338v10.92h-1.525zm7.951-1.406h2.089l2.088 5.02 1.245 3.454h.161l1.245-3.454 2.008-5.02h2.088v12.326h-1.526v-6.462l.2-3.936h-.161l-3.293 8.474h-1.366l-3.292-8.476h-.16l.2 3.936v6.464h-1.526z"/></g></svg>