<svg id="Layer_1" xmlns="http://www.w3.org/2000/svg" viewBox="0 0 250 65"><style>.st0{fill:#fff}</style><path class="st0" d="M32.8 23.02l-4.82-.04c-1.22-4.63-3.44-7.72-6.61-9.2-5.98-2.78-13.83.78-13.91.82l-2.14-4.52c.4-.19 9.98-4.64 18.15-.84 2.87 1.34 5.18 3.48 6.9 6.42 2.13-4.3 5.79-9.75 11.42-12.32 4.77-2.17 10.04-1.93 15.66.74L55.32 8.6c-4.28-2.03-8.02-2.26-11.44-.71C36.16 11.4 32.83 22.9 32.8 23.02zM217.1 63.12l-4.74-.88c-.4-4.76-2.04-8.19-4.89-10.19-5.45-3.83-13.77-1.64-13.86-1.62l-1.32-4.82c.43-.12 10.63-2.83 18.02 2.33 2.6 1.82 4.5 4.33 5.68 7.52 2.84-3.86 7.39-8.59 13.39-10.15 5.08-1.31 10.22-.15 15.3 3.45l-2.89 4.08c-3.87-2.74-7.51-3.62-11.14-2.69-8.22 2.1-13.5 12.86-13.55 12.97z"/></svg>