<?xml version="1.0" encoding="utf-8"?>
<!-- Generator: Adobe Illustrator 22.1.0, SVG Export Plug-In . SVG Version: 6.00 Build 0)  -->
<svg version="1.1" id="Layer_1" xmlns="http://www.w3.org/2000/svg" xmlns:xlink="http://www.w3.org/1999/xlink" x="0px" y="0px"
	 viewBox="0 0 1574 292.4" style="enable-background:new 0 0 1574 292.4;" xml:space="preserve">
<style type="text/css">
	.st0{fill:#F9D8B4;}
	.st1{fill:#F9C5A2;}
	.st2{fill:#FCEDDE;}
	.st3{fill:#C5B9F9;}
	.st4{fill:#F9D0B4;}
	.st5{fill:#F9F4F4;}
	.st6{fill:#E2DEFC;}
	.st7{fill:#F9A7A7;}
</style>
<path class="st0" d="M54.1,90.1h1463.1V292H54.1V90.1z"/>
<path class="st1" d="M52.7,0h1462.6v156.2H52.7V0z"/>
<path class="st2" d="M28,115.4c0.3,16.5-0.6,74.5-0.5,96.5L1521,242.7V8.4L28,115.4z"/>
<path class="st3" d="M1520.7,64.1v-3L38.3,19.6v27.6c0,2.3-0.3,14.4-0.5,28.3L1520.7,64.1L1520.7,64.1z"/>
<path class="st4" d="M66.9,42.5v2.4l1461.2,17V-6L66.9,42.5z"/>
<path class="st5" d="M19.8,132.5v22.6l1262.5-5L19.8,132.5z"/>
<path class="st6" d="M1547.4,238.3v-11.5l-838.9,13.9l838.9,4V238.3z"/>
<path class="st7" d="M1539,175L32.2,208.7l1506.8,9.7V175L1539,175z"/>
<path class="st5" d="M1553.4,69.7v57.7l-864.1-12.9L1553.4,69.7L1553.4,69.7z"/>
</svg>
