<svg id="Layer_1" xmlns="http://www.w3.org/2000/svg" viewBox="0 0 1574 604.6"><style>.st1{fill:#f9e7dc}.st7{fill:#f9f4f4}</style><path d="M54.1 402.3h1463.1v201.9H54.1V402.3z" fill="#f9d8b4"/><path class="st1" d="M52.7-.3h1462.6v468.7H52.7V-.3z"/><path d="M52.7 312.2h1462.6v156.2H52.7V312.2z" fill="#f9c5a2"/><path class="st1" d="M1525.8-.3V119l-35.6-1v260.3H52.5v-274h962.3L695.6 95 1506.9-.4l18.9.1z"/><path class="st1" d="M36.4 190.7V114l1503.5-29c-.1 20.3.3 84.8.3 114L36.4 190.7z"/><path d="M28 427.6c.3 16.5-.6 74.5-.5 96.5L1521 554.9V320.6L28 427.6z" fill="#fcedde"/><path d="M1520.7 376.3v-3L38.3 331.8v27.6c0 2.3-.3 14.4-.5 28.3l1482.9-11.4z" fill="#c5b9f9"/><path class="st1" d="M1547.8 319v-68.3L33.1 224.9c.1 18.1-.3 75.5-.3 101.6l1515-7.5z"/><path class="st1" d="M1555.4 318.9L18.6 301.5v31.9l1536.8-5v-9.5zm-24.3-156.7v-.5L24.4 149.9V172l1506.5-3.4c.1-3.2.2-5.8.2-6.4z"/><path d="M66.9 354.7v2.4l1461.2 17v-67.9L66.9 354.7z" fill="#f9d0b4"/><path d="M1341.4 573.2c0-125.5-101.7-227.2-227.2-227.2S886.9 447.7 886.9 573.2c0 10.5.7 20.8 2.1 31h450.3c1.3-10.1 2.1-20.5 2.1-31z" fill="#fcd077"/><path class="st7" d="M19.8 444.7v22.6l1262.5-5L19.8 444.7z"/><path d="M1547.4 550.5V539l-838.9 13.9 838.9 4v-6.4z" fill="#e2defc"/><path d="M1539 487.2L32.2 520.9l1506.8 9.7v-43.4z" fill="#f9a7a7"/><path class="st7" d="M1553.4 381.9v57.7l-864.1-12.9 864.1-44.8z"/></svg>