<svg id="Layer_1" xmlns="http://www.w3.org/2000/svg" viewBox="0 0 1545 615"><style>.st12{fill:#f9e7dc}.st18{fill:#f9f4f4}</style><path fill="#f9d8b4" d="M39.57 407.85h1463.09v201.91H39.57z"/><path class="st12" d="M38.23 5.23h1462.64v468.72H38.23z"/><path fill="#f9c5a2" d="M38.23 317.72h1462.64v156.24H38.23z"/><path class="st12" d="M1511.25 5.25v119.32l-35.6-1.04v260.29H38.02V109.8h962.31l-319.28-9.23 811.27-95.42z"/><path class="st12" d="M21.91 196.25v-42.74-33.93L1525.4 90.56c-.12 20.28.28 84.81.27 114.05L21.91 196.25z"/><path d="M13.54 433.13c.26 16.47-.63 74.5-.52 96.52l1493.43 30.84V326.13l-1492.91 107z" fill="#fcedde"/><path d="M1506.18 381.83v-2.99L23.82 337.35v27.56c0 2.29-.26 14.39-.47 28.31l1482.83-11.39z" fill="#c5b9f9"/><path class="st12" d="M1533.25 324.56v-38.07-30.22L18.58 230.43c.12 18.06-.28 75.54-.28 101.58l1514.95-7.45z"/><path class="st12" d="M1540.88 324.46L4.12 307.05v31.89l1536.75-5.02c.01-3.15.01-6.31.01-9.46zM1516.6 167.77c0-.1 0-.27.01-.5L9.87 155.42v22.05l1506.51-3.41c.1-3.11.22-5.69.22-6.29z"/><path d="M52.43 360.25v2.37l1461.22 16.99v-67.9L52.43 360.25z" fill="#f9d0b4"/><path d="M1326.86 578.81c0-125.5-101.74-227.25-227.25-227.25S872.37 453.3 872.37 578.81c0 10.5.73 20.83 2.11 30.96h450.28c1.37-10.13 2.1-20.46 2.1-30.96z" fill="#fcd077"/><path class="st18" d="M5.33 450.27v22.57l1262.51-5.05L5.33 450.27z"/><path d="M1532.88 556.03v-11.5l-838.89 13.91 838.89 4.01v-6.42z" fill="#e2defc"/><path d="M1524.52 492.8L17.72 526.5l1506.8 9.71V492.8z" fill="#f9a7a7"/><path class="st18" d="M1538.89 387.42v57.69l-864.13-12.9z"/></svg>