<svg id="Layer_1" xmlns="http://www.w3.org/2000/svg" viewBox="0 0 1574 604.6"><style>.st1{fill:#063760}</style><path d="M54.1 402.7h1463.1v201.9H54.1V402.7z" fill="#d19fdd"/><path class="st1" d="M52.7 0h1462.6v468.7H52.7V0z"/><path d="M52.7 312.5h1462.6v156.2H52.7V312.5z" fill="#4a2c7a"/><path class="st1" d="M1525.8.1v119.3l-35.6-1v260.3H52.5v-274h962.3l-319.3-9.2 809-95.2 21.3-.2z"/><path class="st1" d="M36.4 191.1v-76.6l1503.5-29c-.1 20.3.3 84.8.3 114.1L36.4 191.1z"/><path d="M28 427.9c.3 16.5-.6 74.5-.5 96.5L1521 555.3V320.9L28 427.9z" fill="#5a51b7"/><path d="M1520.7 376.6v-3L38.3 332.2v27.6c0 2.3-.3 14.4-.5 28.3l1482.9-11.5z" fill="#914e9b"/><path class="st1" d="M1547.8 319.4v-68.3L33.1 225.2c.1 18.1-.3 75.5-.3 101.6l1515-7.4z"/><path class="st1" d="M1555.4 319.3L18.6 301.9v31.9l1536.8-5v-9.5zm-24.3-156.7v-.5L24.4 150.2v22.1l1506.5-3.4c.1-3.1.2-5.7.2-6.3z"/><path d="M66.9 355.1v2.4l1461.2 17v-67.9L66.9 355.1z" fill="#ce5184"/><path d="M1341.4 573.6c0-125.5-101.7-227.2-227.2-227.2S886.9 448.1 886.9 573.6c0 10.5.7 20.8 2.1 31h450.3c1.3-10.1 2.1-20.5 2.1-31z" fill="#f47e76"/><path d="M19.8 445.1v22.6l1262.5-5L19.8 445.1z" fill="#f98fb0"/><path d="M1547.4 550.8v-11.5l-838.9 13.9 838.9 4v-6.4z" fill="#8f85cc"/><path d="M1539 487.6L32.2 521.3 1539 531v-43.4z" fill="#f7b07c"/><path d="M1553.4 382.2v57.7L689.3 427l864.1-44.8z" fill="#f27979"/></svg>